%TF.GenerationSoftware,KiCad,Pcbnew,8.0.6*%
%TF.CreationDate,2024-12-27T13:10:45+11:00*%
%TF.ProjectId,drone_remote,64726f6e-655f-4726-956d-6f74652e6b69,rev?*%
%TF.SameCoordinates,Original*%
%TF.FileFunction,Copper,L1,Top*%
%TF.FilePolarity,Positive*%
%FSLAX46Y46*%
G04 Gerber Fmt 4.6, Leading zero omitted, Abs format (unit mm)*
G04 Created by KiCad (PCBNEW 8.0.6) date 2024-12-27 13:10:45*
%MOMM*%
%LPD*%
G01*
G04 APERTURE LIST*
G04 Aperture macros list*
%AMRoundRect*
0 Rectangle with rounded corners*
0 $1 Rounding radius*
0 $2 $3 $4 $5 $6 $7 $8 $9 X,Y pos of 4 corners*
0 Add a 4 corners polygon primitive as box body*
4,1,4,$2,$3,$4,$5,$6,$7,$8,$9,$2,$3,0*
0 Add four circle primitives for the rounded corners*
1,1,$1+$1,$2,$3*
1,1,$1+$1,$4,$5*
1,1,$1+$1,$6,$7*
1,1,$1+$1,$8,$9*
0 Add four rect primitives between the rounded corners*
20,1,$1+$1,$2,$3,$4,$5,0*
20,1,$1+$1,$4,$5,$6,$7,0*
20,1,$1+$1,$6,$7,$8,$9,0*
20,1,$1+$1,$8,$9,$2,$3,0*%
G04 Aperture macros list end*
%TA.AperFunction,SMDPad,CuDef*%
%ADD10RoundRect,0.250000X0.450000X-0.262500X0.450000X0.262500X-0.450000X0.262500X-0.450000X-0.262500X0*%
%TD*%
%TA.AperFunction,SMDPad,CuDef*%
%ADD11RoundRect,0.100000X-0.130000X-0.100000X0.130000X-0.100000X0.130000X0.100000X-0.130000X0.100000X0*%
%TD*%
%TA.AperFunction,SMDPad,CuDef*%
%ADD12RoundRect,0.250000X-0.450000X0.262500X-0.450000X-0.262500X0.450000X-0.262500X0.450000X0.262500X0*%
%TD*%
%TA.AperFunction,SMDPad,CuDef*%
%ADD13RoundRect,0.162500X0.162500X-0.837500X0.162500X0.837500X-0.162500X0.837500X-0.162500X-0.837500X0*%
%TD*%
%TA.AperFunction,SMDPad,CuDef*%
%ADD14RoundRect,0.250000X0.250000X0.475000X-0.250000X0.475000X-0.250000X-0.475000X0.250000X-0.475000X0*%
%TD*%
%TA.AperFunction,SMDPad,CuDef*%
%ADD15RoundRect,0.250000X0.262500X0.450000X-0.262500X0.450000X-0.262500X-0.450000X0.262500X-0.450000X0*%
%TD*%
%TA.AperFunction,ComponentPad*%
%ADD16R,1.700000X1.700000*%
%TD*%
%TA.AperFunction,ComponentPad*%
%ADD17O,1.700000X1.700000*%
%TD*%
%TA.AperFunction,SMDPad,CuDef*%
%ADD18RoundRect,0.250000X-0.262500X-0.450000X0.262500X-0.450000X0.262500X0.450000X-0.262500X0.450000X0*%
%TD*%
%TA.AperFunction,SMDPad,CuDef*%
%ADD19RoundRect,0.250000X-0.250000X-0.475000X0.250000X-0.475000X0.250000X0.475000X-0.250000X0.475000X0*%
%TD*%
%TA.AperFunction,SMDPad,CuDef*%
%ADD20R,1.676400X0.355600*%
%TD*%
%TA.AperFunction,SMDPad,CuDef*%
%ADD21RoundRect,0.250000X0.475000X-0.250000X0.475000X0.250000X-0.475000X0.250000X-0.475000X-0.250000X0*%
%TD*%
%TA.AperFunction,SMDPad,CuDef*%
%ADD22RoundRect,0.218750X-0.256250X0.218750X-0.256250X-0.218750X0.256250X-0.218750X0.256250X0.218750X0*%
%TD*%
%TA.AperFunction,SMDPad,CuDef*%
%ADD23RoundRect,0.250000X-0.475000X0.250000X-0.475000X-0.250000X0.475000X-0.250000X0.475000X0.250000X0*%
%TD*%
%TA.AperFunction,ComponentPad*%
%ADD24C,1.498600*%
%TD*%
%TA.AperFunction,ComponentPad*%
%ADD25R,1.498600X1.498600*%
%TD*%
%TA.AperFunction,SMDPad,CuDef*%
%ADD26RoundRect,0.140000X0.140000X0.170000X-0.140000X0.170000X-0.140000X-0.170000X0.140000X-0.170000X0*%
%TD*%
%TA.AperFunction,SMDPad,CuDef*%
%ADD27RoundRect,0.100000X0.130000X0.100000X-0.130000X0.100000X-0.130000X-0.100000X0.130000X-0.100000X0*%
%TD*%
%TA.AperFunction,SMDPad,CuDef*%
%ADD28R,1.200000X0.400000*%
%TD*%
%TA.AperFunction,SMDPad,CuDef*%
%ADD29RoundRect,0.100000X-0.100000X0.130000X-0.100000X-0.130000X0.100000X-0.130000X0.100000X0.130000X0*%
%TD*%
%TA.AperFunction,SMDPad,CuDef*%
%ADD30RoundRect,0.075000X0.075000X-0.700000X0.075000X0.700000X-0.075000X0.700000X-0.075000X-0.700000X0*%
%TD*%
%TA.AperFunction,SMDPad,CuDef*%
%ADD31RoundRect,0.075000X0.700000X-0.075000X0.700000X0.075000X-0.700000X0.075000X-0.700000X-0.075000X0*%
%TD*%
%TA.AperFunction,SMDPad,CuDef*%
%ADD32RoundRect,0.243750X0.243750X0.456250X-0.243750X0.456250X-0.243750X-0.456250X0.243750X-0.456250X0*%
%TD*%
%TA.AperFunction,SMDPad,CuDef*%
%ADD33RoundRect,0.243750X-0.243750X-0.456250X0.243750X-0.456250X0.243750X0.456250X-0.243750X0.456250X0*%
%TD*%
%TA.AperFunction,ComponentPad*%
%ADD34R,2.000000X2.000000*%
%TD*%
%TA.AperFunction,ComponentPad*%
%ADD35C,2.000000*%
%TD*%
%TA.AperFunction,ComponentPad*%
%ADD36R,2.000000X3.200000*%
%TD*%
%TA.AperFunction,SMDPad,CuDef*%
%ADD37RoundRect,0.140000X-0.170000X0.140000X-0.170000X-0.140000X0.170000X-0.140000X0.170000X0.140000X0*%
%TD*%
%TA.AperFunction,SMDPad,CuDef*%
%ADD38RoundRect,0.140000X0.170000X-0.140000X0.170000X0.140000X-0.170000X0.140000X-0.170000X-0.140000X0*%
%TD*%
%TA.AperFunction,SMDPad,CuDef*%
%ADD39R,1.447800X0.889000*%
%TD*%
%TA.AperFunction,SMDPad,CuDef*%
%ADD40RoundRect,0.375000X-0.625000X-0.375000X0.625000X-0.375000X0.625000X0.375000X-0.625000X0.375000X0*%
%TD*%
%TA.AperFunction,SMDPad,CuDef*%
%ADD41RoundRect,0.500000X-0.500000X-1.400000X0.500000X-1.400000X0.500000X1.400000X-0.500000X1.400000X0*%
%TD*%
%TA.AperFunction,SMDPad,CuDef*%
%ADD42RoundRect,0.140000X-0.140000X-0.170000X0.140000X-0.170000X0.140000X0.170000X-0.140000X0.170000X0*%
%TD*%
%TA.AperFunction,SMDPad,CuDef*%
%ADD43RoundRect,0.100000X0.100000X-0.130000X0.100000X0.130000X-0.100000X0.130000X-0.100000X-0.130000X0*%
%TD*%
%TA.AperFunction,SMDPad,CuDef*%
%ADD44RoundRect,0.243750X0.456250X-0.243750X0.456250X0.243750X-0.456250X0.243750X-0.456250X-0.243750X0*%
%TD*%
%TA.AperFunction,SMDPad,CuDef*%
%ADD45R,0.508000X2.489200*%
%TD*%
%TA.AperFunction,SMDPad,CuDef*%
%ADD46R,2.006600X2.489200*%
%TD*%
%TA.AperFunction,ComponentPad*%
%ADD47C,1.397000*%
%TD*%
%TA.AperFunction,ComponentPad*%
%ADD48O,1.000000X1.800000*%
%TD*%
%TA.AperFunction,ComponentPad*%
%ADD49O,1.000000X2.100000*%
%TD*%
%TA.AperFunction,SMDPad,CuDef*%
%ADD50R,0.300000X1.150000*%
%TD*%
%TA.AperFunction,SMDPad,CuDef*%
%ADD51R,0.600000X1.150000*%
%TD*%
%TA.AperFunction,ViaPad*%
%ADD52C,0.700000*%
%TD*%
%TA.AperFunction,ViaPad*%
%ADD53C,0.600000*%
%TD*%
%TA.AperFunction,Conductor*%
%ADD54C,0.500000*%
%TD*%
%TA.AperFunction,Conductor*%
%ADD55C,0.300000*%
%TD*%
%TA.AperFunction,Conductor*%
%ADD56C,0.200000*%
%TD*%
G04 APERTURE END LIST*
D10*
%TO.P,R5,1*%
%TO.N,Net-(J6-Pin_8)*%
X124700000Y-81725000D03*
%TO.P,R5,2*%
%TO.N,GND*%
X124700000Y-79900000D03*
%TD*%
D11*
%TO.P,C20,1*%
%TO.N,/D-*%
X211593106Y-84842666D03*
%TO.P,C20,2*%
%TO.N,GND*%
X212233106Y-84842666D03*
%TD*%
D12*
%TO.P,R2,1*%
%TO.N,Net-(D6-A)*%
X204400000Y-102075000D03*
%TO.P,R2,2*%
%TO.N,/HB_LED*%
X204400000Y-103900000D03*
%TD*%
D13*
%TO.P,Q1,1,D*%
%TO.N,/V_BAT*%
X165000000Y-81800000D03*
%TO.P,Q1,2,G*%
%TO.N,/V_USB*%
X166900000Y-81800000D03*
%TO.P,Q1,3,S*%
%TO.N,+5V*%
X165950000Y-78380000D03*
%TD*%
D14*
%TO.P,C29,1*%
%TO.N,/ENC1_SW*%
X244100000Y-122650000D03*
%TO.P,C29,2*%
%TO.N,GND*%
X242200000Y-122650000D03*
%TD*%
D15*
%TO.P,R8,1*%
%TO.N,Net-(J1-CC2)*%
X179600000Y-78000000D03*
%TO.P,R8,2*%
%TO.N,GND*%
X177775000Y-78000000D03*
%TD*%
D16*
%TO.P,JP4,1,A*%
%TO.N,+3.3V*%
X147000000Y-115562500D03*
D17*
%TO.P,JP4,2,B*%
%TO.N,/BOOT0*%
X147000000Y-113022500D03*
%TD*%
D18*
%TO.P,R22,1*%
%TO.N,+3.3V*%
X242337500Y-125600000D03*
%TO.P,R22,2*%
%TO.N,/ENC1_SW*%
X244162500Y-125600000D03*
%TD*%
D19*
%TO.P,C27,1*%
%TO.N,GND*%
X225200000Y-128925000D03*
%TO.P,C27,2*%
%TO.N,/ENC1_A*%
X227100000Y-128925000D03*
%TD*%
D20*
%TO.P,U3,14,VCC*%
%TO.N,+3.3V*%
X173919400Y-125350001D03*
%TO.P,U3,13,6A*%
%TO.N,/SW5*%
X173919400Y-126000000D03*
%TO.P,U3,12,6Y*%
%TO.N,/PUSH_BTN4*%
X173919400Y-126650001D03*
%TO.P,U3,11,5A*%
%TO.N,unconnected-(U3-5A-Pad11)*%
X173919400Y-127300000D03*
%TO.P,U3,10,5Y*%
%TO.N,unconnected-(U3-5Y-Pad10)*%
X173919400Y-127950001D03*
%TO.P,U3,9,4A*%
%TO.N,unconnected-(U3-4A-Pad9)*%
X173919400Y-128600000D03*
%TO.P,U3,8,4Y*%
%TO.N,unconnected-(U3-4Y-Pad8)*%
X173919400Y-129250001D03*
%TO.P,U3,7,GND*%
%TO.N,GND*%
X168280600Y-129249999D03*
%TO.P,U3,6,3Y*%
%TO.N,/PUSH_BTN3*%
X168280600Y-128600000D03*
%TO.P,U3,5,3A*%
%TO.N,/SW4*%
X168280600Y-127949999D03*
%TO.P,U3,4,2Y*%
%TO.N,/PUSH_BTN2*%
X168280600Y-127300000D03*
%TO.P,U3,3,2A*%
%TO.N,/SW3*%
X168280600Y-126650001D03*
%TO.P,U3,2,1Y*%
%TO.N,/PUSH_BTN1*%
X168280600Y-126000000D03*
%TO.P,U3,1,1A*%
%TO.N,/SW2*%
X168280600Y-125349999D03*
%TD*%
D21*
%TO.P,C15,1*%
%TO.N,GND*%
X180100000Y-84350000D03*
%TO.P,C15,2*%
%TO.N,VBUS*%
X180100000Y-82450000D03*
%TD*%
D22*
%TO.P,L2,1*%
%TO.N,Net-(J3-VBUS)*%
X215650000Y-89375000D03*
%TO.P,L2,2*%
%TO.N,Net-(U6-VCC)*%
X215650000Y-90950000D03*
%TD*%
D23*
%TO.P,C25,2*%
%TO.N,/SW4*%
X140550000Y-132600000D03*
%TO.P,C25,1*%
%TO.N,GND*%
X140550000Y-130700000D03*
%TD*%
D24*
%TO.P,SW2,4,4*%
%TO.N,/SW2*%
X152699401Y-124550001D03*
%TO.P,SW2,3,3*%
%TO.N,GND*%
X152699401Y-131050002D03*
%TO.P,SW2,2,2*%
%TO.N,/SW2*%
X148199400Y-124550001D03*
D25*
%TO.P,SW2,1,1*%
%TO.N,GND*%
X148199400Y-131050002D03*
%TD*%
D10*
%TO.P,R3,1*%
%TO.N,/SWDIO*%
X180200000Y-97212500D03*
%TO.P,R3,2*%
%TO.N,+3.3V*%
X180200000Y-95387500D03*
%TD*%
D26*
%TO.P,C5,1*%
%TO.N,GND*%
X184927894Y-99305734D03*
%TO.P,C5,2*%
%TO.N,+3.3V*%
X183967894Y-99305734D03*
%TD*%
D22*
%TO.P,L1,1*%
%TO.N,+3.3VA*%
X192200000Y-117425000D03*
%TO.P,L1,2*%
%TO.N,+3.3V*%
X192200000Y-119000000D03*
%TD*%
D16*
%TO.P,J5,1,Pin_1*%
%TO.N,/I2C1_SDA*%
X120600000Y-95000000D03*
D17*
%TO.P,J5,2,Pin_2*%
%TO.N,/I2C1_SCL*%
X123140000Y-95000000D03*
%TO.P,J5,3,Pin_3*%
%TO.N,GND*%
X125680000Y-95000000D03*
%TO.P,J5,4,Pin_4*%
%TO.N,+3.3V*%
X128220000Y-95000000D03*
%TD*%
D16*
%TO.P,J8,1,Pin_1*%
%TO.N,unconnected-(J8-Pin_1-Pad1)*%
X251257106Y-91449266D03*
D17*
%TO.P,J8,2,Pin_2*%
%TO.N,unconnected-(J8-Pin_2-Pad2)*%
X251257106Y-93989266D03*
%TO.P,J8,3,Pin_3*%
%TO.N,unconnected-(J8-Pin_3-Pad3)*%
X251257106Y-96529266D03*
%TO.P,J8,4,Pin_4*%
%TO.N,unconnected-(J8-Pin_4-Pad4)*%
X251257106Y-99069266D03*
%TO.P,J8,5,Pin_5*%
%TO.N,unconnected-(J8-Pin_5-Pad5)*%
X251257106Y-101609266D03*
%TO.P,J8,6,Pin_6*%
%TO.N,unconnected-(J8-Pin_6-Pad6)*%
X251257106Y-104149266D03*
%TO.P,J8,7,Pin_7*%
%TO.N,unconnected-(J8-Pin_7-Pad7)*%
X251257106Y-106689266D03*
%TO.P,J8,8,Pin_8*%
%TO.N,unconnected-(J8-Pin_8-Pad8)*%
X251257106Y-109229266D03*
%TO.P,J8,9,Pin_9*%
%TO.N,unconnected-(J8-Pin_9-Pad9)*%
X251257106Y-111769266D03*
%TD*%
D15*
%TO.P,R24,1*%
%TO.N,/ENC2_C*%
X203500000Y-127500000D03*
%TO.P,R24,2*%
%TO.N,+3.3V*%
X201675000Y-127500000D03*
%TD*%
D21*
%TO.P,C33,1*%
%TO.N,GND*%
X164150000Y-117750000D03*
%TO.P,C33,2*%
%TO.N,/nRST*%
X164150000Y-115850000D03*
%TD*%
D10*
%TO.P,R13,1*%
%TO.N,/USBD+*%
X212093106Y-89642666D03*
%TO.P,R13,2*%
%TO.N,/D-*%
X212093106Y-87817666D03*
%TD*%
D24*
%TO.P,SW3,4,4*%
%TO.N,/SW3*%
X163699401Y-139050002D03*
%TO.P,SW3,3,3*%
%TO.N,GND*%
X157199400Y-139050002D03*
%TO.P,SW3,2,2*%
%TO.N,/SW3*%
X163699401Y-134550001D03*
D25*
%TO.P,SW3,1,1*%
%TO.N,GND*%
X157199400Y-134550001D03*
%TD*%
D12*
%TO.P,R12,1*%
%TO.N,/D+*%
X209793106Y-87817666D03*
%TO.P,R12,2*%
%TO.N,/USBD-*%
X209793106Y-89642666D03*
%TD*%
D16*
%TO.P,J2,1,Pin_1*%
%TO.N,GND*%
X173457106Y-77069266D03*
D17*
%TO.P,J2,2,Pin_2*%
%TO.N,+5V*%
X170917106Y-77069266D03*
%TD*%
D19*
%TO.P,C31,1*%
%TO.N,GND*%
X201600000Y-125100000D03*
%TO.P,C31,2*%
%TO.N,/ENC2_C*%
X203500000Y-125100000D03*
%TD*%
D27*
%TO.P,D2,1,A1*%
%TO.N,/USB_OTG_FS+*%
X185450606Y-83397557D03*
%TO.P,D2,2,A2*%
%TO.N,GND*%
X184810606Y-83397557D03*
%TD*%
D24*
%TO.P,SW5,4,4*%
%TO.N,/SW5*%
X148688802Y-149800001D03*
%TO.P,SW5,3,3*%
%TO.N,GND*%
X148688802Y-143300000D03*
%TO.P,SW5,2,2*%
%TO.N,/SW5*%
X153188803Y-149800001D03*
D25*
%TO.P,SW5,1,1*%
%TO.N,GND*%
X153188803Y-143300000D03*
%TD*%
D28*
%TO.P,U6,1,TXD*%
%TO.N,/USART_TX*%
X213400000Y-96935000D03*
%TO.P,U6,2,~{RTS}*%
%TO.N,unconnected-(U6-~{RTS}-Pad2)*%
X213400000Y-96300000D03*
%TO.P,U6,3,VCCIO*%
%TO.N,Net-(U6-3V3OUT)*%
X213400000Y-95665000D03*
%TO.P,U6,4,RXD*%
%TO.N,/USART_RX*%
X213400000Y-95030000D03*
%TO.P,U6,5,GND*%
%TO.N,GND*%
X213400000Y-94395000D03*
%TO.P,U6,6,~{CTS}*%
%TO.N,unconnected-(U6-~{CTS}-Pad6)*%
X213400000Y-93760000D03*
%TO.P,U6,7,CBUS2*%
%TO.N,unconnected-(U6-CBUS2-Pad7)*%
X213400000Y-93125000D03*
%TO.P,U6,8,USBDP*%
%TO.N,/USBD+*%
X213400000Y-92490000D03*
%TO.P,U6,9,USBDM*%
%TO.N,/USBD-*%
X208200000Y-92490000D03*
%TO.P,U6,10,3V3OUT*%
%TO.N,Net-(U6-3V3OUT)*%
X208200000Y-93125000D03*
%TO.P,U6,11,~{RESET}*%
X208200000Y-93760000D03*
%TO.P,U6,12,VCC*%
%TO.N,Net-(U6-VCC)*%
X208200000Y-94395000D03*
%TO.P,U6,13,GND*%
%TO.N,GND*%
X208200000Y-95030000D03*
%TO.P,U6,14,CBUS1*%
%TO.N,unconnected-(U6-CBUS1-Pad14)*%
X208200000Y-95665000D03*
%TO.P,U6,15,CBUS0*%
%TO.N,unconnected-(U6-CBUS0-Pad15)*%
X208200000Y-96300000D03*
%TO.P,U6,16,CBUS3*%
%TO.N,unconnected-(U6-CBUS3-Pad16)*%
X208200000Y-96935000D03*
%TD*%
D24*
%TO.P,SW4,4,4*%
%TO.N,/SW4*%
X137699401Y-135550001D03*
%TO.P,SW4,3,3*%
%TO.N,GND*%
X144199402Y-135550001D03*
%TO.P,SW4,2,2*%
%TO.N,/SW4*%
X137699401Y-140050002D03*
D25*
%TO.P,SW4,1,1*%
%TO.N,GND*%
X144199402Y-140050002D03*
%TD*%
D12*
%TO.P,R18,2*%
%TO.N,/SW5*%
X160719400Y-149750001D03*
%TO.P,R18,1*%
%TO.N,+3.3V*%
X160719400Y-147925001D03*
%TD*%
D21*
%TO.P,C17,1*%
%TO.N,+3.3V*%
X160600000Y-94600000D03*
%TO.P,C17,2*%
%TO.N,GND*%
X160600000Y-92700000D03*
%TD*%
D19*
%TO.P,C24,2*%
%TO.N,/SW3*%
X163769400Y-131850001D03*
%TO.P,C24,1*%
%TO.N,GND*%
X161869400Y-131850001D03*
%TD*%
D10*
%TO.P,R16,2*%
%TO.N,+3.3V*%
X162010529Y-123338422D03*
%TO.P,R16,1*%
%TO.N,/SW2*%
X162010529Y-125163422D03*
%TD*%
%TO.P,R1,1*%
%TO.N,GND*%
X151800000Y-115200000D03*
%TO.P,R1,2*%
%TO.N,/BOOT0*%
X151800000Y-113375000D03*
%TD*%
D14*
%TO.P,C19,1*%
%TO.N,GND*%
X217648106Y-87342666D03*
%TO.P,C19,2*%
%TO.N,Net-(J3-VBUS)*%
X215748106Y-87342666D03*
%TD*%
D27*
%TO.P,C21,1*%
%TO.N,/D+*%
X210568106Y-84842666D03*
%TO.P,C21,2*%
%TO.N,GND*%
X209928106Y-84842666D03*
%TD*%
D16*
%TO.P,J6,1,Pin_1*%
%TO.N,GND*%
X138350000Y-88100000D03*
D17*
%TO.P,J6,2,Pin_2*%
%TO.N,+3.3V*%
X135810000Y-88100000D03*
%TO.P,J6,3,Pin_3*%
%TO.N,/SPI3_SCK*%
X133270000Y-88100000D03*
%TO.P,J6,4,Pin_4*%
%TO.N,/SPI3_MOSI*%
X130730000Y-88100000D03*
%TO.P,J6,5,Pin_5*%
%TO.N,/ST7735_nRST*%
X128190000Y-88100000D03*
%TO.P,J6,6,Pin_6*%
%TO.N,/ST7735_DC*%
X125650000Y-88100000D03*
%TO.P,J6,7,Pin_7*%
%TO.N,/SPI3_nCS*%
X123110000Y-88100000D03*
%TO.P,J6,8,Pin_8*%
%TO.N,Net-(J6-Pin_8)*%
X120570000Y-88100000D03*
%TD*%
D29*
%TO.P,D10,2,A*%
%TO.N,Net-(D10-A)*%
X207400000Y-100407500D03*
%TO.P,D10,1,K*%
%TO.N,GND*%
X207400000Y-99767500D03*
%TD*%
D23*
%TO.P,C22,1*%
%TO.N,Net-(U6-3V3OUT)*%
X204955000Y-93092500D03*
%TO.P,C22,2*%
%TO.N,GND*%
X204955000Y-94992500D03*
%TD*%
D30*
%TO.P,U1,1,VBAT*%
%TO.N,+3.3V*%
X184700000Y-112850000D03*
%TO.P,U1,2,PC13*%
%TO.N,/PUSH_BTN2*%
X185200000Y-112850000D03*
%TO.P,U1,3,PC14*%
%TO.N,/PUSH_BTN3*%
X185700000Y-112850000D03*
%TO.P,U1,4,PC15*%
%TO.N,/PUSH_BTN4*%
X186200000Y-112850000D03*
%TO.P,U1,5,RCC_OSC_IN*%
%TO.N,/OSC_IN*%
X186700000Y-112850000D03*
%TO.P,U1,6,RCC_OSC_OUT*%
%TO.N,/OSC_OUT*%
X187200000Y-112850000D03*
%TO.P,U1,7,NRST*%
%TO.N,/nRST*%
X187700000Y-112850000D03*
%TO.P,U1,8,PC0*%
%TO.N,unconnected-(U1-PC0-Pad8)*%
X188200000Y-112850000D03*
%TO.P,U1,9,PC1*%
%TO.N,unconnected-(U1-PC1-Pad9)*%
X188700000Y-112850000D03*
%TO.P,U1,10,PC2*%
%TO.N,unconnected-(U1-PC2-Pad10)*%
X189200000Y-112850000D03*
%TO.P,U1,11,PC3*%
%TO.N,unconnected-(U1-PC3-Pad11)*%
X189700000Y-112850000D03*
%TO.P,U1,12,VSSA*%
%TO.N,GND*%
X190200000Y-112850000D03*
%TO.P,U1,13,VDDA*%
%TO.N,+3.3VA*%
X190700000Y-112850000D03*
%TO.P,U1,14,PA0*%
%TO.N,/TIM2_CH1*%
X191200000Y-112850000D03*
%TO.P,U1,15,PA1*%
%TO.N,/TIM2_CH2*%
X191700000Y-112850000D03*
%TO.P,U1,16,PA2*%
%TO.N,/ENC2_BTN*%
X192200000Y-112850000D03*
D31*
%TO.P,U1,17,PA3*%
%TO.N,/ENC1_BTN*%
X194125000Y-110925000D03*
%TO.P,U1,18,VSS*%
%TO.N,GND*%
X194125000Y-110425000D03*
%TO.P,U1,19,VDD*%
%TO.N,+3.3V*%
X194125000Y-109925000D03*
%TO.P,U1,20,PA4*%
%TO.N,/SPI1_nCS*%
X194125000Y-109425000D03*
%TO.P,U1,21,PA5*%
%TO.N,/SPI1_SCK*%
X194125000Y-108925000D03*
%TO.P,U1,22,PA6*%
%TO.N,/SPI1_MISO*%
X194125000Y-108425000D03*
%TO.P,U1,23,PA7*%
%TO.N,/SPI1_MOSI*%
X194125000Y-107925000D03*
%TO.P,U1,24,PC4*%
%TO.N,/RFM_EN*%
X194125000Y-107425000D03*
%TO.P,U1,25,PC5*%
%TO.N,/RFM_nRST*%
X194125000Y-106925000D03*
%TO.P,U1,26,PB0*%
%TO.N,/RFM_G0*%
X194125000Y-106425000D03*
%TO.P,U1,27,PB1*%
%TO.N,/ADC_VOLTAGE*%
X194125000Y-105925000D03*
%TO.P,U1,28,PB2*%
%TO.N,/MCU_LED*%
X194125000Y-105425000D03*
%TO.P,U1,29,PB10*%
%TO.N,/HB_LED*%
X194125000Y-104925000D03*
%TO.P,U1,30,VCAP1*%
%TO.N,Net-(U1-VCAP1)*%
X194125000Y-104425000D03*
%TO.P,U1,31,VSS*%
%TO.N,GND*%
X194125000Y-103925000D03*
%TO.P,U1,32,VDD*%
%TO.N,+3.3V*%
X194125000Y-103425000D03*
D30*
%TO.P,U1,33,PB12*%
%TO.N,unconnected-(U1-PB12-Pad33)*%
X192200000Y-101500000D03*
%TO.P,U1,34,PB13*%
%TO.N,unconnected-(U1-PB13-Pad34)*%
X191700000Y-101500000D03*
%TO.P,U1,35,PB14*%
%TO.N,unconnected-(U1-PB14-Pad35)*%
X191200000Y-101500000D03*
%TO.P,U1,36,PB15*%
%TO.N,unconnected-(U1-PB15-Pad36)*%
X190700000Y-101500000D03*
%TO.P,U1,37,PC6*%
%TO.N,unconnected-(U1-PC6-Pad37)*%
X190200000Y-101500000D03*
%TO.P,U1,38,PC7*%
%TO.N,unconnected-(U1-PC7-Pad38)*%
X189700000Y-101500000D03*
%TO.P,U1,39,PC8*%
%TO.N,unconnected-(U1-PC8-Pad39)*%
X189200000Y-101500000D03*
%TO.P,U1,40,PC9*%
%TO.N,unconnected-(U1-PC9-Pad40)*%
X188700000Y-101500000D03*
%TO.P,U1,41,PA8*%
%TO.N,unconnected-(U1-PA8-Pad41)*%
X188200000Y-101500000D03*
%TO.P,U1,42,PA9*%
%TO.N,/USART_TX*%
X187700000Y-101500000D03*
%TO.P,U1,43,PA10*%
%TO.N,/USART_RX*%
X187200000Y-101500000D03*
%TO.P,U1,44,PA11*%
%TO.N,/USB_OTG_FS-*%
X186700000Y-101500000D03*
%TO.P,U1,45,PA12*%
%TO.N,/USB_OTG_FS+*%
X186200000Y-101500000D03*
%TO.P,U1,46,PA13*%
%TO.N,/SWDIO*%
X185700000Y-101500000D03*
%TO.P,U1,47,VSS*%
%TO.N,GND*%
X185200000Y-101500000D03*
%TO.P,U1,48,VDD*%
%TO.N,+3.3V*%
X184700000Y-101500000D03*
D31*
%TO.P,U1,49,PA14*%
%TO.N,/SWCLK*%
X182775000Y-103425000D03*
%TO.P,U1,50,PA15*%
%TO.N,/SPI3_nCS*%
X182775000Y-103925000D03*
%TO.P,U1,51,PC10*%
%TO.N,/SPI3_SCK*%
X182775000Y-104425000D03*
%TO.P,U1,52,PC11*%
%TO.N,unconnected-(U1-PC11-Pad52)*%
X182775000Y-104925000D03*
%TO.P,U1,53,PC12*%
%TO.N,/SPI3_MOSI*%
X182775000Y-105425000D03*
%TO.P,U1,54,PD2*%
%TO.N,/ST7735_nRST*%
X182775000Y-105925000D03*
%TO.P,U1,55,PB3*%
%TO.N,unconnected-(U1-PB3-Pad55)*%
X182775000Y-106425000D03*
%TO.P,U1,56,PB4*%
%TO.N,/ST7735_DC*%
X182775000Y-106925000D03*
%TO.P,U1,57,PB5*%
%TO.N,/PUSH_BTN1*%
X182775000Y-107425000D03*
%TO.P,U1,58,PB6*%
%TO.N,/TIM4_CH1*%
X182775000Y-107925000D03*
%TO.P,U1,59,PB7*%
%TO.N,/TIM4_CH2*%
X182775000Y-108425000D03*
%TO.P,U1,60,BOOT0*%
%TO.N,/BOOT0*%
X182775000Y-108925000D03*
%TO.P,U1,61,PB8*%
%TO.N,/I2C1_SCL*%
X182775000Y-109425000D03*
%TO.P,U1,62,PB9*%
%TO.N,/I2C1_SDA*%
X182775000Y-109925000D03*
%TO.P,U1,63,VSS*%
%TO.N,GND*%
X182775000Y-110425000D03*
%TO.P,U1,64,VDD*%
%TO.N,+3.3V*%
X182775000Y-110925000D03*
%TD*%
D32*
%TO.P,F1,1*%
%TO.N,VBUS*%
X173100000Y-82400000D03*
%TO.P,F1,2*%
%TO.N,/V_USB*%
X171225000Y-82400000D03*
%TD*%
D33*
%TO.P,D4,1,K*%
%TO.N,/REG_IN*%
X165325000Y-86100000D03*
%TO.P,D4,2,A*%
%TO.N,/V_USB*%
X167200000Y-86100000D03*
%TD*%
D12*
%TO.P,R26,1*%
%TO.N,Net-(D9-A)*%
X225700000Y-83575000D03*
%TO.P,R26,2*%
%TO.N,+3.3V*%
X225700000Y-85400000D03*
%TD*%
D16*
%TO.P,J7,1,Pin_1*%
%TO.N,+3.3V*%
X225600000Y-91000000D03*
D17*
%TO.P,J7,2,Pin_2*%
%TO.N,GND*%
X225600000Y-93540000D03*
%TO.P,J7,3,Pin_3*%
%TO.N,/RFM_EN*%
X225600000Y-96080000D03*
%TO.P,J7,4,Pin_4*%
%TO.N,/SPI1_SCK*%
X225600000Y-98620000D03*
%TO.P,J7,5,Pin_5*%
%TO.N,/SPI1_MISO*%
X225600000Y-101160000D03*
%TO.P,J7,6,Pin_6*%
%TO.N,/SPI1_MOSI*%
X225600000Y-103700000D03*
%TO.P,J7,7,Pin_7*%
%TO.N,/SPI1_nCS*%
X225600000Y-106240000D03*
%TO.P,J7,8,Pin_8*%
%TO.N,/RFM_nRST*%
X225600000Y-108780000D03*
%TO.P,J7,9,Pin_9*%
%TO.N,/RFM_G0*%
X225600000Y-111320000D03*
%TD*%
D18*
%TO.P,R7,1*%
%TO.N,Net-(J1-CC1)*%
X192975606Y-78000166D03*
%TO.P,R7,2*%
%TO.N,GND*%
X194800606Y-78000166D03*
%TD*%
D34*
%TO.P,SW6,A,A*%
%TO.N,/ENC1_C*%
X239000000Y-131700000D03*
D35*
%TO.P,SW6,B,B*%
%TO.N,/ENC1_A*%
X234000000Y-131700000D03*
%TO.P,SW6,C,C*%
%TO.N,GND*%
X236500000Y-131700000D03*
D36*
%TO.P,SW6,MP*%
%TO.N,N/C*%
X242100000Y-139200000D03*
X230900000Y-139200000D03*
D35*
%TO.P,SW6,S1,S1*%
%TO.N,/ENC1_SW*%
X234000000Y-146200000D03*
%TO.P,SW6,S2,S2*%
%TO.N,GND*%
X239000000Y-146200000D03*
%TD*%
D15*
%TO.P,R17,2*%
%TO.N,+3.3V*%
X161806900Y-128250001D03*
%TO.P,R17,1*%
%TO.N,/SW3*%
X163631900Y-128250001D03*
%TD*%
D26*
%TO.P,C14,1*%
%TO.N,GND*%
X187010000Y-120375000D03*
%TO.P,C14,2*%
%TO.N,/OSC_IN*%
X186050000Y-120375000D03*
%TD*%
D21*
%TO.P,C26,2*%
%TO.N,GND*%
X157719400Y-147750001D03*
%TO.P,C26,1*%
%TO.N,/SW5*%
X157719400Y-149650001D03*
%TD*%
D25*
%TO.P,SW1,1,1*%
%TO.N,/nRST*%
X171600000Y-114000000D03*
D24*
%TO.P,SW1,2,2*%
%TO.N,GND*%
X171600000Y-120500001D03*
%TO.P,SW1,3,3*%
%TO.N,/nRST*%
X167099999Y-114000000D03*
%TO.P,SW1,4,4*%
%TO.N,GND*%
X167099999Y-120500001D03*
%TD*%
D11*
%TO.P,D1,1,A1*%
%TO.N,/USB_OTG_FS-*%
X186900606Y-83400166D03*
%TO.P,D1,2,A2*%
%TO.N,GND*%
X187540606Y-83400166D03*
%TD*%
D37*
%TO.P,C6,1*%
%TO.N,GND*%
X180400000Y-110750000D03*
%TO.P,C6,2*%
%TO.N,+3.3V*%
X180400000Y-111710000D03*
%TD*%
D38*
%TO.P,C3,1*%
%TO.N,GND*%
X196875000Y-111485000D03*
%TO.P,C3,2*%
%TO.N,+3.3V*%
X196875000Y-110525000D03*
%TD*%
D15*
%TO.P,R11,1*%
%TO.N,/ADC_VOLTAGE*%
X191200000Y-89500000D03*
%TO.P,R11,2*%
%TO.N,GND*%
X189375000Y-89500000D03*
%TD*%
%TO.P,R20,1*%
%TO.N,/ENC1_A*%
X227125000Y-131325000D03*
%TO.P,R20,2*%
%TO.N,+3.3V*%
X225300000Y-131325000D03*
%TD*%
D16*
%TO.P,JP1,1,A*%
%TO.N,Net-(J6-Pin_8)*%
X120600000Y-81800000D03*
D17*
%TO.P,JP1,2,B*%
%TO.N,+3.3V*%
X120600000Y-79260000D03*
%TD*%
D37*
%TO.P,C9,1*%
%TO.N,+3.3VA*%
X195500000Y-120500000D03*
%TO.P,C9,2*%
%TO.N,GND*%
X195500000Y-121460000D03*
%TD*%
D39*
%TO.P,X1,1,1*%
%TO.N,/OSC_IN*%
X186579600Y-124875000D03*
%TO.P,X1,2,2*%
%TO.N,GND*%
X191050000Y-124875000D03*
%TO.P,X1,3,3*%
%TO.N,/OSC_OUT*%
X191050000Y-122375000D03*
%TO.P,X1,4,4*%
%TO.N,GND*%
X186579600Y-122375000D03*
%TD*%
D14*
%TO.P,C32,1*%
%TO.N,GND*%
X214650000Y-127200000D03*
%TO.P,C32,2*%
%TO.N,/ENC2_SW*%
X212750000Y-127200000D03*
%TD*%
D40*
%TO.P,U2,1,VI*%
%TO.N,/REG_IN*%
X165550000Y-89100000D03*
%TO.P,U2,2,GND*%
%TO.N,GND*%
X165550000Y-91400000D03*
D41*
X171850000Y-91400000D03*
D40*
%TO.P,U2,3,VO*%
%TO.N,+3.3V*%
X165550000Y-93700000D03*
%TD*%
D19*
%TO.P,C28,1*%
%TO.N,/ENC1_C*%
X235700000Y-122450000D03*
%TO.P,C28,2*%
%TO.N,GND*%
X237600000Y-122450000D03*
%TD*%
D15*
%TO.P,R23,1*%
%TO.N,/ENC2_A*%
X197412500Y-129700000D03*
%TO.P,R23,2*%
%TO.N,+3.3V*%
X195587500Y-129700000D03*
%TD*%
D37*
%TO.P,C10,1*%
%TO.N,+3.3V*%
X194000000Y-120440000D03*
%TO.P,C10,2*%
%TO.N,GND*%
X194000000Y-121400000D03*
%TD*%
D18*
%TO.P,R10,1*%
%TO.N,/REG_IN*%
X189287500Y-92550000D03*
%TO.P,R10,2*%
%TO.N,/ADC_VOLTAGE*%
X191112500Y-92550000D03*
%TD*%
%TO.P,R25,1*%
%TO.N,/ENC2_SW*%
X212775000Y-129600000D03*
%TO.P,R25,2*%
%TO.N,+3.3V*%
X214600000Y-129600000D03*
%TD*%
D23*
%TO.P,C16,1*%
%TO.N,/REG_IN*%
X160600000Y-88700000D03*
%TO.P,C16,2*%
%TO.N,GND*%
X160600000Y-90600000D03*
%TD*%
D42*
%TO.P,C13,1*%
%TO.N,GND*%
X189590000Y-120375000D03*
%TO.P,C13,2*%
%TO.N,/OSC_OUT*%
X190550000Y-120375000D03*
%TD*%
%TO.P,C7,1*%
%TO.N,GND*%
X183550000Y-117375000D03*
%TO.P,C7,2*%
%TO.N,+3.3V*%
X184510000Y-117375000D03*
%TD*%
D20*
%TO.P,U4,1,1A*%
%TO.N,/ENC1_A*%
X206838800Y-121300002D03*
%TO.P,U4,2,1Y*%
%TO.N,/TIM4_CH1*%
X206838800Y-120650001D03*
%TO.P,U4,3,2A*%
%TO.N,/ENC1_C*%
X206838800Y-120000000D03*
%TO.P,U4,4,2Y*%
%TO.N,/TIM4_CH2*%
X206838800Y-119350001D03*
%TO.P,U4,5,3A*%
%TO.N,/ENC1_SW*%
X206838800Y-118700002D03*
%TO.P,U4,6,3Y*%
%TO.N,/ENC1_BTN*%
X206838800Y-118050001D03*
%TO.P,U4,7,GND*%
%TO.N,GND*%
X206838800Y-117400002D03*
%TO.P,U4,8,4Y*%
%TO.N,/ENC2_BTN*%
X201200000Y-117400000D03*
%TO.P,U4,9,4A*%
%TO.N,/ENC2_SW*%
X201200000Y-118050001D03*
%TO.P,U4,10,5Y*%
%TO.N,/TIM2_CH2*%
X201200000Y-118700000D03*
%TO.P,U4,11,5A*%
%TO.N,/ENC2_C*%
X201200000Y-119350001D03*
%TO.P,U4,12,6Y*%
%TO.N,/TIM2_CH1*%
X201200000Y-120000000D03*
%TO.P,U4,13,6A*%
%TO.N,/ENC2_A*%
X201200000Y-120650001D03*
%TO.P,U4,14,VCC*%
%TO.N,+3.3V*%
X201200000Y-121300000D03*
%TD*%
D29*
%TO.P,D6,1,K*%
%TO.N,GND*%
X204400000Y-99675000D03*
%TO.P,D6,2,A*%
%TO.N,Net-(D6-A)*%
X204400000Y-100315000D03*
%TD*%
D43*
%TO.P,D3,1,A1*%
%TO.N,VBUS*%
X176000000Y-82265000D03*
%TO.P,D3,2,A2*%
%TO.N,GND*%
X176000000Y-81625000D03*
%TD*%
D29*
%TO.P,D9,1,K*%
%TO.N,GND*%
X225700000Y-81175000D03*
%TO.P,D9,2,A*%
%TO.N,Net-(D9-A)*%
X225700000Y-81815000D03*
%TD*%
D42*
%TO.P,C8,1*%
%TO.N,GND*%
X189740000Y-115200000D03*
%TO.P,C8,2*%
%TO.N,+3.3VA*%
X190700000Y-115200000D03*
%TD*%
D15*
%TO.P,R21,1*%
%TO.N,+3.3V*%
X237562500Y-125500000D03*
%TO.P,R21,2*%
%TO.N,/ENC1_C*%
X235737500Y-125500000D03*
%TD*%
%TO.P,R4,1*%
%TO.N,/SWCLK*%
X163125000Y-99900000D03*
%TO.P,R4,2*%
%TO.N,+3.3V*%
X161300000Y-99900000D03*
%TD*%
D44*
%TO.P,D5,1,K*%
%TO.N,/REG_IN*%
X160600000Y-83975000D03*
%TO.P,D5,2,A*%
%TO.N,/V_BAT*%
X160600000Y-82100000D03*
%TD*%
D38*
%TO.P,C4,1*%
%TO.N,GND*%
X196020594Y-103534362D03*
%TO.P,C4,2*%
%TO.N,+3.3V*%
X196020594Y-102574362D03*
%TD*%
D34*
%TO.P,SW7,A,A*%
%TO.N,/ENC2_C*%
X209600000Y-132300000D03*
D35*
%TO.P,SW7,B,B*%
%TO.N,/ENC2_A*%
X204600000Y-132300000D03*
%TO.P,SW7,C,C*%
%TO.N,GND*%
X207100000Y-132300000D03*
D36*
%TO.P,SW7,MP*%
%TO.N,N/C*%
X212700000Y-139800000D03*
X201500000Y-139800000D03*
D35*
%TO.P,SW7,S1,S1*%
%TO.N,/ENC2_SW*%
X204600000Y-146800000D03*
%TO.P,SW7,S2,S2*%
%TO.N,GND*%
X209600000Y-146800000D03*
%TD*%
D19*
%TO.P,C1,1*%
%TO.N,Net-(U1-VCAP1)*%
X199075000Y-103725000D03*
%TO.P,C1,2*%
%TO.N,GND*%
X200975000Y-103725000D03*
%TD*%
D45*
%TO.P,J3,1,VBUS*%
%TO.N,Net-(J3-VBUS)*%
X212328706Y-81242666D03*
%TO.P,J3,2,D-*%
%TO.N,/D-*%
X211515906Y-81242666D03*
%TO.P,J3,3,D+*%
%TO.N,/D+*%
X210703106Y-81242666D03*
%TO.P,J3,4,ID*%
%TO.N,unconnected-(J3-ID-Pad4)*%
X209890306Y-81242666D03*
%TO.P,J3,5,GND*%
%TO.N,GND*%
X209077506Y-81242666D03*
D46*
%TO.P,J3,6,Shield*%
%TO.N,unconnected-(J3-Shield-Pad6)*%
X215148106Y-81242666D03*
%TO.P,J3,7*%
%TO.N,N/C*%
X206258106Y-81242666D03*
D47*
%TO.P,J3,8*%
X212912906Y-78778866D03*
%TO.P,J3,9*%
X208493306Y-78778866D03*
D46*
%TO.P,J3,10*%
X215148106Y-75756266D03*
%TO.P,J3,11*%
X206258106Y-75756266D03*
%TD*%
D48*
%TO.P,J1,SH4,SHIELD__3*%
%TO.N,GND*%
X181865606Y-75920166D03*
%TO.P,J1,SH3,SHIELD__2*%
X190505606Y-75920166D03*
D49*
%TO.P,J1,SH2,SHIELD__1*%
X181865606Y-80100166D03*
%TO.P,J1,SH1,SHIELD*%
X190505606Y-80100166D03*
D50*
%TO.P,J1,B8,SBU2*%
%TO.N,unconnected-(J1-SBU2-PadB8)*%
X187935606Y-80675166D03*
%TO.P,J1,B7,DN2*%
%TO.N,/USB_OTG_FS-*%
X186935606Y-80675166D03*
%TO.P,J1,B6,DP2*%
%TO.N,/USB_OTG_FS+*%
X185435606Y-80675166D03*
%TO.P,J1,B5,CC2*%
%TO.N,Net-(J1-CC2)*%
X184435606Y-80675166D03*
D51*
%TO.P,J1,B4_A9,VBUS__1*%
%TO.N,unconnected-(J1-VBUS__1-PadB4_A9)*%
X183785606Y-80675166D03*
%TO.P,J1,B1_A12,GND__1*%
%TO.N,GND*%
X182985606Y-80675166D03*
D50*
%TO.P,J1,A8,SBU1*%
%TO.N,unconnected-(J1-SBU1-PadA8)*%
X184935606Y-80675166D03*
%TO.P,J1,A7,DN1*%
%TO.N,unconnected-(J1-DN1-PadA7)*%
X185935606Y-80675166D03*
%TO.P,J1,A6,DP1*%
%TO.N,unconnected-(J1-DP1-PadA6)*%
X186435606Y-80675166D03*
%TO.P,J1,A5,CC1*%
%TO.N,Net-(J1-CC1)*%
X187435606Y-80675166D03*
D51*
%TO.P,J1,A4_B9,VBUS*%
%TO.N,VBUS*%
X188585606Y-80675166D03*
%TO.P,J1,A1_B12,GND*%
%TO.N,GND*%
X189385606Y-80675166D03*
%TD*%
D23*
%TO.P,C23,2*%
%TO.N,/SW2*%
X156519400Y-125150001D03*
%TO.P,C23,1*%
%TO.N,GND*%
X156519400Y-123250001D03*
%TD*%
D16*
%TO.P,J4,1,Pin_1*%
%TO.N,+3.3V*%
X177300000Y-99800000D03*
D17*
%TO.P,J4,2,Pin_2*%
%TO.N,/SWDIO*%
X174760000Y-99800000D03*
%TO.P,J4,3,Pin_3*%
%TO.N,/SWCLK*%
X172220000Y-99800000D03*
%TO.P,J4,4,Pin_4*%
%TO.N,/nRST*%
X169680000Y-99800000D03*
%TO.P,J4,5,Pin_5*%
%TO.N,GND*%
X167140000Y-99800000D03*
%TD*%
D10*
%TO.P,R19,2*%
%TO.N,+3.3V*%
X137550000Y-130700000D03*
%TO.P,R19,1*%
%TO.N,/SW4*%
X137550000Y-132525000D03*
%TD*%
D42*
%TO.P,C2,1*%
%TO.N,GND*%
X183570000Y-114875000D03*
%TO.P,C2,2*%
%TO.N,+3.3V*%
X184530000Y-114875000D03*
%TD*%
D19*
%TO.P,C30,1*%
%TO.N,GND*%
X195600000Y-132300000D03*
%TO.P,C30,2*%
%TO.N,/ENC2_A*%
X197500000Y-132300000D03*
%TD*%
D12*
%TO.P,R6,2*%
%TO.N,/MCU_LED*%
X207400000Y-103900000D03*
%TO.P,R6,1*%
%TO.N,Net-(D10-A)*%
X207400000Y-102075000D03*
%TD*%
D52*
%TO.N,GND*%
X180100000Y-85400000D03*
%TO.N,/REG_IN*%
X187800000Y-92600000D03*
X184800000Y-92550000D03*
%TO.N,+3.3V*%
X181900000Y-98650000D03*
X179900000Y-100700000D03*
X200550000Y-99500000D03*
X208800000Y-99300000D03*
X198112500Y-124000000D03*
X196550000Y-124000000D03*
X194050000Y-122900000D03*
X192650000Y-121250000D03*
X185000000Y-116150000D03*
X179350000Y-113300000D03*
%TO.N,GND*%
X237500000Y-120550000D03*
%TO.N,+3.3V*%
X242600000Y-128350000D03*
X246100000Y-128450000D03*
X196200000Y-127350000D03*
X198800000Y-127350000D03*
X192550000Y-127400000D03*
X189650000Y-127400000D03*
X159350000Y-123650000D03*
X159400000Y-126500000D03*
X177300000Y-125000000D03*
X178900000Y-126650000D03*
X165750000Y-146300000D03*
X164150000Y-144600000D03*
%TO.N,GND*%
X157650000Y-146750000D03*
%TO.N,+3.3V*%
X144200000Y-94550000D03*
X149950000Y-94600000D03*
%TO.N,Net-(U6-VCC)*%
X211750000Y-92400000D03*
X213350000Y-91050000D03*
%TO.N,GND*%
X204950000Y-96000000D03*
X197700000Y-111600000D03*
X190250000Y-82100000D03*
X168300000Y-130650000D03*
X162550000Y-117850000D03*
X151900000Y-116400000D03*
X156500000Y-121950000D03*
X190200000Y-111550000D03*
X186550000Y-123400000D03*
X191050000Y-126100000D03*
X207150000Y-134300000D03*
X200500000Y-125050000D03*
X208250000Y-117350000D03*
X224450000Y-127500000D03*
X239000000Y-148450000D03*
X236500000Y-134150000D03*
X167150000Y-102100000D03*
X184950000Y-98600000D03*
X173350000Y-91400000D03*
X227750000Y-93550000D03*
X218850000Y-87350000D03*
X212950000Y-85700000D03*
X224800000Y-81150000D03*
X195950000Y-78000000D03*
X173500000Y-74600000D03*
X125650000Y-92500000D03*
X139300000Y-90350000D03*
X124750000Y-78650000D03*
X184150000Y-110400000D03*
%TO.N,/TIM4_CH1*%
X188900000Y-107900000D03*
%TO.N,/TIM4_CH2*%
X191250000Y-109000000D03*
%TO.N,/ADC_VOLTAGE*%
X194500000Y-96000000D03*
X194200000Y-99800000D03*
%TO.N,/PUSH_BTN1*%
X177200000Y-114700000D03*
%TO.N,/BOOT0*%
X154700000Y-113200000D03*
X156900000Y-108400000D03*
%TO.N,/PUSH_BTN1*%
X177700000Y-107700000D03*
%TO.N,/SPI1_MISO*%
X216000000Y-102600000D03*
X216000000Y-104900000D03*
D53*
%TO.N,GND*%
X209100000Y-83100000D03*
%TO.N,VBUS*%
X182400000Y-82300000D03*
X188600000Y-82300000D03*
%TO.N,/TIM4_CH2*%
X185800000Y-109000000D03*
%TO.N,/TIM4_CH1*%
X186000000Y-107900000D03*
%TD*%
D54*
%TO.N,GND*%
X180100000Y-84350000D02*
X180100000Y-85400000D01*
%TO.N,/REG_IN*%
X181300000Y-89050000D02*
X165600000Y-89050000D01*
X184800000Y-92550000D02*
X181300000Y-89050000D01*
X165600000Y-89050000D02*
X165550000Y-89100000D01*
X187850000Y-92550000D02*
X187800000Y-92600000D01*
X189287500Y-92550000D02*
X187850000Y-92550000D01*
D55*
%TO.N,/ADC_VOLTAGE*%
X191112500Y-92612500D02*
X194500000Y-96000000D01*
X191112500Y-92550000D02*
X191112500Y-92612500D01*
X191112500Y-89587500D02*
X191200000Y-89500000D01*
X191112500Y-92550000D02*
X191112500Y-89587500D01*
%TO.N,+3.3V*%
X178175000Y-93700000D02*
X165550000Y-93700000D01*
X180200000Y-95387500D02*
X179862500Y-95387500D01*
X179862500Y-95387500D02*
X178175000Y-93700000D01*
D54*
X182606250Y-97943750D02*
X182756250Y-97943750D01*
D55*
X182756250Y-97943750D02*
X180200000Y-95387500D01*
X183967894Y-99155394D02*
X182756250Y-97943750D01*
D54*
X181900000Y-98650000D02*
X182606250Y-97943750D01*
X179000000Y-99800000D02*
X179900000Y-100700000D01*
X177300000Y-99800000D02*
X179000000Y-99800000D01*
D55*
X183967894Y-99305734D02*
X183967894Y-99155394D01*
D54*
X200550000Y-99500000D02*
X199094956Y-99500000D01*
X212735000Y-99300000D02*
X208800000Y-99300000D01*
X199094956Y-99500000D02*
X196020594Y-102574362D01*
X221035000Y-91000000D02*
X212735000Y-99300000D01*
X225600000Y-91000000D02*
X221035000Y-91000000D01*
D55*
X198112500Y-124000000D02*
X198750000Y-124000000D01*
D54*
X198800000Y-127350000D02*
X198800000Y-124050000D01*
D55*
X195450000Y-122900000D02*
X196550000Y-124000000D01*
X194050000Y-122900000D02*
X195450000Y-122900000D01*
X198750000Y-124000000D02*
X198800000Y-124050000D01*
X192200000Y-120800000D02*
X192650000Y-121250000D01*
X192200000Y-119000000D02*
X192200000Y-120800000D01*
D54*
X198800000Y-124050000D02*
X198800000Y-123700000D01*
D55*
X178900000Y-112850000D02*
X178900000Y-111710000D01*
X179350000Y-113300000D02*
X178900000Y-112850000D01*
X178900000Y-111710000D02*
X160240000Y-111710000D01*
X180400000Y-111710000D02*
X178900000Y-111710000D01*
X184510000Y-116150000D02*
X184510000Y-114895000D01*
X184510000Y-117375000D02*
X184510000Y-116150000D01*
X184510000Y-116150000D02*
X185000000Y-116150000D01*
X160240000Y-111710000D02*
X151693750Y-120256250D01*
D54*
X151693750Y-120256250D02*
X152587500Y-121150000D01*
X147000000Y-115562500D02*
X151693750Y-120256250D01*
X227038478Y-91000000D02*
X225600000Y-91000000D01*
X239200000Y-111250000D02*
X239200000Y-103161522D01*
X247650000Y-119700000D02*
X239200000Y-111250000D01*
X239200000Y-103161522D02*
X227038478Y-91000000D01*
X247650000Y-128450000D02*
X247650000Y-119700000D01*
%TO.N,GND*%
X237600000Y-120650000D02*
X237500000Y-120550000D01*
X237600000Y-122450000D02*
X237600000Y-120650000D01*
%TO.N,+3.3V*%
X242600000Y-125862500D02*
X242337500Y-125600000D01*
X242600000Y-128350000D02*
X242600000Y-125862500D01*
X247650000Y-128450000D02*
X246100000Y-128450000D01*
X247650000Y-147100000D02*
X247650000Y-128450000D01*
X245500000Y-149250000D02*
X247650000Y-147100000D01*
X216700000Y-149250000D02*
X245500000Y-149250000D01*
X215700000Y-148250000D02*
X216700000Y-149250000D01*
D55*
%TO.N,/ENC1_SW*%
X244162500Y-133562500D02*
X244325000Y-133725000D01*
X244162500Y-125600000D02*
X244162500Y-133562500D01*
X244100000Y-125537500D02*
X244162500Y-125600000D01*
X244100000Y-122650000D02*
X244100000Y-125537500D01*
X240150002Y-118700002D02*
X244100000Y-122650000D01*
X206838800Y-118700002D02*
X240150002Y-118700002D01*
%TO.N,/ENC1_C*%
X233900000Y-120650000D02*
X233900000Y-120000000D01*
X235700000Y-122450000D02*
X233900000Y-120650000D01*
X235737500Y-122487500D02*
X235700000Y-122450000D01*
X235737500Y-125500000D02*
X235737500Y-122487500D01*
X239000000Y-128762500D02*
X235737500Y-125500000D01*
X239000000Y-131700000D02*
X239000000Y-128762500D01*
D54*
%TO.N,GND*%
X237800000Y-122650000D02*
X237600000Y-122450000D01*
X242200000Y-122650000D02*
X237800000Y-122650000D01*
%TO.N,+3.3V*%
X237662500Y-125600000D02*
X237562500Y-125500000D01*
X242337500Y-125600000D02*
X237662500Y-125600000D01*
X216325000Y-131325000D02*
X225300000Y-131325000D01*
X214600000Y-129600000D02*
X216325000Y-131325000D01*
X167700000Y-148250000D02*
X215700000Y-148250000D01*
X225300000Y-138650000D02*
X225300000Y-131325000D01*
X165750000Y-146300000D02*
X167700000Y-148250000D01*
X215700000Y-148250000D02*
X225300000Y-138650000D01*
X198800000Y-123700000D02*
X201200000Y-121300000D01*
X201525000Y-127350000D02*
X201675000Y-127500000D01*
X198800000Y-127350000D02*
X201525000Y-127350000D01*
X196150000Y-127400000D02*
X196200000Y-127350000D01*
X192550000Y-127400000D02*
X196150000Y-127400000D01*
X193287500Y-127400000D02*
X195587500Y-129700000D01*
X192550000Y-127400000D02*
X193287500Y-127400000D01*
X179650000Y-127400000D02*
X189650000Y-127400000D01*
X178900000Y-126650000D02*
X179650000Y-127400000D01*
X161698951Y-123650000D02*
X162010529Y-123338422D01*
X159350000Y-123650000D02*
X161698951Y-123650000D01*
X161150001Y-128250001D02*
X159400000Y-126500000D01*
X161806900Y-128250001D02*
X161150001Y-128250001D01*
X174269401Y-125000000D02*
X173919400Y-125350001D01*
X177300000Y-125000000D02*
X174269401Y-125000000D01*
X178900000Y-133150000D02*
X178900000Y-126650000D01*
X165750000Y-146300000D02*
X178900000Y-133150000D01*
X160824999Y-147925001D02*
X164150000Y-144600000D01*
X160719400Y-147925001D02*
X160824999Y-147925001D01*
X158044399Y-145250000D02*
X160719400Y-147925001D01*
X136400000Y-145250000D02*
X158044399Y-145250000D01*
X136400000Y-131850000D02*
X136400000Y-145250000D01*
X137550000Y-130700000D02*
X136400000Y-131850000D01*
%TO.N,GND*%
X157719400Y-146819400D02*
X157650000Y-146750000D01*
X157719400Y-147750001D02*
X157719400Y-146819400D01*
%TO.N,+3.3V*%
X137550000Y-116800000D02*
X137550000Y-130700000D01*
X138562500Y-115787500D02*
X137550000Y-116800000D01*
X138562500Y-115562500D02*
X138562500Y-115787500D01*
X159822107Y-121150000D02*
X162010529Y-123338422D01*
X152587500Y-121150000D02*
X159822107Y-121150000D01*
X138562500Y-115562500D02*
X147000000Y-115562500D01*
X119270000Y-96270000D02*
X138562500Y-115562500D01*
X119270000Y-88638478D02*
X119270000Y-96270000D01*
X128220000Y-93770000D02*
X128220000Y-95000000D01*
X126150000Y-91700000D02*
X128220000Y-93770000D01*
X119270000Y-88638478D02*
X122331522Y-91700000D01*
X119270000Y-80590000D02*
X119270000Y-88638478D01*
X122331522Y-91700000D02*
X126150000Y-91700000D01*
X120600000Y-79260000D02*
X119270000Y-80590000D01*
X122010000Y-77850000D02*
X120600000Y-79260000D01*
X133200000Y-77850000D02*
X122010000Y-77850000D01*
X149950000Y-94600000D02*
X133200000Y-77850000D01*
X144200000Y-94550000D02*
X142260000Y-94550000D01*
X142260000Y-94550000D02*
X135810000Y-88100000D01*
X160600000Y-94600000D02*
X149950000Y-94600000D01*
D55*
%TO.N,GND*%
X209827106Y-95030000D02*
X208200000Y-95030000D01*
X210462106Y-94395000D02*
X209827106Y-95030000D01*
X213400000Y-94395000D02*
X210462106Y-94395000D01*
%TO.N,Net-(U6-VCC)*%
X209755000Y-94395000D02*
X208200000Y-94395000D01*
X211750000Y-92400000D02*
X209755000Y-94395000D01*
X213450000Y-90950000D02*
X213350000Y-91050000D01*
X215650000Y-90950000D02*
X213450000Y-90950000D01*
%TO.N,/USBD+*%
X212093106Y-91183106D02*
X213400000Y-92490000D01*
X212093106Y-89642666D02*
X212093106Y-91183106D01*
%TO.N,/USBD-*%
X209793106Y-90896894D02*
X208200000Y-92490000D01*
X209793106Y-89642666D02*
X209793106Y-90896894D01*
D54*
%TO.N,Net-(J3-VBUS)*%
X215748106Y-89276894D02*
X215650000Y-89375000D01*
X215748106Y-87342666D02*
X215748106Y-89276894D01*
%TO.N,GND*%
X204955000Y-95995000D02*
X204950000Y-96000000D01*
X204955000Y-94992500D02*
X204955000Y-95995000D01*
D55*
%TO.N,Net-(D10-A)*%
X207400000Y-102075000D02*
X207400000Y-100407500D01*
%TO.N,Net-(D6-A)*%
X204400000Y-102075000D02*
X204400000Y-100315000D01*
%TO.N,GND*%
X197425000Y-102375000D02*
X200975000Y-102375000D01*
X196265638Y-103534362D02*
X197425000Y-102375000D01*
X196020594Y-103534362D02*
X196265638Y-103534362D01*
X200975000Y-102375000D02*
X200975000Y-103725000D01*
X203675000Y-99675000D02*
X200975000Y-102375000D01*
X204400000Y-99675000D02*
X203675000Y-99675000D01*
X207307500Y-99675000D02*
X204400000Y-99675000D01*
X207400000Y-99767500D02*
X207307500Y-99675000D01*
X197585000Y-111485000D02*
X197700000Y-111600000D01*
X196875000Y-111485000D02*
X197585000Y-111485000D01*
D54*
X189375000Y-82975000D02*
X189375000Y-89500000D01*
X190250000Y-82100000D02*
X189375000Y-82975000D01*
X189385606Y-81235606D02*
X190250000Y-82100000D01*
X189385606Y-80675166D02*
X189385606Y-81235606D01*
X173350000Y-91100000D02*
X173350000Y-91400000D01*
X168280600Y-130630600D02*
X168300000Y-130650000D01*
X168280600Y-129249999D02*
X168280600Y-130630600D01*
X162650000Y-117750000D02*
X162550000Y-117850000D01*
X164150000Y-117750000D02*
X162650000Y-117750000D01*
X164349998Y-117750000D02*
X167099999Y-120500001D01*
X164150000Y-117750000D02*
X164349998Y-117750000D01*
%TO.N,/nRST*%
X165249999Y-115850000D02*
X167099999Y-114000000D01*
X164150000Y-115850000D02*
X165249999Y-115850000D01*
%TO.N,GND*%
X151800000Y-116300000D02*
X151900000Y-116400000D01*
X151800000Y-115200000D02*
X151800000Y-116300000D01*
X156519400Y-121969400D02*
X156500000Y-121950000D01*
X156519400Y-123250001D02*
X156519400Y-121969400D01*
D55*
%TO.N,/SW4*%
X137699401Y-135550001D02*
X137699401Y-140050002D01*
D54*
%TO.N,GND*%
X153188803Y-143300000D02*
X153269399Y-143300000D01*
X153188803Y-143300000D02*
X153188803Y-143060599D01*
X153188803Y-143060599D02*
X157199400Y-139050002D01*
X145438804Y-140050002D02*
X148688802Y-143300000D01*
X144199402Y-140050002D02*
X145438804Y-140050002D01*
X148199400Y-131550003D02*
X144199402Y-135550001D01*
X148199400Y-131050002D02*
X148199400Y-131550003D01*
X152419400Y-131330003D02*
X152699401Y-131050002D01*
X159169400Y-134550001D02*
X157199400Y-134550001D01*
X161869400Y-131850001D02*
X159169400Y-134550001D01*
D55*
X190200000Y-112850000D02*
X190200000Y-111550000D01*
D54*
X195440000Y-121400000D02*
X195500000Y-121460000D01*
X194000000Y-121400000D02*
X195440000Y-121400000D01*
X186579600Y-123370400D02*
X186550000Y-123400000D01*
X186579600Y-122375000D02*
X186579600Y-123370400D01*
X187010000Y-120375000D02*
X189590000Y-120375000D01*
X187010000Y-121944600D02*
X186579600Y-122375000D01*
X187010000Y-120375000D02*
X187010000Y-121944600D01*
X191050000Y-124350000D02*
X194000000Y-121400000D01*
X191050000Y-124875000D02*
X191050000Y-124350000D01*
X191050000Y-127750000D02*
X195600000Y-132300000D01*
X191050000Y-124875000D02*
X191050000Y-127750000D01*
X191050000Y-124875000D02*
X191050000Y-126100000D01*
X207100000Y-134250000D02*
X207150000Y-134300000D01*
X207100000Y-132300000D02*
X207100000Y-134250000D01*
X200550000Y-125100000D02*
X200500000Y-125050000D01*
X201600000Y-125100000D02*
X200550000Y-125100000D01*
X208199998Y-117400002D02*
X208250000Y-117350000D01*
X206838800Y-117400002D02*
X208199998Y-117400002D01*
X214650000Y-127200000D02*
X216375000Y-128925000D01*
X216375000Y-128925000D02*
X225200000Y-128925000D01*
X225200000Y-128250000D02*
X224450000Y-127500000D01*
X225200000Y-128925000D02*
X225200000Y-128250000D01*
X239000000Y-146200000D02*
X239000000Y-148450000D01*
X236500000Y-132700000D02*
X236500000Y-131700000D01*
X236500000Y-131700000D02*
X236500000Y-134150000D01*
%TO.N,+3.3V*%
X225700000Y-90900000D02*
X225600000Y-91000000D01*
X225700000Y-85400000D02*
X225700000Y-90900000D01*
%TO.N,GND*%
X167140000Y-102090000D02*
X167150000Y-102100000D01*
X167140000Y-99800000D02*
X167140000Y-102090000D01*
D55*
X184927894Y-98622106D02*
X184950000Y-98600000D01*
X184927894Y-99305734D02*
X184927894Y-98622106D01*
D54*
X161400000Y-91900000D02*
X161400000Y-91400000D01*
X160600000Y-92700000D02*
X161400000Y-91900000D01*
X161400000Y-91400000D02*
X160600000Y-90600000D01*
X165550000Y-91400000D02*
X161400000Y-91400000D01*
X171850000Y-91400000D02*
X165550000Y-91400000D01*
X171850000Y-91400000D02*
X173350000Y-91400000D01*
D55*
%TO.N,/RFM_G0*%
X228450000Y-93260050D02*
X228450000Y-108470000D01*
X228450000Y-108470000D02*
X225600000Y-111320000D01*
X227529950Y-92340000D02*
X228450000Y-93260050D01*
X223855838Y-92340000D02*
X227529950Y-92340000D01*
X209770838Y-106425000D02*
X223855838Y-92340000D01*
X194125000Y-106425000D02*
X209770838Y-106425000D01*
D54*
%TO.N,GND*%
X227740000Y-93540000D02*
X227750000Y-93550000D01*
X225600000Y-93540000D02*
X227740000Y-93540000D01*
X218842666Y-87342666D02*
X218850000Y-87350000D01*
X217648106Y-87342666D02*
X218842666Y-87342666D01*
D55*
X209928106Y-83928106D02*
X209100000Y-83100000D01*
X209928106Y-84842666D02*
X209928106Y-83928106D01*
X212233106Y-84983106D02*
X212950000Y-85700000D01*
X212233106Y-84842666D02*
X212233106Y-84983106D01*
X212233106Y-84842666D02*
X212233106Y-84933106D01*
X224825000Y-81175000D02*
X224800000Y-81150000D01*
X225700000Y-81175000D02*
X224825000Y-81175000D01*
D54*
X195949834Y-78000166D02*
X195950000Y-78000000D01*
X194800606Y-78000166D02*
X195949834Y-78000166D01*
X173457106Y-77069266D02*
X176844266Y-77069266D01*
X176844266Y-77069266D02*
X177775000Y-78000000D01*
X173457106Y-74642894D02*
X173500000Y-74600000D01*
X173457106Y-77069266D02*
X173457106Y-74642894D01*
X125680000Y-92530000D02*
X125650000Y-92500000D01*
X125680000Y-95000000D02*
X125680000Y-92530000D01*
X138350000Y-89400000D02*
X139300000Y-90350000D01*
X138350000Y-88100000D02*
X138350000Y-89400000D01*
X124700000Y-78700000D02*
X124750000Y-78650000D01*
X124700000Y-79900000D02*
X124700000Y-78700000D01*
D55*
X184950000Y-99283628D02*
X184927894Y-99305734D01*
X184125000Y-110425000D02*
X182775000Y-110425000D01*
X184150000Y-110400000D02*
X184125000Y-110425000D01*
%TO.N,/TIM4_CH1*%
X188900000Y-108171879D02*
X188900000Y-107900000D01*
X197600321Y-116872200D02*
X188900000Y-108171879D01*
X205600000Y-120200000D02*
X202272200Y-116872200D01*
X202272200Y-116872200D02*
X197600321Y-116872200D01*
X205600000Y-120549401D02*
X205600000Y-120200000D01*
X206838800Y-120650001D02*
X205700600Y-120650001D01*
X205700600Y-120650001D02*
X205600000Y-120549401D01*
%TO.N,/TIM4_CH2*%
X205772799Y-119350001D02*
X206838800Y-119350001D01*
X202669821Y-116247023D02*
X205772799Y-119350001D01*
X197682250Y-116247023D02*
X202669821Y-116247023D01*
X191250000Y-109814773D02*
X197682250Y-116247023D01*
X191250000Y-109000000D02*
X191250000Y-109814773D01*
%TO.N,Net-(D9-A)*%
X225700000Y-83575000D02*
X225700000Y-81815000D01*
%TO.N,/ADC_VOLTAGE*%
X193000000Y-105678120D02*
X193000000Y-101000000D01*
X193246880Y-105925000D02*
X193000000Y-105678120D01*
X194125000Y-105925000D02*
X193246880Y-105925000D01*
X193000000Y-101000000D02*
X194200000Y-99800000D01*
%TO.N,/HB_LED*%
X203375000Y-104925000D02*
X204400000Y-103900000D01*
X194125000Y-104925000D02*
X203375000Y-104925000D01*
%TO.N,/MCU_LED*%
X205875000Y-105425000D02*
X207400000Y-103900000D01*
X194125000Y-105425000D02*
X205875000Y-105425000D01*
%TO.N,/PUSH_BTN1*%
X177200000Y-118218800D02*
X177200000Y-114700000D01*
%TO.N,/nRST*%
X184264774Y-111200000D02*
X187700000Y-111200000D01*
X181464774Y-114000000D02*
X184264774Y-111200000D01*
X171600000Y-114000000D02*
X181464774Y-114000000D01*
X187700000Y-111200000D02*
X187700000Y-106971880D01*
X187700000Y-112850000D02*
X187700000Y-111200000D01*
X171600000Y-114000000D02*
X167099999Y-114000000D01*
%TO.N,+3.3VA*%
X192425000Y-117425000D02*
X192200000Y-117425000D01*
X195500000Y-120500000D02*
X192425000Y-117425000D01*
%TO.N,+3.3V*%
X192560000Y-119000000D02*
X194000000Y-120440000D01*
X192200000Y-119000000D02*
X192560000Y-119000000D01*
%TO.N,+3.3VA*%
X190700000Y-115925000D02*
X192200000Y-117425000D01*
X190700000Y-115200000D02*
X190700000Y-115925000D01*
%TO.N,/PUSH_BTN4*%
X186200000Y-117398953D02*
X186200000Y-112850000D01*
X176948952Y-126650001D02*
X186200000Y-117398953D01*
X173919400Y-126650001D02*
X176948952Y-126650001D01*
%TO.N,/PUSH_BTN3*%
X179500000Y-118100000D02*
X184791846Y-118100000D01*
X171200000Y-126400000D02*
X179500000Y-118100000D01*
X171200000Y-126818800D02*
X171200000Y-126400000D01*
X169418800Y-128600000D02*
X171200000Y-126818800D01*
X184791846Y-118100000D02*
X185700000Y-117191846D01*
X185700000Y-117191846D02*
X185700000Y-112850000D01*
X168280600Y-128600000D02*
X169418800Y-128600000D01*
%TO.N,/PUSH_BTN2*%
X185125000Y-111725000D02*
X185200000Y-111800000D01*
X169468800Y-126703080D02*
X184446880Y-111725000D01*
X169468800Y-127250000D02*
X169468800Y-126703080D01*
X184446880Y-111725000D02*
X185125000Y-111725000D01*
X169418800Y-127300000D02*
X169468800Y-127250000D01*
X168280600Y-127300000D02*
X169418800Y-127300000D01*
X185200000Y-111800000D02*
X185200000Y-112850000D01*
%TO.N,/BOOT0*%
X147352500Y-113375000D02*
X147000000Y-113022500D01*
X151800000Y-113375000D02*
X147352500Y-113375000D01*
X151975000Y-113200000D02*
X151800000Y-113375000D01*
X154700000Y-113200000D02*
X151975000Y-113200000D01*
X157425000Y-108925000D02*
X156900000Y-108400000D01*
X182775000Y-108925000D02*
X157425000Y-108925000D01*
%TO.N,/PUSH_BTN1*%
X177975000Y-107425000D02*
X182775000Y-107425000D01*
X177700000Y-107700000D02*
X177975000Y-107425000D01*
X169418800Y-126000000D02*
X177200000Y-118218800D01*
X168280600Y-126000000D02*
X169418800Y-126000000D01*
%TO.N,Net-(J6-Pin_8)*%
X120675000Y-81725000D02*
X120600000Y-81800000D01*
X124700000Y-81725000D02*
X120675000Y-81725000D01*
X120570000Y-81830000D02*
X120600000Y-81800000D01*
X120570000Y-88100000D02*
X120570000Y-81830000D01*
%TO.N,/SPI3_nCS*%
X139500000Y-86900000D02*
X124310000Y-86900000D01*
X156525000Y-103925000D02*
X139500000Y-86900000D01*
X182775000Y-103925000D02*
X156525000Y-103925000D01*
X124310000Y-86900000D02*
X123110000Y-88100000D01*
%TO.N,/SPI3_SCK*%
X149595000Y-104425000D02*
X133270000Y-88100000D01*
X182775000Y-104425000D02*
X149595000Y-104425000D01*
%TO.N,/SPI3_MOSI*%
X148055000Y-105425000D02*
X130730000Y-88100000D01*
X182775000Y-105425000D02*
X148055000Y-105425000D01*
%TO.N,/ST7735_nRST*%
X146015000Y-105925000D02*
X128190000Y-88100000D01*
X182775000Y-105925000D02*
X146015000Y-105925000D01*
%TO.N,/ST7735_DC*%
X144475000Y-106925000D02*
X125650000Y-88100000D01*
X182775000Y-106925000D02*
X144475000Y-106925000D01*
%TO.N,/I2C1_SCL*%
X137565000Y-109425000D02*
X123140000Y-95000000D01*
X182775000Y-109425000D02*
X137565000Y-109425000D01*
%TO.N,/I2C1_SDA*%
X135525000Y-109925000D02*
X120600000Y-95000000D01*
X182775000Y-109925000D02*
X135525000Y-109925000D01*
%TO.N,/RFM_nRST*%
X227300000Y-107080000D02*
X225600000Y-108780000D01*
X227300000Y-96082943D02*
X227300000Y-107080000D01*
X226097057Y-94880000D02*
X227300000Y-96082943D01*
X222022944Y-94880000D02*
X226097057Y-94880000D01*
X209977944Y-106925000D02*
X222022944Y-94880000D01*
X194125000Y-106925000D02*
X209977944Y-106925000D01*
%TO.N,/RFM_EN*%
X221530050Y-96080000D02*
X225600000Y-96080000D01*
X194125000Y-107425000D02*
X210185050Y-107425000D01*
X210185050Y-107425000D02*
X221530050Y-96080000D01*
%TO.N,/SPI1_MOSI*%
X211475000Y-107925000D02*
X215700000Y-103700000D01*
X194125000Y-107925000D02*
X211475000Y-107925000D01*
X215700000Y-103700000D02*
X225600000Y-103700000D01*
%TO.N,/SPI1_MISO*%
X224160000Y-102600000D02*
X225600000Y-101160000D01*
X216000000Y-102600000D02*
X224160000Y-102600000D01*
X212475000Y-108425000D02*
X216000000Y-104900000D01*
X194125000Y-108425000D02*
X212475000Y-108425000D01*
%TO.N,/SPI1_SCK*%
X226800000Y-104197057D02*
X226800000Y-99820000D01*
X226097057Y-104900000D02*
X226800000Y-104197057D01*
X226800000Y-99820000D02*
X225600000Y-98620000D01*
X225102943Y-104900000D02*
X226097057Y-104900000D01*
X221077943Y-108925000D02*
X225102943Y-104900000D01*
X194125000Y-108925000D02*
X221077943Y-108925000D01*
%TO.N,/SPI1_nCS*%
X222415000Y-109425000D02*
X225600000Y-106240000D01*
X194125000Y-109425000D02*
X222415000Y-109425000D01*
%TO.N,Net-(U1-VCAP1)*%
X194125000Y-104425000D02*
X198375000Y-104425000D01*
X198375000Y-104425000D02*
X199075000Y-103725000D01*
%TO.N,GND*%
X189740000Y-115200000D02*
X189740000Y-114660000D01*
X185200000Y-99577840D02*
X185200000Y-101500000D01*
D54*
X209077506Y-81242666D02*
X209077506Y-82913266D01*
D55*
X189900000Y-114500000D02*
X190100000Y-114500000D01*
X183570000Y-114875000D02*
X183570000Y-117355000D01*
X195768154Y-110425000D02*
X196828154Y-111485000D01*
D54*
X204955000Y-94992500D02*
X207005000Y-94992500D01*
D55*
X190100000Y-114500000D02*
X190100000Y-113828120D01*
X196828154Y-111485000D02*
X196875000Y-111485000D01*
X189740000Y-114660000D02*
X189900000Y-114500000D01*
X195629956Y-103925000D02*
X196020594Y-103534362D01*
X183570000Y-117355000D02*
X183550000Y-117375000D01*
X208200000Y-95030000D02*
X207067500Y-95030000D01*
X201025000Y-103675000D02*
X200975000Y-103725000D01*
X180725000Y-110425000D02*
X180400000Y-110750000D01*
X190200000Y-113728120D02*
X190200000Y-112850000D01*
X207067500Y-95030000D02*
X207055000Y-95042500D01*
X194125000Y-103925000D02*
X195629956Y-103925000D01*
X194125000Y-110425000D02*
X195768154Y-110425000D01*
X190100000Y-113828120D02*
X190200000Y-113728120D01*
D54*
X207005000Y-94992500D02*
X207055000Y-95042500D01*
D55*
X182775000Y-110425000D02*
X180725000Y-110425000D01*
X184927894Y-99305734D02*
X185200000Y-99577840D01*
%TO.N,+3.3V*%
X183967894Y-100767894D02*
X183967894Y-99305734D01*
X181990000Y-111710000D02*
X180400000Y-111710000D01*
X184700000Y-114705000D02*
X184530000Y-114875000D01*
X196275000Y-109925000D02*
X196875000Y-110525000D01*
X184510000Y-114895000D02*
X184530000Y-114875000D01*
D54*
X160600000Y-94600000D02*
X164650000Y-94600000D01*
X164650000Y-94600000D02*
X165550000Y-93700000D01*
D55*
X195710595Y-102574362D02*
X196020594Y-102574362D01*
X194125000Y-109925000D02*
X196275000Y-109925000D01*
X195125000Y-103425000D02*
X195360594Y-103189406D01*
X195360594Y-103189406D02*
X195360594Y-102924363D01*
X195360594Y-102924363D02*
X195710595Y-102574362D01*
X184700000Y-101500000D02*
X183967894Y-100767894D01*
X182775000Y-110925000D02*
X181990000Y-111710000D01*
X194125000Y-103425000D02*
X195125000Y-103425000D01*
X184700000Y-112850000D02*
X184700000Y-114705000D01*
%TO.N,+3.3VA*%
X190700000Y-115200000D02*
X190700000Y-112850000D01*
D54*
%TO.N,VBUS*%
X179650000Y-82450000D02*
X179505000Y-82305000D01*
X175905000Y-82400000D02*
X176000000Y-82305000D01*
X173100000Y-82400000D02*
X175905000Y-82400000D01*
%TO.N,Net-(J3-VBUS)*%
X215550000Y-89275000D02*
X215650000Y-89375000D01*
%TO.N,VBUS*%
X180100000Y-82450000D02*
X179650000Y-82450000D01*
%TO.N,Net-(J3-VBUS)*%
X212328706Y-81242666D02*
X212328706Y-83923266D01*
%TO.N,VBUS*%
X188585606Y-80675166D02*
X188585606Y-82285606D01*
X188585606Y-82285606D02*
X188600000Y-82300000D01*
X182400000Y-82300000D02*
X180250000Y-82300000D01*
%TO.N,Net-(J3-VBUS)*%
X212328706Y-83923266D02*
X215748106Y-87342666D01*
%TO.N,VBUS*%
X180250000Y-82300000D02*
X180100000Y-82450000D01*
X179505000Y-82305000D02*
X176000000Y-82305000D01*
D55*
%TO.N,Net-(U6-3V3OUT)*%
X208200000Y-93760000D02*
X207922500Y-93760000D01*
X207922500Y-93760000D02*
X207255000Y-93092500D01*
X208167500Y-93092500D02*
X208200000Y-93125000D01*
X207255000Y-93092500D02*
X208167500Y-93092500D01*
X204955000Y-93092500D02*
X207255000Y-93092500D01*
%TO.N,Net-(J1-CC1)*%
X187435606Y-79750166D02*
X187435606Y-80675166D01*
X192975606Y-78000166D02*
X189185606Y-78000166D01*
X189185606Y-78000166D02*
X187435606Y-79750166D01*
%TO.N,Net-(J1-CC2)*%
X179600000Y-78000000D02*
X182720745Y-78000000D01*
X182720745Y-78000000D02*
X184435606Y-79714861D01*
X184435606Y-79714861D02*
X184435606Y-80675166D01*
D54*
%TO.N,+5V*%
X172457106Y-77069266D02*
X167260734Y-77069266D01*
X167260734Y-77069266D02*
X165950000Y-78380000D01*
D55*
%TO.N,/SWDIO*%
X185453120Y-102625000D02*
X184060227Y-102625000D01*
X180200000Y-98764773D02*
X180200000Y-97212500D01*
X177887500Y-97212500D02*
X175300000Y-99800000D01*
X184060227Y-102625000D02*
X180200000Y-98764773D01*
X180200000Y-97212500D02*
X177887500Y-97212500D01*
X185700000Y-101500000D02*
X185700000Y-102378120D01*
X185700000Y-102378120D02*
X185453120Y-102625000D01*
%TO.N,/USART_TX*%
X189800000Y-98400000D02*
X187700000Y-100500000D01*
D56*
X187700000Y-101500000D02*
X187700000Y-100692590D01*
D55*
X213400000Y-96935000D02*
X211935000Y-98400000D01*
X211935000Y-98400000D02*
X189800000Y-98400000D01*
X187700000Y-100500000D02*
X187700000Y-100692590D01*
%TO.N,/USART_RX*%
X187200000Y-100292893D02*
X189592893Y-97900000D01*
X211605000Y-95030000D02*
X213400000Y-95030000D01*
X189592893Y-97900000D02*
X208735000Y-97900000D01*
X208735000Y-97900000D02*
X211605000Y-95030000D01*
X187200000Y-101500000D02*
X187200000Y-100292893D01*
%TO.N,/SWCLK*%
X163100000Y-101500000D02*
X163125000Y-101475000D01*
X163125000Y-99900000D02*
X164425000Y-98600000D01*
X163100000Y-101800000D02*
X163100000Y-101500000D01*
X164425000Y-98600000D02*
X171020000Y-98600000D01*
X163125000Y-101475000D02*
X163125000Y-99900000D01*
X171020000Y-98600000D02*
X172220000Y-99800000D01*
X182775000Y-103425000D02*
X164725000Y-103425000D01*
X164725000Y-103425000D02*
X163100000Y-101800000D01*
%TO.N,/TIM2_CH2*%
X196671880Y-118700000D02*
X201200000Y-118700000D01*
X191700000Y-112850000D02*
X191700000Y-113728120D01*
X191700000Y-113728120D02*
X196671880Y-118700000D01*
%TO.N,/TIM2_CH1*%
X201200000Y-120000000D02*
X197264774Y-120000000D01*
X191200000Y-113935226D02*
X191200000Y-112850000D01*
X197264774Y-120000000D02*
X191200000Y-113935226D01*
%TO.N,/ENC2_BTN*%
X201200000Y-117400000D02*
X196750000Y-117400000D01*
X196750000Y-117400000D02*
X192200000Y-112850000D01*
%TO.N,/ENC1_BTN*%
X194125000Y-110925000D02*
X196200000Y-113000000D01*
X196200000Y-113000000D02*
X200650599Y-113000000D01*
X200650599Y-113000000D02*
X205700600Y-118050001D01*
X205700600Y-118050001D02*
X206838800Y-118050001D01*
X195315000Y-112115000D02*
X194125000Y-110925000D01*
%TO.N,/nRST*%
X169680000Y-99800000D02*
X172115940Y-102235940D01*
X172115940Y-102235940D02*
X182964060Y-102235940D01*
X187700000Y-106971880D02*
X182964060Y-102235940D01*
X152274999Y-25332501D02*
X152274999Y-25332500D01*
%TO.N,/OSC_IN*%
X186700000Y-118650000D02*
X186700000Y-112850000D01*
X186700000Y-118650000D02*
X186050000Y-119300000D01*
X186579600Y-124875000D02*
X185505700Y-123801100D01*
X186050000Y-119300000D02*
X186050000Y-120375000D01*
X185505700Y-120919300D02*
X186050000Y-120375000D01*
X185505700Y-123801100D02*
X185505700Y-120919300D01*
%TO.N,/OSC_OUT*%
X191050000Y-122375000D02*
X191050000Y-120875000D01*
X191050000Y-120875000D02*
X190550000Y-120375000D01*
X187200000Y-115100000D02*
X187200000Y-112850000D01*
X187925000Y-115825000D02*
X187200000Y-115100000D01*
X187925000Y-117440001D02*
X187925000Y-115825000D01*
X190550000Y-120065001D02*
X187925000Y-117440001D01*
X190550000Y-120375000D02*
X190550000Y-120065001D01*
D54*
%TO.N,/REG_IN*%
X160600000Y-88700000D02*
X161000000Y-88700000D01*
X161400000Y-89100000D02*
X165550000Y-89100000D01*
X165325000Y-88875000D02*
X165550000Y-89100000D01*
X161000000Y-88700000D02*
X161400000Y-89100000D01*
X165325000Y-86100000D02*
X165325000Y-88875000D01*
X160600000Y-83975000D02*
X160600000Y-88700000D01*
%TO.N,/V_USB*%
X166900000Y-81800000D02*
X166900000Y-85800000D01*
X171225000Y-82400000D02*
X167500000Y-82400000D01*
X166900000Y-85800000D02*
X167200000Y-86100000D01*
X167500000Y-82400000D02*
X166900000Y-81800000D01*
%TO.N,/V_BAT*%
X160900000Y-81800000D02*
X160600000Y-82100000D01*
X165000000Y-81800000D02*
X160900000Y-81800000D01*
D56*
%TO.N,/USB_OTG_FS-*%
X186401912Y-86483712D02*
X186675000Y-86756800D01*
D55*
X186935606Y-80675166D02*
X186935606Y-83365166D01*
D56*
X186401912Y-83898861D02*
X186401912Y-86483712D01*
X186675000Y-100312499D02*
X186700000Y-100337499D01*
X186700000Y-100337499D02*
X186700000Y-101500000D01*
D55*
X186900606Y-83400166D02*
X186900606Y-83400167D01*
X186935606Y-83365166D02*
X186900606Y-83400166D01*
D56*
X186675000Y-86756800D02*
X186675000Y-100312499D01*
X186900606Y-83400167D02*
X186401912Y-83898861D01*
%TO.N,/USB_OTG_FS+*%
X185951910Y-83898861D02*
X185951910Y-86670110D01*
X186225000Y-100312499D02*
X186200000Y-100337499D01*
X185450606Y-83397557D02*
X185951910Y-83898861D01*
D55*
X185435606Y-80675166D02*
X185435606Y-83382557D01*
D56*
X186200000Y-100337499D02*
X186200000Y-101500000D01*
D55*
X185435606Y-83382557D02*
X185450606Y-83397557D01*
D56*
X185951910Y-86670110D02*
X186225000Y-86943200D01*
X186225000Y-86943200D02*
X186225000Y-100312499D01*
D55*
%TO.N,/D-*%
X211515906Y-81242666D02*
X211515906Y-84765466D01*
X211515906Y-84765466D02*
X211593106Y-84842666D01*
X212093106Y-85687666D02*
X212093106Y-87817666D01*
X211593106Y-84842666D02*
X211593106Y-85187666D01*
X211593106Y-85187666D02*
X212093106Y-85687666D01*
%TO.N,/D+*%
X210568106Y-84842666D02*
X210568106Y-85622666D01*
X209793106Y-86397666D02*
X209793106Y-87817666D01*
X210703106Y-81242666D02*
X210703106Y-84707666D01*
X210568106Y-85622666D02*
X209793106Y-86397666D01*
X210703106Y-84707666D02*
X210568106Y-84842666D01*
%TO.N,/SW2*%
X168280600Y-125349999D02*
X153499399Y-125349999D01*
X148199400Y-124550001D02*
X152699401Y-124550001D01*
X153499399Y-125349999D02*
X152699401Y-124550001D01*
%TO.N,/TIM4_CH2*%
X185225000Y-108425000D02*
X185800000Y-109000000D01*
X182775000Y-108425000D02*
X185225000Y-108425000D01*
%TO.N,/SW3*%
X163699401Y-134550001D02*
X163699401Y-131920000D01*
X163699401Y-131920000D02*
X163769400Y-131850001D01*
X165231900Y-126650001D02*
X168280600Y-126650001D01*
X163631900Y-128250001D02*
X165231900Y-126650001D01*
X163769400Y-131850001D02*
X163769400Y-128387501D01*
X163769400Y-128387501D02*
X163631900Y-128250001D01*
%TO.N,/SW4*%
X163320100Y-136649301D02*
X167019400Y-132950001D01*
X167019400Y-132950001D02*
X167019400Y-128072999D01*
X167019400Y-128072999D02*
X167142400Y-127949999D01*
X138798701Y-136649301D02*
X163320100Y-136649301D01*
X167142400Y-127949999D02*
X168280600Y-127949999D01*
X137699401Y-135550001D02*
X138798701Y-136649301D01*
%TO.N,/SW5*%
X153188803Y-149800001D02*
X157569400Y-149800001D01*
X160619400Y-149650001D02*
X160719400Y-149750001D01*
X157569400Y-149800001D02*
X157719400Y-149650001D01*
X172731200Y-126238201D02*
X172969401Y-126000000D01*
X160719400Y-149750001D02*
X172731200Y-137738201D01*
X148688802Y-149800001D02*
X153188803Y-149800001D01*
X157719400Y-149650001D02*
X160619400Y-149650001D01*
X172969401Y-126000000D02*
X173919400Y-126000000D01*
X172731200Y-137738201D02*
X172731200Y-126238201D01*
%TO.N,/TIM4_CH1*%
X185675000Y-107925000D02*
X182775000Y-107925000D01*
X186000000Y-107900000D02*
X185700000Y-107900000D01*
X185700000Y-107900000D02*
X185675000Y-107925000D01*
%TO.N,/ENC1_A*%
X234000000Y-131700000D02*
X227500000Y-131700000D01*
X227125000Y-131325000D02*
X227125000Y-128950000D01*
X227500000Y-131700000D02*
X227125000Y-131325000D01*
X219475002Y-121300002D02*
X206838800Y-121300002D01*
X227125000Y-128950000D02*
X227100000Y-128925000D01*
X227100000Y-128925000D02*
X219475002Y-121300002D01*
%TO.N,/ENC1_C*%
X233900000Y-120000000D02*
X206838800Y-120000000D01*
%TO.N,/ENC2_A*%
X197412500Y-129700000D02*
X197412500Y-123371500D01*
X204600000Y-132300000D02*
X197500000Y-132300000D01*
X197412500Y-123371500D02*
X200133999Y-120650001D01*
X197500000Y-129787500D02*
X197412500Y-129700000D01*
X197500000Y-132300000D02*
X197500000Y-129787500D01*
X200133999Y-120650001D02*
X201200000Y-120650001D01*
%TO.N,/ENC2_C*%
X203700000Y-124900000D02*
X203700000Y-120784000D01*
X203500000Y-125100000D02*
X203700000Y-124900000D01*
X203500000Y-127500000D02*
X203500000Y-125100000D01*
X202266001Y-119350001D02*
X201200000Y-119350001D01*
X204800000Y-127500000D02*
X203500000Y-127500000D01*
X203700000Y-120784000D02*
X202266001Y-119350001D01*
X209600000Y-132300000D02*
X204800000Y-127500000D01*
%TO.N,/ENC1_SW*%
X234000000Y-146200000D02*
X234000000Y-144050000D01*
X234000000Y-144050000D02*
X244325000Y-133725000D01*
%TO.N,/ENC2_SW*%
X212775000Y-127225000D02*
X212750000Y-127200000D01*
X212775000Y-129600000D02*
X212775000Y-127225000D01*
X203000000Y-119177202D02*
X203000000Y-118800000D01*
X210950000Y-135750000D02*
X212775000Y-133925000D01*
X212750000Y-127200000D02*
X211022798Y-127200000D01*
X204600000Y-146800000D02*
X210950000Y-140450000D01*
X203000000Y-118800000D02*
X202250001Y-118050001D01*
X210950000Y-140450000D02*
X210950000Y-135750000D01*
X211022798Y-127200000D02*
X203000000Y-119177202D01*
X212775000Y-133925000D02*
X212775000Y-129600000D01*
X202250001Y-118050001D02*
X201200000Y-118050001D01*
%TD*%
M02*
