M48
; DRILL file {KiCad 8.0.6} date 2024-12-15T12:03:47+1100
; FORMAT={-:-/ absolute / metric / decimal}
; #@! TF.CreationDate,2024-12-15T12:03:47+11:00
; #@! TF.GenerationSoftware,Kicad,Pcbnew,8.0.6
; #@! TF.FileFunction,MixedPlating,1,2
FMAT,2
METRIC
; #@! TA.AperFunction,Plated,PTH,ComponentDrill
T1C0.500
; #@! TA.AperFunction,Plated,PTH,ComponentDrill
T2C0.600
; #@! TA.AperFunction,Plated,PTH,ComponentDrill
T3C0.700
; #@! TA.AperFunction,Plated,PTH,ComponentDrill
T4C0.889
; #@! TA.AperFunction,Plated,PTH,ComponentDrill
T5C0.991
; #@! TA.AperFunction,Plated,PTH,ComponentDrill
T6C1.000
; #@! TA.AperFunction,Plated,PTH,ComponentDrill
T7C1.500
%
G90
G05
T1
X175.382Y-94.454
X175.382Y-95.454
X175.382Y-96.454
X175.382Y-97.454
X175.382Y-98.454
X175.382Y-99.454
X175.382Y-100.454
X175.382Y-101.454
X175.382Y-102.454
X175.382Y-106.004
X175.382Y-107.004
X175.382Y-108.004
X175.382Y-109.004
X175.382Y-110.004
X175.382Y-111.004
X175.382Y-112.004
X175.382Y-113.004
X178.932Y-94.454
X178.932Y-95.454
X178.932Y-96.454
X178.932Y-97.454
X178.932Y-98.454
X178.932Y-99.454
X178.932Y-100.454
X178.932Y-101.454
X178.932Y-102.454
X210.682Y-63.954
X210.682Y-64.954
X210.682Y-65.954
X210.682Y-66.954
X211.222Y-97.245
X211.222Y-98.245
X211.222Y-99.245
X211.222Y-100.245
X211.222Y-101.245
T3
X51.23Y-61.03
X51.23Y-62.3
X51.23Y-63.57
X51.23Y-64.84
X51.23Y-66.11
X51.23Y-67.38
X51.23Y-68.65
X51.23Y-69.92
X51.23Y-71.19
X51.23Y-72.46
X51.23Y-73.73
X51.23Y-75.0
X51.23Y-76.27
X51.23Y-77.54
X51.23Y-78.81
X51.23Y-80.08
X52.5Y-61.03
X52.5Y-62.3
X52.5Y-63.57
X52.5Y-64.84
X52.5Y-66.11
X52.5Y-67.38
X52.5Y-68.65
X52.5Y-69.92
X52.5Y-71.19
X52.5Y-72.46
X52.5Y-73.73
X52.5Y-75.0
X52.5Y-76.27
X52.5Y-77.54
X52.5Y-78.81
X52.5Y-80.08
X144.23Y-62.88
X144.23Y-64.15
X144.23Y-65.42
X144.23Y-66.69
X144.23Y-67.96
X144.23Y-69.23
X144.23Y-70.5
X144.23Y-71.77
X144.23Y-73.04
X144.23Y-74.31
X144.23Y-75.58
X144.23Y-76.85
X144.23Y-78.12
X144.23Y-79.39
X144.23Y-80.66
X144.23Y-81.93
X145.5Y-62.88
X145.5Y-64.15
X145.5Y-65.42
X145.5Y-66.69
X145.5Y-67.96
X145.5Y-69.23
X145.5Y-70.5
X145.5Y-71.77
X145.5Y-73.04
X145.5Y-74.31
X145.5Y-75.58
X145.5Y-76.85
X145.5Y-78.12
X145.5Y-79.39
X145.5Y-80.66
X145.5Y-81.93
X155.792Y-111.784
X155.792Y-113.054
X155.792Y-116.384
X155.792Y-117.654
T4
X51.023Y-91.345
X51.023Y-95.765
T5
X155.046Y-63.767
X155.046Y-68.267
X155.046Y-71.422
X155.046Y-75.922
X155.046Y-79.077
X155.046Y-83.577
X155.046Y-86.732
X155.046Y-91.232
X155.046Y-94.387
X155.046Y-98.887
X161.546Y-63.767
X161.546Y-68.267
X161.546Y-71.422
X161.546Y-75.922
X161.546Y-79.077
X161.546Y-83.577
X161.546Y-86.732
X161.546Y-91.232
X161.546Y-94.387
X161.546Y-98.887
T6
X52.025Y-33.25
X52.025Y-35.79
X165.142Y-67.304
X165.142Y-69.804
X165.142Y-72.304
X165.142Y-82.554
X165.142Y-85.054
X165.142Y-87.554
X179.642Y-67.304
X179.642Y-72.304
X179.642Y-82.554
X179.642Y-87.554
T2
G00X48.3Y-41.63
M15
G01X47.4Y-41.63
M16
G05
G00X48.3Y-52.87
M15
G01X47.4Y-52.87
M16
G05
G00X52.1Y-41.63
M15
G01X51.6Y-41.63
M16
G05
G00X52.1Y-52.87
M15
G01X51.6Y-52.87
M16
G05
T7
G00X171.992Y-64.204
M15
G01X173.292Y-64.204
M16
G05
G00X171.992Y-75.404
M15
G01X173.292Y-75.404
M16
G05
G00X171.992Y-79.454
M15
G01X173.292Y-79.454
M16
G05
G00X171.992Y-90.654
M15
G01X173.292Y-90.654
M16
G05
M30
