%TF.GenerationSoftware,KiCad,Pcbnew,8.0.6*%
%TF.CreationDate,2024-12-27T13:10:45+11:00*%
%TF.ProjectId,drone_remote,64726f6e-655f-4726-956d-6f74652e6b69,rev?*%
%TF.SameCoordinates,Original*%
%TF.FileFunction,Copper,L2,Bot*%
%TF.FilePolarity,Positive*%
%FSLAX46Y46*%
G04 Gerber Fmt 4.6, Leading zero omitted, Abs format (unit mm)*
G04 Created by KiCad (PCBNEW 8.0.6) date 2024-12-27 13:10:45*
%MOMM*%
%LPD*%
G01*
G04 APERTURE LIST*
%TA.AperFunction,ComponentPad*%
%ADD10R,1.700000X1.700000*%
%TD*%
%TA.AperFunction,ComponentPad*%
%ADD11O,1.700000X1.700000*%
%TD*%
%TA.AperFunction,ComponentPad*%
%ADD12C,1.498600*%
%TD*%
%TA.AperFunction,ComponentPad*%
%ADD13R,1.498600X1.498600*%
%TD*%
%TA.AperFunction,ComponentPad*%
%ADD14R,2.000000X2.000000*%
%TD*%
%TA.AperFunction,ComponentPad*%
%ADD15C,2.000000*%
%TD*%
%TA.AperFunction,ComponentPad*%
%ADD16R,2.000000X3.200000*%
%TD*%
%TA.AperFunction,ComponentPad*%
%ADD17C,1.397000*%
%TD*%
%TA.AperFunction,ComponentPad*%
%ADD18O,1.000000X1.800000*%
%TD*%
%TA.AperFunction,ComponentPad*%
%ADD19O,1.000000X2.100000*%
%TD*%
%TA.AperFunction,ViaPad*%
%ADD20C,0.700000*%
%TD*%
%TA.AperFunction,ViaPad*%
%ADD21C,0.600000*%
%TD*%
%TA.AperFunction,Conductor*%
%ADD22C,0.500000*%
%TD*%
%TA.AperFunction,Conductor*%
%ADD23C,0.300000*%
%TD*%
G04 APERTURE END LIST*
D10*
%TO.P,JP4,1,A*%
%TO.N,+3.3V*%
X147000000Y-115562500D03*
D11*
%TO.P,JP4,2,B*%
%TO.N,/BOOT0*%
X147000000Y-113022500D03*
%TD*%
D12*
%TO.P,SW2,4,4*%
%TO.N,/SW2*%
X152699401Y-124550001D03*
%TO.P,SW2,3,3*%
%TO.N,GND*%
X152699401Y-131050002D03*
%TO.P,SW2,2,2*%
%TO.N,/SW2*%
X148199400Y-124550001D03*
D13*
%TO.P,SW2,1,1*%
%TO.N,GND*%
X148199400Y-131050002D03*
%TD*%
D10*
%TO.P,J5,1,Pin_1*%
%TO.N,/I2C1_SDA*%
X120600000Y-95000000D03*
D11*
%TO.P,J5,2,Pin_2*%
%TO.N,/I2C1_SCL*%
X123140000Y-95000000D03*
%TO.P,J5,3,Pin_3*%
%TO.N,GND*%
X125680000Y-95000000D03*
%TO.P,J5,4,Pin_4*%
%TO.N,+3.3V*%
X128220000Y-95000000D03*
%TD*%
D10*
%TO.P,J8,1,Pin_1*%
%TO.N,unconnected-(J8-Pin_1-Pad1)*%
X251257106Y-91449266D03*
D11*
%TO.P,J8,2,Pin_2*%
%TO.N,unconnected-(J8-Pin_2-Pad2)*%
X251257106Y-93989266D03*
%TO.P,J8,3,Pin_3*%
%TO.N,unconnected-(J8-Pin_3-Pad3)*%
X251257106Y-96529266D03*
%TO.P,J8,4,Pin_4*%
%TO.N,unconnected-(J8-Pin_4-Pad4)*%
X251257106Y-99069266D03*
%TO.P,J8,5,Pin_5*%
%TO.N,unconnected-(J8-Pin_5-Pad5)*%
X251257106Y-101609266D03*
%TO.P,J8,6,Pin_6*%
%TO.N,unconnected-(J8-Pin_6-Pad6)*%
X251257106Y-104149266D03*
%TO.P,J8,7,Pin_7*%
%TO.N,unconnected-(J8-Pin_7-Pad7)*%
X251257106Y-106689266D03*
%TO.P,J8,8,Pin_8*%
%TO.N,unconnected-(J8-Pin_8-Pad8)*%
X251257106Y-109229266D03*
%TO.P,J8,9,Pin_9*%
%TO.N,unconnected-(J8-Pin_9-Pad9)*%
X251257106Y-111769266D03*
%TD*%
D12*
%TO.P,SW3,4,4*%
%TO.N,/SW3*%
X163699401Y-139050002D03*
%TO.P,SW3,3,3*%
%TO.N,GND*%
X157199400Y-139050002D03*
%TO.P,SW3,2,2*%
%TO.N,/SW3*%
X163699401Y-134550001D03*
D13*
%TO.P,SW3,1,1*%
%TO.N,GND*%
X157199400Y-134550001D03*
%TD*%
D10*
%TO.P,J2,1,Pin_1*%
%TO.N,GND*%
X173457106Y-77069266D03*
D11*
%TO.P,J2,2,Pin_2*%
%TO.N,+5V*%
X170917106Y-77069266D03*
%TD*%
D12*
%TO.P,SW5,4,4*%
%TO.N,/SW5*%
X148688802Y-149800001D03*
%TO.P,SW5,3,3*%
%TO.N,GND*%
X148688802Y-143300000D03*
%TO.P,SW5,2,2*%
%TO.N,/SW5*%
X153188803Y-149800001D03*
D13*
%TO.P,SW5,1,1*%
%TO.N,GND*%
X153188803Y-143300000D03*
%TD*%
D12*
%TO.P,SW4,4,4*%
%TO.N,/SW4*%
X137699401Y-135550001D03*
%TO.P,SW4,3,3*%
%TO.N,GND*%
X144199402Y-135550001D03*
%TO.P,SW4,2,2*%
%TO.N,/SW4*%
X137699401Y-140050002D03*
D13*
%TO.P,SW4,1,1*%
%TO.N,GND*%
X144199402Y-140050002D03*
%TD*%
D10*
%TO.P,J6,1,Pin_1*%
%TO.N,GND*%
X138350000Y-88100000D03*
D11*
%TO.P,J6,2,Pin_2*%
%TO.N,+3.3V*%
X135810000Y-88100000D03*
%TO.P,J6,3,Pin_3*%
%TO.N,/SPI3_SCK*%
X133270000Y-88100000D03*
%TO.P,J6,4,Pin_4*%
%TO.N,/SPI3_MOSI*%
X130730000Y-88100000D03*
%TO.P,J6,5,Pin_5*%
%TO.N,/ST7735_nRST*%
X128190000Y-88100000D03*
%TO.P,J6,6,Pin_6*%
%TO.N,/ST7735_DC*%
X125650000Y-88100000D03*
%TO.P,J6,7,Pin_7*%
%TO.N,/SPI3_nCS*%
X123110000Y-88100000D03*
%TO.P,J6,8,Pin_8*%
%TO.N,Net-(J6-Pin_8)*%
X120570000Y-88100000D03*
%TD*%
D10*
%TO.P,J7,1,Pin_1*%
%TO.N,+3.3V*%
X225600000Y-91000000D03*
D11*
%TO.P,J7,2,Pin_2*%
%TO.N,GND*%
X225600000Y-93540000D03*
%TO.P,J7,3,Pin_3*%
%TO.N,/RFM_EN*%
X225600000Y-96080000D03*
%TO.P,J7,4,Pin_4*%
%TO.N,/SPI1_SCK*%
X225600000Y-98620000D03*
%TO.P,J7,5,Pin_5*%
%TO.N,/SPI1_MISO*%
X225600000Y-101160000D03*
%TO.P,J7,6,Pin_6*%
%TO.N,/SPI1_MOSI*%
X225600000Y-103700000D03*
%TO.P,J7,7,Pin_7*%
%TO.N,/SPI1_nCS*%
X225600000Y-106240000D03*
%TO.P,J7,8,Pin_8*%
%TO.N,/RFM_nRST*%
X225600000Y-108780000D03*
%TO.P,J7,9,Pin_9*%
%TO.N,/RFM_G0*%
X225600000Y-111320000D03*
%TD*%
D14*
%TO.P,SW6,A,A*%
%TO.N,/ENC1_C*%
X239000000Y-131700000D03*
D15*
%TO.P,SW6,B,B*%
%TO.N,/ENC1_A*%
X234000000Y-131700000D03*
%TO.P,SW6,C,C*%
%TO.N,GND*%
X236500000Y-131700000D03*
D16*
%TO.P,SW6,MP*%
%TO.N,N/C*%
X242100000Y-139200000D03*
X230900000Y-139200000D03*
D15*
%TO.P,SW6,S1,S1*%
%TO.N,/ENC1_SW*%
X234000000Y-146200000D03*
%TO.P,SW6,S2,S2*%
%TO.N,GND*%
X239000000Y-146200000D03*
%TD*%
D13*
%TO.P,SW1,1,1*%
%TO.N,/nRST*%
X171600000Y-114000000D03*
D12*
%TO.P,SW1,2,2*%
%TO.N,GND*%
X171600000Y-120500001D03*
%TO.P,SW1,3,3*%
%TO.N,/nRST*%
X167099999Y-114000000D03*
%TO.P,SW1,4,4*%
%TO.N,GND*%
X167099999Y-120500001D03*
%TD*%
D10*
%TO.P,JP1,1,A*%
%TO.N,Net-(J6-Pin_8)*%
X120600000Y-81800000D03*
D11*
%TO.P,JP1,2,B*%
%TO.N,+3.3V*%
X120600000Y-79260000D03*
%TD*%
D14*
%TO.P,SW7,A,A*%
%TO.N,/ENC2_C*%
X209600000Y-132300000D03*
D15*
%TO.P,SW7,B,B*%
%TO.N,/ENC2_A*%
X204600000Y-132300000D03*
%TO.P,SW7,C,C*%
%TO.N,GND*%
X207100000Y-132300000D03*
D16*
%TO.P,SW7,MP*%
%TO.N,N/C*%
X212700000Y-139800000D03*
X201500000Y-139800000D03*
D15*
%TO.P,SW7,S1,S1*%
%TO.N,/ENC2_SW*%
X204600000Y-146800000D03*
%TO.P,SW7,S2,S2*%
%TO.N,GND*%
X209600000Y-146800000D03*
%TD*%
D17*
%TO.P,J3,8*%
%TO.N,N/C*%
X212912906Y-78778866D03*
%TO.P,J3,9*%
X208493306Y-78778866D03*
%TD*%
D18*
%TO.P,J1,SH4,SHIELD__3*%
%TO.N,GND*%
X181865606Y-75920166D03*
%TO.P,J1,SH3,SHIELD__2*%
X190505606Y-75920166D03*
D19*
%TO.P,J1,SH2,SHIELD__1*%
X181865606Y-80100166D03*
%TO.P,J1,SH1,SHIELD*%
X190505606Y-80100166D03*
%TD*%
D10*
%TO.P,J4,1,Pin_1*%
%TO.N,+3.3V*%
X177300000Y-99800000D03*
D11*
%TO.P,J4,2,Pin_2*%
%TO.N,/SWDIO*%
X174760000Y-99800000D03*
%TO.P,J4,3,Pin_3*%
%TO.N,/SWCLK*%
X172220000Y-99800000D03*
%TO.P,J4,4,Pin_4*%
%TO.N,/nRST*%
X169680000Y-99800000D03*
%TO.P,J4,5,Pin_5*%
%TO.N,GND*%
X167140000Y-99800000D03*
%TD*%
D20*
%TO.N,GND*%
X180100000Y-85400000D03*
%TO.N,/REG_IN*%
X187800000Y-92600000D03*
X184800000Y-92550000D03*
%TO.N,+3.3V*%
X181900000Y-98650000D03*
X179900000Y-100700000D03*
X200550000Y-99500000D03*
X208800000Y-99300000D03*
X198112500Y-124000000D03*
X196550000Y-124000000D03*
X194050000Y-122900000D03*
X192650000Y-121250000D03*
X185000000Y-116150000D03*
X179350000Y-113300000D03*
%TO.N,GND*%
X237500000Y-120550000D03*
%TO.N,+3.3V*%
X242600000Y-128350000D03*
X246100000Y-128450000D03*
X196200000Y-127350000D03*
X198800000Y-127350000D03*
X192550000Y-127400000D03*
X189650000Y-127400000D03*
X159350000Y-123650000D03*
X159400000Y-126500000D03*
X177300000Y-125000000D03*
X178900000Y-126650000D03*
X165750000Y-146300000D03*
X164150000Y-144600000D03*
%TO.N,GND*%
X157650000Y-146750000D03*
%TO.N,+3.3V*%
X144200000Y-94550000D03*
X149950000Y-94600000D03*
%TO.N,Net-(U6-VCC)*%
X211750000Y-92400000D03*
X213350000Y-91050000D03*
%TO.N,GND*%
X204950000Y-96000000D03*
X197700000Y-111600000D03*
X190250000Y-82100000D03*
X168300000Y-130650000D03*
X162550000Y-117850000D03*
X151900000Y-116400000D03*
X156500000Y-121950000D03*
X190200000Y-111550000D03*
X186550000Y-123400000D03*
X191050000Y-126100000D03*
X207150000Y-134300000D03*
X200500000Y-125050000D03*
X208250000Y-117350000D03*
X224450000Y-127500000D03*
X239000000Y-148450000D03*
X236500000Y-134150000D03*
X167150000Y-102100000D03*
X184950000Y-98600000D03*
X173350000Y-91400000D03*
X227750000Y-93550000D03*
X218850000Y-87350000D03*
X212950000Y-85700000D03*
X224800000Y-81150000D03*
X195950000Y-78000000D03*
X173500000Y-74600000D03*
X125650000Y-92500000D03*
X139300000Y-90350000D03*
X124750000Y-78650000D03*
X184150000Y-110400000D03*
%TO.N,/TIM4_CH1*%
X188900000Y-107900000D03*
%TO.N,/TIM4_CH2*%
X191250000Y-109000000D03*
%TO.N,/ADC_VOLTAGE*%
X194500000Y-96000000D03*
X194200000Y-99800000D03*
%TO.N,/PUSH_BTN1*%
X177200000Y-114700000D03*
%TO.N,/BOOT0*%
X154700000Y-113200000D03*
X156900000Y-108400000D03*
%TO.N,/PUSH_BTN1*%
X177700000Y-107700000D03*
%TO.N,/SPI1_MISO*%
X216000000Y-102600000D03*
X216000000Y-104900000D03*
D21*
%TO.N,GND*%
X209100000Y-83100000D03*
%TO.N,VBUS*%
X182400000Y-82300000D03*
X188600000Y-82300000D03*
%TO.N,/TIM4_CH2*%
X185800000Y-109000000D03*
%TO.N,/TIM4_CH1*%
X186000000Y-107900000D03*
%TD*%
D22*
%TO.N,/REG_IN*%
X187750000Y-92550000D02*
X184800000Y-92550000D01*
X187800000Y-92600000D02*
X187750000Y-92550000D01*
%TO.N,+3.3V*%
X179900000Y-100650000D02*
X181900000Y-98650000D01*
X179900000Y-100700000D02*
X179900000Y-100650000D01*
X208800000Y-99300000D02*
X200750000Y-99300000D01*
X200750000Y-99300000D02*
X200550000Y-99500000D01*
D23*
X196550000Y-124000000D02*
X198112500Y-124000000D01*
X192650000Y-121250000D02*
X192650000Y-121500000D01*
X192650000Y-121500000D02*
X194050000Y-122900000D01*
X185000000Y-116150000D02*
X182200000Y-116150000D01*
X182200000Y-116150000D02*
X179350000Y-113300000D01*
D22*
X246100000Y-128450000D02*
X242700000Y-128450000D01*
X242700000Y-128450000D02*
X242600000Y-128350000D01*
X196200000Y-127350000D02*
X198800000Y-127350000D01*
X192600000Y-127450000D02*
X192550000Y-127400000D01*
X189650000Y-127400000D02*
X192550000Y-127400000D01*
X159400000Y-123700000D02*
X159350000Y-123650000D01*
X159400000Y-126500000D02*
X159400000Y-123700000D01*
X178900000Y-126600000D02*
X177300000Y-125000000D01*
X178900000Y-126650000D02*
X178900000Y-126600000D01*
X165750000Y-146200000D02*
X165750000Y-146300000D01*
X164150000Y-144600000D02*
X165750000Y-146200000D01*
X144250000Y-94600000D02*
X144200000Y-94550000D01*
X149950000Y-94600000D02*
X144250000Y-94600000D01*
D23*
%TO.N,Net-(U6-VCC)*%
X213100000Y-91050000D02*
X211750000Y-92400000D01*
X213350000Y-91050000D02*
X213100000Y-91050000D01*
D22*
%TO.N,GND*%
X148688802Y-143300000D02*
X153188803Y-143300000D01*
X144199402Y-135550001D02*
X144199402Y-140050002D01*
X152699401Y-131050002D02*
X148199400Y-131050002D01*
X157199400Y-139050002D02*
X157199400Y-134550001D01*
X189250000Y-126100000D02*
X191050000Y-126100000D01*
X186550000Y-123400000D02*
X189250000Y-126100000D01*
D23*
%TO.N,/TIM4_CH1*%
X186000000Y-107900000D02*
X188900000Y-107900000D01*
%TO.N,/TIM4_CH2*%
X191250000Y-109000000D02*
X185800000Y-109000000D01*
%TO.N,/ADC_VOLTAGE*%
X194500000Y-96000000D02*
X194500000Y-97100000D01*
X194200000Y-99800000D02*
X194500000Y-99500000D01*
X194500000Y-99500000D02*
X194500000Y-96000000D01*
%TO.N,/PUSH_BTN1*%
X177200000Y-114700000D02*
X177200000Y-108200000D01*
%TO.N,/BOOT0*%
X156900000Y-111000000D02*
X154700000Y-113200000D01*
X156900000Y-108400000D02*
X156900000Y-111000000D01*
%TO.N,/PUSH_BTN1*%
X177200000Y-108200000D02*
X177700000Y-107700000D01*
%TO.N,/SPI1_MISO*%
X216000000Y-104900000D02*
X216000000Y-102600000D01*
D22*
%TO.N,VBUS*%
X188600000Y-82300000D02*
X182400000Y-82300000D01*
%TD*%
M02*
