M48
; DRILL file {KiCad 8.0.6} date 2024-12-15T12:01:52+1100
; FORMAT={-:-/ absolute / inch / decimal}
; #@! TF.CreationDate,2024-12-15T12:01:52+11:00
; #@! TF.GenerationSoftware,Kicad,Pcbnew,8.0.6
; #@! TF.FileFunction,Plated,1,2,PTH
FMAT,2
INCH
; #@! TA.AperFunction,Plated,PTH,ComponentDrill
T1C0.0197
; #@! TA.AperFunction,Plated,PTH,ComponentDrill
T2C0.0236
; #@! TA.AperFunction,Plated,PTH,ComponentDrill
T3C0.0276
; #@! TA.AperFunction,Plated,PTH,ComponentDrill
T4C0.0350
; #@! TA.AperFunction,Plated,PTH,ComponentDrill
T5C0.0390
; #@! TA.AperFunction,Plated,PTH,ComponentDrill
T6C0.0394
; #@! TA.AperFunction,Plated,PTH,ComponentDrill
T7C0.0591
%
G90
G05
T1
X6.9048Y-3.7187
X6.9048Y-3.7581
X6.9048Y-3.7974
X6.9048Y-3.8368
X6.9048Y-3.8762
X6.9048Y-3.9155
X6.9048Y-3.9549
X6.9048Y-3.9943
X6.9048Y-4.0336
X6.9048Y-4.1734
X6.9048Y-4.2128
X6.9048Y-4.2521
X6.9048Y-4.2915
X6.9048Y-4.3309
X6.9048Y-4.3703
X6.9048Y-4.4096
X6.9048Y-4.449
X7.0446Y-3.7187
X7.0446Y-3.7581
X7.0446Y-3.7974
X7.0446Y-3.8368
X7.0446Y-3.8762
X7.0446Y-3.9155
X7.0446Y-3.9549
X7.0446Y-3.9943
X7.0446Y-4.0336
X8.2946Y-2.5179
X8.2946Y-2.5573
X8.2946Y-2.5966
X8.2946Y-2.636
X8.3158Y-3.8285
X8.3158Y-3.8679
X8.3158Y-3.9073
X8.3158Y-3.9466
X8.3158Y-3.986
T3
X2.0169Y-2.4028
X2.0169Y-2.4528
X2.0169Y-2.5028
X2.0169Y-2.5528
X2.0169Y-2.6028
X2.0169Y-2.6528
X2.0169Y-2.7028
X2.0169Y-2.7528
X2.0169Y-2.8028
X2.0169Y-2.8528
X2.0169Y-2.9028
X2.0169Y-2.9528
X2.0169Y-3.0028
X2.0169Y-3.0528
X2.0169Y-3.1028
X2.0169Y-3.1528
X2.0669Y-2.4028
X2.0669Y-2.4528
X2.0669Y-2.5028
X2.0669Y-2.5528
X2.0669Y-2.6028
X2.0669Y-2.6528
X2.0669Y-2.7028
X2.0669Y-2.7528
X2.0669Y-2.8028
X2.0669Y-2.8528
X2.0669Y-2.9028
X2.0669Y-2.9528
X2.0669Y-3.0028
X2.0669Y-3.0528
X2.0669Y-3.1028
X2.0669Y-3.1528
X5.6783Y-2.4756
X5.6783Y-2.5256
X5.6783Y-2.5756
X5.6783Y-2.6256
X5.6783Y-2.6756
X5.6783Y-2.7256
X5.6783Y-2.7756
X5.6783Y-2.8256
X5.6783Y-2.8756
X5.6783Y-2.9256
X5.6783Y-2.9756
X5.6783Y-3.0256
X5.6783Y-3.0756
X5.6783Y-3.1256
X5.6783Y-3.1756
X5.6783Y-3.2256
X5.7283Y-2.4756
X5.7283Y-2.5256
X5.7283Y-2.5756
X5.7283Y-2.6256
X5.7283Y-2.6756
X5.7283Y-2.7256
X5.7283Y-2.7756
X5.7283Y-2.8256
X5.7283Y-2.8756
X5.7283Y-2.9256
X5.7283Y-2.9756
X5.7283Y-3.0256
X5.7283Y-3.0756
X5.7283Y-3.1256
X5.7283Y-3.1756
X5.7283Y-3.2256
X6.1335Y-4.401
X6.1335Y-4.451
X6.1335Y-4.5821
X6.1335Y-4.6321
T4
X2.0088Y-3.5963
X2.0088Y-3.7703
T5
X6.1042Y-2.5105
X6.1042Y-2.6877
X6.1042Y-2.8119
X6.1042Y-2.9891
X6.1042Y-3.1133
X6.1042Y-3.2904
X6.1042Y-3.4146
X6.1042Y-3.5918
X6.1042Y-3.716
X6.1042Y-3.8932
X6.3601Y-2.5105
X6.3601Y-2.6877
X6.3601Y-2.8119
X6.3601Y-2.9891
X6.3601Y-3.1133
X6.3601Y-3.2904
X6.3601Y-3.4146
X6.3601Y-3.5918
X6.3601Y-3.716
X6.3601Y-3.8932
T6
X2.0482Y-1.3091
X2.0482Y-1.4091
X6.5016Y-2.6498
X6.5016Y-2.7482
X6.5016Y-2.8466
X6.5016Y-3.2502
X6.5016Y-3.3486
X6.5016Y-3.447
X7.0725Y-2.6498
X7.0725Y-2.8466
X7.0725Y-3.2502
X7.0725Y-3.447
T2
G00X1.9016Y-1.639
M15
G01X1.8661Y-1.639
M16
G05
G00X1.9016Y-2.0815
M15
G01X1.8661Y-2.0815
M16
G05
G00X2.0512Y-1.639
M15
G01X2.0315Y-1.639
M16
G05
G00X2.0512Y-2.0815
M15
G01X2.0315Y-2.0815
M16
G05
T7
G00X6.7713Y-2.5277
M15
G01X6.8225Y-2.5277
M16
G05
G00X6.7713Y-2.9687
M15
G01X6.8225Y-2.9687
M16
G05
G00X6.7713Y-3.1281
M15
G01X6.8225Y-3.1281
M16
G05
G00X6.7713Y-3.5691
M15
G01X6.8225Y-3.5691
M16
G05
M30
