%TF.GenerationSoftware,KiCad,Pcbnew,8.0.6*%
%TF.CreationDate,2024-12-27T13:10:45+11:00*%
%TF.ProjectId,drone_remote,64726f6e-655f-4726-956d-6f74652e6b69,rev?*%
%TF.SameCoordinates,Original*%
%TF.FileFunction,Soldermask,Top*%
%TF.FilePolarity,Negative*%
%FSLAX46Y46*%
G04 Gerber Fmt 4.6, Leading zero omitted, Abs format (unit mm)*
G04 Created by KiCad (PCBNEW 8.0.6) date 2024-12-27 13:10:45*
%MOMM*%
%LPD*%
G01*
G04 APERTURE LIST*
G04 Aperture macros list*
%AMRoundRect*
0 Rectangle with rounded corners*
0 $1 Rounding radius*
0 $2 $3 $4 $5 $6 $7 $8 $9 X,Y pos of 4 corners*
0 Add a 4 corners polygon primitive as box body*
4,1,4,$2,$3,$4,$5,$6,$7,$8,$9,$2,$3,0*
0 Add four circle primitives for the rounded corners*
1,1,$1+$1,$2,$3*
1,1,$1+$1,$4,$5*
1,1,$1+$1,$6,$7*
1,1,$1+$1,$8,$9*
0 Add four rect primitives between the rounded corners*
20,1,$1+$1,$2,$3,$4,$5,0*
20,1,$1+$1,$4,$5,$6,$7,0*
20,1,$1+$1,$6,$7,$8,$9,0*
20,1,$1+$1,$8,$9,$2,$3,0*%
G04 Aperture macros list end*
%ADD10C,0.010000*%
%ADD11RoundRect,0.250000X0.450000X-0.262500X0.450000X0.262500X-0.450000X0.262500X-0.450000X-0.262500X0*%
%ADD12RoundRect,0.100000X-0.130000X-0.100000X0.130000X-0.100000X0.130000X0.100000X-0.130000X0.100000X0*%
%ADD13RoundRect,0.250000X-0.450000X0.262500X-0.450000X-0.262500X0.450000X-0.262500X0.450000X0.262500X0*%
%ADD14RoundRect,0.162500X0.162500X-0.837500X0.162500X0.837500X-0.162500X0.837500X-0.162500X-0.837500X0*%
%ADD15RoundRect,0.250000X0.250000X0.475000X-0.250000X0.475000X-0.250000X-0.475000X0.250000X-0.475000X0*%
%ADD16RoundRect,0.250000X0.262500X0.450000X-0.262500X0.450000X-0.262500X-0.450000X0.262500X-0.450000X0*%
%ADD17R,1.700000X1.700000*%
%ADD18O,1.700000X1.700000*%
%ADD19RoundRect,0.250000X-0.262500X-0.450000X0.262500X-0.450000X0.262500X0.450000X-0.262500X0.450000X0*%
%ADD20RoundRect,0.250000X-0.250000X-0.475000X0.250000X-0.475000X0.250000X0.475000X-0.250000X0.475000X0*%
%ADD21R,1.676400X0.355600*%
%ADD22RoundRect,0.250000X0.475000X-0.250000X0.475000X0.250000X-0.475000X0.250000X-0.475000X-0.250000X0*%
%ADD23RoundRect,0.218750X-0.256250X0.218750X-0.256250X-0.218750X0.256250X-0.218750X0.256250X0.218750X0*%
%ADD24RoundRect,0.250000X-0.475000X0.250000X-0.475000X-0.250000X0.475000X-0.250000X0.475000X0.250000X0*%
%ADD25C,1.498600*%
%ADD26R,1.498600X1.498600*%
%ADD27RoundRect,0.140000X0.140000X0.170000X-0.140000X0.170000X-0.140000X-0.170000X0.140000X-0.170000X0*%
%ADD28RoundRect,0.100000X0.130000X0.100000X-0.130000X0.100000X-0.130000X-0.100000X0.130000X-0.100000X0*%
%ADD29R,1.200000X0.400000*%
%ADD30C,2.200000*%
%ADD31RoundRect,0.100000X-0.100000X0.130000X-0.100000X-0.130000X0.100000X-0.130000X0.100000X0.130000X0*%
%ADD32RoundRect,0.075000X0.075000X-0.700000X0.075000X0.700000X-0.075000X0.700000X-0.075000X-0.700000X0*%
%ADD33RoundRect,0.075000X0.700000X-0.075000X0.700000X0.075000X-0.700000X0.075000X-0.700000X-0.075000X0*%
%ADD34RoundRect,0.243750X0.243750X0.456250X-0.243750X0.456250X-0.243750X-0.456250X0.243750X-0.456250X0*%
%ADD35RoundRect,0.243750X-0.243750X-0.456250X0.243750X-0.456250X0.243750X0.456250X-0.243750X0.456250X0*%
%ADD36R,2.000000X2.000000*%
%ADD37C,2.000000*%
%ADD38R,2.000000X3.200000*%
%ADD39RoundRect,0.140000X-0.170000X0.140000X-0.170000X-0.140000X0.170000X-0.140000X0.170000X0.140000X0*%
%ADD40RoundRect,0.140000X0.170000X-0.140000X0.170000X0.140000X-0.170000X0.140000X-0.170000X-0.140000X0*%
%ADD41R,1.447800X0.889000*%
%ADD42RoundRect,0.375000X-0.625000X-0.375000X0.625000X-0.375000X0.625000X0.375000X-0.625000X0.375000X0*%
%ADD43RoundRect,0.500000X-0.500000X-1.400000X0.500000X-1.400000X0.500000X1.400000X-0.500000X1.400000X0*%
%ADD44RoundRect,0.140000X-0.140000X-0.170000X0.140000X-0.170000X0.140000X0.170000X-0.140000X0.170000X0*%
%ADD45RoundRect,0.100000X0.100000X-0.130000X0.100000X0.130000X-0.100000X0.130000X-0.100000X-0.130000X0*%
%ADD46RoundRect,0.243750X0.456250X-0.243750X0.456250X0.243750X-0.456250X0.243750X-0.456250X-0.243750X0*%
%ADD47R,0.508000X2.489200*%
%ADD48R,2.006600X2.489200*%
%ADD49C,1.397000*%
%ADD50O,1.204000X2.004000*%
%ADD51O,1.204000X2.304000*%
%ADD52C,0.650000*%
G04 APERTURE END LIST*
D10*
%TO.C,J1*%
X189735606Y-81300166D02*
X189035606Y-81300166D01*
X189035606Y-80050166D01*
X189735606Y-80050166D01*
X189735606Y-81300166D01*
G36*
X189735606Y-81300166D02*
G01*
X189035606Y-81300166D01*
X189035606Y-80050166D01*
X189735606Y-80050166D01*
X189735606Y-81300166D01*
G37*
X188935606Y-81300166D02*
X188235606Y-81300166D01*
X188235606Y-80050166D01*
X188935606Y-80050166D01*
X188935606Y-81300166D01*
G36*
X188935606Y-81300166D02*
G01*
X188235606Y-81300166D01*
X188235606Y-80050166D01*
X188935606Y-80050166D01*
X188935606Y-81300166D01*
G37*
X188135606Y-81300166D02*
X187735606Y-81300166D01*
X187735606Y-80050166D01*
X188135606Y-80050166D01*
X188135606Y-81300166D01*
G36*
X188135606Y-81300166D02*
G01*
X187735606Y-81300166D01*
X187735606Y-80050166D01*
X188135606Y-80050166D01*
X188135606Y-81300166D01*
G37*
X187635606Y-81300166D02*
X187235606Y-81300166D01*
X187235606Y-80050166D01*
X187635606Y-80050166D01*
X187635606Y-81300166D01*
G36*
X187635606Y-81300166D02*
G01*
X187235606Y-81300166D01*
X187235606Y-80050166D01*
X187635606Y-80050166D01*
X187635606Y-81300166D01*
G37*
X187135606Y-81300166D02*
X186735606Y-81300166D01*
X186735606Y-80050166D01*
X187135606Y-80050166D01*
X187135606Y-81300166D01*
G36*
X187135606Y-81300166D02*
G01*
X186735606Y-81300166D01*
X186735606Y-80050166D01*
X187135606Y-80050166D01*
X187135606Y-81300166D01*
G37*
X186635606Y-81300166D02*
X186235606Y-81300166D01*
X186235606Y-80050166D01*
X186635606Y-80050166D01*
X186635606Y-81300166D01*
G36*
X186635606Y-81300166D02*
G01*
X186235606Y-81300166D01*
X186235606Y-80050166D01*
X186635606Y-80050166D01*
X186635606Y-81300166D01*
G37*
X186135606Y-81300166D02*
X185735606Y-81300166D01*
X185735606Y-80050166D01*
X186135606Y-80050166D01*
X186135606Y-81300166D01*
G36*
X186135606Y-81300166D02*
G01*
X185735606Y-81300166D01*
X185735606Y-80050166D01*
X186135606Y-80050166D01*
X186135606Y-81300166D01*
G37*
X185635606Y-81300166D02*
X185235606Y-81300166D01*
X185235606Y-80050166D01*
X185635606Y-80050166D01*
X185635606Y-81300166D01*
G36*
X185635606Y-81300166D02*
G01*
X185235606Y-81300166D01*
X185235606Y-80050166D01*
X185635606Y-80050166D01*
X185635606Y-81300166D01*
G37*
X185135606Y-81300166D02*
X184735606Y-81300166D01*
X184735606Y-80050166D01*
X185135606Y-80050166D01*
X185135606Y-81300166D01*
G36*
X185135606Y-81300166D02*
G01*
X184735606Y-81300166D01*
X184735606Y-80050166D01*
X185135606Y-80050166D01*
X185135606Y-81300166D01*
G37*
X184635606Y-81300166D02*
X184235606Y-81300166D01*
X184235606Y-80050166D01*
X184635606Y-80050166D01*
X184635606Y-81300166D01*
G36*
X184635606Y-81300166D02*
G01*
X184235606Y-81300166D01*
X184235606Y-80050166D01*
X184635606Y-80050166D01*
X184635606Y-81300166D01*
G37*
X184135606Y-81300166D02*
X183435606Y-81300166D01*
X183435606Y-80050166D01*
X184135606Y-80050166D01*
X184135606Y-81300166D01*
G36*
X184135606Y-81300166D02*
G01*
X183435606Y-81300166D01*
X183435606Y-80050166D01*
X184135606Y-80050166D01*
X184135606Y-81300166D01*
G37*
X183335606Y-81300166D02*
X182635606Y-81300166D01*
X182635606Y-80050166D01*
X183335606Y-80050166D01*
X183335606Y-81300166D01*
G36*
X183335606Y-81300166D02*
G01*
X182635606Y-81300166D01*
X182635606Y-80050166D01*
X183335606Y-80050166D01*
X183335606Y-81300166D01*
G37*
%TD*%
D11*
%TO.C,R5*%
X124700000Y-81725000D03*
X124700000Y-79900000D03*
%TD*%
D12*
%TO.C,C20*%
X211593106Y-84842666D03*
X212233106Y-84842666D03*
%TD*%
D13*
%TO.C,R2*%
X204400000Y-102075000D03*
X204400000Y-103900000D03*
%TD*%
D14*
%TO.C,Q1*%
X165000000Y-81800000D03*
X166900000Y-81800000D03*
X165950000Y-78380000D03*
%TD*%
D15*
%TO.C,C29*%
X244100000Y-122650000D03*
X242200000Y-122650000D03*
%TD*%
D16*
%TO.C,R8*%
X179600000Y-78000000D03*
X177775000Y-78000000D03*
%TD*%
D17*
%TO.C,JP4*%
X147000000Y-115562500D03*
D18*
X147000000Y-113022500D03*
%TD*%
D19*
%TO.C,R22*%
X242337500Y-125600000D03*
X244162500Y-125600000D03*
%TD*%
D20*
%TO.C,C27*%
X225200000Y-128925000D03*
X227100000Y-128925000D03*
%TD*%
D21*
%TO.C,U3*%
X173919400Y-125350001D03*
X173919400Y-126000000D03*
X173919400Y-126650001D03*
X173919400Y-127300000D03*
X173919400Y-127950001D03*
X173919400Y-128600000D03*
X173919400Y-129250001D03*
X168280600Y-129249999D03*
X168280600Y-128600000D03*
X168280600Y-127949999D03*
X168280600Y-127300000D03*
X168280600Y-126650001D03*
X168280600Y-126000000D03*
X168280600Y-125349999D03*
%TD*%
D22*
%TO.C,C15*%
X180100000Y-84350000D03*
X180100000Y-82450000D03*
%TD*%
D23*
%TO.C,L2*%
X215650000Y-89375000D03*
X215650000Y-90950000D03*
%TD*%
D24*
%TO.C,C25*%
X140550000Y-132600000D03*
X140550000Y-130700000D03*
%TD*%
D25*
%TO.C,SW2*%
X152699401Y-124550001D03*
X152699401Y-131050002D03*
X148199400Y-124550001D03*
D26*
X148199400Y-131050002D03*
%TD*%
D11*
%TO.C,R3*%
X180200000Y-97212500D03*
X180200000Y-95387500D03*
%TD*%
D27*
%TO.C,C5*%
X184927894Y-99305734D03*
X183967894Y-99305734D03*
%TD*%
D23*
%TO.C,L1*%
X192200000Y-117425000D03*
X192200000Y-119000000D03*
%TD*%
D17*
%TO.C,J5*%
X120600000Y-95000000D03*
D18*
X123140000Y-95000000D03*
X125680000Y-95000000D03*
X128220000Y-95000000D03*
%TD*%
D17*
%TO.C,J8*%
X251257106Y-91449266D03*
D18*
X251257106Y-93989266D03*
X251257106Y-96529266D03*
X251257106Y-99069266D03*
X251257106Y-101609266D03*
X251257106Y-104149266D03*
X251257106Y-106689266D03*
X251257106Y-109229266D03*
X251257106Y-111769266D03*
%TD*%
D16*
%TO.C,R24*%
X203500000Y-127500000D03*
X201675000Y-127500000D03*
%TD*%
D22*
%TO.C,C33*%
X164150000Y-117750000D03*
X164150000Y-115850000D03*
%TD*%
D11*
%TO.C,R13*%
X212093106Y-89642666D03*
X212093106Y-87817666D03*
%TD*%
D25*
%TO.C,SW3*%
X163699401Y-139050002D03*
X157199400Y-139050002D03*
X163699401Y-134550001D03*
D26*
X157199400Y-134550001D03*
%TD*%
D13*
%TO.C,R12*%
X209793106Y-87817666D03*
X209793106Y-89642666D03*
%TD*%
D17*
%TO.C,J2*%
X173457106Y-77069266D03*
D18*
X170917106Y-77069266D03*
%TD*%
D20*
%TO.C,C31*%
X201600000Y-125100000D03*
X203500000Y-125100000D03*
%TD*%
D28*
%TO.C,D2*%
X185450606Y-83397557D03*
X184810606Y-83397557D03*
%TD*%
D25*
%TO.C,SW5*%
X148688802Y-149800001D03*
X148688802Y-143300000D03*
X153188803Y-149800001D03*
D26*
X153188803Y-143300000D03*
%TD*%
D29*
%TO.C,U6*%
X213400000Y-96935000D03*
X213400000Y-96300000D03*
X213400000Y-95665000D03*
X213400000Y-95030000D03*
X213400000Y-94395000D03*
X213400000Y-93760000D03*
X213400000Y-93125000D03*
X213400000Y-92490000D03*
X208200000Y-92490000D03*
X208200000Y-93125000D03*
X208200000Y-93760000D03*
X208200000Y-94395000D03*
X208200000Y-95030000D03*
X208200000Y-95665000D03*
X208200000Y-96300000D03*
X208200000Y-96935000D03*
%TD*%
D25*
%TO.C,SW4*%
X137699401Y-135550001D03*
X144199402Y-135550001D03*
X137699401Y-140050002D03*
D26*
X144199402Y-140050002D03*
%TD*%
D13*
%TO.C,R18*%
X160719400Y-149750001D03*
X160719400Y-147925001D03*
%TD*%
D22*
%TO.C,C17*%
X160600000Y-94600000D03*
X160600000Y-92700000D03*
%TD*%
D20*
%TO.C,C24*%
X163769400Y-131850001D03*
X161869400Y-131850001D03*
%TD*%
D30*
%TO.C,H1*%
X114000000Y-76450000D03*
%TD*%
D11*
%TO.C,R16*%
X162010529Y-123338422D03*
X162010529Y-125163422D03*
%TD*%
%TO.C,R1*%
X151800000Y-115200000D03*
X151800000Y-113375000D03*
%TD*%
D15*
%TO.C,C19*%
X217648106Y-87342666D03*
X215748106Y-87342666D03*
%TD*%
D28*
%TO.C,C21*%
X210568106Y-84842666D03*
X209928106Y-84842666D03*
%TD*%
D17*
%TO.C,J6*%
X138350000Y-88100000D03*
D18*
X135810000Y-88100000D03*
X133270000Y-88100000D03*
X130730000Y-88100000D03*
X128190000Y-88100000D03*
X125650000Y-88100000D03*
X123110000Y-88100000D03*
X120570000Y-88100000D03*
%TD*%
D31*
%TO.C,D10*%
X207400000Y-100407500D03*
X207400000Y-99767500D03*
%TD*%
D24*
%TO.C,C22*%
X204955000Y-93092500D03*
X204955000Y-94992500D03*
%TD*%
D32*
%TO.C,U1*%
X184700000Y-112850000D03*
X185200000Y-112850000D03*
X185700000Y-112850000D03*
X186200000Y-112850000D03*
X186700000Y-112850000D03*
X187200000Y-112850000D03*
X187700000Y-112850000D03*
X188200000Y-112850000D03*
X188700000Y-112850000D03*
X189200000Y-112850000D03*
X189700000Y-112850000D03*
X190200000Y-112850000D03*
X190700000Y-112850000D03*
X191200000Y-112850000D03*
X191700000Y-112850000D03*
X192200000Y-112850000D03*
D33*
X194125000Y-110925000D03*
X194125000Y-110425000D03*
X194125000Y-109925000D03*
X194125000Y-109425000D03*
X194125000Y-108925000D03*
X194125000Y-108425000D03*
X194125000Y-107925000D03*
X194125000Y-107425000D03*
X194125000Y-106925000D03*
X194125000Y-106425000D03*
X194125000Y-105925000D03*
X194125000Y-105425000D03*
X194125000Y-104925000D03*
X194125000Y-104425000D03*
X194125000Y-103925000D03*
X194125000Y-103425000D03*
D32*
X192200000Y-101500000D03*
X191700000Y-101500000D03*
X191200000Y-101500000D03*
X190700000Y-101500000D03*
X190200000Y-101500000D03*
X189700000Y-101500000D03*
X189200000Y-101500000D03*
X188700000Y-101500000D03*
X188200000Y-101500000D03*
X187700000Y-101500000D03*
X187200000Y-101500000D03*
X186700000Y-101500000D03*
X186200000Y-101500000D03*
X185700000Y-101500000D03*
X185200000Y-101500000D03*
X184700000Y-101500000D03*
D33*
X182775000Y-103425000D03*
X182775000Y-103925000D03*
X182775000Y-104425000D03*
X182775000Y-104925000D03*
X182775000Y-105425000D03*
X182775000Y-105925000D03*
X182775000Y-106425000D03*
X182775000Y-106925000D03*
X182775000Y-107425000D03*
X182775000Y-107925000D03*
X182775000Y-108425000D03*
X182775000Y-108925000D03*
X182775000Y-109425000D03*
X182775000Y-109925000D03*
X182775000Y-110425000D03*
X182775000Y-110925000D03*
%TD*%
D34*
%TO.C,F1*%
X173100000Y-82400000D03*
X171225000Y-82400000D03*
%TD*%
D35*
%TO.C,D4*%
X165325000Y-86100000D03*
X167200000Y-86100000D03*
%TD*%
D13*
%TO.C,R26*%
X225700000Y-83575000D03*
X225700000Y-85400000D03*
%TD*%
D17*
%TO.C,J7*%
X225600000Y-91000000D03*
D18*
X225600000Y-93540000D03*
X225600000Y-96080000D03*
X225600000Y-98620000D03*
X225600000Y-101160000D03*
X225600000Y-103700000D03*
X225600000Y-106240000D03*
X225600000Y-108780000D03*
X225600000Y-111320000D03*
%TD*%
D19*
%TO.C,R7*%
X192975606Y-78000166D03*
X194800606Y-78000166D03*
%TD*%
D36*
%TO.C,SW6*%
X239000000Y-131700000D03*
D37*
X234000000Y-131700000D03*
X236500000Y-131700000D03*
D38*
X242100000Y-139200000D03*
X230900000Y-139200000D03*
D37*
X234000000Y-146200000D03*
X239000000Y-146200000D03*
%TD*%
D16*
%TO.C,R17*%
X161806900Y-128250001D03*
X163631900Y-128250001D03*
%TD*%
D27*
%TO.C,C14*%
X187010000Y-120375000D03*
X186050000Y-120375000D03*
%TD*%
D22*
%TO.C,C26*%
X157719400Y-147750001D03*
X157719400Y-149650001D03*
%TD*%
D26*
%TO.C,SW1*%
X171600000Y-114000000D03*
D25*
X171600000Y-120500001D03*
X167099999Y-114000000D03*
X167099999Y-120500001D03*
%TD*%
D30*
%TO.C,H2*%
X114050000Y-149050000D03*
%TD*%
%TO.C,H4*%
X258500000Y-149000000D03*
%TD*%
D12*
%TO.C,D1*%
X186900606Y-83400166D03*
X187540606Y-83400166D03*
%TD*%
D30*
%TO.C,H3*%
X258500000Y-76550000D03*
%TD*%
D39*
%TO.C,C6*%
X180400000Y-110750000D03*
X180400000Y-111710000D03*
%TD*%
D40*
%TO.C,C3*%
X196875000Y-111485000D03*
X196875000Y-110525000D03*
%TD*%
D16*
%TO.C,R11*%
X191200000Y-89500000D03*
X189375000Y-89500000D03*
%TD*%
%TO.C,R20*%
X227125000Y-131325000D03*
X225300000Y-131325000D03*
%TD*%
D17*
%TO.C,JP1*%
X120600000Y-81800000D03*
D18*
X120600000Y-79260000D03*
%TD*%
D39*
%TO.C,C9*%
X195500000Y-120500000D03*
X195500000Y-121460000D03*
%TD*%
D41*
%TO.C,X1*%
X186579600Y-124875000D03*
X191050000Y-124875000D03*
X191050000Y-122375000D03*
X186579600Y-122375000D03*
%TD*%
D15*
%TO.C,C32*%
X214650000Y-127200000D03*
X212750000Y-127200000D03*
%TD*%
D42*
%TO.C,U2*%
X165550000Y-89100000D03*
X165550000Y-91400000D03*
D43*
X171850000Y-91400000D03*
D42*
X165550000Y-93700000D03*
%TD*%
D20*
%TO.C,C28*%
X235700000Y-122450000D03*
X237600000Y-122450000D03*
%TD*%
D16*
%TO.C,R23*%
X197412500Y-129700000D03*
X195587500Y-129700000D03*
%TD*%
D39*
%TO.C,C10*%
X194000000Y-120440000D03*
X194000000Y-121400000D03*
%TD*%
D19*
%TO.C,R10*%
X189287500Y-92550000D03*
X191112500Y-92550000D03*
%TD*%
%TO.C,R25*%
X212775000Y-129600000D03*
X214600000Y-129600000D03*
%TD*%
D24*
%TO.C,C16*%
X160600000Y-88700000D03*
X160600000Y-90600000D03*
%TD*%
D44*
%TO.C,C13*%
X189590000Y-120375000D03*
X190550000Y-120375000D03*
%TD*%
%TO.C,C7*%
X183550000Y-117375000D03*
X184510000Y-117375000D03*
%TD*%
D21*
%TO.C,U4*%
X206838800Y-121300002D03*
X206838800Y-120650001D03*
X206838800Y-120000000D03*
X206838800Y-119350001D03*
X206838800Y-118700002D03*
X206838800Y-118050001D03*
X206838800Y-117400002D03*
X201200000Y-117400000D03*
X201200000Y-118050001D03*
X201200000Y-118700000D03*
X201200000Y-119350001D03*
X201200000Y-120000000D03*
X201200000Y-120650001D03*
X201200000Y-121300000D03*
%TD*%
D31*
%TO.C,D6*%
X204400000Y-99675000D03*
X204400000Y-100315000D03*
%TD*%
D45*
%TO.C,D3*%
X176000000Y-82265000D03*
X176000000Y-81625000D03*
%TD*%
D31*
%TO.C,D9*%
X225700000Y-81175000D03*
X225700000Y-81815000D03*
%TD*%
D44*
%TO.C,C8*%
X189740000Y-115200000D03*
X190700000Y-115200000D03*
%TD*%
D16*
%TO.C,R21*%
X237562500Y-125500000D03*
X235737500Y-125500000D03*
%TD*%
%TO.C,R4*%
X163125000Y-99900000D03*
X161300000Y-99900000D03*
%TD*%
D46*
%TO.C,D5*%
X160600000Y-83975000D03*
X160600000Y-82100000D03*
%TD*%
D40*
%TO.C,C4*%
X196020594Y-103534362D03*
X196020594Y-102574362D03*
%TD*%
D36*
%TO.C,SW7*%
X209600000Y-132300000D03*
D37*
X204600000Y-132300000D03*
X207100000Y-132300000D03*
D38*
X212700000Y-139800000D03*
X201500000Y-139800000D03*
D37*
X204600000Y-146800000D03*
X209600000Y-146800000D03*
%TD*%
D20*
%TO.C,C1*%
X199075000Y-103725000D03*
X200975000Y-103725000D03*
%TD*%
D47*
%TO.C,J3*%
X212328706Y-81242666D03*
X211515906Y-81242666D03*
X210703106Y-81242666D03*
X209890306Y-81242666D03*
X209077506Y-81242666D03*
D48*
X215148106Y-81242666D03*
X206258106Y-81242666D03*
D49*
X212912906Y-78778866D03*
X208493306Y-78778866D03*
D48*
X215148106Y-75756266D03*
X206258106Y-75756266D03*
%TD*%
D50*
%TO.C,J1*%
X181865606Y-75920166D03*
X190505606Y-75920166D03*
D51*
X181865606Y-80100166D03*
X190505606Y-80100166D03*
D52*
X183295606Y-79600166D03*
X189075606Y-79600166D03*
%TD*%
D24*
%TO.C,C23*%
X156519400Y-125150001D03*
X156519400Y-123250001D03*
%TD*%
D17*
%TO.C,J4*%
X177300000Y-99800000D03*
D18*
X174760000Y-99800000D03*
X172220000Y-99800000D03*
X169680000Y-99800000D03*
X167140000Y-99800000D03*
%TD*%
D11*
%TO.C,R19*%
X137550000Y-130700000D03*
X137550000Y-132525000D03*
%TD*%
D44*
%TO.C,C2*%
X183570000Y-114875000D03*
X184530000Y-114875000D03*
%TD*%
D20*
%TO.C,C30*%
X195600000Y-132300000D03*
X197500000Y-132300000D03*
%TD*%
D13*
%TO.C,R6*%
X207400000Y-103900000D03*
X207400000Y-102075000D03*
%TD*%
M02*
