%TF.GenerationSoftware,KiCad,Pcbnew,8.0.6*%
%TF.CreationDate,2024-12-27T13:10:45+11:00*%
%TF.ProjectId,drone_remote,64726f6e-655f-4726-956d-6f74652e6b69,rev?*%
%TF.SameCoordinates,Original*%
%TF.FileFunction,Legend,Top*%
%TF.FilePolarity,Positive*%
%FSLAX46Y46*%
G04 Gerber Fmt 4.6, Leading zero omitted, Abs format (unit mm)*
G04 Created by KiCad (PCBNEW 8.0.6) date 2024-12-27 13:10:45*
%MOMM*%
%LPD*%
G01*
G04 APERTURE LIST*
%ADD10C,0.150000*%
%ADD11C,0.120000*%
%ADD12C,0.000000*%
%ADD13C,0.152400*%
%ADD14C,0.100000*%
%ADD15C,0.508000*%
%ADD16C,0.200000*%
G04 APERTURE END LIST*
D10*
X123504819Y-80979166D02*
X123028628Y-81312499D01*
X123504819Y-81550594D02*
X122504819Y-81550594D01*
X122504819Y-81550594D02*
X122504819Y-81169642D01*
X122504819Y-81169642D02*
X122552438Y-81074404D01*
X122552438Y-81074404D02*
X122600057Y-81026785D01*
X122600057Y-81026785D02*
X122695295Y-80979166D01*
X122695295Y-80979166D02*
X122838152Y-80979166D01*
X122838152Y-80979166D02*
X122933390Y-81026785D01*
X122933390Y-81026785D02*
X122981009Y-81074404D01*
X122981009Y-81074404D02*
X123028628Y-81169642D01*
X123028628Y-81169642D02*
X123028628Y-81550594D01*
X122504819Y-80074404D02*
X122504819Y-80550594D01*
X122504819Y-80550594D02*
X122981009Y-80598213D01*
X122981009Y-80598213D02*
X122933390Y-80550594D01*
X122933390Y-80550594D02*
X122885771Y-80455356D01*
X122885771Y-80455356D02*
X122885771Y-80217261D01*
X122885771Y-80217261D02*
X122933390Y-80122023D01*
X122933390Y-80122023D02*
X122981009Y-80074404D01*
X122981009Y-80074404D02*
X123076247Y-80026785D01*
X123076247Y-80026785D02*
X123314342Y-80026785D01*
X123314342Y-80026785D02*
X123409580Y-80074404D01*
X123409580Y-80074404D02*
X123457200Y-80122023D01*
X123457200Y-80122023D02*
X123504819Y-80217261D01*
X123504819Y-80217261D02*
X123504819Y-80455356D01*
X123504819Y-80455356D02*
X123457200Y-80550594D01*
X123457200Y-80550594D02*
X123409580Y-80598213D01*
X213615248Y-85102246D02*
X213567629Y-85149866D01*
X213567629Y-85149866D02*
X213424772Y-85197485D01*
X213424772Y-85197485D02*
X213329534Y-85197485D01*
X213329534Y-85197485D02*
X213186677Y-85149866D01*
X213186677Y-85149866D02*
X213091439Y-85054627D01*
X213091439Y-85054627D02*
X213043820Y-84959389D01*
X213043820Y-84959389D02*
X212996201Y-84768913D01*
X212996201Y-84768913D02*
X212996201Y-84626056D01*
X212996201Y-84626056D02*
X213043820Y-84435580D01*
X213043820Y-84435580D02*
X213091439Y-84340342D01*
X213091439Y-84340342D02*
X213186677Y-84245104D01*
X213186677Y-84245104D02*
X213329534Y-84197485D01*
X213329534Y-84197485D02*
X213424772Y-84197485D01*
X213424772Y-84197485D02*
X213567629Y-84245104D01*
X213567629Y-84245104D02*
X213615248Y-84292723D01*
X213996201Y-84292723D02*
X214043820Y-84245104D01*
X214043820Y-84245104D02*
X214139058Y-84197485D01*
X214139058Y-84197485D02*
X214377153Y-84197485D01*
X214377153Y-84197485D02*
X214472391Y-84245104D01*
X214472391Y-84245104D02*
X214520010Y-84292723D01*
X214520010Y-84292723D02*
X214567629Y-84387961D01*
X214567629Y-84387961D02*
X214567629Y-84483199D01*
X214567629Y-84483199D02*
X214520010Y-84626056D01*
X214520010Y-84626056D02*
X213948582Y-85197485D01*
X213948582Y-85197485D02*
X214567629Y-85197485D01*
X215186677Y-84197485D02*
X215281915Y-84197485D01*
X215281915Y-84197485D02*
X215377153Y-84245104D01*
X215377153Y-84245104D02*
X215424772Y-84292723D01*
X215424772Y-84292723D02*
X215472391Y-84387961D01*
X215472391Y-84387961D02*
X215520010Y-84578437D01*
X215520010Y-84578437D02*
X215520010Y-84816532D01*
X215520010Y-84816532D02*
X215472391Y-85007008D01*
X215472391Y-85007008D02*
X215424772Y-85102246D01*
X215424772Y-85102246D02*
X215377153Y-85149866D01*
X215377153Y-85149866D02*
X215281915Y-85197485D01*
X215281915Y-85197485D02*
X215186677Y-85197485D01*
X215186677Y-85197485D02*
X215091439Y-85149866D01*
X215091439Y-85149866D02*
X215043820Y-85102246D01*
X215043820Y-85102246D02*
X214996201Y-85007008D01*
X214996201Y-85007008D02*
X214948582Y-84816532D01*
X214948582Y-84816532D02*
X214948582Y-84578437D01*
X214948582Y-84578437D02*
X214996201Y-84387961D01*
X214996201Y-84387961D02*
X215043820Y-84292723D01*
X215043820Y-84292723D02*
X215091439Y-84245104D01*
X215091439Y-84245104D02*
X215186677Y-84197485D01*
X203354819Y-103054166D02*
X202878628Y-103387499D01*
X203354819Y-103625594D02*
X202354819Y-103625594D01*
X202354819Y-103625594D02*
X202354819Y-103244642D01*
X202354819Y-103244642D02*
X202402438Y-103149404D01*
X202402438Y-103149404D02*
X202450057Y-103101785D01*
X202450057Y-103101785D02*
X202545295Y-103054166D01*
X202545295Y-103054166D02*
X202688152Y-103054166D01*
X202688152Y-103054166D02*
X202783390Y-103101785D01*
X202783390Y-103101785D02*
X202831009Y-103149404D01*
X202831009Y-103149404D02*
X202878628Y-103244642D01*
X202878628Y-103244642D02*
X202878628Y-103625594D01*
X202450057Y-102673213D02*
X202402438Y-102625594D01*
X202402438Y-102625594D02*
X202354819Y-102530356D01*
X202354819Y-102530356D02*
X202354819Y-102292261D01*
X202354819Y-102292261D02*
X202402438Y-102197023D01*
X202402438Y-102197023D02*
X202450057Y-102149404D01*
X202450057Y-102149404D02*
X202545295Y-102101785D01*
X202545295Y-102101785D02*
X202640533Y-102101785D01*
X202640533Y-102101785D02*
X202783390Y-102149404D01*
X202783390Y-102149404D02*
X203354819Y-102720832D01*
X203354819Y-102720832D02*
X203354819Y-102101785D01*
X163850057Y-80185238D02*
X163802438Y-80280476D01*
X163802438Y-80280476D02*
X163707200Y-80375714D01*
X163707200Y-80375714D02*
X163564342Y-80518571D01*
X163564342Y-80518571D02*
X163516723Y-80613809D01*
X163516723Y-80613809D02*
X163516723Y-80709047D01*
X163754819Y-80661428D02*
X163707200Y-80756666D01*
X163707200Y-80756666D02*
X163611961Y-80851904D01*
X163611961Y-80851904D02*
X163421485Y-80899523D01*
X163421485Y-80899523D02*
X163088152Y-80899523D01*
X163088152Y-80899523D02*
X162897676Y-80851904D01*
X162897676Y-80851904D02*
X162802438Y-80756666D01*
X162802438Y-80756666D02*
X162754819Y-80661428D01*
X162754819Y-80661428D02*
X162754819Y-80470952D01*
X162754819Y-80470952D02*
X162802438Y-80375714D01*
X162802438Y-80375714D02*
X162897676Y-80280476D01*
X162897676Y-80280476D02*
X163088152Y-80232857D01*
X163088152Y-80232857D02*
X163421485Y-80232857D01*
X163421485Y-80232857D02*
X163611961Y-80280476D01*
X163611961Y-80280476D02*
X163707200Y-80375714D01*
X163707200Y-80375714D02*
X163754819Y-80470952D01*
X163754819Y-80470952D02*
X163754819Y-80661428D01*
X163754819Y-79280476D02*
X163754819Y-79851904D01*
X163754819Y-79566190D02*
X162754819Y-79566190D01*
X162754819Y-79566190D02*
X162897676Y-79661428D01*
X162897676Y-79661428D02*
X162992914Y-79756666D01*
X162992914Y-79756666D02*
X163040533Y-79851904D01*
X246007142Y-123109580D02*
X245959523Y-123157200D01*
X245959523Y-123157200D02*
X245816666Y-123204819D01*
X245816666Y-123204819D02*
X245721428Y-123204819D01*
X245721428Y-123204819D02*
X245578571Y-123157200D01*
X245578571Y-123157200D02*
X245483333Y-123061961D01*
X245483333Y-123061961D02*
X245435714Y-122966723D01*
X245435714Y-122966723D02*
X245388095Y-122776247D01*
X245388095Y-122776247D02*
X245388095Y-122633390D01*
X245388095Y-122633390D02*
X245435714Y-122442914D01*
X245435714Y-122442914D02*
X245483333Y-122347676D01*
X245483333Y-122347676D02*
X245578571Y-122252438D01*
X245578571Y-122252438D02*
X245721428Y-122204819D01*
X245721428Y-122204819D02*
X245816666Y-122204819D01*
X245816666Y-122204819D02*
X245959523Y-122252438D01*
X245959523Y-122252438D02*
X246007142Y-122300057D01*
X246388095Y-122300057D02*
X246435714Y-122252438D01*
X246435714Y-122252438D02*
X246530952Y-122204819D01*
X246530952Y-122204819D02*
X246769047Y-122204819D01*
X246769047Y-122204819D02*
X246864285Y-122252438D01*
X246864285Y-122252438D02*
X246911904Y-122300057D01*
X246911904Y-122300057D02*
X246959523Y-122395295D01*
X246959523Y-122395295D02*
X246959523Y-122490533D01*
X246959523Y-122490533D02*
X246911904Y-122633390D01*
X246911904Y-122633390D02*
X246340476Y-123204819D01*
X246340476Y-123204819D02*
X246959523Y-123204819D01*
X247435714Y-123204819D02*
X247626190Y-123204819D01*
X247626190Y-123204819D02*
X247721428Y-123157200D01*
X247721428Y-123157200D02*
X247769047Y-123109580D01*
X247769047Y-123109580D02*
X247864285Y-122966723D01*
X247864285Y-122966723D02*
X247911904Y-122776247D01*
X247911904Y-122776247D02*
X247911904Y-122395295D01*
X247911904Y-122395295D02*
X247864285Y-122300057D01*
X247864285Y-122300057D02*
X247816666Y-122252438D01*
X247816666Y-122252438D02*
X247721428Y-122204819D01*
X247721428Y-122204819D02*
X247530952Y-122204819D01*
X247530952Y-122204819D02*
X247435714Y-122252438D01*
X247435714Y-122252438D02*
X247388095Y-122300057D01*
X247388095Y-122300057D02*
X247340476Y-122395295D01*
X247340476Y-122395295D02*
X247340476Y-122633390D01*
X247340476Y-122633390D02*
X247388095Y-122728628D01*
X247388095Y-122728628D02*
X247435714Y-122776247D01*
X247435714Y-122776247D02*
X247530952Y-122823866D01*
X247530952Y-122823866D02*
X247721428Y-122823866D01*
X247721428Y-122823866D02*
X247816666Y-122776247D01*
X247816666Y-122776247D02*
X247864285Y-122728628D01*
X247864285Y-122728628D02*
X247911904Y-122633390D01*
X178520833Y-80104819D02*
X178187500Y-79628628D01*
X177949405Y-80104819D02*
X177949405Y-79104819D01*
X177949405Y-79104819D02*
X178330357Y-79104819D01*
X178330357Y-79104819D02*
X178425595Y-79152438D01*
X178425595Y-79152438D02*
X178473214Y-79200057D01*
X178473214Y-79200057D02*
X178520833Y-79295295D01*
X178520833Y-79295295D02*
X178520833Y-79438152D01*
X178520833Y-79438152D02*
X178473214Y-79533390D01*
X178473214Y-79533390D02*
X178425595Y-79581009D01*
X178425595Y-79581009D02*
X178330357Y-79628628D01*
X178330357Y-79628628D02*
X177949405Y-79628628D01*
X179092262Y-79533390D02*
X178997024Y-79485771D01*
X178997024Y-79485771D02*
X178949405Y-79438152D01*
X178949405Y-79438152D02*
X178901786Y-79342914D01*
X178901786Y-79342914D02*
X178901786Y-79295295D01*
X178901786Y-79295295D02*
X178949405Y-79200057D01*
X178949405Y-79200057D02*
X178997024Y-79152438D01*
X178997024Y-79152438D02*
X179092262Y-79104819D01*
X179092262Y-79104819D02*
X179282738Y-79104819D01*
X179282738Y-79104819D02*
X179377976Y-79152438D01*
X179377976Y-79152438D02*
X179425595Y-79200057D01*
X179425595Y-79200057D02*
X179473214Y-79295295D01*
X179473214Y-79295295D02*
X179473214Y-79342914D01*
X179473214Y-79342914D02*
X179425595Y-79438152D01*
X179425595Y-79438152D02*
X179377976Y-79485771D01*
X179377976Y-79485771D02*
X179282738Y-79533390D01*
X179282738Y-79533390D02*
X179092262Y-79533390D01*
X179092262Y-79533390D02*
X178997024Y-79581009D01*
X178997024Y-79581009D02*
X178949405Y-79628628D01*
X178949405Y-79628628D02*
X178901786Y-79723866D01*
X178901786Y-79723866D02*
X178901786Y-79914342D01*
X178901786Y-79914342D02*
X178949405Y-80009580D01*
X178949405Y-80009580D02*
X178997024Y-80057200D01*
X178997024Y-80057200D02*
X179092262Y-80104819D01*
X179092262Y-80104819D02*
X179282738Y-80104819D01*
X179282738Y-80104819D02*
X179377976Y-80057200D01*
X179377976Y-80057200D02*
X179425595Y-80009580D01*
X179425595Y-80009580D02*
X179473214Y-79914342D01*
X179473214Y-79914342D02*
X179473214Y-79723866D01*
X179473214Y-79723866D02*
X179425595Y-79628628D01*
X179425595Y-79628628D02*
X179377976Y-79581009D01*
X179377976Y-79581009D02*
X179282738Y-79533390D01*
X146166666Y-117347319D02*
X146166666Y-118061604D01*
X146166666Y-118061604D02*
X146119047Y-118204461D01*
X146119047Y-118204461D02*
X146023809Y-118299700D01*
X146023809Y-118299700D02*
X145880952Y-118347319D01*
X145880952Y-118347319D02*
X145785714Y-118347319D01*
X146642857Y-118347319D02*
X146642857Y-117347319D01*
X146642857Y-117347319D02*
X147023809Y-117347319D01*
X147023809Y-117347319D02*
X147119047Y-117394938D01*
X147119047Y-117394938D02*
X147166666Y-117442557D01*
X147166666Y-117442557D02*
X147214285Y-117537795D01*
X147214285Y-117537795D02*
X147214285Y-117680652D01*
X147214285Y-117680652D02*
X147166666Y-117775890D01*
X147166666Y-117775890D02*
X147119047Y-117823509D01*
X147119047Y-117823509D02*
X147023809Y-117871128D01*
X147023809Y-117871128D02*
X146642857Y-117871128D01*
X148071428Y-117680652D02*
X148071428Y-118347319D01*
X147833333Y-117299700D02*
X147595238Y-118013985D01*
X147595238Y-118013985D02*
X148214285Y-118013985D01*
X245769642Y-126154819D02*
X245436309Y-125678628D01*
X245198214Y-126154819D02*
X245198214Y-125154819D01*
X245198214Y-125154819D02*
X245579166Y-125154819D01*
X245579166Y-125154819D02*
X245674404Y-125202438D01*
X245674404Y-125202438D02*
X245722023Y-125250057D01*
X245722023Y-125250057D02*
X245769642Y-125345295D01*
X245769642Y-125345295D02*
X245769642Y-125488152D01*
X245769642Y-125488152D02*
X245722023Y-125583390D01*
X245722023Y-125583390D02*
X245674404Y-125631009D01*
X245674404Y-125631009D02*
X245579166Y-125678628D01*
X245579166Y-125678628D02*
X245198214Y-125678628D01*
X246150595Y-125250057D02*
X246198214Y-125202438D01*
X246198214Y-125202438D02*
X246293452Y-125154819D01*
X246293452Y-125154819D02*
X246531547Y-125154819D01*
X246531547Y-125154819D02*
X246626785Y-125202438D01*
X246626785Y-125202438D02*
X246674404Y-125250057D01*
X246674404Y-125250057D02*
X246722023Y-125345295D01*
X246722023Y-125345295D02*
X246722023Y-125440533D01*
X246722023Y-125440533D02*
X246674404Y-125583390D01*
X246674404Y-125583390D02*
X246102976Y-126154819D01*
X246102976Y-126154819D02*
X246722023Y-126154819D01*
X247102976Y-125250057D02*
X247150595Y-125202438D01*
X247150595Y-125202438D02*
X247245833Y-125154819D01*
X247245833Y-125154819D02*
X247483928Y-125154819D01*
X247483928Y-125154819D02*
X247579166Y-125202438D01*
X247579166Y-125202438D02*
X247626785Y-125250057D01*
X247626785Y-125250057D02*
X247674404Y-125345295D01*
X247674404Y-125345295D02*
X247674404Y-125440533D01*
X247674404Y-125440533D02*
X247626785Y-125583390D01*
X247626785Y-125583390D02*
X247055357Y-126154819D01*
X247055357Y-126154819D02*
X247674404Y-126154819D01*
X221857142Y-129284580D02*
X221809523Y-129332200D01*
X221809523Y-129332200D02*
X221666666Y-129379819D01*
X221666666Y-129379819D02*
X221571428Y-129379819D01*
X221571428Y-129379819D02*
X221428571Y-129332200D01*
X221428571Y-129332200D02*
X221333333Y-129236961D01*
X221333333Y-129236961D02*
X221285714Y-129141723D01*
X221285714Y-129141723D02*
X221238095Y-128951247D01*
X221238095Y-128951247D02*
X221238095Y-128808390D01*
X221238095Y-128808390D02*
X221285714Y-128617914D01*
X221285714Y-128617914D02*
X221333333Y-128522676D01*
X221333333Y-128522676D02*
X221428571Y-128427438D01*
X221428571Y-128427438D02*
X221571428Y-128379819D01*
X221571428Y-128379819D02*
X221666666Y-128379819D01*
X221666666Y-128379819D02*
X221809523Y-128427438D01*
X221809523Y-128427438D02*
X221857142Y-128475057D01*
X222238095Y-128475057D02*
X222285714Y-128427438D01*
X222285714Y-128427438D02*
X222380952Y-128379819D01*
X222380952Y-128379819D02*
X222619047Y-128379819D01*
X222619047Y-128379819D02*
X222714285Y-128427438D01*
X222714285Y-128427438D02*
X222761904Y-128475057D01*
X222761904Y-128475057D02*
X222809523Y-128570295D01*
X222809523Y-128570295D02*
X222809523Y-128665533D01*
X222809523Y-128665533D02*
X222761904Y-128808390D01*
X222761904Y-128808390D02*
X222190476Y-129379819D01*
X222190476Y-129379819D02*
X222809523Y-129379819D01*
X223142857Y-128379819D02*
X223809523Y-128379819D01*
X223809523Y-128379819D02*
X223380952Y-129379819D01*
X170338095Y-126754819D02*
X170338095Y-127564342D01*
X170338095Y-127564342D02*
X170385714Y-127659580D01*
X170385714Y-127659580D02*
X170433333Y-127707200D01*
X170433333Y-127707200D02*
X170528571Y-127754819D01*
X170528571Y-127754819D02*
X170719047Y-127754819D01*
X170719047Y-127754819D02*
X170814285Y-127707200D01*
X170814285Y-127707200D02*
X170861904Y-127659580D01*
X170861904Y-127659580D02*
X170909523Y-127564342D01*
X170909523Y-127564342D02*
X170909523Y-126754819D01*
X171290476Y-126754819D02*
X171909523Y-126754819D01*
X171909523Y-126754819D02*
X171576190Y-127135771D01*
X171576190Y-127135771D02*
X171719047Y-127135771D01*
X171719047Y-127135771D02*
X171814285Y-127183390D01*
X171814285Y-127183390D02*
X171861904Y-127231009D01*
X171861904Y-127231009D02*
X171909523Y-127326247D01*
X171909523Y-127326247D02*
X171909523Y-127564342D01*
X171909523Y-127564342D02*
X171861904Y-127659580D01*
X171861904Y-127659580D02*
X171814285Y-127707200D01*
X171814285Y-127707200D02*
X171719047Y-127754819D01*
X171719047Y-127754819D02*
X171433333Y-127754819D01*
X171433333Y-127754819D02*
X171338095Y-127707200D01*
X171338095Y-127707200D02*
X171290476Y-127659580D01*
X166419400Y-125004820D02*
X166419400Y-125242915D01*
X166181305Y-125147677D02*
X166419400Y-125242915D01*
X166419400Y-125242915D02*
X166657495Y-125147677D01*
X166276543Y-125433391D02*
X166419400Y-125242915D01*
X166419400Y-125242915D02*
X166562257Y-125433391D01*
X178779580Y-84042857D02*
X178827200Y-84090476D01*
X178827200Y-84090476D02*
X178874819Y-84233333D01*
X178874819Y-84233333D02*
X178874819Y-84328571D01*
X178874819Y-84328571D02*
X178827200Y-84471428D01*
X178827200Y-84471428D02*
X178731961Y-84566666D01*
X178731961Y-84566666D02*
X178636723Y-84614285D01*
X178636723Y-84614285D02*
X178446247Y-84661904D01*
X178446247Y-84661904D02*
X178303390Y-84661904D01*
X178303390Y-84661904D02*
X178112914Y-84614285D01*
X178112914Y-84614285D02*
X178017676Y-84566666D01*
X178017676Y-84566666D02*
X177922438Y-84471428D01*
X177922438Y-84471428D02*
X177874819Y-84328571D01*
X177874819Y-84328571D02*
X177874819Y-84233333D01*
X177874819Y-84233333D02*
X177922438Y-84090476D01*
X177922438Y-84090476D02*
X177970057Y-84042857D01*
X178874819Y-83090476D02*
X178874819Y-83661904D01*
X178874819Y-83376190D02*
X177874819Y-83376190D01*
X177874819Y-83376190D02*
X178017676Y-83471428D01*
X178017676Y-83471428D02*
X178112914Y-83566666D01*
X178112914Y-83566666D02*
X178160533Y-83661904D01*
X177874819Y-82185714D02*
X177874819Y-82661904D01*
X177874819Y-82661904D02*
X178351009Y-82709523D01*
X178351009Y-82709523D02*
X178303390Y-82661904D01*
X178303390Y-82661904D02*
X178255771Y-82566666D01*
X178255771Y-82566666D02*
X178255771Y-82328571D01*
X178255771Y-82328571D02*
X178303390Y-82233333D01*
X178303390Y-82233333D02*
X178351009Y-82185714D01*
X178351009Y-82185714D02*
X178446247Y-82138095D01*
X178446247Y-82138095D02*
X178684342Y-82138095D01*
X178684342Y-82138095D02*
X178779580Y-82185714D01*
X178779580Y-82185714D02*
X178827200Y-82233333D01*
X178827200Y-82233333D02*
X178874819Y-82328571D01*
X178874819Y-82328571D02*
X178874819Y-82566666D01*
X178874819Y-82566666D02*
X178827200Y-82661904D01*
X178827200Y-82661904D02*
X178779580Y-82709523D01*
X217554819Y-90316666D02*
X217554819Y-90792856D01*
X217554819Y-90792856D02*
X216554819Y-90792856D01*
X216650057Y-90030951D02*
X216602438Y-89983332D01*
X216602438Y-89983332D02*
X216554819Y-89888094D01*
X216554819Y-89888094D02*
X216554819Y-89649999D01*
X216554819Y-89649999D02*
X216602438Y-89554761D01*
X216602438Y-89554761D02*
X216650057Y-89507142D01*
X216650057Y-89507142D02*
X216745295Y-89459523D01*
X216745295Y-89459523D02*
X216840533Y-89459523D01*
X216840533Y-89459523D02*
X216983390Y-89507142D01*
X216983390Y-89507142D02*
X217554819Y-90078570D01*
X217554819Y-90078570D02*
X217554819Y-89459523D01*
X142589580Y-132292857D02*
X142637200Y-132340476D01*
X142637200Y-132340476D02*
X142684819Y-132483333D01*
X142684819Y-132483333D02*
X142684819Y-132578571D01*
X142684819Y-132578571D02*
X142637200Y-132721428D01*
X142637200Y-132721428D02*
X142541961Y-132816666D01*
X142541961Y-132816666D02*
X142446723Y-132864285D01*
X142446723Y-132864285D02*
X142256247Y-132911904D01*
X142256247Y-132911904D02*
X142113390Y-132911904D01*
X142113390Y-132911904D02*
X141922914Y-132864285D01*
X141922914Y-132864285D02*
X141827676Y-132816666D01*
X141827676Y-132816666D02*
X141732438Y-132721428D01*
X141732438Y-132721428D02*
X141684819Y-132578571D01*
X141684819Y-132578571D02*
X141684819Y-132483333D01*
X141684819Y-132483333D02*
X141732438Y-132340476D01*
X141732438Y-132340476D02*
X141780057Y-132292857D01*
X141780057Y-131911904D02*
X141732438Y-131864285D01*
X141732438Y-131864285D02*
X141684819Y-131769047D01*
X141684819Y-131769047D02*
X141684819Y-131530952D01*
X141684819Y-131530952D02*
X141732438Y-131435714D01*
X141732438Y-131435714D02*
X141780057Y-131388095D01*
X141780057Y-131388095D02*
X141875295Y-131340476D01*
X141875295Y-131340476D02*
X141970533Y-131340476D01*
X141970533Y-131340476D02*
X142113390Y-131388095D01*
X142113390Y-131388095D02*
X142684819Y-131959523D01*
X142684819Y-131959523D02*
X142684819Y-131340476D01*
X141684819Y-130435714D02*
X141684819Y-130911904D01*
X141684819Y-130911904D02*
X142161009Y-130959523D01*
X142161009Y-130959523D02*
X142113390Y-130911904D01*
X142113390Y-130911904D02*
X142065771Y-130816666D01*
X142065771Y-130816666D02*
X142065771Y-130578571D01*
X142065771Y-130578571D02*
X142113390Y-130483333D01*
X142113390Y-130483333D02*
X142161009Y-130435714D01*
X142161009Y-130435714D02*
X142256247Y-130388095D01*
X142256247Y-130388095D02*
X142494342Y-130388095D01*
X142494342Y-130388095D02*
X142589580Y-130435714D01*
X142589580Y-130435714D02*
X142637200Y-130483333D01*
X142637200Y-130483333D02*
X142684819Y-130578571D01*
X142684819Y-130578571D02*
X142684819Y-130816666D01*
X142684819Y-130816666D02*
X142637200Y-130911904D01*
X142637200Y-130911904D02*
X142589580Y-130959523D01*
X150856600Y-129133333D02*
X150904219Y-128990476D01*
X150904219Y-128990476D02*
X150904219Y-128752381D01*
X150904219Y-128752381D02*
X150856600Y-128657143D01*
X150856600Y-128657143D02*
X150808980Y-128609524D01*
X150808980Y-128609524D02*
X150713742Y-128561905D01*
X150713742Y-128561905D02*
X150618504Y-128561905D01*
X150618504Y-128561905D02*
X150523266Y-128609524D01*
X150523266Y-128609524D02*
X150475647Y-128657143D01*
X150475647Y-128657143D02*
X150428028Y-128752381D01*
X150428028Y-128752381D02*
X150380409Y-128942857D01*
X150380409Y-128942857D02*
X150332790Y-129038095D01*
X150332790Y-129038095D02*
X150285171Y-129085714D01*
X150285171Y-129085714D02*
X150189933Y-129133333D01*
X150189933Y-129133333D02*
X150094695Y-129133333D01*
X150094695Y-129133333D02*
X149999457Y-129085714D01*
X149999457Y-129085714D02*
X149951838Y-129038095D01*
X149951838Y-129038095D02*
X149904219Y-128942857D01*
X149904219Y-128942857D02*
X149904219Y-128704762D01*
X149904219Y-128704762D02*
X149951838Y-128561905D01*
X149904219Y-128228571D02*
X150904219Y-127990476D01*
X150904219Y-127990476D02*
X150189933Y-127800000D01*
X150189933Y-127800000D02*
X150904219Y-127609524D01*
X150904219Y-127609524D02*
X149904219Y-127371429D01*
X149999457Y-127038095D02*
X149951838Y-126990476D01*
X149951838Y-126990476D02*
X149904219Y-126895238D01*
X149904219Y-126895238D02*
X149904219Y-126657143D01*
X149904219Y-126657143D02*
X149951838Y-126561905D01*
X149951838Y-126561905D02*
X149999457Y-126514286D01*
X149999457Y-126514286D02*
X150094695Y-126466667D01*
X150094695Y-126466667D02*
X150189933Y-126466667D01*
X150189933Y-126466667D02*
X150332790Y-126514286D01*
X150332790Y-126514286D02*
X150904219Y-127085714D01*
X150904219Y-127085714D02*
X150904219Y-126466667D01*
X147774219Y-122850000D02*
X148012314Y-122850000D01*
X147917076Y-123088095D02*
X148012314Y-122850000D01*
X148012314Y-122850000D02*
X147917076Y-122611905D01*
X148202790Y-122992857D02*
X148012314Y-122850000D01*
X148012314Y-122850000D02*
X148202790Y-122707143D01*
X152474219Y-123050000D02*
X152712314Y-123050000D01*
X152617076Y-123288095D02*
X152712314Y-123050000D01*
X152712314Y-123050000D02*
X152617076Y-122811905D01*
X152902790Y-123192857D02*
X152712314Y-123050000D01*
X152712314Y-123050000D02*
X152902790Y-122907143D01*
X179004819Y-96466666D02*
X178528628Y-96799999D01*
X179004819Y-97038094D02*
X178004819Y-97038094D01*
X178004819Y-97038094D02*
X178004819Y-96657142D01*
X178004819Y-96657142D02*
X178052438Y-96561904D01*
X178052438Y-96561904D02*
X178100057Y-96514285D01*
X178100057Y-96514285D02*
X178195295Y-96466666D01*
X178195295Y-96466666D02*
X178338152Y-96466666D01*
X178338152Y-96466666D02*
X178433390Y-96514285D01*
X178433390Y-96514285D02*
X178481009Y-96561904D01*
X178481009Y-96561904D02*
X178528628Y-96657142D01*
X178528628Y-96657142D02*
X178528628Y-97038094D01*
X178004819Y-96133332D02*
X178004819Y-95514285D01*
X178004819Y-95514285D02*
X178385771Y-95847618D01*
X178385771Y-95847618D02*
X178385771Y-95704761D01*
X178385771Y-95704761D02*
X178433390Y-95609523D01*
X178433390Y-95609523D02*
X178481009Y-95561904D01*
X178481009Y-95561904D02*
X178576247Y-95514285D01*
X178576247Y-95514285D02*
X178814342Y-95514285D01*
X178814342Y-95514285D02*
X178909580Y-95561904D01*
X178909580Y-95561904D02*
X178957200Y-95609523D01*
X178957200Y-95609523D02*
X179004819Y-95704761D01*
X179004819Y-95704761D02*
X179004819Y-95990475D01*
X179004819Y-95990475D02*
X178957200Y-96085713D01*
X178957200Y-96085713D02*
X178909580Y-96133332D01*
X182383333Y-99609580D02*
X182335714Y-99657200D01*
X182335714Y-99657200D02*
X182192857Y-99704819D01*
X182192857Y-99704819D02*
X182097619Y-99704819D01*
X182097619Y-99704819D02*
X181954762Y-99657200D01*
X181954762Y-99657200D02*
X181859524Y-99561961D01*
X181859524Y-99561961D02*
X181811905Y-99466723D01*
X181811905Y-99466723D02*
X181764286Y-99276247D01*
X181764286Y-99276247D02*
X181764286Y-99133390D01*
X181764286Y-99133390D02*
X181811905Y-98942914D01*
X181811905Y-98942914D02*
X181859524Y-98847676D01*
X181859524Y-98847676D02*
X181954762Y-98752438D01*
X181954762Y-98752438D02*
X182097619Y-98704819D01*
X182097619Y-98704819D02*
X182192857Y-98704819D01*
X182192857Y-98704819D02*
X182335714Y-98752438D01*
X182335714Y-98752438D02*
X182383333Y-98800057D01*
X183288095Y-98704819D02*
X182811905Y-98704819D01*
X182811905Y-98704819D02*
X182764286Y-99181009D01*
X182764286Y-99181009D02*
X182811905Y-99133390D01*
X182811905Y-99133390D02*
X182907143Y-99085771D01*
X182907143Y-99085771D02*
X183145238Y-99085771D01*
X183145238Y-99085771D02*
X183240476Y-99133390D01*
X183240476Y-99133390D02*
X183288095Y-99181009D01*
X183288095Y-99181009D02*
X183335714Y-99276247D01*
X183335714Y-99276247D02*
X183335714Y-99514342D01*
X183335714Y-99514342D02*
X183288095Y-99609580D01*
X183288095Y-99609580D02*
X183240476Y-99657200D01*
X183240476Y-99657200D02*
X183145238Y-99704819D01*
X183145238Y-99704819D02*
X182907143Y-99704819D01*
X182907143Y-99704819D02*
X182811905Y-99657200D01*
X182811905Y-99657200D02*
X182764286Y-99609580D01*
X194054819Y-118366666D02*
X194054819Y-118842856D01*
X194054819Y-118842856D02*
X193054819Y-118842856D01*
X194054819Y-117509523D02*
X194054819Y-118080951D01*
X194054819Y-117795237D02*
X193054819Y-117795237D01*
X193054819Y-117795237D02*
X193197676Y-117890475D01*
X193197676Y-117890475D02*
X193292914Y-117985713D01*
X193292914Y-117985713D02*
X193340533Y-118080951D01*
X117284819Y-95333333D02*
X117999104Y-95333333D01*
X117999104Y-95333333D02*
X118141961Y-95380952D01*
X118141961Y-95380952D02*
X118237200Y-95476190D01*
X118237200Y-95476190D02*
X118284819Y-95619047D01*
X118284819Y-95619047D02*
X118284819Y-95714285D01*
X117284819Y-94380952D02*
X117284819Y-94857142D01*
X117284819Y-94857142D02*
X117761009Y-94904761D01*
X117761009Y-94904761D02*
X117713390Y-94857142D01*
X117713390Y-94857142D02*
X117665771Y-94761904D01*
X117665771Y-94761904D02*
X117665771Y-94523809D01*
X117665771Y-94523809D02*
X117713390Y-94428571D01*
X117713390Y-94428571D02*
X117761009Y-94380952D01*
X117761009Y-94380952D02*
X117856247Y-94333333D01*
X117856247Y-94333333D02*
X118094342Y-94333333D01*
X118094342Y-94333333D02*
X118189580Y-94380952D01*
X118189580Y-94380952D02*
X118237200Y-94428571D01*
X118237200Y-94428571D02*
X118284819Y-94523809D01*
X118284819Y-94523809D02*
X118284819Y-94761904D01*
X118284819Y-94761904D02*
X118237200Y-94857142D01*
X118237200Y-94857142D02*
X118189580Y-94904761D01*
X250923772Y-88134085D02*
X250923772Y-88848370D01*
X250923772Y-88848370D02*
X250876153Y-88991227D01*
X250876153Y-88991227D02*
X250780915Y-89086466D01*
X250780915Y-89086466D02*
X250638058Y-89134085D01*
X250638058Y-89134085D02*
X250542820Y-89134085D01*
X251542820Y-88562656D02*
X251447582Y-88515037D01*
X251447582Y-88515037D02*
X251399963Y-88467418D01*
X251399963Y-88467418D02*
X251352344Y-88372180D01*
X251352344Y-88372180D02*
X251352344Y-88324561D01*
X251352344Y-88324561D02*
X251399963Y-88229323D01*
X251399963Y-88229323D02*
X251447582Y-88181704D01*
X251447582Y-88181704D02*
X251542820Y-88134085D01*
X251542820Y-88134085D02*
X251733296Y-88134085D01*
X251733296Y-88134085D02*
X251828534Y-88181704D01*
X251828534Y-88181704D02*
X251876153Y-88229323D01*
X251876153Y-88229323D02*
X251923772Y-88324561D01*
X251923772Y-88324561D02*
X251923772Y-88372180D01*
X251923772Y-88372180D02*
X251876153Y-88467418D01*
X251876153Y-88467418D02*
X251828534Y-88515037D01*
X251828534Y-88515037D02*
X251733296Y-88562656D01*
X251733296Y-88562656D02*
X251542820Y-88562656D01*
X251542820Y-88562656D02*
X251447582Y-88610275D01*
X251447582Y-88610275D02*
X251399963Y-88657894D01*
X251399963Y-88657894D02*
X251352344Y-88753132D01*
X251352344Y-88753132D02*
X251352344Y-88943608D01*
X251352344Y-88943608D02*
X251399963Y-89038846D01*
X251399963Y-89038846D02*
X251447582Y-89086466D01*
X251447582Y-89086466D02*
X251542820Y-89134085D01*
X251542820Y-89134085D02*
X251733296Y-89134085D01*
X251733296Y-89134085D02*
X251828534Y-89086466D01*
X251828534Y-89086466D02*
X251876153Y-89038846D01*
X251876153Y-89038846D02*
X251923772Y-88943608D01*
X251923772Y-88943608D02*
X251923772Y-88753132D01*
X251923772Y-88753132D02*
X251876153Y-88657894D01*
X251876153Y-88657894D02*
X251828534Y-88610275D01*
X251828534Y-88610275D02*
X251733296Y-88562656D01*
X201944642Y-129604819D02*
X201611309Y-129128628D01*
X201373214Y-129604819D02*
X201373214Y-128604819D01*
X201373214Y-128604819D02*
X201754166Y-128604819D01*
X201754166Y-128604819D02*
X201849404Y-128652438D01*
X201849404Y-128652438D02*
X201897023Y-128700057D01*
X201897023Y-128700057D02*
X201944642Y-128795295D01*
X201944642Y-128795295D02*
X201944642Y-128938152D01*
X201944642Y-128938152D02*
X201897023Y-129033390D01*
X201897023Y-129033390D02*
X201849404Y-129081009D01*
X201849404Y-129081009D02*
X201754166Y-129128628D01*
X201754166Y-129128628D02*
X201373214Y-129128628D01*
X202325595Y-128700057D02*
X202373214Y-128652438D01*
X202373214Y-128652438D02*
X202468452Y-128604819D01*
X202468452Y-128604819D02*
X202706547Y-128604819D01*
X202706547Y-128604819D02*
X202801785Y-128652438D01*
X202801785Y-128652438D02*
X202849404Y-128700057D01*
X202849404Y-128700057D02*
X202897023Y-128795295D01*
X202897023Y-128795295D02*
X202897023Y-128890533D01*
X202897023Y-128890533D02*
X202849404Y-129033390D01*
X202849404Y-129033390D02*
X202277976Y-129604819D01*
X202277976Y-129604819D02*
X202897023Y-129604819D01*
X203754166Y-128938152D02*
X203754166Y-129604819D01*
X203516071Y-128557200D02*
X203277976Y-129271485D01*
X203277976Y-129271485D02*
X203897023Y-129271485D01*
X164509580Y-113792857D02*
X164557200Y-113840476D01*
X164557200Y-113840476D02*
X164604819Y-113983333D01*
X164604819Y-113983333D02*
X164604819Y-114078571D01*
X164604819Y-114078571D02*
X164557200Y-114221428D01*
X164557200Y-114221428D02*
X164461961Y-114316666D01*
X164461961Y-114316666D02*
X164366723Y-114364285D01*
X164366723Y-114364285D02*
X164176247Y-114411904D01*
X164176247Y-114411904D02*
X164033390Y-114411904D01*
X164033390Y-114411904D02*
X163842914Y-114364285D01*
X163842914Y-114364285D02*
X163747676Y-114316666D01*
X163747676Y-114316666D02*
X163652438Y-114221428D01*
X163652438Y-114221428D02*
X163604819Y-114078571D01*
X163604819Y-114078571D02*
X163604819Y-113983333D01*
X163604819Y-113983333D02*
X163652438Y-113840476D01*
X163652438Y-113840476D02*
X163700057Y-113792857D01*
X163604819Y-113459523D02*
X163604819Y-112840476D01*
X163604819Y-112840476D02*
X163985771Y-113173809D01*
X163985771Y-113173809D02*
X163985771Y-113030952D01*
X163985771Y-113030952D02*
X164033390Y-112935714D01*
X164033390Y-112935714D02*
X164081009Y-112888095D01*
X164081009Y-112888095D02*
X164176247Y-112840476D01*
X164176247Y-112840476D02*
X164414342Y-112840476D01*
X164414342Y-112840476D02*
X164509580Y-112888095D01*
X164509580Y-112888095D02*
X164557200Y-112935714D01*
X164557200Y-112935714D02*
X164604819Y-113030952D01*
X164604819Y-113030952D02*
X164604819Y-113316666D01*
X164604819Y-113316666D02*
X164557200Y-113411904D01*
X164557200Y-113411904D02*
X164509580Y-113459523D01*
X163604819Y-112507142D02*
X163604819Y-111888095D01*
X163604819Y-111888095D02*
X163985771Y-112221428D01*
X163985771Y-112221428D02*
X163985771Y-112078571D01*
X163985771Y-112078571D02*
X164033390Y-111983333D01*
X164033390Y-111983333D02*
X164081009Y-111935714D01*
X164081009Y-111935714D02*
X164176247Y-111888095D01*
X164176247Y-111888095D02*
X164414342Y-111888095D01*
X164414342Y-111888095D02*
X164509580Y-111935714D01*
X164509580Y-111935714D02*
X164557200Y-111983333D01*
X164557200Y-111983333D02*
X164604819Y-112078571D01*
X164604819Y-112078571D02*
X164604819Y-112364285D01*
X164604819Y-112364285D02*
X164557200Y-112459523D01*
X164557200Y-112459523D02*
X164509580Y-112507142D01*
X214247925Y-89355523D02*
X213771734Y-89688856D01*
X214247925Y-89926951D02*
X213247925Y-89926951D01*
X213247925Y-89926951D02*
X213247925Y-89545999D01*
X213247925Y-89545999D02*
X213295544Y-89450761D01*
X213295544Y-89450761D02*
X213343163Y-89403142D01*
X213343163Y-89403142D02*
X213438401Y-89355523D01*
X213438401Y-89355523D02*
X213581258Y-89355523D01*
X213581258Y-89355523D02*
X213676496Y-89403142D01*
X213676496Y-89403142D02*
X213724115Y-89450761D01*
X213724115Y-89450761D02*
X213771734Y-89545999D01*
X213771734Y-89545999D02*
X213771734Y-89926951D01*
X214247925Y-88403142D02*
X214247925Y-88974570D01*
X214247925Y-88688856D02*
X213247925Y-88688856D01*
X213247925Y-88688856D02*
X213390782Y-88784094D01*
X213390782Y-88784094D02*
X213486020Y-88879332D01*
X213486020Y-88879332D02*
X213533639Y-88974570D01*
X213247925Y-88069808D02*
X213247925Y-87450761D01*
X213247925Y-87450761D02*
X213628877Y-87784094D01*
X213628877Y-87784094D02*
X213628877Y-87641237D01*
X213628877Y-87641237D02*
X213676496Y-87545999D01*
X213676496Y-87545999D02*
X213724115Y-87498380D01*
X213724115Y-87498380D02*
X213819353Y-87450761D01*
X213819353Y-87450761D02*
X214057448Y-87450761D01*
X214057448Y-87450761D02*
X214152686Y-87498380D01*
X214152686Y-87498380D02*
X214200306Y-87545999D01*
X214200306Y-87545999D02*
X214247925Y-87641237D01*
X214247925Y-87641237D02*
X214247925Y-87926951D01*
X214247925Y-87926951D02*
X214200306Y-88022189D01*
X214200306Y-88022189D02*
X214152686Y-88069808D01*
X159116068Y-137207201D02*
X159258925Y-137254820D01*
X159258925Y-137254820D02*
X159497020Y-137254820D01*
X159497020Y-137254820D02*
X159592258Y-137207201D01*
X159592258Y-137207201D02*
X159639877Y-137159581D01*
X159639877Y-137159581D02*
X159687496Y-137064343D01*
X159687496Y-137064343D02*
X159687496Y-136969105D01*
X159687496Y-136969105D02*
X159639877Y-136873867D01*
X159639877Y-136873867D02*
X159592258Y-136826248D01*
X159592258Y-136826248D02*
X159497020Y-136778629D01*
X159497020Y-136778629D02*
X159306544Y-136731010D01*
X159306544Y-136731010D02*
X159211306Y-136683391D01*
X159211306Y-136683391D02*
X159163687Y-136635772D01*
X159163687Y-136635772D02*
X159116068Y-136540534D01*
X159116068Y-136540534D02*
X159116068Y-136445296D01*
X159116068Y-136445296D02*
X159163687Y-136350058D01*
X159163687Y-136350058D02*
X159211306Y-136302439D01*
X159211306Y-136302439D02*
X159306544Y-136254820D01*
X159306544Y-136254820D02*
X159544639Y-136254820D01*
X159544639Y-136254820D02*
X159687496Y-136302439D01*
X160020830Y-136254820D02*
X160258925Y-137254820D01*
X160258925Y-137254820D02*
X160449401Y-136540534D01*
X160449401Y-136540534D02*
X160639877Y-137254820D01*
X160639877Y-137254820D02*
X160877973Y-136254820D01*
X161163687Y-136254820D02*
X161782734Y-136254820D01*
X161782734Y-136254820D02*
X161449401Y-136635772D01*
X161449401Y-136635772D02*
X161592258Y-136635772D01*
X161592258Y-136635772D02*
X161687496Y-136683391D01*
X161687496Y-136683391D02*
X161735115Y-136731010D01*
X161735115Y-136731010D02*
X161782734Y-136826248D01*
X161782734Y-136826248D02*
X161782734Y-137064343D01*
X161782734Y-137064343D02*
X161735115Y-137159581D01*
X161735115Y-137159581D02*
X161687496Y-137207201D01*
X161687496Y-137207201D02*
X161592258Y-137254820D01*
X161592258Y-137254820D02*
X161306544Y-137254820D01*
X161306544Y-137254820D02*
X161211306Y-137207201D01*
X161211306Y-137207201D02*
X161163687Y-137159581D01*
X157199401Y-132493520D02*
X157199401Y-132731615D01*
X156961306Y-132636377D02*
X157199401Y-132731615D01*
X157199401Y-132731615D02*
X157437496Y-132636377D01*
X157056544Y-132922091D02*
X157199401Y-132731615D01*
X157199401Y-132731615D02*
X157342258Y-132922091D01*
X208547925Y-89285523D02*
X208071734Y-89618856D01*
X208547925Y-89856951D02*
X207547925Y-89856951D01*
X207547925Y-89856951D02*
X207547925Y-89475999D01*
X207547925Y-89475999D02*
X207595544Y-89380761D01*
X207595544Y-89380761D02*
X207643163Y-89333142D01*
X207643163Y-89333142D02*
X207738401Y-89285523D01*
X207738401Y-89285523D02*
X207881258Y-89285523D01*
X207881258Y-89285523D02*
X207976496Y-89333142D01*
X207976496Y-89333142D02*
X208024115Y-89380761D01*
X208024115Y-89380761D02*
X208071734Y-89475999D01*
X208071734Y-89475999D02*
X208071734Y-89856951D01*
X208547925Y-88333142D02*
X208547925Y-88904570D01*
X208547925Y-88618856D02*
X207547925Y-88618856D01*
X207547925Y-88618856D02*
X207690782Y-88714094D01*
X207690782Y-88714094D02*
X207786020Y-88809332D01*
X207786020Y-88809332D02*
X207833639Y-88904570D01*
X207643163Y-87952189D02*
X207595544Y-87904570D01*
X207595544Y-87904570D02*
X207547925Y-87809332D01*
X207547925Y-87809332D02*
X207547925Y-87571237D01*
X207547925Y-87571237D02*
X207595544Y-87475999D01*
X207595544Y-87475999D02*
X207643163Y-87428380D01*
X207643163Y-87428380D02*
X207738401Y-87380761D01*
X207738401Y-87380761D02*
X207833639Y-87380761D01*
X207833639Y-87380761D02*
X207976496Y-87428380D01*
X207976496Y-87428380D02*
X208547925Y-87999808D01*
X208547925Y-87999808D02*
X208547925Y-87380761D01*
X171654819Y-74833333D02*
X172369104Y-74833333D01*
X172369104Y-74833333D02*
X172511961Y-74880952D01*
X172511961Y-74880952D02*
X172607200Y-74976190D01*
X172607200Y-74976190D02*
X172654819Y-75119047D01*
X172654819Y-75119047D02*
X172654819Y-75214285D01*
X171750057Y-74404761D02*
X171702438Y-74357142D01*
X171702438Y-74357142D02*
X171654819Y-74261904D01*
X171654819Y-74261904D02*
X171654819Y-74023809D01*
X171654819Y-74023809D02*
X171702438Y-73928571D01*
X171702438Y-73928571D02*
X171750057Y-73880952D01*
X171750057Y-73880952D02*
X171845295Y-73833333D01*
X171845295Y-73833333D02*
X171940533Y-73833333D01*
X171940533Y-73833333D02*
X172083390Y-73880952D01*
X172083390Y-73880952D02*
X172654819Y-74452380D01*
X172654819Y-74452380D02*
X172654819Y-73833333D01*
X201907142Y-123779580D02*
X201859523Y-123827200D01*
X201859523Y-123827200D02*
X201716666Y-123874819D01*
X201716666Y-123874819D02*
X201621428Y-123874819D01*
X201621428Y-123874819D02*
X201478571Y-123827200D01*
X201478571Y-123827200D02*
X201383333Y-123731961D01*
X201383333Y-123731961D02*
X201335714Y-123636723D01*
X201335714Y-123636723D02*
X201288095Y-123446247D01*
X201288095Y-123446247D02*
X201288095Y-123303390D01*
X201288095Y-123303390D02*
X201335714Y-123112914D01*
X201335714Y-123112914D02*
X201383333Y-123017676D01*
X201383333Y-123017676D02*
X201478571Y-122922438D01*
X201478571Y-122922438D02*
X201621428Y-122874819D01*
X201621428Y-122874819D02*
X201716666Y-122874819D01*
X201716666Y-122874819D02*
X201859523Y-122922438D01*
X201859523Y-122922438D02*
X201907142Y-122970057D01*
X202240476Y-122874819D02*
X202859523Y-122874819D01*
X202859523Y-122874819D02*
X202526190Y-123255771D01*
X202526190Y-123255771D02*
X202669047Y-123255771D01*
X202669047Y-123255771D02*
X202764285Y-123303390D01*
X202764285Y-123303390D02*
X202811904Y-123351009D01*
X202811904Y-123351009D02*
X202859523Y-123446247D01*
X202859523Y-123446247D02*
X202859523Y-123684342D01*
X202859523Y-123684342D02*
X202811904Y-123779580D01*
X202811904Y-123779580D02*
X202764285Y-123827200D01*
X202764285Y-123827200D02*
X202669047Y-123874819D01*
X202669047Y-123874819D02*
X202383333Y-123874819D01*
X202383333Y-123874819D02*
X202288095Y-123827200D01*
X202288095Y-123827200D02*
X202240476Y-123779580D01*
X203811904Y-123874819D02*
X203240476Y-123874819D01*
X203526190Y-123874819D02*
X203526190Y-122874819D01*
X203526190Y-122874819D02*
X203430952Y-123017676D01*
X203430952Y-123017676D02*
X203335714Y-123112914D01*
X203335714Y-123112914D02*
X203240476Y-123160533D01*
X184247511Y-85052376D02*
X184247511Y-84052376D01*
X184247511Y-84052376D02*
X184485606Y-84052376D01*
X184485606Y-84052376D02*
X184628463Y-84099995D01*
X184628463Y-84099995D02*
X184723701Y-84195233D01*
X184723701Y-84195233D02*
X184771320Y-84290471D01*
X184771320Y-84290471D02*
X184818939Y-84480947D01*
X184818939Y-84480947D02*
X184818939Y-84623804D01*
X184818939Y-84623804D02*
X184771320Y-84814280D01*
X184771320Y-84814280D02*
X184723701Y-84909518D01*
X184723701Y-84909518D02*
X184628463Y-85004757D01*
X184628463Y-85004757D02*
X184485606Y-85052376D01*
X184485606Y-85052376D02*
X184247511Y-85052376D01*
X185199892Y-84147614D02*
X185247511Y-84099995D01*
X185247511Y-84099995D02*
X185342749Y-84052376D01*
X185342749Y-84052376D02*
X185580844Y-84052376D01*
X185580844Y-84052376D02*
X185676082Y-84099995D01*
X185676082Y-84099995D02*
X185723701Y-84147614D01*
X185723701Y-84147614D02*
X185771320Y-84242852D01*
X185771320Y-84242852D02*
X185771320Y-84338090D01*
X185771320Y-84338090D02*
X185723701Y-84480947D01*
X185723701Y-84480947D02*
X185152273Y-85052376D01*
X185152273Y-85052376D02*
X185771320Y-85052376D01*
X150531603Y-145216668D02*
X150483983Y-145359525D01*
X150483983Y-145359525D02*
X150483983Y-145597620D01*
X150483983Y-145597620D02*
X150531603Y-145692858D01*
X150531603Y-145692858D02*
X150579222Y-145740477D01*
X150579222Y-145740477D02*
X150674460Y-145788096D01*
X150674460Y-145788096D02*
X150769698Y-145788096D01*
X150769698Y-145788096D02*
X150864936Y-145740477D01*
X150864936Y-145740477D02*
X150912555Y-145692858D01*
X150912555Y-145692858D02*
X150960174Y-145597620D01*
X150960174Y-145597620D02*
X151007793Y-145407144D01*
X151007793Y-145407144D02*
X151055412Y-145311906D01*
X151055412Y-145311906D02*
X151103031Y-145264287D01*
X151103031Y-145264287D02*
X151198269Y-145216668D01*
X151198269Y-145216668D02*
X151293507Y-145216668D01*
X151293507Y-145216668D02*
X151388745Y-145264287D01*
X151388745Y-145264287D02*
X151436364Y-145311906D01*
X151436364Y-145311906D02*
X151483983Y-145407144D01*
X151483983Y-145407144D02*
X151483983Y-145645239D01*
X151483983Y-145645239D02*
X151436364Y-145788096D01*
X151483983Y-146121430D02*
X150483983Y-146359525D01*
X150483983Y-146359525D02*
X151198269Y-146550001D01*
X151198269Y-146550001D02*
X150483983Y-146740477D01*
X150483983Y-146740477D02*
X151483983Y-146978573D01*
X151483983Y-147835715D02*
X151483983Y-147359525D01*
X151483983Y-147359525D02*
X151007793Y-147311906D01*
X151007793Y-147311906D02*
X151055412Y-147359525D01*
X151055412Y-147359525D02*
X151103031Y-147454763D01*
X151103031Y-147454763D02*
X151103031Y-147692858D01*
X151103031Y-147692858D02*
X151055412Y-147788096D01*
X151055412Y-147788096D02*
X151007793Y-147835715D01*
X151007793Y-147835715D02*
X150912555Y-147883334D01*
X150912555Y-147883334D02*
X150674460Y-147883334D01*
X150674460Y-147883334D02*
X150579222Y-147835715D01*
X150579222Y-147835715D02*
X150531603Y-147788096D01*
X150531603Y-147788096D02*
X150483983Y-147692858D01*
X150483983Y-147692858D02*
X150483983Y-147454763D01*
X150483983Y-147454763D02*
X150531603Y-147359525D01*
X150531603Y-147359525D02*
X150579222Y-147311906D01*
X154154922Y-143300000D02*
X154393017Y-143300000D01*
X154297779Y-143538095D02*
X154393017Y-143300000D01*
X154393017Y-143300000D02*
X154297779Y-143061905D01*
X154583493Y-143442857D02*
X154393017Y-143300000D01*
X154393017Y-143300000D02*
X154583493Y-143157143D01*
X210038095Y-97667319D02*
X210038095Y-98476842D01*
X210038095Y-98476842D02*
X210085714Y-98572080D01*
X210085714Y-98572080D02*
X210133333Y-98619700D01*
X210133333Y-98619700D02*
X210228571Y-98667319D01*
X210228571Y-98667319D02*
X210419047Y-98667319D01*
X210419047Y-98667319D02*
X210514285Y-98619700D01*
X210514285Y-98619700D02*
X210561904Y-98572080D01*
X210561904Y-98572080D02*
X210609523Y-98476842D01*
X210609523Y-98476842D02*
X210609523Y-97667319D01*
X211514285Y-97667319D02*
X211323809Y-97667319D01*
X211323809Y-97667319D02*
X211228571Y-97714938D01*
X211228571Y-97714938D02*
X211180952Y-97762557D01*
X211180952Y-97762557D02*
X211085714Y-97905414D01*
X211085714Y-97905414D02*
X211038095Y-98095890D01*
X211038095Y-98095890D02*
X211038095Y-98476842D01*
X211038095Y-98476842D02*
X211085714Y-98572080D01*
X211085714Y-98572080D02*
X211133333Y-98619700D01*
X211133333Y-98619700D02*
X211228571Y-98667319D01*
X211228571Y-98667319D02*
X211419047Y-98667319D01*
X211419047Y-98667319D02*
X211514285Y-98619700D01*
X211514285Y-98619700D02*
X211561904Y-98572080D01*
X211561904Y-98572080D02*
X211609523Y-98476842D01*
X211609523Y-98476842D02*
X211609523Y-98238747D01*
X211609523Y-98238747D02*
X211561904Y-98143509D01*
X211561904Y-98143509D02*
X211514285Y-98095890D01*
X211514285Y-98095890D02*
X211419047Y-98048271D01*
X211419047Y-98048271D02*
X211228571Y-98048271D01*
X211228571Y-98048271D02*
X211133333Y-98095890D01*
X211133333Y-98095890D02*
X211085714Y-98143509D01*
X211085714Y-98143509D02*
X211038095Y-98238747D01*
X142282733Y-137392802D02*
X142139876Y-137345182D01*
X142139876Y-137345182D02*
X141901781Y-137345182D01*
X141901781Y-137345182D02*
X141806543Y-137392802D01*
X141806543Y-137392802D02*
X141758924Y-137440421D01*
X141758924Y-137440421D02*
X141711305Y-137535659D01*
X141711305Y-137535659D02*
X141711305Y-137630897D01*
X141711305Y-137630897D02*
X141758924Y-137726135D01*
X141758924Y-137726135D02*
X141806543Y-137773754D01*
X141806543Y-137773754D02*
X141901781Y-137821373D01*
X141901781Y-137821373D02*
X142092257Y-137868992D01*
X142092257Y-137868992D02*
X142187495Y-137916611D01*
X142187495Y-137916611D02*
X142235114Y-137964230D01*
X142235114Y-137964230D02*
X142282733Y-138059468D01*
X142282733Y-138059468D02*
X142282733Y-138154706D01*
X142282733Y-138154706D02*
X142235114Y-138249944D01*
X142235114Y-138249944D02*
X142187495Y-138297563D01*
X142187495Y-138297563D02*
X142092257Y-138345182D01*
X142092257Y-138345182D02*
X141854162Y-138345182D01*
X141854162Y-138345182D02*
X141711305Y-138297563D01*
X141377971Y-138345182D02*
X141139876Y-137345182D01*
X141139876Y-137345182D02*
X140949400Y-138059468D01*
X140949400Y-138059468D02*
X140758924Y-137345182D01*
X140758924Y-137345182D02*
X140520829Y-138345182D01*
X139711305Y-138011849D02*
X139711305Y-137345182D01*
X139949400Y-138392802D02*
X140187495Y-137678516D01*
X140187495Y-137678516D02*
X139568448Y-137678516D01*
X144199401Y-141016121D02*
X144199401Y-141254216D01*
X143961306Y-141158978D02*
X144199401Y-141254216D01*
X144199401Y-141254216D02*
X144437496Y-141158978D01*
X144056544Y-141444692D02*
X144199401Y-141254216D01*
X144199401Y-141254216D02*
X144342258Y-141444692D01*
X162824219Y-149480358D02*
X162348028Y-149813691D01*
X162824219Y-150051786D02*
X161824219Y-150051786D01*
X161824219Y-150051786D02*
X161824219Y-149670834D01*
X161824219Y-149670834D02*
X161871838Y-149575596D01*
X161871838Y-149575596D02*
X161919457Y-149527977D01*
X161919457Y-149527977D02*
X162014695Y-149480358D01*
X162014695Y-149480358D02*
X162157552Y-149480358D01*
X162157552Y-149480358D02*
X162252790Y-149527977D01*
X162252790Y-149527977D02*
X162300409Y-149575596D01*
X162300409Y-149575596D02*
X162348028Y-149670834D01*
X162348028Y-149670834D02*
X162348028Y-150051786D01*
X162824219Y-148527977D02*
X162824219Y-149099405D01*
X162824219Y-148813691D02*
X161824219Y-148813691D01*
X161824219Y-148813691D02*
X161967076Y-148908929D01*
X161967076Y-148908929D02*
X162062314Y-149004167D01*
X162062314Y-149004167D02*
X162109933Y-149099405D01*
X162252790Y-147956548D02*
X162205171Y-148051786D01*
X162205171Y-148051786D02*
X162157552Y-148099405D01*
X162157552Y-148099405D02*
X162062314Y-148147024D01*
X162062314Y-148147024D02*
X162014695Y-148147024D01*
X162014695Y-148147024D02*
X161919457Y-148099405D01*
X161919457Y-148099405D02*
X161871838Y-148051786D01*
X161871838Y-148051786D02*
X161824219Y-147956548D01*
X161824219Y-147956548D02*
X161824219Y-147766072D01*
X161824219Y-147766072D02*
X161871838Y-147670834D01*
X161871838Y-147670834D02*
X161919457Y-147623215D01*
X161919457Y-147623215D02*
X162014695Y-147575596D01*
X162014695Y-147575596D02*
X162062314Y-147575596D01*
X162062314Y-147575596D02*
X162157552Y-147623215D01*
X162157552Y-147623215D02*
X162205171Y-147670834D01*
X162205171Y-147670834D02*
X162252790Y-147766072D01*
X162252790Y-147766072D02*
X162252790Y-147956548D01*
X162252790Y-147956548D02*
X162300409Y-148051786D01*
X162300409Y-148051786D02*
X162348028Y-148099405D01*
X162348028Y-148099405D02*
X162443266Y-148147024D01*
X162443266Y-148147024D02*
X162633742Y-148147024D01*
X162633742Y-148147024D02*
X162728980Y-148099405D01*
X162728980Y-148099405D02*
X162776600Y-148051786D01*
X162776600Y-148051786D02*
X162824219Y-147956548D01*
X162824219Y-147956548D02*
X162824219Y-147766072D01*
X162824219Y-147766072D02*
X162776600Y-147670834D01*
X162776600Y-147670834D02*
X162728980Y-147623215D01*
X162728980Y-147623215D02*
X162633742Y-147575596D01*
X162633742Y-147575596D02*
X162443266Y-147575596D01*
X162443266Y-147575596D02*
X162348028Y-147623215D01*
X162348028Y-147623215D02*
X162300409Y-147670834D01*
X162300409Y-147670834D02*
X162252790Y-147766072D01*
X159279580Y-94292857D02*
X159327200Y-94340476D01*
X159327200Y-94340476D02*
X159374819Y-94483333D01*
X159374819Y-94483333D02*
X159374819Y-94578571D01*
X159374819Y-94578571D02*
X159327200Y-94721428D01*
X159327200Y-94721428D02*
X159231961Y-94816666D01*
X159231961Y-94816666D02*
X159136723Y-94864285D01*
X159136723Y-94864285D02*
X158946247Y-94911904D01*
X158946247Y-94911904D02*
X158803390Y-94911904D01*
X158803390Y-94911904D02*
X158612914Y-94864285D01*
X158612914Y-94864285D02*
X158517676Y-94816666D01*
X158517676Y-94816666D02*
X158422438Y-94721428D01*
X158422438Y-94721428D02*
X158374819Y-94578571D01*
X158374819Y-94578571D02*
X158374819Y-94483333D01*
X158374819Y-94483333D02*
X158422438Y-94340476D01*
X158422438Y-94340476D02*
X158470057Y-94292857D01*
X159374819Y-93340476D02*
X159374819Y-93911904D01*
X159374819Y-93626190D02*
X158374819Y-93626190D01*
X158374819Y-93626190D02*
X158517676Y-93721428D01*
X158517676Y-93721428D02*
X158612914Y-93816666D01*
X158612914Y-93816666D02*
X158660533Y-93911904D01*
X158374819Y-93007142D02*
X158374819Y-92340476D01*
X158374819Y-92340476D02*
X159374819Y-92769047D01*
X158476542Y-132009581D02*
X158428923Y-132057201D01*
X158428923Y-132057201D02*
X158286066Y-132104820D01*
X158286066Y-132104820D02*
X158190828Y-132104820D01*
X158190828Y-132104820D02*
X158047971Y-132057201D01*
X158047971Y-132057201D02*
X157952733Y-131961962D01*
X157952733Y-131961962D02*
X157905114Y-131866724D01*
X157905114Y-131866724D02*
X157857495Y-131676248D01*
X157857495Y-131676248D02*
X157857495Y-131533391D01*
X157857495Y-131533391D02*
X157905114Y-131342915D01*
X157905114Y-131342915D02*
X157952733Y-131247677D01*
X157952733Y-131247677D02*
X158047971Y-131152439D01*
X158047971Y-131152439D02*
X158190828Y-131104820D01*
X158190828Y-131104820D02*
X158286066Y-131104820D01*
X158286066Y-131104820D02*
X158428923Y-131152439D01*
X158428923Y-131152439D02*
X158476542Y-131200058D01*
X158857495Y-131200058D02*
X158905114Y-131152439D01*
X158905114Y-131152439D02*
X159000352Y-131104820D01*
X159000352Y-131104820D02*
X159238447Y-131104820D01*
X159238447Y-131104820D02*
X159333685Y-131152439D01*
X159333685Y-131152439D02*
X159381304Y-131200058D01*
X159381304Y-131200058D02*
X159428923Y-131295296D01*
X159428923Y-131295296D02*
X159428923Y-131390534D01*
X159428923Y-131390534D02*
X159381304Y-131533391D01*
X159381304Y-131533391D02*
X158809876Y-132104820D01*
X158809876Y-132104820D02*
X159428923Y-132104820D01*
X160286066Y-131438153D02*
X160286066Y-132104820D01*
X160047971Y-131057201D02*
X159809876Y-131771486D01*
X159809876Y-131771486D02*
X160428923Y-131771486D01*
X113238095Y-73704819D02*
X113238095Y-72704819D01*
X113238095Y-73181009D02*
X113809523Y-73181009D01*
X113809523Y-73704819D02*
X113809523Y-72704819D01*
X114809523Y-73704819D02*
X114238095Y-73704819D01*
X114523809Y-73704819D02*
X114523809Y-72704819D01*
X114523809Y-72704819D02*
X114428571Y-72847676D01*
X114428571Y-72847676D02*
X114333333Y-72942914D01*
X114333333Y-72942914D02*
X114238095Y-72990533D01*
X160815348Y-124893779D02*
X160339157Y-125227112D01*
X160815348Y-125465207D02*
X159815348Y-125465207D01*
X159815348Y-125465207D02*
X159815348Y-125084255D01*
X159815348Y-125084255D02*
X159862967Y-124989017D01*
X159862967Y-124989017D02*
X159910586Y-124941398D01*
X159910586Y-124941398D02*
X160005824Y-124893779D01*
X160005824Y-124893779D02*
X160148681Y-124893779D01*
X160148681Y-124893779D02*
X160243919Y-124941398D01*
X160243919Y-124941398D02*
X160291538Y-124989017D01*
X160291538Y-124989017D02*
X160339157Y-125084255D01*
X160339157Y-125084255D02*
X160339157Y-125465207D01*
X160815348Y-123941398D02*
X160815348Y-124512826D01*
X160815348Y-124227112D02*
X159815348Y-124227112D01*
X159815348Y-124227112D02*
X159958205Y-124322350D01*
X159958205Y-124322350D02*
X160053443Y-124417588D01*
X160053443Y-124417588D02*
X160101062Y-124512826D01*
X159815348Y-123084255D02*
X159815348Y-123274731D01*
X159815348Y-123274731D02*
X159862967Y-123369969D01*
X159862967Y-123369969D02*
X159910586Y-123417588D01*
X159910586Y-123417588D02*
X160053443Y-123512826D01*
X160053443Y-123512826D02*
X160243919Y-123560445D01*
X160243919Y-123560445D02*
X160624871Y-123560445D01*
X160624871Y-123560445D02*
X160720109Y-123512826D01*
X160720109Y-123512826D02*
X160767729Y-123465207D01*
X160767729Y-123465207D02*
X160815348Y-123369969D01*
X160815348Y-123369969D02*
X160815348Y-123179493D01*
X160815348Y-123179493D02*
X160767729Y-123084255D01*
X160767729Y-123084255D02*
X160720109Y-123036636D01*
X160720109Y-123036636D02*
X160624871Y-122989017D01*
X160624871Y-122989017D02*
X160386776Y-122989017D01*
X160386776Y-122989017D02*
X160291538Y-123036636D01*
X160291538Y-123036636D02*
X160243919Y-123084255D01*
X160243919Y-123084255D02*
X160196300Y-123179493D01*
X160196300Y-123179493D02*
X160196300Y-123369969D01*
X160196300Y-123369969D02*
X160243919Y-123465207D01*
X160243919Y-123465207D02*
X160291538Y-123512826D01*
X160291538Y-123512826D02*
X160386776Y-123560445D01*
X150604819Y-114454166D02*
X150128628Y-114787499D01*
X150604819Y-115025594D02*
X149604819Y-115025594D01*
X149604819Y-115025594D02*
X149604819Y-114644642D01*
X149604819Y-114644642D02*
X149652438Y-114549404D01*
X149652438Y-114549404D02*
X149700057Y-114501785D01*
X149700057Y-114501785D02*
X149795295Y-114454166D01*
X149795295Y-114454166D02*
X149938152Y-114454166D01*
X149938152Y-114454166D02*
X150033390Y-114501785D01*
X150033390Y-114501785D02*
X150081009Y-114549404D01*
X150081009Y-114549404D02*
X150128628Y-114644642D01*
X150128628Y-114644642D02*
X150128628Y-115025594D01*
X150604819Y-113501785D02*
X150604819Y-114073213D01*
X150604819Y-113787499D02*
X149604819Y-113787499D01*
X149604819Y-113787499D02*
X149747676Y-113882737D01*
X149747676Y-113882737D02*
X149842914Y-113977975D01*
X149842914Y-113977975D02*
X149890533Y-114073213D01*
X216807142Y-86009580D02*
X216759523Y-86057200D01*
X216759523Y-86057200D02*
X216616666Y-86104819D01*
X216616666Y-86104819D02*
X216521428Y-86104819D01*
X216521428Y-86104819D02*
X216378571Y-86057200D01*
X216378571Y-86057200D02*
X216283333Y-85961961D01*
X216283333Y-85961961D02*
X216235714Y-85866723D01*
X216235714Y-85866723D02*
X216188095Y-85676247D01*
X216188095Y-85676247D02*
X216188095Y-85533390D01*
X216188095Y-85533390D02*
X216235714Y-85342914D01*
X216235714Y-85342914D02*
X216283333Y-85247676D01*
X216283333Y-85247676D02*
X216378571Y-85152438D01*
X216378571Y-85152438D02*
X216521428Y-85104819D01*
X216521428Y-85104819D02*
X216616666Y-85104819D01*
X216616666Y-85104819D02*
X216759523Y-85152438D01*
X216759523Y-85152438D02*
X216807142Y-85200057D01*
X217759523Y-86104819D02*
X217188095Y-86104819D01*
X217473809Y-86104819D02*
X217473809Y-85104819D01*
X217473809Y-85104819D02*
X217378571Y-85247676D01*
X217378571Y-85247676D02*
X217283333Y-85342914D01*
X217283333Y-85342914D02*
X217188095Y-85390533D01*
X218235714Y-86104819D02*
X218426190Y-86104819D01*
X218426190Y-86104819D02*
X218521428Y-86057200D01*
X218521428Y-86057200D02*
X218569047Y-86009580D01*
X218569047Y-86009580D02*
X218664285Y-85866723D01*
X218664285Y-85866723D02*
X218711904Y-85676247D01*
X218711904Y-85676247D02*
X218711904Y-85295295D01*
X218711904Y-85295295D02*
X218664285Y-85200057D01*
X218664285Y-85200057D02*
X218616666Y-85152438D01*
X218616666Y-85152438D02*
X218521428Y-85104819D01*
X218521428Y-85104819D02*
X218330952Y-85104819D01*
X218330952Y-85104819D02*
X218235714Y-85152438D01*
X218235714Y-85152438D02*
X218188095Y-85200057D01*
X218188095Y-85200057D02*
X218140476Y-85295295D01*
X218140476Y-85295295D02*
X218140476Y-85533390D01*
X218140476Y-85533390D02*
X218188095Y-85628628D01*
X218188095Y-85628628D02*
X218235714Y-85676247D01*
X218235714Y-85676247D02*
X218330952Y-85723866D01*
X218330952Y-85723866D02*
X218521428Y-85723866D01*
X218521428Y-85723866D02*
X218616666Y-85676247D01*
X218616666Y-85676247D02*
X218664285Y-85628628D01*
X218664285Y-85628628D02*
X218711904Y-85533390D01*
X207460248Y-85202246D02*
X207412629Y-85249866D01*
X207412629Y-85249866D02*
X207269772Y-85297485D01*
X207269772Y-85297485D02*
X207174534Y-85297485D01*
X207174534Y-85297485D02*
X207031677Y-85249866D01*
X207031677Y-85249866D02*
X206936439Y-85154627D01*
X206936439Y-85154627D02*
X206888820Y-85059389D01*
X206888820Y-85059389D02*
X206841201Y-84868913D01*
X206841201Y-84868913D02*
X206841201Y-84726056D01*
X206841201Y-84726056D02*
X206888820Y-84535580D01*
X206888820Y-84535580D02*
X206936439Y-84440342D01*
X206936439Y-84440342D02*
X207031677Y-84345104D01*
X207031677Y-84345104D02*
X207174534Y-84297485D01*
X207174534Y-84297485D02*
X207269772Y-84297485D01*
X207269772Y-84297485D02*
X207412629Y-84345104D01*
X207412629Y-84345104D02*
X207460248Y-84392723D01*
X207841201Y-84392723D02*
X207888820Y-84345104D01*
X207888820Y-84345104D02*
X207984058Y-84297485D01*
X207984058Y-84297485D02*
X208222153Y-84297485D01*
X208222153Y-84297485D02*
X208317391Y-84345104D01*
X208317391Y-84345104D02*
X208365010Y-84392723D01*
X208365010Y-84392723D02*
X208412629Y-84487961D01*
X208412629Y-84487961D02*
X208412629Y-84583199D01*
X208412629Y-84583199D02*
X208365010Y-84726056D01*
X208365010Y-84726056D02*
X207793582Y-85297485D01*
X207793582Y-85297485D02*
X208412629Y-85297485D01*
X209365010Y-85297485D02*
X208793582Y-85297485D01*
X209079296Y-85297485D02*
X209079296Y-84297485D01*
X209079296Y-84297485D02*
X208984058Y-84440342D01*
X208984058Y-84440342D02*
X208888820Y-84535580D01*
X208888820Y-84535580D02*
X208793582Y-84583199D01*
X140574819Y-88433333D02*
X141289104Y-88433333D01*
X141289104Y-88433333D02*
X141431961Y-88480952D01*
X141431961Y-88480952D02*
X141527200Y-88576190D01*
X141527200Y-88576190D02*
X141574819Y-88719047D01*
X141574819Y-88719047D02*
X141574819Y-88814285D01*
X140574819Y-87528571D02*
X140574819Y-87719047D01*
X140574819Y-87719047D02*
X140622438Y-87814285D01*
X140622438Y-87814285D02*
X140670057Y-87861904D01*
X140670057Y-87861904D02*
X140812914Y-87957142D01*
X140812914Y-87957142D02*
X141003390Y-88004761D01*
X141003390Y-88004761D02*
X141384342Y-88004761D01*
X141384342Y-88004761D02*
X141479580Y-87957142D01*
X141479580Y-87957142D02*
X141527200Y-87909523D01*
X141527200Y-87909523D02*
X141574819Y-87814285D01*
X141574819Y-87814285D02*
X141574819Y-87623809D01*
X141574819Y-87623809D02*
X141527200Y-87528571D01*
X141527200Y-87528571D02*
X141479580Y-87480952D01*
X141479580Y-87480952D02*
X141384342Y-87433333D01*
X141384342Y-87433333D02*
X141146247Y-87433333D01*
X141146247Y-87433333D02*
X141051009Y-87480952D01*
X141051009Y-87480952D02*
X141003390Y-87528571D01*
X141003390Y-87528571D02*
X140955771Y-87623809D01*
X140955771Y-87623809D02*
X140955771Y-87814285D01*
X140955771Y-87814285D02*
X141003390Y-87909523D01*
X141003390Y-87909523D02*
X141051009Y-87957142D01*
X141051009Y-87957142D02*
X141146247Y-88004761D01*
X209354819Y-101301785D02*
X208354819Y-101301785D01*
X208354819Y-101301785D02*
X208354819Y-101063690D01*
X208354819Y-101063690D02*
X208402438Y-100920833D01*
X208402438Y-100920833D02*
X208497676Y-100825595D01*
X208497676Y-100825595D02*
X208592914Y-100777976D01*
X208592914Y-100777976D02*
X208783390Y-100730357D01*
X208783390Y-100730357D02*
X208926247Y-100730357D01*
X208926247Y-100730357D02*
X209116723Y-100777976D01*
X209116723Y-100777976D02*
X209211961Y-100825595D01*
X209211961Y-100825595D02*
X209307200Y-100920833D01*
X209307200Y-100920833D02*
X209354819Y-101063690D01*
X209354819Y-101063690D02*
X209354819Y-101301785D01*
X209354819Y-99777976D02*
X209354819Y-100349404D01*
X209354819Y-100063690D02*
X208354819Y-100063690D01*
X208354819Y-100063690D02*
X208497676Y-100158928D01*
X208497676Y-100158928D02*
X208592914Y-100254166D01*
X208592914Y-100254166D02*
X208640533Y-100349404D01*
X208354819Y-99158928D02*
X208354819Y-99063690D01*
X208354819Y-99063690D02*
X208402438Y-98968452D01*
X208402438Y-98968452D02*
X208450057Y-98920833D01*
X208450057Y-98920833D02*
X208545295Y-98873214D01*
X208545295Y-98873214D02*
X208735771Y-98825595D01*
X208735771Y-98825595D02*
X208973866Y-98825595D01*
X208973866Y-98825595D02*
X209164342Y-98873214D01*
X209164342Y-98873214D02*
X209259580Y-98920833D01*
X209259580Y-98920833D02*
X209307200Y-98968452D01*
X209307200Y-98968452D02*
X209354819Y-99063690D01*
X209354819Y-99063690D02*
X209354819Y-99158928D01*
X209354819Y-99158928D02*
X209307200Y-99254166D01*
X209307200Y-99254166D02*
X209259580Y-99301785D01*
X209259580Y-99301785D02*
X209164342Y-99349404D01*
X209164342Y-99349404D02*
X208973866Y-99397023D01*
X208973866Y-99397023D02*
X208735771Y-99397023D01*
X208735771Y-99397023D02*
X208545295Y-99349404D01*
X208545295Y-99349404D02*
X208450057Y-99301785D01*
X208450057Y-99301785D02*
X208402438Y-99254166D01*
X208402438Y-99254166D02*
X208354819Y-99158928D01*
X203514580Y-94685357D02*
X203562200Y-94732976D01*
X203562200Y-94732976D02*
X203609819Y-94875833D01*
X203609819Y-94875833D02*
X203609819Y-94971071D01*
X203609819Y-94971071D02*
X203562200Y-95113928D01*
X203562200Y-95113928D02*
X203466961Y-95209166D01*
X203466961Y-95209166D02*
X203371723Y-95256785D01*
X203371723Y-95256785D02*
X203181247Y-95304404D01*
X203181247Y-95304404D02*
X203038390Y-95304404D01*
X203038390Y-95304404D02*
X202847914Y-95256785D01*
X202847914Y-95256785D02*
X202752676Y-95209166D01*
X202752676Y-95209166D02*
X202657438Y-95113928D01*
X202657438Y-95113928D02*
X202609819Y-94971071D01*
X202609819Y-94971071D02*
X202609819Y-94875833D01*
X202609819Y-94875833D02*
X202657438Y-94732976D01*
X202657438Y-94732976D02*
X202705057Y-94685357D01*
X202705057Y-94304404D02*
X202657438Y-94256785D01*
X202657438Y-94256785D02*
X202609819Y-94161547D01*
X202609819Y-94161547D02*
X202609819Y-93923452D01*
X202609819Y-93923452D02*
X202657438Y-93828214D01*
X202657438Y-93828214D02*
X202705057Y-93780595D01*
X202705057Y-93780595D02*
X202800295Y-93732976D01*
X202800295Y-93732976D02*
X202895533Y-93732976D01*
X202895533Y-93732976D02*
X203038390Y-93780595D01*
X203038390Y-93780595D02*
X203609819Y-94352023D01*
X203609819Y-94352023D02*
X203609819Y-93732976D01*
X202705057Y-93352023D02*
X202657438Y-93304404D01*
X202657438Y-93304404D02*
X202609819Y-93209166D01*
X202609819Y-93209166D02*
X202609819Y-92971071D01*
X202609819Y-92971071D02*
X202657438Y-92875833D01*
X202657438Y-92875833D02*
X202705057Y-92828214D01*
X202705057Y-92828214D02*
X202800295Y-92780595D01*
X202800295Y-92780595D02*
X202895533Y-92780595D01*
X202895533Y-92780595D02*
X203038390Y-92828214D01*
X203038390Y-92828214D02*
X203609819Y-93399642D01*
X203609819Y-93399642D02*
X203609819Y-92780595D01*
X180504819Y-107936904D02*
X181314342Y-107936904D01*
X181314342Y-107936904D02*
X181409580Y-107889285D01*
X181409580Y-107889285D02*
X181457200Y-107841666D01*
X181457200Y-107841666D02*
X181504819Y-107746428D01*
X181504819Y-107746428D02*
X181504819Y-107555952D01*
X181504819Y-107555952D02*
X181457200Y-107460714D01*
X181457200Y-107460714D02*
X181409580Y-107413095D01*
X181409580Y-107413095D02*
X181314342Y-107365476D01*
X181314342Y-107365476D02*
X180504819Y-107365476D01*
X181504819Y-106365476D02*
X181504819Y-106936904D01*
X181504819Y-106651190D02*
X180504819Y-106651190D01*
X180504819Y-106651190D02*
X180647676Y-106746428D01*
X180647676Y-106746428D02*
X180742914Y-106841666D01*
X180742914Y-106841666D02*
X180790533Y-106936904D01*
X172093509Y-81033333D02*
X172093509Y-81366666D01*
X172617319Y-81366666D02*
X171617319Y-81366666D01*
X171617319Y-81366666D02*
X171617319Y-80890476D01*
X172617319Y-79985714D02*
X172617319Y-80557142D01*
X172617319Y-80271428D02*
X171617319Y-80271428D01*
X171617319Y-80271428D02*
X171760176Y-80366666D01*
X171760176Y-80366666D02*
X171855414Y-80461904D01*
X171855414Y-80461904D02*
X171903033Y-80557142D01*
X162786905Y-86654819D02*
X162786905Y-85654819D01*
X162786905Y-85654819D02*
X163025000Y-85654819D01*
X163025000Y-85654819D02*
X163167857Y-85702438D01*
X163167857Y-85702438D02*
X163263095Y-85797676D01*
X163263095Y-85797676D02*
X163310714Y-85892914D01*
X163310714Y-85892914D02*
X163358333Y-86083390D01*
X163358333Y-86083390D02*
X163358333Y-86226247D01*
X163358333Y-86226247D02*
X163310714Y-86416723D01*
X163310714Y-86416723D02*
X163263095Y-86511961D01*
X163263095Y-86511961D02*
X163167857Y-86607200D01*
X163167857Y-86607200D02*
X163025000Y-86654819D01*
X163025000Y-86654819D02*
X162786905Y-86654819D01*
X164215476Y-85988152D02*
X164215476Y-86654819D01*
X163977381Y-85607200D02*
X163739286Y-86321485D01*
X163739286Y-86321485D02*
X164358333Y-86321485D01*
X227804819Y-85130357D02*
X227328628Y-85463690D01*
X227804819Y-85701785D02*
X226804819Y-85701785D01*
X226804819Y-85701785D02*
X226804819Y-85320833D01*
X226804819Y-85320833D02*
X226852438Y-85225595D01*
X226852438Y-85225595D02*
X226900057Y-85177976D01*
X226900057Y-85177976D02*
X226995295Y-85130357D01*
X226995295Y-85130357D02*
X227138152Y-85130357D01*
X227138152Y-85130357D02*
X227233390Y-85177976D01*
X227233390Y-85177976D02*
X227281009Y-85225595D01*
X227281009Y-85225595D02*
X227328628Y-85320833D01*
X227328628Y-85320833D02*
X227328628Y-85701785D01*
X226900057Y-84749404D02*
X226852438Y-84701785D01*
X226852438Y-84701785D02*
X226804819Y-84606547D01*
X226804819Y-84606547D02*
X226804819Y-84368452D01*
X226804819Y-84368452D02*
X226852438Y-84273214D01*
X226852438Y-84273214D02*
X226900057Y-84225595D01*
X226900057Y-84225595D02*
X226995295Y-84177976D01*
X226995295Y-84177976D02*
X227090533Y-84177976D01*
X227090533Y-84177976D02*
X227233390Y-84225595D01*
X227233390Y-84225595D02*
X227804819Y-84797023D01*
X227804819Y-84797023D02*
X227804819Y-84177976D01*
X226804819Y-83320833D02*
X226804819Y-83511309D01*
X226804819Y-83511309D02*
X226852438Y-83606547D01*
X226852438Y-83606547D02*
X226900057Y-83654166D01*
X226900057Y-83654166D02*
X227042914Y-83749404D01*
X227042914Y-83749404D02*
X227233390Y-83797023D01*
X227233390Y-83797023D02*
X227614342Y-83797023D01*
X227614342Y-83797023D02*
X227709580Y-83749404D01*
X227709580Y-83749404D02*
X227757200Y-83701785D01*
X227757200Y-83701785D02*
X227804819Y-83606547D01*
X227804819Y-83606547D02*
X227804819Y-83416071D01*
X227804819Y-83416071D02*
X227757200Y-83320833D01*
X227757200Y-83320833D02*
X227709580Y-83273214D01*
X227709580Y-83273214D02*
X227614342Y-83225595D01*
X227614342Y-83225595D02*
X227376247Y-83225595D01*
X227376247Y-83225595D02*
X227281009Y-83273214D01*
X227281009Y-83273214D02*
X227233390Y-83320833D01*
X227233390Y-83320833D02*
X227185771Y-83416071D01*
X227185771Y-83416071D02*
X227185771Y-83606547D01*
X227185771Y-83606547D02*
X227233390Y-83701785D01*
X227233390Y-83701785D02*
X227281009Y-83749404D01*
X227281009Y-83749404D02*
X227376247Y-83797023D01*
X225266666Y-87684819D02*
X225266666Y-88399104D01*
X225266666Y-88399104D02*
X225219047Y-88541961D01*
X225219047Y-88541961D02*
X225123809Y-88637200D01*
X225123809Y-88637200D02*
X224980952Y-88684819D01*
X224980952Y-88684819D02*
X224885714Y-88684819D01*
X225647619Y-87684819D02*
X226314285Y-87684819D01*
X226314285Y-87684819D02*
X225885714Y-88684819D01*
X193721439Y-79954985D02*
X193388106Y-79478794D01*
X193150011Y-79954985D02*
X193150011Y-78954985D01*
X193150011Y-78954985D02*
X193530963Y-78954985D01*
X193530963Y-78954985D02*
X193626201Y-79002604D01*
X193626201Y-79002604D02*
X193673820Y-79050223D01*
X193673820Y-79050223D02*
X193721439Y-79145461D01*
X193721439Y-79145461D02*
X193721439Y-79288318D01*
X193721439Y-79288318D02*
X193673820Y-79383556D01*
X193673820Y-79383556D02*
X193626201Y-79431175D01*
X193626201Y-79431175D02*
X193530963Y-79478794D01*
X193530963Y-79478794D02*
X193150011Y-79478794D01*
X194054773Y-78954985D02*
X194721439Y-78954985D01*
X194721439Y-78954985D02*
X194292868Y-79954985D01*
X244107200Y-135833332D02*
X244154819Y-135690475D01*
X244154819Y-135690475D02*
X244154819Y-135452380D01*
X244154819Y-135452380D02*
X244107200Y-135357142D01*
X244107200Y-135357142D02*
X244059580Y-135309523D01*
X244059580Y-135309523D02*
X243964342Y-135261904D01*
X243964342Y-135261904D02*
X243869104Y-135261904D01*
X243869104Y-135261904D02*
X243773866Y-135309523D01*
X243773866Y-135309523D02*
X243726247Y-135357142D01*
X243726247Y-135357142D02*
X243678628Y-135452380D01*
X243678628Y-135452380D02*
X243631009Y-135642856D01*
X243631009Y-135642856D02*
X243583390Y-135738094D01*
X243583390Y-135738094D02*
X243535771Y-135785713D01*
X243535771Y-135785713D02*
X243440533Y-135833332D01*
X243440533Y-135833332D02*
X243345295Y-135833332D01*
X243345295Y-135833332D02*
X243250057Y-135785713D01*
X243250057Y-135785713D02*
X243202438Y-135738094D01*
X243202438Y-135738094D02*
X243154819Y-135642856D01*
X243154819Y-135642856D02*
X243154819Y-135404761D01*
X243154819Y-135404761D02*
X243202438Y-135261904D01*
X243154819Y-134928570D02*
X244154819Y-134690475D01*
X244154819Y-134690475D02*
X243440533Y-134499999D01*
X243440533Y-134499999D02*
X244154819Y-134309523D01*
X244154819Y-134309523D02*
X243154819Y-134071428D01*
X243154819Y-133261904D02*
X243154819Y-133452380D01*
X243154819Y-133452380D02*
X243202438Y-133547618D01*
X243202438Y-133547618D02*
X243250057Y-133595237D01*
X243250057Y-133595237D02*
X243392914Y-133690475D01*
X243392914Y-133690475D02*
X243583390Y-133738094D01*
X243583390Y-133738094D02*
X243964342Y-133738094D01*
X243964342Y-133738094D02*
X244059580Y-133690475D01*
X244059580Y-133690475D02*
X244107200Y-133642856D01*
X244107200Y-133642856D02*
X244154819Y-133547618D01*
X244154819Y-133547618D02*
X244154819Y-133357142D01*
X244154819Y-133357142D02*
X244107200Y-133261904D01*
X244107200Y-133261904D02*
X244059580Y-133214285D01*
X244059580Y-133214285D02*
X243964342Y-133166666D01*
X243964342Y-133166666D02*
X243726247Y-133166666D01*
X243726247Y-133166666D02*
X243631009Y-133214285D01*
X243631009Y-133214285D02*
X243583390Y-133261904D01*
X243583390Y-133261904D02*
X243535771Y-133357142D01*
X243535771Y-133357142D02*
X243535771Y-133547618D01*
X243535771Y-133547618D02*
X243583390Y-133642856D01*
X243583390Y-133642856D02*
X243631009Y-133690475D01*
X243631009Y-133690475D02*
X243726247Y-133738094D01*
X158776542Y-128704820D02*
X158443209Y-128228629D01*
X158205114Y-128704820D02*
X158205114Y-127704820D01*
X158205114Y-127704820D02*
X158586066Y-127704820D01*
X158586066Y-127704820D02*
X158681304Y-127752439D01*
X158681304Y-127752439D02*
X158728923Y-127800058D01*
X158728923Y-127800058D02*
X158776542Y-127895296D01*
X158776542Y-127895296D02*
X158776542Y-128038153D01*
X158776542Y-128038153D02*
X158728923Y-128133391D01*
X158728923Y-128133391D02*
X158681304Y-128181010D01*
X158681304Y-128181010D02*
X158586066Y-128228629D01*
X158586066Y-128228629D02*
X158205114Y-128228629D01*
X159728923Y-128704820D02*
X159157495Y-128704820D01*
X159443209Y-128704820D02*
X159443209Y-127704820D01*
X159443209Y-127704820D02*
X159347971Y-127847677D01*
X159347971Y-127847677D02*
X159252733Y-127942915D01*
X159252733Y-127942915D02*
X159157495Y-127990534D01*
X160062257Y-127704820D02*
X160728923Y-127704820D01*
X160728923Y-127704820D02*
X160300352Y-128704820D01*
X185757142Y-119659580D02*
X185709523Y-119707200D01*
X185709523Y-119707200D02*
X185566666Y-119754819D01*
X185566666Y-119754819D02*
X185471428Y-119754819D01*
X185471428Y-119754819D02*
X185328571Y-119707200D01*
X185328571Y-119707200D02*
X185233333Y-119611961D01*
X185233333Y-119611961D02*
X185185714Y-119516723D01*
X185185714Y-119516723D02*
X185138095Y-119326247D01*
X185138095Y-119326247D02*
X185138095Y-119183390D01*
X185138095Y-119183390D02*
X185185714Y-118992914D01*
X185185714Y-118992914D02*
X185233333Y-118897676D01*
X185233333Y-118897676D02*
X185328571Y-118802438D01*
X185328571Y-118802438D02*
X185471428Y-118754819D01*
X185471428Y-118754819D02*
X185566666Y-118754819D01*
X185566666Y-118754819D02*
X185709523Y-118802438D01*
X185709523Y-118802438D02*
X185757142Y-118850057D01*
X186709523Y-119754819D02*
X186138095Y-119754819D01*
X186423809Y-119754819D02*
X186423809Y-118754819D01*
X186423809Y-118754819D02*
X186328571Y-118897676D01*
X186328571Y-118897676D02*
X186233333Y-118992914D01*
X186233333Y-118992914D02*
X186138095Y-119040533D01*
X187566666Y-119088152D02*
X187566666Y-119754819D01*
X187328571Y-118707200D02*
X187090476Y-119421485D01*
X187090476Y-119421485D02*
X187709523Y-119421485D01*
X156398980Y-149342858D02*
X156446600Y-149390477D01*
X156446600Y-149390477D02*
X156494219Y-149533334D01*
X156494219Y-149533334D02*
X156494219Y-149628572D01*
X156494219Y-149628572D02*
X156446600Y-149771429D01*
X156446600Y-149771429D02*
X156351361Y-149866667D01*
X156351361Y-149866667D02*
X156256123Y-149914286D01*
X156256123Y-149914286D02*
X156065647Y-149961905D01*
X156065647Y-149961905D02*
X155922790Y-149961905D01*
X155922790Y-149961905D02*
X155732314Y-149914286D01*
X155732314Y-149914286D02*
X155637076Y-149866667D01*
X155637076Y-149866667D02*
X155541838Y-149771429D01*
X155541838Y-149771429D02*
X155494219Y-149628572D01*
X155494219Y-149628572D02*
X155494219Y-149533334D01*
X155494219Y-149533334D02*
X155541838Y-149390477D01*
X155541838Y-149390477D02*
X155589457Y-149342858D01*
X155589457Y-148961905D02*
X155541838Y-148914286D01*
X155541838Y-148914286D02*
X155494219Y-148819048D01*
X155494219Y-148819048D02*
X155494219Y-148580953D01*
X155494219Y-148580953D02*
X155541838Y-148485715D01*
X155541838Y-148485715D02*
X155589457Y-148438096D01*
X155589457Y-148438096D02*
X155684695Y-148390477D01*
X155684695Y-148390477D02*
X155779933Y-148390477D01*
X155779933Y-148390477D02*
X155922790Y-148438096D01*
X155922790Y-148438096D02*
X156494219Y-149009524D01*
X156494219Y-149009524D02*
X156494219Y-148390477D01*
X155494219Y-147533334D02*
X155494219Y-147723810D01*
X155494219Y-147723810D02*
X155541838Y-147819048D01*
X155541838Y-147819048D02*
X155589457Y-147866667D01*
X155589457Y-147866667D02*
X155732314Y-147961905D01*
X155732314Y-147961905D02*
X155922790Y-148009524D01*
X155922790Y-148009524D02*
X156303742Y-148009524D01*
X156303742Y-148009524D02*
X156398980Y-147961905D01*
X156398980Y-147961905D02*
X156446600Y-147914286D01*
X156446600Y-147914286D02*
X156494219Y-147819048D01*
X156494219Y-147819048D02*
X156494219Y-147628572D01*
X156494219Y-147628572D02*
X156446600Y-147533334D01*
X156446600Y-147533334D02*
X156398980Y-147485715D01*
X156398980Y-147485715D02*
X156303742Y-147438096D01*
X156303742Y-147438096D02*
X156065647Y-147438096D01*
X156065647Y-147438096D02*
X155970409Y-147485715D01*
X155970409Y-147485715D02*
X155922790Y-147533334D01*
X155922790Y-147533334D02*
X155875171Y-147628572D01*
X155875171Y-147628572D02*
X155875171Y-147819048D01*
X155875171Y-147819048D02*
X155922790Y-147914286D01*
X155922790Y-147914286D02*
X155970409Y-147961905D01*
X155970409Y-147961905D02*
X156065647Y-148009524D01*
X168942800Y-115916668D02*
X168895180Y-116059525D01*
X168895180Y-116059525D02*
X168895180Y-116297620D01*
X168895180Y-116297620D02*
X168942800Y-116392858D01*
X168942800Y-116392858D02*
X168990419Y-116440477D01*
X168990419Y-116440477D02*
X169085657Y-116488096D01*
X169085657Y-116488096D02*
X169180895Y-116488096D01*
X169180895Y-116488096D02*
X169276133Y-116440477D01*
X169276133Y-116440477D02*
X169323752Y-116392858D01*
X169323752Y-116392858D02*
X169371371Y-116297620D01*
X169371371Y-116297620D02*
X169418990Y-116107144D01*
X169418990Y-116107144D02*
X169466609Y-116011906D01*
X169466609Y-116011906D02*
X169514228Y-115964287D01*
X169514228Y-115964287D02*
X169609466Y-115916668D01*
X169609466Y-115916668D02*
X169704704Y-115916668D01*
X169704704Y-115916668D02*
X169799942Y-115964287D01*
X169799942Y-115964287D02*
X169847561Y-116011906D01*
X169847561Y-116011906D02*
X169895180Y-116107144D01*
X169895180Y-116107144D02*
X169895180Y-116345239D01*
X169895180Y-116345239D02*
X169847561Y-116488096D01*
X169895180Y-116821430D02*
X168895180Y-117059525D01*
X168895180Y-117059525D02*
X169609466Y-117250001D01*
X169609466Y-117250001D02*
X168895180Y-117440477D01*
X168895180Y-117440477D02*
X169895180Y-117678573D01*
X168895180Y-118583334D02*
X168895180Y-118011906D01*
X168895180Y-118297620D02*
X169895180Y-118297620D01*
X169895180Y-118297620D02*
X169752323Y-118202382D01*
X169752323Y-118202382D02*
X169657085Y-118107144D01*
X169657085Y-118107144D02*
X169609466Y-118011906D01*
X173656480Y-114000001D02*
X173418385Y-114000001D01*
X173513623Y-113761906D02*
X173418385Y-114000001D01*
X173418385Y-114000001D02*
X173513623Y-114238096D01*
X173227909Y-113857144D02*
X173418385Y-114000001D01*
X173418385Y-114000001D02*
X173227909Y-114142858D01*
X113288095Y-146304819D02*
X113288095Y-145304819D01*
X113288095Y-145781009D02*
X113859523Y-145781009D01*
X113859523Y-146304819D02*
X113859523Y-145304819D01*
X114288095Y-145400057D02*
X114335714Y-145352438D01*
X114335714Y-145352438D02*
X114430952Y-145304819D01*
X114430952Y-145304819D02*
X114669047Y-145304819D01*
X114669047Y-145304819D02*
X114764285Y-145352438D01*
X114764285Y-145352438D02*
X114811904Y-145400057D01*
X114811904Y-145400057D02*
X114859523Y-145495295D01*
X114859523Y-145495295D02*
X114859523Y-145590533D01*
X114859523Y-145590533D02*
X114811904Y-145733390D01*
X114811904Y-145733390D02*
X114240476Y-146304819D01*
X114240476Y-146304819D02*
X114859523Y-146304819D01*
X257738095Y-146254819D02*
X257738095Y-145254819D01*
X257738095Y-145731009D02*
X258309523Y-145731009D01*
X258309523Y-146254819D02*
X258309523Y-145254819D01*
X259214285Y-145588152D02*
X259214285Y-146254819D01*
X258976190Y-145207200D02*
X258738095Y-145921485D01*
X258738095Y-145921485D02*
X259357142Y-145921485D01*
X186537511Y-84954985D02*
X186537511Y-83954985D01*
X186537511Y-83954985D02*
X186775606Y-83954985D01*
X186775606Y-83954985D02*
X186918463Y-84002604D01*
X186918463Y-84002604D02*
X187013701Y-84097842D01*
X187013701Y-84097842D02*
X187061320Y-84193080D01*
X187061320Y-84193080D02*
X187108939Y-84383556D01*
X187108939Y-84383556D02*
X187108939Y-84526413D01*
X187108939Y-84526413D02*
X187061320Y-84716889D01*
X187061320Y-84716889D02*
X187013701Y-84812127D01*
X187013701Y-84812127D02*
X186918463Y-84907366D01*
X186918463Y-84907366D02*
X186775606Y-84954985D01*
X186775606Y-84954985D02*
X186537511Y-84954985D01*
X188061320Y-84954985D02*
X187489892Y-84954985D01*
X187775606Y-84954985D02*
X187775606Y-83954985D01*
X187775606Y-83954985D02*
X187680368Y-84097842D01*
X187680368Y-84097842D02*
X187585130Y-84193080D01*
X187585130Y-84193080D02*
X187489892Y-84240699D01*
X257738095Y-73804819D02*
X257738095Y-72804819D01*
X257738095Y-73281009D02*
X258309523Y-73281009D01*
X258309523Y-73804819D02*
X258309523Y-72804819D01*
X258690476Y-72804819D02*
X259309523Y-72804819D01*
X259309523Y-72804819D02*
X258976190Y-73185771D01*
X258976190Y-73185771D02*
X259119047Y-73185771D01*
X259119047Y-73185771D02*
X259214285Y-73233390D01*
X259214285Y-73233390D02*
X259261904Y-73281009D01*
X259261904Y-73281009D02*
X259309523Y-73376247D01*
X259309523Y-73376247D02*
X259309523Y-73614342D01*
X259309523Y-73614342D02*
X259261904Y-73709580D01*
X259261904Y-73709580D02*
X259214285Y-73757200D01*
X259214285Y-73757200D02*
X259119047Y-73804819D01*
X259119047Y-73804819D02*
X258833333Y-73804819D01*
X258833333Y-73804819D02*
X258738095Y-73757200D01*
X258738095Y-73757200D02*
X258690476Y-73709580D01*
X179759580Y-111376666D02*
X179807200Y-111424285D01*
X179807200Y-111424285D02*
X179854819Y-111567142D01*
X179854819Y-111567142D02*
X179854819Y-111662380D01*
X179854819Y-111662380D02*
X179807200Y-111805237D01*
X179807200Y-111805237D02*
X179711961Y-111900475D01*
X179711961Y-111900475D02*
X179616723Y-111948094D01*
X179616723Y-111948094D02*
X179426247Y-111995713D01*
X179426247Y-111995713D02*
X179283390Y-111995713D01*
X179283390Y-111995713D02*
X179092914Y-111948094D01*
X179092914Y-111948094D02*
X178997676Y-111900475D01*
X178997676Y-111900475D02*
X178902438Y-111805237D01*
X178902438Y-111805237D02*
X178854819Y-111662380D01*
X178854819Y-111662380D02*
X178854819Y-111567142D01*
X178854819Y-111567142D02*
X178902438Y-111424285D01*
X178902438Y-111424285D02*
X178950057Y-111376666D01*
X178854819Y-110519523D02*
X178854819Y-110709999D01*
X178854819Y-110709999D02*
X178902438Y-110805237D01*
X178902438Y-110805237D02*
X178950057Y-110852856D01*
X178950057Y-110852856D02*
X179092914Y-110948094D01*
X179092914Y-110948094D02*
X179283390Y-110995713D01*
X179283390Y-110995713D02*
X179664342Y-110995713D01*
X179664342Y-110995713D02*
X179759580Y-110948094D01*
X179759580Y-110948094D02*
X179807200Y-110900475D01*
X179807200Y-110900475D02*
X179854819Y-110805237D01*
X179854819Y-110805237D02*
X179854819Y-110614761D01*
X179854819Y-110614761D02*
X179807200Y-110519523D01*
X179807200Y-110519523D02*
X179759580Y-110471904D01*
X179759580Y-110471904D02*
X179664342Y-110424285D01*
X179664342Y-110424285D02*
X179426247Y-110424285D01*
X179426247Y-110424285D02*
X179331009Y-110471904D01*
X179331009Y-110471904D02*
X179283390Y-110519523D01*
X179283390Y-110519523D02*
X179235771Y-110614761D01*
X179235771Y-110614761D02*
X179235771Y-110805237D01*
X179235771Y-110805237D02*
X179283390Y-110900475D01*
X179283390Y-110900475D02*
X179331009Y-110948094D01*
X179331009Y-110948094D02*
X179426247Y-110995713D01*
X190657142Y-88104819D02*
X190323809Y-87628628D01*
X190085714Y-88104819D02*
X190085714Y-87104819D01*
X190085714Y-87104819D02*
X190466666Y-87104819D01*
X190466666Y-87104819D02*
X190561904Y-87152438D01*
X190561904Y-87152438D02*
X190609523Y-87200057D01*
X190609523Y-87200057D02*
X190657142Y-87295295D01*
X190657142Y-87295295D02*
X190657142Y-87438152D01*
X190657142Y-87438152D02*
X190609523Y-87533390D01*
X190609523Y-87533390D02*
X190561904Y-87581009D01*
X190561904Y-87581009D02*
X190466666Y-87628628D01*
X190466666Y-87628628D02*
X190085714Y-87628628D01*
X191609523Y-88104819D02*
X191038095Y-88104819D01*
X191323809Y-88104819D02*
X191323809Y-87104819D01*
X191323809Y-87104819D02*
X191228571Y-87247676D01*
X191228571Y-87247676D02*
X191133333Y-87342914D01*
X191133333Y-87342914D02*
X191038095Y-87390533D01*
X192561904Y-88104819D02*
X191990476Y-88104819D01*
X192276190Y-88104819D02*
X192276190Y-87104819D01*
X192276190Y-87104819D02*
X192180952Y-87247676D01*
X192180952Y-87247676D02*
X192085714Y-87342914D01*
X192085714Y-87342914D02*
X191990476Y-87390533D01*
X221857142Y-131879819D02*
X221523809Y-131403628D01*
X221285714Y-131879819D02*
X221285714Y-130879819D01*
X221285714Y-130879819D02*
X221666666Y-130879819D01*
X221666666Y-130879819D02*
X221761904Y-130927438D01*
X221761904Y-130927438D02*
X221809523Y-130975057D01*
X221809523Y-130975057D02*
X221857142Y-131070295D01*
X221857142Y-131070295D02*
X221857142Y-131213152D01*
X221857142Y-131213152D02*
X221809523Y-131308390D01*
X221809523Y-131308390D02*
X221761904Y-131356009D01*
X221761904Y-131356009D02*
X221666666Y-131403628D01*
X221666666Y-131403628D02*
X221285714Y-131403628D01*
X222238095Y-130975057D02*
X222285714Y-130927438D01*
X222285714Y-130927438D02*
X222380952Y-130879819D01*
X222380952Y-130879819D02*
X222619047Y-130879819D01*
X222619047Y-130879819D02*
X222714285Y-130927438D01*
X222714285Y-130927438D02*
X222761904Y-130975057D01*
X222761904Y-130975057D02*
X222809523Y-131070295D01*
X222809523Y-131070295D02*
X222809523Y-131165533D01*
X222809523Y-131165533D02*
X222761904Y-131308390D01*
X222761904Y-131308390D02*
X222190476Y-131879819D01*
X222190476Y-131879819D02*
X222809523Y-131879819D01*
X223428571Y-130879819D02*
X223523809Y-130879819D01*
X223523809Y-130879819D02*
X223619047Y-130927438D01*
X223619047Y-130927438D02*
X223666666Y-130975057D01*
X223666666Y-130975057D02*
X223714285Y-131070295D01*
X223714285Y-131070295D02*
X223761904Y-131260771D01*
X223761904Y-131260771D02*
X223761904Y-131498866D01*
X223761904Y-131498866D02*
X223714285Y-131689342D01*
X223714285Y-131689342D02*
X223666666Y-131784580D01*
X223666666Y-131784580D02*
X223619047Y-131832200D01*
X223619047Y-131832200D02*
X223523809Y-131879819D01*
X223523809Y-131879819D02*
X223428571Y-131879819D01*
X223428571Y-131879819D02*
X223333333Y-131832200D01*
X223333333Y-131832200D02*
X223285714Y-131784580D01*
X223285714Y-131784580D02*
X223238095Y-131689342D01*
X223238095Y-131689342D02*
X223190476Y-131498866D01*
X223190476Y-131498866D02*
X223190476Y-131260771D01*
X223190476Y-131260771D02*
X223238095Y-131070295D01*
X223238095Y-131070295D02*
X223285714Y-130975057D01*
X223285714Y-130975057D02*
X223333333Y-130927438D01*
X223333333Y-130927438D02*
X223428571Y-130879819D01*
X119766666Y-83584819D02*
X119766666Y-84299104D01*
X119766666Y-84299104D02*
X119719047Y-84441961D01*
X119719047Y-84441961D02*
X119623809Y-84537200D01*
X119623809Y-84537200D02*
X119480952Y-84584819D01*
X119480952Y-84584819D02*
X119385714Y-84584819D01*
X120242857Y-84584819D02*
X120242857Y-83584819D01*
X120242857Y-83584819D02*
X120623809Y-83584819D01*
X120623809Y-83584819D02*
X120719047Y-83632438D01*
X120719047Y-83632438D02*
X120766666Y-83680057D01*
X120766666Y-83680057D02*
X120814285Y-83775295D01*
X120814285Y-83775295D02*
X120814285Y-83918152D01*
X120814285Y-83918152D02*
X120766666Y-84013390D01*
X120766666Y-84013390D02*
X120719047Y-84061009D01*
X120719047Y-84061009D02*
X120623809Y-84108628D01*
X120623809Y-84108628D02*
X120242857Y-84108628D01*
X121766666Y-84584819D02*
X121195238Y-84584819D01*
X121480952Y-84584819D02*
X121480952Y-83584819D01*
X121480952Y-83584819D02*
X121385714Y-83727676D01*
X121385714Y-83727676D02*
X121290476Y-83822914D01*
X121290476Y-83822914D02*
X121195238Y-83870533D01*
X197019580Y-121146666D02*
X197067200Y-121194285D01*
X197067200Y-121194285D02*
X197114819Y-121337142D01*
X197114819Y-121337142D02*
X197114819Y-121432380D01*
X197114819Y-121432380D02*
X197067200Y-121575237D01*
X197067200Y-121575237D02*
X196971961Y-121670475D01*
X196971961Y-121670475D02*
X196876723Y-121718094D01*
X196876723Y-121718094D02*
X196686247Y-121765713D01*
X196686247Y-121765713D02*
X196543390Y-121765713D01*
X196543390Y-121765713D02*
X196352914Y-121718094D01*
X196352914Y-121718094D02*
X196257676Y-121670475D01*
X196257676Y-121670475D02*
X196162438Y-121575237D01*
X196162438Y-121575237D02*
X196114819Y-121432380D01*
X196114819Y-121432380D02*
X196114819Y-121337142D01*
X196114819Y-121337142D02*
X196162438Y-121194285D01*
X196162438Y-121194285D02*
X196210057Y-121146666D01*
X197114819Y-120670475D02*
X197114819Y-120479999D01*
X197114819Y-120479999D02*
X197067200Y-120384761D01*
X197067200Y-120384761D02*
X197019580Y-120337142D01*
X197019580Y-120337142D02*
X196876723Y-120241904D01*
X196876723Y-120241904D02*
X196686247Y-120194285D01*
X196686247Y-120194285D02*
X196305295Y-120194285D01*
X196305295Y-120194285D02*
X196210057Y-120241904D01*
X196210057Y-120241904D02*
X196162438Y-120289523D01*
X196162438Y-120289523D02*
X196114819Y-120384761D01*
X196114819Y-120384761D02*
X196114819Y-120575237D01*
X196114819Y-120575237D02*
X196162438Y-120670475D01*
X196162438Y-120670475D02*
X196210057Y-120718094D01*
X196210057Y-120718094D02*
X196305295Y-120765713D01*
X196305295Y-120765713D02*
X196543390Y-120765713D01*
X196543390Y-120765713D02*
X196638628Y-120718094D01*
X196638628Y-120718094D02*
X196686247Y-120670475D01*
X196686247Y-120670475D02*
X196733866Y-120575237D01*
X196733866Y-120575237D02*
X196733866Y-120384761D01*
X196733866Y-120384761D02*
X196686247Y-120289523D01*
X196686247Y-120289523D02*
X196638628Y-120241904D01*
X196638628Y-120241904D02*
X196543390Y-120194285D01*
X188005276Y-123079819D02*
X188671942Y-124079819D01*
X188671942Y-123079819D02*
X188005276Y-124079819D01*
X189576704Y-124079819D02*
X189005276Y-124079819D01*
X189290990Y-124079819D02*
X189290990Y-123079819D01*
X189290990Y-123079819D02*
X189195752Y-123222676D01*
X189195752Y-123222676D02*
X189100514Y-123317914D01*
X189100514Y-123317914D02*
X189005276Y-123365533D01*
X216357142Y-127659580D02*
X216309523Y-127707200D01*
X216309523Y-127707200D02*
X216166666Y-127754819D01*
X216166666Y-127754819D02*
X216071428Y-127754819D01*
X216071428Y-127754819D02*
X215928571Y-127707200D01*
X215928571Y-127707200D02*
X215833333Y-127611961D01*
X215833333Y-127611961D02*
X215785714Y-127516723D01*
X215785714Y-127516723D02*
X215738095Y-127326247D01*
X215738095Y-127326247D02*
X215738095Y-127183390D01*
X215738095Y-127183390D02*
X215785714Y-126992914D01*
X215785714Y-126992914D02*
X215833333Y-126897676D01*
X215833333Y-126897676D02*
X215928571Y-126802438D01*
X215928571Y-126802438D02*
X216071428Y-126754819D01*
X216071428Y-126754819D02*
X216166666Y-126754819D01*
X216166666Y-126754819D02*
X216309523Y-126802438D01*
X216309523Y-126802438D02*
X216357142Y-126850057D01*
X216690476Y-126754819D02*
X217309523Y-126754819D01*
X217309523Y-126754819D02*
X216976190Y-127135771D01*
X216976190Y-127135771D02*
X217119047Y-127135771D01*
X217119047Y-127135771D02*
X217214285Y-127183390D01*
X217214285Y-127183390D02*
X217261904Y-127231009D01*
X217261904Y-127231009D02*
X217309523Y-127326247D01*
X217309523Y-127326247D02*
X217309523Y-127564342D01*
X217309523Y-127564342D02*
X217261904Y-127659580D01*
X217261904Y-127659580D02*
X217214285Y-127707200D01*
X217214285Y-127707200D02*
X217119047Y-127754819D01*
X217119047Y-127754819D02*
X216833333Y-127754819D01*
X216833333Y-127754819D02*
X216738095Y-127707200D01*
X216738095Y-127707200D02*
X216690476Y-127659580D01*
X217690476Y-126850057D02*
X217738095Y-126802438D01*
X217738095Y-126802438D02*
X217833333Y-126754819D01*
X217833333Y-126754819D02*
X218071428Y-126754819D01*
X218071428Y-126754819D02*
X218166666Y-126802438D01*
X218166666Y-126802438D02*
X218214285Y-126850057D01*
X218214285Y-126850057D02*
X218261904Y-126945295D01*
X218261904Y-126945295D02*
X218261904Y-127040533D01*
X218261904Y-127040533D02*
X218214285Y-127183390D01*
X218214285Y-127183390D02*
X217642857Y-127754819D01*
X217642857Y-127754819D02*
X218261904Y-127754819D01*
X168038095Y-95354819D02*
X168038095Y-96164342D01*
X168038095Y-96164342D02*
X168085714Y-96259580D01*
X168085714Y-96259580D02*
X168133333Y-96307200D01*
X168133333Y-96307200D02*
X168228571Y-96354819D01*
X168228571Y-96354819D02*
X168419047Y-96354819D01*
X168419047Y-96354819D02*
X168514285Y-96307200D01*
X168514285Y-96307200D02*
X168561904Y-96259580D01*
X168561904Y-96259580D02*
X168609523Y-96164342D01*
X168609523Y-96164342D02*
X168609523Y-95354819D01*
X169038095Y-95450057D02*
X169085714Y-95402438D01*
X169085714Y-95402438D02*
X169180952Y-95354819D01*
X169180952Y-95354819D02*
X169419047Y-95354819D01*
X169419047Y-95354819D02*
X169514285Y-95402438D01*
X169514285Y-95402438D02*
X169561904Y-95450057D01*
X169561904Y-95450057D02*
X169609523Y-95545295D01*
X169609523Y-95545295D02*
X169609523Y-95640533D01*
X169609523Y-95640533D02*
X169561904Y-95783390D01*
X169561904Y-95783390D02*
X168990476Y-96354819D01*
X168990476Y-96354819D02*
X169609523Y-96354819D01*
X239007142Y-122759580D02*
X238959523Y-122807200D01*
X238959523Y-122807200D02*
X238816666Y-122854819D01*
X238816666Y-122854819D02*
X238721428Y-122854819D01*
X238721428Y-122854819D02*
X238578571Y-122807200D01*
X238578571Y-122807200D02*
X238483333Y-122711961D01*
X238483333Y-122711961D02*
X238435714Y-122616723D01*
X238435714Y-122616723D02*
X238388095Y-122426247D01*
X238388095Y-122426247D02*
X238388095Y-122283390D01*
X238388095Y-122283390D02*
X238435714Y-122092914D01*
X238435714Y-122092914D02*
X238483333Y-121997676D01*
X238483333Y-121997676D02*
X238578571Y-121902438D01*
X238578571Y-121902438D02*
X238721428Y-121854819D01*
X238721428Y-121854819D02*
X238816666Y-121854819D01*
X238816666Y-121854819D02*
X238959523Y-121902438D01*
X238959523Y-121902438D02*
X239007142Y-121950057D01*
X239388095Y-121950057D02*
X239435714Y-121902438D01*
X239435714Y-121902438D02*
X239530952Y-121854819D01*
X239530952Y-121854819D02*
X239769047Y-121854819D01*
X239769047Y-121854819D02*
X239864285Y-121902438D01*
X239864285Y-121902438D02*
X239911904Y-121950057D01*
X239911904Y-121950057D02*
X239959523Y-122045295D01*
X239959523Y-122045295D02*
X239959523Y-122140533D01*
X239959523Y-122140533D02*
X239911904Y-122283390D01*
X239911904Y-122283390D02*
X239340476Y-122854819D01*
X239340476Y-122854819D02*
X239959523Y-122854819D01*
X240530952Y-122283390D02*
X240435714Y-122235771D01*
X240435714Y-122235771D02*
X240388095Y-122188152D01*
X240388095Y-122188152D02*
X240340476Y-122092914D01*
X240340476Y-122092914D02*
X240340476Y-122045295D01*
X240340476Y-122045295D02*
X240388095Y-121950057D01*
X240388095Y-121950057D02*
X240435714Y-121902438D01*
X240435714Y-121902438D02*
X240530952Y-121854819D01*
X240530952Y-121854819D02*
X240721428Y-121854819D01*
X240721428Y-121854819D02*
X240816666Y-121902438D01*
X240816666Y-121902438D02*
X240864285Y-121950057D01*
X240864285Y-121950057D02*
X240911904Y-122045295D01*
X240911904Y-122045295D02*
X240911904Y-122092914D01*
X240911904Y-122092914D02*
X240864285Y-122188152D01*
X240864285Y-122188152D02*
X240816666Y-122235771D01*
X240816666Y-122235771D02*
X240721428Y-122283390D01*
X240721428Y-122283390D02*
X240530952Y-122283390D01*
X240530952Y-122283390D02*
X240435714Y-122331009D01*
X240435714Y-122331009D02*
X240388095Y-122378628D01*
X240388095Y-122378628D02*
X240340476Y-122473866D01*
X240340476Y-122473866D02*
X240340476Y-122664342D01*
X240340476Y-122664342D02*
X240388095Y-122759580D01*
X240388095Y-122759580D02*
X240435714Y-122807200D01*
X240435714Y-122807200D02*
X240530952Y-122854819D01*
X240530952Y-122854819D02*
X240721428Y-122854819D01*
X240721428Y-122854819D02*
X240816666Y-122807200D01*
X240816666Y-122807200D02*
X240864285Y-122759580D01*
X240864285Y-122759580D02*
X240911904Y-122664342D01*
X240911904Y-122664342D02*
X240911904Y-122473866D01*
X240911904Y-122473866D02*
X240864285Y-122378628D01*
X240864285Y-122378628D02*
X240816666Y-122331009D01*
X240816666Y-122331009D02*
X240721428Y-122283390D01*
X195857142Y-128554819D02*
X195523809Y-128078628D01*
X195285714Y-128554819D02*
X195285714Y-127554819D01*
X195285714Y-127554819D02*
X195666666Y-127554819D01*
X195666666Y-127554819D02*
X195761904Y-127602438D01*
X195761904Y-127602438D02*
X195809523Y-127650057D01*
X195809523Y-127650057D02*
X195857142Y-127745295D01*
X195857142Y-127745295D02*
X195857142Y-127888152D01*
X195857142Y-127888152D02*
X195809523Y-127983390D01*
X195809523Y-127983390D02*
X195761904Y-128031009D01*
X195761904Y-128031009D02*
X195666666Y-128078628D01*
X195666666Y-128078628D02*
X195285714Y-128078628D01*
X196238095Y-127650057D02*
X196285714Y-127602438D01*
X196285714Y-127602438D02*
X196380952Y-127554819D01*
X196380952Y-127554819D02*
X196619047Y-127554819D01*
X196619047Y-127554819D02*
X196714285Y-127602438D01*
X196714285Y-127602438D02*
X196761904Y-127650057D01*
X196761904Y-127650057D02*
X196809523Y-127745295D01*
X196809523Y-127745295D02*
X196809523Y-127840533D01*
X196809523Y-127840533D02*
X196761904Y-127983390D01*
X196761904Y-127983390D02*
X196190476Y-128554819D01*
X196190476Y-128554819D02*
X196809523Y-128554819D01*
X197142857Y-127554819D02*
X197761904Y-127554819D01*
X197761904Y-127554819D02*
X197428571Y-127935771D01*
X197428571Y-127935771D02*
X197571428Y-127935771D01*
X197571428Y-127935771D02*
X197666666Y-127983390D01*
X197666666Y-127983390D02*
X197714285Y-128031009D01*
X197714285Y-128031009D02*
X197761904Y-128126247D01*
X197761904Y-128126247D02*
X197761904Y-128364342D01*
X197761904Y-128364342D02*
X197714285Y-128459580D01*
X197714285Y-128459580D02*
X197666666Y-128507200D01*
X197666666Y-128507200D02*
X197571428Y-128554819D01*
X197571428Y-128554819D02*
X197285714Y-128554819D01*
X197285714Y-128554819D02*
X197190476Y-128507200D01*
X197190476Y-128507200D02*
X197142857Y-128459580D01*
X193259580Y-121782857D02*
X193307200Y-121830476D01*
X193307200Y-121830476D02*
X193354819Y-121973333D01*
X193354819Y-121973333D02*
X193354819Y-122068571D01*
X193354819Y-122068571D02*
X193307200Y-122211428D01*
X193307200Y-122211428D02*
X193211961Y-122306666D01*
X193211961Y-122306666D02*
X193116723Y-122354285D01*
X193116723Y-122354285D02*
X192926247Y-122401904D01*
X192926247Y-122401904D02*
X192783390Y-122401904D01*
X192783390Y-122401904D02*
X192592914Y-122354285D01*
X192592914Y-122354285D02*
X192497676Y-122306666D01*
X192497676Y-122306666D02*
X192402438Y-122211428D01*
X192402438Y-122211428D02*
X192354819Y-122068571D01*
X192354819Y-122068571D02*
X192354819Y-121973333D01*
X192354819Y-121973333D02*
X192402438Y-121830476D01*
X192402438Y-121830476D02*
X192450057Y-121782857D01*
X193354819Y-120830476D02*
X193354819Y-121401904D01*
X193354819Y-121116190D02*
X192354819Y-121116190D01*
X192354819Y-121116190D02*
X192497676Y-121211428D01*
X192497676Y-121211428D02*
X192592914Y-121306666D01*
X192592914Y-121306666D02*
X192640533Y-121401904D01*
X192354819Y-120211428D02*
X192354819Y-120116190D01*
X192354819Y-120116190D02*
X192402438Y-120020952D01*
X192402438Y-120020952D02*
X192450057Y-119973333D01*
X192450057Y-119973333D02*
X192545295Y-119925714D01*
X192545295Y-119925714D02*
X192735771Y-119878095D01*
X192735771Y-119878095D02*
X192973866Y-119878095D01*
X192973866Y-119878095D02*
X193164342Y-119925714D01*
X193164342Y-119925714D02*
X193259580Y-119973333D01*
X193259580Y-119973333D02*
X193307200Y-120020952D01*
X193307200Y-120020952D02*
X193354819Y-120116190D01*
X193354819Y-120116190D02*
X193354819Y-120211428D01*
X193354819Y-120211428D02*
X193307200Y-120306666D01*
X193307200Y-120306666D02*
X193259580Y-120354285D01*
X193259580Y-120354285D02*
X193164342Y-120401904D01*
X193164342Y-120401904D02*
X192973866Y-120449523D01*
X192973866Y-120449523D02*
X192735771Y-120449523D01*
X192735771Y-120449523D02*
X192545295Y-120401904D01*
X192545295Y-120401904D02*
X192450057Y-120354285D01*
X192450057Y-120354285D02*
X192402438Y-120306666D01*
X192402438Y-120306666D02*
X192354819Y-120211428D01*
X189457142Y-94654819D02*
X189123809Y-94178628D01*
X188885714Y-94654819D02*
X188885714Y-93654819D01*
X188885714Y-93654819D02*
X189266666Y-93654819D01*
X189266666Y-93654819D02*
X189361904Y-93702438D01*
X189361904Y-93702438D02*
X189409523Y-93750057D01*
X189409523Y-93750057D02*
X189457142Y-93845295D01*
X189457142Y-93845295D02*
X189457142Y-93988152D01*
X189457142Y-93988152D02*
X189409523Y-94083390D01*
X189409523Y-94083390D02*
X189361904Y-94131009D01*
X189361904Y-94131009D02*
X189266666Y-94178628D01*
X189266666Y-94178628D02*
X188885714Y-94178628D01*
X190409523Y-94654819D02*
X189838095Y-94654819D01*
X190123809Y-94654819D02*
X190123809Y-93654819D01*
X190123809Y-93654819D02*
X190028571Y-93797676D01*
X190028571Y-93797676D02*
X189933333Y-93892914D01*
X189933333Y-93892914D02*
X189838095Y-93940533D01*
X191028571Y-93654819D02*
X191123809Y-93654819D01*
X191123809Y-93654819D02*
X191219047Y-93702438D01*
X191219047Y-93702438D02*
X191266666Y-93750057D01*
X191266666Y-93750057D02*
X191314285Y-93845295D01*
X191314285Y-93845295D02*
X191361904Y-94035771D01*
X191361904Y-94035771D02*
X191361904Y-94273866D01*
X191361904Y-94273866D02*
X191314285Y-94464342D01*
X191314285Y-94464342D02*
X191266666Y-94559580D01*
X191266666Y-94559580D02*
X191219047Y-94607200D01*
X191219047Y-94607200D02*
X191123809Y-94654819D01*
X191123809Y-94654819D02*
X191028571Y-94654819D01*
X191028571Y-94654819D02*
X190933333Y-94607200D01*
X190933333Y-94607200D02*
X190885714Y-94559580D01*
X190885714Y-94559580D02*
X190838095Y-94464342D01*
X190838095Y-94464342D02*
X190790476Y-94273866D01*
X190790476Y-94273866D02*
X190790476Y-94035771D01*
X190790476Y-94035771D02*
X190838095Y-93845295D01*
X190838095Y-93845295D02*
X190885714Y-93750057D01*
X190885714Y-93750057D02*
X190933333Y-93702438D01*
X190933333Y-93702438D02*
X191028571Y-93654819D01*
X216457142Y-130054819D02*
X216123809Y-129578628D01*
X215885714Y-130054819D02*
X215885714Y-129054819D01*
X215885714Y-129054819D02*
X216266666Y-129054819D01*
X216266666Y-129054819D02*
X216361904Y-129102438D01*
X216361904Y-129102438D02*
X216409523Y-129150057D01*
X216409523Y-129150057D02*
X216457142Y-129245295D01*
X216457142Y-129245295D02*
X216457142Y-129388152D01*
X216457142Y-129388152D02*
X216409523Y-129483390D01*
X216409523Y-129483390D02*
X216361904Y-129531009D01*
X216361904Y-129531009D02*
X216266666Y-129578628D01*
X216266666Y-129578628D02*
X215885714Y-129578628D01*
X216838095Y-129150057D02*
X216885714Y-129102438D01*
X216885714Y-129102438D02*
X216980952Y-129054819D01*
X216980952Y-129054819D02*
X217219047Y-129054819D01*
X217219047Y-129054819D02*
X217314285Y-129102438D01*
X217314285Y-129102438D02*
X217361904Y-129150057D01*
X217361904Y-129150057D02*
X217409523Y-129245295D01*
X217409523Y-129245295D02*
X217409523Y-129340533D01*
X217409523Y-129340533D02*
X217361904Y-129483390D01*
X217361904Y-129483390D02*
X216790476Y-130054819D01*
X216790476Y-130054819D02*
X217409523Y-130054819D01*
X218314285Y-129054819D02*
X217838095Y-129054819D01*
X217838095Y-129054819D02*
X217790476Y-129531009D01*
X217790476Y-129531009D02*
X217838095Y-129483390D01*
X217838095Y-129483390D02*
X217933333Y-129435771D01*
X217933333Y-129435771D02*
X218171428Y-129435771D01*
X218171428Y-129435771D02*
X218266666Y-129483390D01*
X218266666Y-129483390D02*
X218314285Y-129531009D01*
X218314285Y-129531009D02*
X218361904Y-129626247D01*
X218361904Y-129626247D02*
X218361904Y-129864342D01*
X218361904Y-129864342D02*
X218314285Y-129959580D01*
X218314285Y-129959580D02*
X218266666Y-130007200D01*
X218266666Y-130007200D02*
X218171428Y-130054819D01*
X218171428Y-130054819D02*
X217933333Y-130054819D01*
X217933333Y-130054819D02*
X217838095Y-130007200D01*
X217838095Y-130007200D02*
X217790476Y-129959580D01*
X159359580Y-90342857D02*
X159407200Y-90390476D01*
X159407200Y-90390476D02*
X159454819Y-90533333D01*
X159454819Y-90533333D02*
X159454819Y-90628571D01*
X159454819Y-90628571D02*
X159407200Y-90771428D01*
X159407200Y-90771428D02*
X159311961Y-90866666D01*
X159311961Y-90866666D02*
X159216723Y-90914285D01*
X159216723Y-90914285D02*
X159026247Y-90961904D01*
X159026247Y-90961904D02*
X158883390Y-90961904D01*
X158883390Y-90961904D02*
X158692914Y-90914285D01*
X158692914Y-90914285D02*
X158597676Y-90866666D01*
X158597676Y-90866666D02*
X158502438Y-90771428D01*
X158502438Y-90771428D02*
X158454819Y-90628571D01*
X158454819Y-90628571D02*
X158454819Y-90533333D01*
X158454819Y-90533333D02*
X158502438Y-90390476D01*
X158502438Y-90390476D02*
X158550057Y-90342857D01*
X159454819Y-89390476D02*
X159454819Y-89961904D01*
X159454819Y-89676190D02*
X158454819Y-89676190D01*
X158454819Y-89676190D02*
X158597676Y-89771428D01*
X158597676Y-89771428D02*
X158692914Y-89866666D01*
X158692914Y-89866666D02*
X158740533Y-89961904D01*
X158454819Y-88533333D02*
X158454819Y-88723809D01*
X158454819Y-88723809D02*
X158502438Y-88819047D01*
X158502438Y-88819047D02*
X158550057Y-88866666D01*
X158550057Y-88866666D02*
X158692914Y-88961904D01*
X158692914Y-88961904D02*
X158883390Y-89009523D01*
X158883390Y-89009523D02*
X159264342Y-89009523D01*
X159264342Y-89009523D02*
X159359580Y-88961904D01*
X159359580Y-88961904D02*
X159407200Y-88914285D01*
X159407200Y-88914285D02*
X159454819Y-88819047D01*
X159454819Y-88819047D02*
X159454819Y-88628571D01*
X159454819Y-88628571D02*
X159407200Y-88533333D01*
X159407200Y-88533333D02*
X159359580Y-88485714D01*
X159359580Y-88485714D02*
X159264342Y-88438095D01*
X159264342Y-88438095D02*
X159026247Y-88438095D01*
X159026247Y-88438095D02*
X158931009Y-88485714D01*
X158931009Y-88485714D02*
X158883390Y-88533333D01*
X158883390Y-88533333D02*
X158835771Y-88628571D01*
X158835771Y-88628571D02*
X158835771Y-88819047D01*
X158835771Y-88819047D02*
X158883390Y-88914285D01*
X158883390Y-88914285D02*
X158931009Y-88961904D01*
X158931009Y-88961904D02*
X159026247Y-89009523D01*
X189427142Y-119574580D02*
X189379523Y-119622200D01*
X189379523Y-119622200D02*
X189236666Y-119669819D01*
X189236666Y-119669819D02*
X189141428Y-119669819D01*
X189141428Y-119669819D02*
X188998571Y-119622200D01*
X188998571Y-119622200D02*
X188903333Y-119526961D01*
X188903333Y-119526961D02*
X188855714Y-119431723D01*
X188855714Y-119431723D02*
X188808095Y-119241247D01*
X188808095Y-119241247D02*
X188808095Y-119098390D01*
X188808095Y-119098390D02*
X188855714Y-118907914D01*
X188855714Y-118907914D02*
X188903333Y-118812676D01*
X188903333Y-118812676D02*
X188998571Y-118717438D01*
X188998571Y-118717438D02*
X189141428Y-118669819D01*
X189141428Y-118669819D02*
X189236666Y-118669819D01*
X189236666Y-118669819D02*
X189379523Y-118717438D01*
X189379523Y-118717438D02*
X189427142Y-118765057D01*
X190379523Y-119669819D02*
X189808095Y-119669819D01*
X190093809Y-119669819D02*
X190093809Y-118669819D01*
X190093809Y-118669819D02*
X189998571Y-118812676D01*
X189998571Y-118812676D02*
X189903333Y-118907914D01*
X189903333Y-118907914D02*
X189808095Y-118955533D01*
X190712857Y-118669819D02*
X191331904Y-118669819D01*
X191331904Y-118669819D02*
X190998571Y-119050771D01*
X190998571Y-119050771D02*
X191141428Y-119050771D01*
X191141428Y-119050771D02*
X191236666Y-119098390D01*
X191236666Y-119098390D02*
X191284285Y-119146009D01*
X191284285Y-119146009D02*
X191331904Y-119241247D01*
X191331904Y-119241247D02*
X191331904Y-119479342D01*
X191331904Y-119479342D02*
X191284285Y-119574580D01*
X191284285Y-119574580D02*
X191236666Y-119622200D01*
X191236666Y-119622200D02*
X191141428Y-119669819D01*
X191141428Y-119669819D02*
X190855714Y-119669819D01*
X190855714Y-119669819D02*
X190760476Y-119622200D01*
X190760476Y-119622200D02*
X190712857Y-119574580D01*
X183863333Y-118734580D02*
X183815714Y-118782200D01*
X183815714Y-118782200D02*
X183672857Y-118829819D01*
X183672857Y-118829819D02*
X183577619Y-118829819D01*
X183577619Y-118829819D02*
X183434762Y-118782200D01*
X183434762Y-118782200D02*
X183339524Y-118686961D01*
X183339524Y-118686961D02*
X183291905Y-118591723D01*
X183291905Y-118591723D02*
X183244286Y-118401247D01*
X183244286Y-118401247D02*
X183244286Y-118258390D01*
X183244286Y-118258390D02*
X183291905Y-118067914D01*
X183291905Y-118067914D02*
X183339524Y-117972676D01*
X183339524Y-117972676D02*
X183434762Y-117877438D01*
X183434762Y-117877438D02*
X183577619Y-117829819D01*
X183577619Y-117829819D02*
X183672857Y-117829819D01*
X183672857Y-117829819D02*
X183815714Y-117877438D01*
X183815714Y-117877438D02*
X183863333Y-117925057D01*
X184196667Y-117829819D02*
X184863333Y-117829819D01*
X184863333Y-117829819D02*
X184434762Y-118829819D01*
X204781304Y-119895181D02*
X204781304Y-119085658D01*
X204781304Y-119085658D02*
X204733685Y-118990420D01*
X204733685Y-118990420D02*
X204686066Y-118942801D01*
X204686066Y-118942801D02*
X204590828Y-118895181D01*
X204590828Y-118895181D02*
X204400352Y-118895181D01*
X204400352Y-118895181D02*
X204305114Y-118942801D01*
X204305114Y-118942801D02*
X204257495Y-118990420D01*
X204257495Y-118990420D02*
X204209876Y-119085658D01*
X204209876Y-119085658D02*
X204209876Y-119895181D01*
X203305114Y-119561848D02*
X203305114Y-118895181D01*
X203543209Y-119942801D02*
X203781304Y-119228515D01*
X203781304Y-119228515D02*
X203162257Y-119228515D01*
X208399999Y-121645180D02*
X208399999Y-121407085D01*
X208638094Y-121502323D02*
X208399999Y-121407085D01*
X208399999Y-121407085D02*
X208161904Y-121502323D01*
X208542856Y-121216609D02*
X208399999Y-121407085D01*
X208399999Y-121407085D02*
X208257142Y-121216609D01*
X203654819Y-100625594D02*
X202654819Y-100625594D01*
X202654819Y-100625594D02*
X202654819Y-100387499D01*
X202654819Y-100387499D02*
X202702438Y-100244642D01*
X202702438Y-100244642D02*
X202797676Y-100149404D01*
X202797676Y-100149404D02*
X202892914Y-100101785D01*
X202892914Y-100101785D02*
X203083390Y-100054166D01*
X203083390Y-100054166D02*
X203226247Y-100054166D01*
X203226247Y-100054166D02*
X203416723Y-100101785D01*
X203416723Y-100101785D02*
X203511961Y-100149404D01*
X203511961Y-100149404D02*
X203607200Y-100244642D01*
X203607200Y-100244642D02*
X203654819Y-100387499D01*
X203654819Y-100387499D02*
X203654819Y-100625594D01*
X202654819Y-99197023D02*
X202654819Y-99387499D01*
X202654819Y-99387499D02*
X202702438Y-99482737D01*
X202702438Y-99482737D02*
X202750057Y-99530356D01*
X202750057Y-99530356D02*
X202892914Y-99625594D01*
X202892914Y-99625594D02*
X203083390Y-99673213D01*
X203083390Y-99673213D02*
X203464342Y-99673213D01*
X203464342Y-99673213D02*
X203559580Y-99625594D01*
X203559580Y-99625594D02*
X203607200Y-99577975D01*
X203607200Y-99577975D02*
X203654819Y-99482737D01*
X203654819Y-99482737D02*
X203654819Y-99292261D01*
X203654819Y-99292261D02*
X203607200Y-99197023D01*
X203607200Y-99197023D02*
X203559580Y-99149404D01*
X203559580Y-99149404D02*
X203464342Y-99101785D01*
X203464342Y-99101785D02*
X203226247Y-99101785D01*
X203226247Y-99101785D02*
X203131009Y-99149404D01*
X203131009Y-99149404D02*
X203083390Y-99197023D01*
X203083390Y-99197023D02*
X203035771Y-99292261D01*
X203035771Y-99292261D02*
X203035771Y-99482737D01*
X203035771Y-99482737D02*
X203083390Y-99577975D01*
X203083390Y-99577975D02*
X203131009Y-99625594D01*
X203131009Y-99625594D02*
X203226247Y-99673213D01*
X177454819Y-82683094D02*
X176454819Y-82683094D01*
X176454819Y-82683094D02*
X176454819Y-82444999D01*
X176454819Y-82444999D02*
X176502438Y-82302142D01*
X176502438Y-82302142D02*
X176597676Y-82206904D01*
X176597676Y-82206904D02*
X176692914Y-82159285D01*
X176692914Y-82159285D02*
X176883390Y-82111666D01*
X176883390Y-82111666D02*
X177026247Y-82111666D01*
X177026247Y-82111666D02*
X177216723Y-82159285D01*
X177216723Y-82159285D02*
X177311961Y-82206904D01*
X177311961Y-82206904D02*
X177407200Y-82302142D01*
X177407200Y-82302142D02*
X177454819Y-82444999D01*
X177454819Y-82444999D02*
X177454819Y-82683094D01*
X176454819Y-81778332D02*
X176454819Y-81159285D01*
X176454819Y-81159285D02*
X176835771Y-81492618D01*
X176835771Y-81492618D02*
X176835771Y-81349761D01*
X176835771Y-81349761D02*
X176883390Y-81254523D01*
X176883390Y-81254523D02*
X176931009Y-81206904D01*
X176931009Y-81206904D02*
X177026247Y-81159285D01*
X177026247Y-81159285D02*
X177264342Y-81159285D01*
X177264342Y-81159285D02*
X177359580Y-81206904D01*
X177359580Y-81206904D02*
X177407200Y-81254523D01*
X177407200Y-81254523D02*
X177454819Y-81349761D01*
X177454819Y-81349761D02*
X177454819Y-81635475D01*
X177454819Y-81635475D02*
X177407200Y-81730713D01*
X177407200Y-81730713D02*
X177359580Y-81778332D01*
X227204819Y-82233094D02*
X226204819Y-82233094D01*
X226204819Y-82233094D02*
X226204819Y-81994999D01*
X226204819Y-81994999D02*
X226252438Y-81852142D01*
X226252438Y-81852142D02*
X226347676Y-81756904D01*
X226347676Y-81756904D02*
X226442914Y-81709285D01*
X226442914Y-81709285D02*
X226633390Y-81661666D01*
X226633390Y-81661666D02*
X226776247Y-81661666D01*
X226776247Y-81661666D02*
X226966723Y-81709285D01*
X226966723Y-81709285D02*
X227061961Y-81756904D01*
X227061961Y-81756904D02*
X227157200Y-81852142D01*
X227157200Y-81852142D02*
X227204819Y-81994999D01*
X227204819Y-81994999D02*
X227204819Y-82233094D01*
X227204819Y-81185475D02*
X227204819Y-80994999D01*
X227204819Y-80994999D02*
X227157200Y-80899761D01*
X227157200Y-80899761D02*
X227109580Y-80852142D01*
X227109580Y-80852142D02*
X226966723Y-80756904D01*
X226966723Y-80756904D02*
X226776247Y-80709285D01*
X226776247Y-80709285D02*
X226395295Y-80709285D01*
X226395295Y-80709285D02*
X226300057Y-80756904D01*
X226300057Y-80756904D02*
X226252438Y-80804523D01*
X226252438Y-80804523D02*
X226204819Y-80899761D01*
X226204819Y-80899761D02*
X226204819Y-81090237D01*
X226204819Y-81090237D02*
X226252438Y-81185475D01*
X226252438Y-81185475D02*
X226300057Y-81233094D01*
X226300057Y-81233094D02*
X226395295Y-81280713D01*
X226395295Y-81280713D02*
X226633390Y-81280713D01*
X226633390Y-81280713D02*
X226728628Y-81233094D01*
X226728628Y-81233094D02*
X226776247Y-81185475D01*
X226776247Y-81185475D02*
X226823866Y-81090237D01*
X226823866Y-81090237D02*
X226823866Y-80899761D01*
X226823866Y-80899761D02*
X226776247Y-80804523D01*
X226776247Y-80804523D02*
X226728628Y-80756904D01*
X226728628Y-80756904D02*
X226633390Y-80709285D01*
X190033333Y-116559580D02*
X189985714Y-116607200D01*
X189985714Y-116607200D02*
X189842857Y-116654819D01*
X189842857Y-116654819D02*
X189747619Y-116654819D01*
X189747619Y-116654819D02*
X189604762Y-116607200D01*
X189604762Y-116607200D02*
X189509524Y-116511961D01*
X189509524Y-116511961D02*
X189461905Y-116416723D01*
X189461905Y-116416723D02*
X189414286Y-116226247D01*
X189414286Y-116226247D02*
X189414286Y-116083390D01*
X189414286Y-116083390D02*
X189461905Y-115892914D01*
X189461905Y-115892914D02*
X189509524Y-115797676D01*
X189509524Y-115797676D02*
X189604762Y-115702438D01*
X189604762Y-115702438D02*
X189747619Y-115654819D01*
X189747619Y-115654819D02*
X189842857Y-115654819D01*
X189842857Y-115654819D02*
X189985714Y-115702438D01*
X189985714Y-115702438D02*
X190033333Y-115750057D01*
X190604762Y-116083390D02*
X190509524Y-116035771D01*
X190509524Y-116035771D02*
X190461905Y-115988152D01*
X190461905Y-115988152D02*
X190414286Y-115892914D01*
X190414286Y-115892914D02*
X190414286Y-115845295D01*
X190414286Y-115845295D02*
X190461905Y-115750057D01*
X190461905Y-115750057D02*
X190509524Y-115702438D01*
X190509524Y-115702438D02*
X190604762Y-115654819D01*
X190604762Y-115654819D02*
X190795238Y-115654819D01*
X190795238Y-115654819D02*
X190890476Y-115702438D01*
X190890476Y-115702438D02*
X190938095Y-115750057D01*
X190938095Y-115750057D02*
X190985714Y-115845295D01*
X190985714Y-115845295D02*
X190985714Y-115892914D01*
X190985714Y-115892914D02*
X190938095Y-115988152D01*
X190938095Y-115988152D02*
X190890476Y-116035771D01*
X190890476Y-116035771D02*
X190795238Y-116083390D01*
X190795238Y-116083390D02*
X190604762Y-116083390D01*
X190604762Y-116083390D02*
X190509524Y-116131009D01*
X190509524Y-116131009D02*
X190461905Y-116178628D01*
X190461905Y-116178628D02*
X190414286Y-116273866D01*
X190414286Y-116273866D02*
X190414286Y-116464342D01*
X190414286Y-116464342D02*
X190461905Y-116559580D01*
X190461905Y-116559580D02*
X190509524Y-116607200D01*
X190509524Y-116607200D02*
X190604762Y-116654819D01*
X190604762Y-116654819D02*
X190795238Y-116654819D01*
X190795238Y-116654819D02*
X190890476Y-116607200D01*
X190890476Y-116607200D02*
X190938095Y-116559580D01*
X190938095Y-116559580D02*
X190985714Y-116464342D01*
X190985714Y-116464342D02*
X190985714Y-116273866D01*
X190985714Y-116273866D02*
X190938095Y-116178628D01*
X190938095Y-116178628D02*
X190890476Y-116131009D01*
X190890476Y-116131009D02*
X190795238Y-116083390D01*
X239257142Y-125954819D02*
X238923809Y-125478628D01*
X238685714Y-125954819D02*
X238685714Y-124954819D01*
X238685714Y-124954819D02*
X239066666Y-124954819D01*
X239066666Y-124954819D02*
X239161904Y-125002438D01*
X239161904Y-125002438D02*
X239209523Y-125050057D01*
X239209523Y-125050057D02*
X239257142Y-125145295D01*
X239257142Y-125145295D02*
X239257142Y-125288152D01*
X239257142Y-125288152D02*
X239209523Y-125383390D01*
X239209523Y-125383390D02*
X239161904Y-125431009D01*
X239161904Y-125431009D02*
X239066666Y-125478628D01*
X239066666Y-125478628D02*
X238685714Y-125478628D01*
X239638095Y-125050057D02*
X239685714Y-125002438D01*
X239685714Y-125002438D02*
X239780952Y-124954819D01*
X239780952Y-124954819D02*
X240019047Y-124954819D01*
X240019047Y-124954819D02*
X240114285Y-125002438D01*
X240114285Y-125002438D02*
X240161904Y-125050057D01*
X240161904Y-125050057D02*
X240209523Y-125145295D01*
X240209523Y-125145295D02*
X240209523Y-125240533D01*
X240209523Y-125240533D02*
X240161904Y-125383390D01*
X240161904Y-125383390D02*
X239590476Y-125954819D01*
X239590476Y-125954819D02*
X240209523Y-125954819D01*
X241161904Y-125954819D02*
X240590476Y-125954819D01*
X240876190Y-125954819D02*
X240876190Y-124954819D01*
X240876190Y-124954819D02*
X240780952Y-125097676D01*
X240780952Y-125097676D02*
X240685714Y-125192914D01*
X240685714Y-125192914D02*
X240590476Y-125240533D01*
X162045833Y-102004819D02*
X161712500Y-101528628D01*
X161474405Y-102004819D02*
X161474405Y-101004819D01*
X161474405Y-101004819D02*
X161855357Y-101004819D01*
X161855357Y-101004819D02*
X161950595Y-101052438D01*
X161950595Y-101052438D02*
X161998214Y-101100057D01*
X161998214Y-101100057D02*
X162045833Y-101195295D01*
X162045833Y-101195295D02*
X162045833Y-101338152D01*
X162045833Y-101338152D02*
X161998214Y-101433390D01*
X161998214Y-101433390D02*
X161950595Y-101481009D01*
X161950595Y-101481009D02*
X161855357Y-101528628D01*
X161855357Y-101528628D02*
X161474405Y-101528628D01*
X162902976Y-101338152D02*
X162902976Y-102004819D01*
X162664881Y-100957200D02*
X162426786Y-101671485D01*
X162426786Y-101671485D02*
X163045833Y-101671485D01*
X162954819Y-83813094D02*
X161954819Y-83813094D01*
X161954819Y-83813094D02*
X161954819Y-83574999D01*
X161954819Y-83574999D02*
X162002438Y-83432142D01*
X162002438Y-83432142D02*
X162097676Y-83336904D01*
X162097676Y-83336904D02*
X162192914Y-83289285D01*
X162192914Y-83289285D02*
X162383390Y-83241666D01*
X162383390Y-83241666D02*
X162526247Y-83241666D01*
X162526247Y-83241666D02*
X162716723Y-83289285D01*
X162716723Y-83289285D02*
X162811961Y-83336904D01*
X162811961Y-83336904D02*
X162907200Y-83432142D01*
X162907200Y-83432142D02*
X162954819Y-83574999D01*
X162954819Y-83574999D02*
X162954819Y-83813094D01*
X161954819Y-82336904D02*
X161954819Y-82813094D01*
X161954819Y-82813094D02*
X162431009Y-82860713D01*
X162431009Y-82860713D02*
X162383390Y-82813094D01*
X162383390Y-82813094D02*
X162335771Y-82717856D01*
X162335771Y-82717856D02*
X162335771Y-82479761D01*
X162335771Y-82479761D02*
X162383390Y-82384523D01*
X162383390Y-82384523D02*
X162431009Y-82336904D01*
X162431009Y-82336904D02*
X162526247Y-82289285D01*
X162526247Y-82289285D02*
X162764342Y-82289285D01*
X162764342Y-82289285D02*
X162859580Y-82336904D01*
X162859580Y-82336904D02*
X162907200Y-82384523D01*
X162907200Y-82384523D02*
X162954819Y-82479761D01*
X162954819Y-82479761D02*
X162954819Y-82717856D01*
X162954819Y-82717856D02*
X162907200Y-82813094D01*
X162907200Y-82813094D02*
X162859580Y-82860713D01*
X197409580Y-103221028D02*
X197457200Y-103268647D01*
X197457200Y-103268647D02*
X197504819Y-103411504D01*
X197504819Y-103411504D02*
X197504819Y-103506742D01*
X197504819Y-103506742D02*
X197457200Y-103649599D01*
X197457200Y-103649599D02*
X197361961Y-103744837D01*
X197361961Y-103744837D02*
X197266723Y-103792456D01*
X197266723Y-103792456D02*
X197076247Y-103840075D01*
X197076247Y-103840075D02*
X196933390Y-103840075D01*
X196933390Y-103840075D02*
X196742914Y-103792456D01*
X196742914Y-103792456D02*
X196647676Y-103744837D01*
X196647676Y-103744837D02*
X196552438Y-103649599D01*
X196552438Y-103649599D02*
X196504819Y-103506742D01*
X196504819Y-103506742D02*
X196504819Y-103411504D01*
X196504819Y-103411504D02*
X196552438Y-103268647D01*
X196552438Y-103268647D02*
X196600057Y-103221028D01*
X196838152Y-102363885D02*
X197504819Y-102363885D01*
X196457200Y-102601980D02*
X197171485Y-102840075D01*
X197171485Y-102840075D02*
X197171485Y-102221028D01*
X214707200Y-136433332D02*
X214754819Y-136290475D01*
X214754819Y-136290475D02*
X214754819Y-136052380D01*
X214754819Y-136052380D02*
X214707200Y-135957142D01*
X214707200Y-135957142D02*
X214659580Y-135909523D01*
X214659580Y-135909523D02*
X214564342Y-135861904D01*
X214564342Y-135861904D02*
X214469104Y-135861904D01*
X214469104Y-135861904D02*
X214373866Y-135909523D01*
X214373866Y-135909523D02*
X214326247Y-135957142D01*
X214326247Y-135957142D02*
X214278628Y-136052380D01*
X214278628Y-136052380D02*
X214231009Y-136242856D01*
X214231009Y-136242856D02*
X214183390Y-136338094D01*
X214183390Y-136338094D02*
X214135771Y-136385713D01*
X214135771Y-136385713D02*
X214040533Y-136433332D01*
X214040533Y-136433332D02*
X213945295Y-136433332D01*
X213945295Y-136433332D02*
X213850057Y-136385713D01*
X213850057Y-136385713D02*
X213802438Y-136338094D01*
X213802438Y-136338094D02*
X213754819Y-136242856D01*
X213754819Y-136242856D02*
X213754819Y-136004761D01*
X213754819Y-136004761D02*
X213802438Y-135861904D01*
X213754819Y-135528570D02*
X214754819Y-135290475D01*
X214754819Y-135290475D02*
X214040533Y-135099999D01*
X214040533Y-135099999D02*
X214754819Y-134909523D01*
X214754819Y-134909523D02*
X213754819Y-134671428D01*
X213754819Y-134385713D02*
X213754819Y-133719047D01*
X213754819Y-133719047D02*
X214754819Y-134147618D01*
X199858333Y-102404580D02*
X199810714Y-102452200D01*
X199810714Y-102452200D02*
X199667857Y-102499819D01*
X199667857Y-102499819D02*
X199572619Y-102499819D01*
X199572619Y-102499819D02*
X199429762Y-102452200D01*
X199429762Y-102452200D02*
X199334524Y-102356961D01*
X199334524Y-102356961D02*
X199286905Y-102261723D01*
X199286905Y-102261723D02*
X199239286Y-102071247D01*
X199239286Y-102071247D02*
X199239286Y-101928390D01*
X199239286Y-101928390D02*
X199286905Y-101737914D01*
X199286905Y-101737914D02*
X199334524Y-101642676D01*
X199334524Y-101642676D02*
X199429762Y-101547438D01*
X199429762Y-101547438D02*
X199572619Y-101499819D01*
X199572619Y-101499819D02*
X199667857Y-101499819D01*
X199667857Y-101499819D02*
X199810714Y-101547438D01*
X199810714Y-101547438D02*
X199858333Y-101595057D01*
X200810714Y-102499819D02*
X200239286Y-102499819D01*
X200525000Y-102499819D02*
X200525000Y-101499819D01*
X200525000Y-101499819D02*
X200429762Y-101642676D01*
X200429762Y-101642676D02*
X200334524Y-101737914D01*
X200334524Y-101737914D02*
X200239286Y-101785533D01*
X204191439Y-78387846D02*
X204191439Y-77673561D01*
X204191439Y-77673561D02*
X204239058Y-77530704D01*
X204239058Y-77530704D02*
X204334296Y-77435466D01*
X204334296Y-77435466D02*
X204477153Y-77387846D01*
X204477153Y-77387846D02*
X204572391Y-77387846D01*
X203810486Y-78387846D02*
X203191439Y-78387846D01*
X203191439Y-78387846D02*
X203524772Y-78006894D01*
X203524772Y-78006894D02*
X203381915Y-78006894D01*
X203381915Y-78006894D02*
X203286677Y-77959275D01*
X203286677Y-77959275D02*
X203239058Y-77911656D01*
X203239058Y-77911656D02*
X203191439Y-77816418D01*
X203191439Y-77816418D02*
X203191439Y-77578323D01*
X203191439Y-77578323D02*
X203239058Y-77483085D01*
X203239058Y-77483085D02*
X203286677Y-77435466D01*
X203286677Y-77435466D02*
X203381915Y-77387846D01*
X203381915Y-77387846D02*
X203667629Y-77387846D01*
X203667629Y-77387846D02*
X203762867Y-77435466D01*
X203762867Y-77435466D02*
X203810486Y-77483085D01*
X191620425Y-75853499D02*
X192334710Y-75853499D01*
X192334710Y-75853499D02*
X192477567Y-75901118D01*
X192477567Y-75901118D02*
X192572806Y-75996356D01*
X192572806Y-75996356D02*
X192620425Y-76139213D01*
X192620425Y-76139213D02*
X192620425Y-76234451D01*
X192620425Y-74853499D02*
X192620425Y-75424927D01*
X192620425Y-75139213D02*
X191620425Y-75139213D01*
X191620425Y-75139213D02*
X191763282Y-75234451D01*
X191763282Y-75234451D02*
X191858520Y-75329689D01*
X191858520Y-75329689D02*
X191906139Y-75424927D01*
X158558980Y-124842858D02*
X158606600Y-124890477D01*
X158606600Y-124890477D02*
X158654219Y-125033334D01*
X158654219Y-125033334D02*
X158654219Y-125128572D01*
X158654219Y-125128572D02*
X158606600Y-125271429D01*
X158606600Y-125271429D02*
X158511361Y-125366667D01*
X158511361Y-125366667D02*
X158416123Y-125414286D01*
X158416123Y-125414286D02*
X158225647Y-125461905D01*
X158225647Y-125461905D02*
X158082790Y-125461905D01*
X158082790Y-125461905D02*
X157892314Y-125414286D01*
X157892314Y-125414286D02*
X157797076Y-125366667D01*
X157797076Y-125366667D02*
X157701838Y-125271429D01*
X157701838Y-125271429D02*
X157654219Y-125128572D01*
X157654219Y-125128572D02*
X157654219Y-125033334D01*
X157654219Y-125033334D02*
X157701838Y-124890477D01*
X157701838Y-124890477D02*
X157749457Y-124842858D01*
X157749457Y-124461905D02*
X157701838Y-124414286D01*
X157701838Y-124414286D02*
X157654219Y-124319048D01*
X157654219Y-124319048D02*
X157654219Y-124080953D01*
X157654219Y-124080953D02*
X157701838Y-123985715D01*
X157701838Y-123985715D02*
X157749457Y-123938096D01*
X157749457Y-123938096D02*
X157844695Y-123890477D01*
X157844695Y-123890477D02*
X157939933Y-123890477D01*
X157939933Y-123890477D02*
X158082790Y-123938096D01*
X158082790Y-123938096D02*
X158654219Y-124509524D01*
X158654219Y-124509524D02*
X158654219Y-123890477D01*
X157654219Y-123557143D02*
X157654219Y-122938096D01*
X157654219Y-122938096D02*
X158035171Y-123271429D01*
X158035171Y-123271429D02*
X158035171Y-123128572D01*
X158035171Y-123128572D02*
X158082790Y-123033334D01*
X158082790Y-123033334D02*
X158130409Y-122985715D01*
X158130409Y-122985715D02*
X158225647Y-122938096D01*
X158225647Y-122938096D02*
X158463742Y-122938096D01*
X158463742Y-122938096D02*
X158558980Y-122985715D01*
X158558980Y-122985715D02*
X158606600Y-123033334D01*
X158606600Y-123033334D02*
X158654219Y-123128572D01*
X158654219Y-123128572D02*
X158654219Y-123414286D01*
X158654219Y-123414286D02*
X158606600Y-123509524D01*
X158606600Y-123509524D02*
X158558980Y-123557143D01*
X179084819Y-100133333D02*
X179799104Y-100133333D01*
X179799104Y-100133333D02*
X179941961Y-100180952D01*
X179941961Y-100180952D02*
X180037200Y-100276190D01*
X180037200Y-100276190D02*
X180084819Y-100419047D01*
X180084819Y-100419047D02*
X180084819Y-100514285D01*
X179418152Y-99228571D02*
X180084819Y-99228571D01*
X179037200Y-99466666D02*
X179751485Y-99704761D01*
X179751485Y-99704761D02*
X179751485Y-99085714D01*
X136354819Y-132255357D02*
X135878628Y-132588690D01*
X136354819Y-132826785D02*
X135354819Y-132826785D01*
X135354819Y-132826785D02*
X135354819Y-132445833D01*
X135354819Y-132445833D02*
X135402438Y-132350595D01*
X135402438Y-132350595D02*
X135450057Y-132302976D01*
X135450057Y-132302976D02*
X135545295Y-132255357D01*
X135545295Y-132255357D02*
X135688152Y-132255357D01*
X135688152Y-132255357D02*
X135783390Y-132302976D01*
X135783390Y-132302976D02*
X135831009Y-132350595D01*
X135831009Y-132350595D02*
X135878628Y-132445833D01*
X135878628Y-132445833D02*
X135878628Y-132826785D01*
X136354819Y-131302976D02*
X136354819Y-131874404D01*
X136354819Y-131588690D02*
X135354819Y-131588690D01*
X135354819Y-131588690D02*
X135497676Y-131683928D01*
X135497676Y-131683928D02*
X135592914Y-131779166D01*
X135592914Y-131779166D02*
X135640533Y-131874404D01*
X136354819Y-130826785D02*
X136354819Y-130636309D01*
X136354819Y-130636309D02*
X136307200Y-130541071D01*
X136307200Y-130541071D02*
X136259580Y-130493452D01*
X136259580Y-130493452D02*
X136116723Y-130398214D01*
X136116723Y-130398214D02*
X135926247Y-130350595D01*
X135926247Y-130350595D02*
X135545295Y-130350595D01*
X135545295Y-130350595D02*
X135450057Y-130398214D01*
X135450057Y-130398214D02*
X135402438Y-130445833D01*
X135402438Y-130445833D02*
X135354819Y-130541071D01*
X135354819Y-130541071D02*
X135354819Y-130731547D01*
X135354819Y-130731547D02*
X135402438Y-130826785D01*
X135402438Y-130826785D02*
X135450057Y-130874404D01*
X135450057Y-130874404D02*
X135545295Y-130922023D01*
X135545295Y-130922023D02*
X135783390Y-130922023D01*
X135783390Y-130922023D02*
X135878628Y-130874404D01*
X135878628Y-130874404D02*
X135926247Y-130826785D01*
X135926247Y-130826785D02*
X135973866Y-130731547D01*
X135973866Y-130731547D02*
X135973866Y-130541071D01*
X135973866Y-130541071D02*
X135926247Y-130445833D01*
X135926247Y-130445833D02*
X135878628Y-130398214D01*
X135878628Y-130398214D02*
X135783390Y-130350595D01*
X192607142Y-132559580D02*
X192559523Y-132607200D01*
X192559523Y-132607200D02*
X192416666Y-132654819D01*
X192416666Y-132654819D02*
X192321428Y-132654819D01*
X192321428Y-132654819D02*
X192178571Y-132607200D01*
X192178571Y-132607200D02*
X192083333Y-132511961D01*
X192083333Y-132511961D02*
X192035714Y-132416723D01*
X192035714Y-132416723D02*
X191988095Y-132226247D01*
X191988095Y-132226247D02*
X191988095Y-132083390D01*
X191988095Y-132083390D02*
X192035714Y-131892914D01*
X192035714Y-131892914D02*
X192083333Y-131797676D01*
X192083333Y-131797676D02*
X192178571Y-131702438D01*
X192178571Y-131702438D02*
X192321428Y-131654819D01*
X192321428Y-131654819D02*
X192416666Y-131654819D01*
X192416666Y-131654819D02*
X192559523Y-131702438D01*
X192559523Y-131702438D02*
X192607142Y-131750057D01*
X192940476Y-131654819D02*
X193559523Y-131654819D01*
X193559523Y-131654819D02*
X193226190Y-132035771D01*
X193226190Y-132035771D02*
X193369047Y-132035771D01*
X193369047Y-132035771D02*
X193464285Y-132083390D01*
X193464285Y-132083390D02*
X193511904Y-132131009D01*
X193511904Y-132131009D02*
X193559523Y-132226247D01*
X193559523Y-132226247D02*
X193559523Y-132464342D01*
X193559523Y-132464342D02*
X193511904Y-132559580D01*
X193511904Y-132559580D02*
X193464285Y-132607200D01*
X193464285Y-132607200D02*
X193369047Y-132654819D01*
X193369047Y-132654819D02*
X193083333Y-132654819D01*
X193083333Y-132654819D02*
X192988095Y-132607200D01*
X192988095Y-132607200D02*
X192940476Y-132559580D01*
X194178571Y-131654819D02*
X194273809Y-131654819D01*
X194273809Y-131654819D02*
X194369047Y-131702438D01*
X194369047Y-131702438D02*
X194416666Y-131750057D01*
X194416666Y-131750057D02*
X194464285Y-131845295D01*
X194464285Y-131845295D02*
X194511904Y-132035771D01*
X194511904Y-132035771D02*
X194511904Y-132273866D01*
X194511904Y-132273866D02*
X194464285Y-132464342D01*
X194464285Y-132464342D02*
X194416666Y-132559580D01*
X194416666Y-132559580D02*
X194369047Y-132607200D01*
X194369047Y-132607200D02*
X194273809Y-132654819D01*
X194273809Y-132654819D02*
X194178571Y-132654819D01*
X194178571Y-132654819D02*
X194083333Y-132607200D01*
X194083333Y-132607200D02*
X194035714Y-132559580D01*
X194035714Y-132559580D02*
X193988095Y-132464342D01*
X193988095Y-132464342D02*
X193940476Y-132273866D01*
X193940476Y-132273866D02*
X193940476Y-132035771D01*
X193940476Y-132035771D02*
X193988095Y-131845295D01*
X193988095Y-131845295D02*
X194035714Y-131750057D01*
X194035714Y-131750057D02*
X194083333Y-131702438D01*
X194083333Y-131702438D02*
X194178571Y-131654819D01*
X209654819Y-103266666D02*
X209178628Y-103599999D01*
X209654819Y-103838094D02*
X208654819Y-103838094D01*
X208654819Y-103838094D02*
X208654819Y-103457142D01*
X208654819Y-103457142D02*
X208702438Y-103361904D01*
X208702438Y-103361904D02*
X208750057Y-103314285D01*
X208750057Y-103314285D02*
X208845295Y-103266666D01*
X208845295Y-103266666D02*
X208988152Y-103266666D01*
X208988152Y-103266666D02*
X209083390Y-103314285D01*
X209083390Y-103314285D02*
X209131009Y-103361904D01*
X209131009Y-103361904D02*
X209178628Y-103457142D01*
X209178628Y-103457142D02*
X209178628Y-103838094D01*
X208654819Y-102409523D02*
X208654819Y-102599999D01*
X208654819Y-102599999D02*
X208702438Y-102695237D01*
X208702438Y-102695237D02*
X208750057Y-102742856D01*
X208750057Y-102742856D02*
X208892914Y-102838094D01*
X208892914Y-102838094D02*
X209083390Y-102885713D01*
X209083390Y-102885713D02*
X209464342Y-102885713D01*
X209464342Y-102885713D02*
X209559580Y-102838094D01*
X209559580Y-102838094D02*
X209607200Y-102790475D01*
X209607200Y-102790475D02*
X209654819Y-102695237D01*
X209654819Y-102695237D02*
X209654819Y-102504761D01*
X209654819Y-102504761D02*
X209607200Y-102409523D01*
X209607200Y-102409523D02*
X209559580Y-102361904D01*
X209559580Y-102361904D02*
X209464342Y-102314285D01*
X209464342Y-102314285D02*
X209226247Y-102314285D01*
X209226247Y-102314285D02*
X209131009Y-102361904D01*
X209131009Y-102361904D02*
X209083390Y-102409523D01*
X209083390Y-102409523D02*
X209035771Y-102504761D01*
X209035771Y-102504761D02*
X209035771Y-102695237D01*
X209035771Y-102695237D02*
X209083390Y-102790475D01*
X209083390Y-102790475D02*
X209131009Y-102838094D01*
X209131009Y-102838094D02*
X209226247Y-102885713D01*
D11*
%TO.C,R5*%
X123965000Y-81039564D02*
X123965000Y-80585436D01*
X125435000Y-81039564D02*
X125435000Y-80585436D01*
%TO.C,R2*%
X205135000Y-102760436D02*
X205135000Y-103214564D01*
X203665000Y-102760436D02*
X203665000Y-103214564D01*
%TO.C,Q1*%
X164390000Y-79130000D02*
X164390000Y-80980000D01*
X164390000Y-79130000D02*
X165280000Y-79130000D01*
X166620000Y-79145000D02*
X167510000Y-79145000D01*
X167510000Y-79145000D02*
X167510000Y-80995000D01*
X164400000Y-81370000D02*
X164070000Y-81610000D01*
X164070000Y-81130000D01*
X164400000Y-81370000D01*
G36*
X164400000Y-81370000D02*
G01*
X164070000Y-81610000D01*
X164070000Y-81130000D01*
X164400000Y-81370000D01*
G37*
%TO.C,C29*%
X243411252Y-121915000D02*
X242888748Y-121915000D01*
X243411252Y-123385000D02*
X242888748Y-123385000D01*
%TO.C,R8*%
X178914564Y-77265000D02*
X178460436Y-77265000D01*
X178914564Y-78735000D02*
X178460436Y-78735000D01*
%TO.C,JP4*%
X148330000Y-116892500D02*
X147000000Y-116892500D01*
X148330000Y-115562500D02*
X148330000Y-116892500D01*
X145670000Y-114292500D02*
X145670000Y-111692500D01*
X148330000Y-114292500D02*
X145670000Y-114292500D01*
X148330000Y-114292500D02*
X148330000Y-111692500D01*
X148330000Y-111692500D02*
X145670000Y-111692500D01*
%TO.C,R22*%
X243022936Y-124865000D02*
X243477064Y-124865000D01*
X243022936Y-126335000D02*
X243477064Y-126335000D01*
%TO.C,C27*%
X225888748Y-128190000D02*
X226411252Y-128190000D01*
X225888748Y-129660000D02*
X226411252Y-129660000D01*
D12*
%TO.C,U3*%
G36*
X175265600Y-128140499D02*
G01*
X175011600Y-128140499D01*
X175011600Y-127759499D01*
X175265600Y-127759499D01*
X175265600Y-128140499D01*
G37*
D13*
X171404800Y-124747300D02*
G75*
G02*
X170795200Y-124747300I-304800J0D01*
G01*
X173347900Y-124747300D02*
X168852100Y-124747300D01*
X168852100Y-129852700D02*
X173347900Y-129852700D01*
D11*
%TO.C,C15*%
X179365000Y-83661252D02*
X179365000Y-83138748D01*
X180835000Y-83661252D02*
X180835000Y-83138748D01*
%TO.C,L2*%
X215140000Y-89999721D02*
X215140000Y-90325279D01*
X216160000Y-89999721D02*
X216160000Y-90325279D01*
%TO.C,C25*%
X141285000Y-131388748D02*
X141285000Y-131911252D01*
X139815000Y-131388748D02*
X139815000Y-131911252D01*
D13*
%TO.C,SW2*%
X153573600Y-130412361D02*
X153573600Y-125187641D01*
X151624699Y-124675801D02*
X149274102Y-124675801D01*
X149281440Y-130924201D02*
X151624699Y-130924201D01*
X147325200Y-125187641D02*
X147325200Y-129992293D01*
D11*
%TO.C,R3*%
X179465000Y-96527064D02*
X179465000Y-96072936D01*
X180935000Y-96527064D02*
X180935000Y-96072936D01*
%TO.C,C5*%
X184555730Y-98945734D02*
X184340058Y-98945734D01*
X184555730Y-99665734D02*
X184340058Y-99665734D01*
%TO.C,L1*%
X191690000Y-118049721D02*
X191690000Y-118375279D01*
X192710000Y-118049721D02*
X192710000Y-118375279D01*
%TO.C,J5*%
X119270000Y-93670000D02*
X120600000Y-93670000D01*
X119270000Y-95000000D02*
X119270000Y-93670000D01*
X121870000Y-93670000D02*
X129550000Y-93670000D01*
X121870000Y-96330000D02*
X121870000Y-93670000D01*
X121870000Y-96330000D02*
X129550000Y-96330000D01*
X129550000Y-96330000D02*
X129550000Y-93670000D01*
%TO.C,J8*%
X249927106Y-92719266D02*
X249927106Y-113099266D01*
X249927106Y-92719266D02*
X252587106Y-92719266D01*
X249927106Y-113099266D02*
X252587106Y-113099266D01*
X251257106Y-90119266D02*
X252587106Y-90119266D01*
X252587106Y-90119266D02*
X252587106Y-91449266D01*
X252587106Y-92719266D02*
X252587106Y-113099266D01*
%TO.C,R24*%
X202814564Y-126765000D02*
X202360436Y-126765000D01*
X202814564Y-128235000D02*
X202360436Y-128235000D01*
%TO.C,C33*%
X163415000Y-117061252D02*
X163415000Y-116538748D01*
X164885000Y-117061252D02*
X164885000Y-116538748D01*
%TO.C,R13*%
X211358106Y-88957230D02*
X211358106Y-88503102D01*
X212828106Y-88957230D02*
X212828106Y-88503102D01*
D13*
%TO.C,SW3*%
X163573601Y-137975300D02*
X163573601Y-135624703D01*
X163061761Y-133675801D02*
X158257109Y-133675801D01*
X157837041Y-139924201D02*
X163061761Y-139924201D01*
X157325201Y-135632041D02*
X157325201Y-137975300D01*
D11*
%TO.C,R12*%
X209058106Y-88503102D02*
X209058106Y-88957230D01*
X210528106Y-88503102D02*
X210528106Y-88957230D01*
%TO.C,J2*%
X169587106Y-75739266D02*
X169587106Y-78399266D01*
X172187106Y-75739266D02*
X169587106Y-75739266D01*
X172187106Y-75739266D02*
X172187106Y-78399266D01*
X172187106Y-78399266D02*
X169587106Y-78399266D01*
X173457106Y-75739266D02*
X174787106Y-75739266D01*
X174787106Y-75739266D02*
X174787106Y-77069266D01*
%TO.C,C31*%
X202288748Y-124365000D02*
X202811252Y-124365000D01*
X202288748Y-125835000D02*
X202811252Y-125835000D01*
D13*
%TO.C,SW5*%
X154063003Y-149162361D02*
X154063003Y-144357709D01*
X152106763Y-143425801D02*
X149763504Y-143425801D01*
X149763504Y-149674201D02*
X152114101Y-149674201D01*
X147814603Y-143937641D02*
X147814603Y-149162361D01*
D10*
%TO.C,U6*%
X212800000Y-92012500D02*
X208800000Y-92012500D01*
X212800000Y-97412500D02*
X208800000Y-97412500D01*
D11*
X213390000Y-97742500D02*
X212910000Y-97742500D01*
X213150000Y-97412500D01*
X213390000Y-97742500D01*
G36*
X213390000Y-97742500D02*
G01*
X212910000Y-97742500D01*
X213150000Y-97412500D01*
X213390000Y-97742500D01*
G37*
D13*
%TO.C,SW4*%
X144073601Y-138967962D02*
X144073601Y-136624703D01*
X143561761Y-134675802D02*
X138337041Y-134675802D01*
X138337041Y-140924202D02*
X143141693Y-140924202D01*
X137825201Y-136624703D02*
X137825201Y-138975300D01*
D11*
%TO.C,R18*%
X161454400Y-148610437D02*
X161454400Y-149064565D01*
X159984400Y-148610437D02*
X159984400Y-149064565D01*
%TO.C,C17*%
X159865000Y-93911252D02*
X159865000Y-93388748D01*
X161335000Y-93911252D02*
X161335000Y-93388748D01*
%TO.C,C24*%
X162558148Y-132585001D02*
X163080652Y-132585001D01*
X162558148Y-131115001D02*
X163080652Y-131115001D01*
%TO.C,R16*%
X162745529Y-124477986D02*
X162745529Y-124023858D01*
X161275529Y-124477986D02*
X161275529Y-124023858D01*
%TO.C,R1*%
X151065000Y-114514564D02*
X151065000Y-114060436D01*
X152535000Y-114514564D02*
X152535000Y-114060436D01*
%TO.C,C19*%
X216959358Y-86607666D02*
X216436854Y-86607666D01*
X216959358Y-88077666D02*
X216436854Y-88077666D01*
%TO.C,J6*%
X119240000Y-86770000D02*
X119240000Y-89430000D01*
X137080000Y-86770000D02*
X119240000Y-86770000D01*
X137080000Y-86770000D02*
X137080000Y-89430000D01*
X137080000Y-89430000D02*
X119240000Y-89430000D01*
X139680000Y-88100000D02*
X139680000Y-89430000D01*
X139680000Y-89430000D02*
X138350000Y-89430000D01*
%TO.C,C22*%
X204220000Y-93781248D02*
X204220000Y-94303752D01*
X205690000Y-93781248D02*
X205690000Y-94303752D01*
%TO.C,U1*%
X183340000Y-102065000D02*
X184290000Y-102065000D01*
X183340000Y-103015000D02*
X183340000Y-102065000D01*
X183340000Y-111335000D02*
X183340000Y-112285000D01*
X183340000Y-112285000D02*
X184290000Y-112285000D01*
X193560000Y-102065000D02*
X192610000Y-102065000D01*
X193560000Y-103015000D02*
X193560000Y-102065000D01*
X193560000Y-111335000D02*
X193560000Y-112285000D01*
X193560000Y-112285000D02*
X192610000Y-112285000D01*
X184290000Y-112900000D02*
X183820000Y-113240000D01*
X183820000Y-112560000D01*
X184290000Y-112900000D01*
G36*
X184290000Y-112900000D02*
G01*
X183820000Y-113240000D01*
X183820000Y-112560000D01*
X184290000Y-112900000D01*
G37*
%TO.C,F1*%
X172421078Y-81690000D02*
X171903922Y-81690000D01*
X172421078Y-83110000D02*
X171903922Y-83110000D01*
%TO.C,D4*%
X164577500Y-85140000D02*
X164577500Y-87060000D01*
X164577500Y-87060000D02*
X167262500Y-87060000D01*
X167262500Y-85140000D02*
X164577500Y-85140000D01*
%TO.C,R26*%
X226435000Y-84260436D02*
X226435000Y-84714564D01*
X224965000Y-84260436D02*
X224965000Y-84714564D01*
%TO.C,J7*%
X224270000Y-92270000D02*
X224270000Y-112650000D01*
X224270000Y-92270000D02*
X226930000Y-92270000D01*
X224270000Y-112650000D02*
X226930000Y-112650000D01*
X225600000Y-89670000D02*
X226930000Y-89670000D01*
X226930000Y-89670000D02*
X226930000Y-91000000D01*
X226930000Y-92270000D02*
X226930000Y-112650000D01*
%TO.C,R7*%
X193661042Y-77265166D02*
X194115170Y-77265166D01*
X193661042Y-78735166D02*
X194115170Y-78735166D01*
%TO.C,SW6*%
X230600000Y-137200000D02*
X230600000Y-133100000D01*
X230600000Y-145300000D02*
X230600000Y-141200000D01*
X233000000Y-145300000D02*
X230600000Y-145300000D01*
X236500000Y-138700000D02*
X236500000Y-139700000D01*
X237000000Y-139200000D02*
X236000000Y-139200000D01*
X237800000Y-145300000D02*
X235200000Y-145300000D01*
X240300000Y-131700000D02*
X240600000Y-131400000D01*
X240600000Y-131400000D02*
X240600000Y-132000000D01*
X240600000Y-132000000D02*
X240300000Y-131700000D01*
X242400000Y-133100000D02*
X230600000Y-133100000D01*
X242400000Y-137200000D02*
X242400000Y-133100000D01*
X242400000Y-141200000D02*
X242400000Y-145300000D01*
X242400000Y-145300000D02*
X240000000Y-145300000D01*
X239500000Y-139200000D02*
G75*
G02*
X233500000Y-139200000I-3000000J0D01*
G01*
X233500000Y-139200000D02*
G75*
G02*
X239500000Y-139200000I3000000J0D01*
G01*
%TO.C,R17*%
X162946464Y-128985001D02*
X162492336Y-128985001D01*
X162946464Y-127515001D02*
X162492336Y-127515001D01*
%TO.C,C14*%
X186637836Y-120015000D02*
X186422164Y-120015000D01*
X186637836Y-120735000D02*
X186422164Y-120735000D01*
%TO.C,C26*%
X158454400Y-148961253D02*
X158454400Y-148438749D01*
X156984400Y-148961253D02*
X156984400Y-148438749D01*
D13*
%TO.C,SW1*%
X170517960Y-114125801D02*
X168174701Y-114125801D01*
X166225800Y-114637641D02*
X166225800Y-119862361D01*
X172474200Y-119862361D02*
X172474200Y-115057709D01*
X168174701Y-120374201D02*
X170525298Y-120374201D01*
D11*
%TO.C,C6*%
X180040000Y-111122164D02*
X180040000Y-111337836D01*
X180760000Y-111122164D02*
X180760000Y-111337836D01*
%TO.C,C3*%
X196515000Y-111112836D02*
X196515000Y-110897164D01*
X197235000Y-111112836D02*
X197235000Y-110897164D01*
%TO.C,R11*%
X190514564Y-88765000D02*
X190060436Y-88765000D01*
X190514564Y-90235000D02*
X190060436Y-90235000D01*
%TO.C,R20*%
X226439564Y-130590000D02*
X225985436Y-130590000D01*
X226439564Y-132060000D02*
X225985436Y-132060000D01*
%TO.C,JP1*%
X119270000Y-80530000D02*
X119270000Y-77930000D01*
X121930000Y-77930000D02*
X119270000Y-77930000D01*
X121930000Y-80530000D02*
X119270000Y-80530000D01*
X121930000Y-80530000D02*
X121930000Y-77930000D01*
X121930000Y-81800000D02*
X121930000Y-83130000D01*
X121930000Y-83130000D02*
X120600000Y-83130000D01*
%TO.C,C9*%
X195140000Y-120872164D02*
X195140000Y-121087836D01*
X195860000Y-120872164D02*
X195860000Y-121087836D01*
D13*
%TO.C,X1*%
X186084300Y-123152240D02*
X186084300Y-124097760D01*
X187607933Y-125453800D02*
X190021667Y-125453800D01*
X190021667Y-121796200D02*
X187607933Y-121796200D01*
X191545300Y-124097760D02*
X191545300Y-123152240D01*
D11*
%TO.C,C32*%
X213961252Y-126465000D02*
X213438748Y-126465000D01*
X213961252Y-127935000D02*
X213438748Y-127935000D01*
%TO.C,U2*%
X166850000Y-87990000D02*
X170610000Y-87990000D01*
X166850000Y-94810000D02*
X170610000Y-94810000D01*
X170610000Y-87990000D02*
X170610000Y-89250000D01*
X170610000Y-94810000D02*
X170610000Y-93550000D01*
X165570000Y-88090000D02*
X165330000Y-87760000D01*
X165810000Y-87760000D01*
X165570000Y-88090000D01*
G36*
X165570000Y-88090000D02*
G01*
X165330000Y-87760000D01*
X165810000Y-87760000D01*
X165570000Y-88090000D01*
G37*
%TO.C,C28*%
X236388748Y-123185000D02*
X236911252Y-123185000D01*
X236388748Y-121715000D02*
X236911252Y-121715000D01*
%TO.C,R23*%
X196727064Y-128965000D02*
X196272936Y-128965000D01*
X196727064Y-130435000D02*
X196272936Y-130435000D01*
%TO.C,C10*%
X193640000Y-120812164D02*
X193640000Y-121027836D01*
X194360000Y-120812164D02*
X194360000Y-121027836D01*
%TO.C,R10*%
X189972936Y-93285000D02*
X190427064Y-93285000D01*
X189972936Y-91815000D02*
X190427064Y-91815000D01*
%TO.C,R25*%
X213460436Y-128865000D02*
X213914564Y-128865000D01*
X213460436Y-130335000D02*
X213914564Y-130335000D01*
%TO.C,C16*%
X159865000Y-89388748D02*
X159865000Y-89911252D01*
X161335000Y-89388748D02*
X161335000Y-89911252D01*
%TO.C,C13*%
X189962164Y-120015000D02*
X190177836Y-120015000D01*
X189962164Y-120735000D02*
X190177836Y-120735000D01*
%TO.C,C7*%
X183922164Y-117015000D02*
X184137836Y-117015000D01*
X183922164Y-117735000D02*
X184137836Y-117735000D01*
D13*
%TO.C,U4*%
X201771500Y-121902701D02*
X206267300Y-121902701D01*
X206267300Y-116797301D02*
X201771500Y-116797301D01*
X203714600Y-121902701D02*
G75*
G02*
X204324200Y-121902701I304800J0D01*
G01*
D12*
G36*
X200107800Y-118890502D02*
G01*
X199853800Y-118890502D01*
X199853800Y-118509502D01*
X200107800Y-118509502D01*
X200107800Y-118890502D01*
G37*
D14*
%TO.C,D3*%
X176050000Y-82805000D02*
G75*
G02*
X175950000Y-82805000I-50000J0D01*
G01*
X175950000Y-82805000D02*
G75*
G02*
X176050000Y-82805000I50000J0D01*
G01*
%TO.C,D9*%
X225750000Y-80635000D02*
G75*
G02*
X225650000Y-80635000I-50000J0D01*
G01*
X225650000Y-80635000D02*
G75*
G02*
X225750000Y-80635000I50000J0D01*
G01*
D11*
%TO.C,C8*%
X190112164Y-114840000D02*
X190327836Y-114840000D01*
X190112164Y-115560000D02*
X190327836Y-115560000D01*
%TO.C,R21*%
X236877064Y-126235000D02*
X236422936Y-126235000D01*
X236877064Y-124765000D02*
X236422936Y-124765000D01*
%TO.C,R4*%
X162439564Y-99165000D02*
X161985436Y-99165000D01*
X162439564Y-100635000D02*
X161985436Y-100635000D01*
%TO.C,D5*%
X159640000Y-82037500D02*
X159640000Y-84722500D01*
X159640000Y-84722500D02*
X161560000Y-84722500D01*
X161560000Y-84722500D02*
X161560000Y-82037500D01*
%TO.C,C4*%
X195660594Y-103162198D02*
X195660594Y-102946526D01*
X196380594Y-103162198D02*
X196380594Y-102946526D01*
%TO.C,SW7*%
X201200000Y-137800000D02*
X201200000Y-133700000D01*
X201200000Y-145900000D02*
X201200000Y-141800000D01*
X203600000Y-145900000D02*
X201200000Y-145900000D01*
X207100000Y-139300000D02*
X207100000Y-140300000D01*
X207600000Y-139800000D02*
X206600000Y-139800000D01*
X208400000Y-145900000D02*
X205800000Y-145900000D01*
X210900000Y-132300000D02*
X211200000Y-132000000D01*
X211200000Y-132000000D02*
X211200000Y-132600000D01*
X211200000Y-132600000D02*
X210900000Y-132300000D01*
X213000000Y-133700000D02*
X201200000Y-133700000D01*
X213000000Y-137800000D02*
X213000000Y-133700000D01*
X213000000Y-141800000D02*
X213000000Y-145900000D01*
X213000000Y-145900000D02*
X210600000Y-145900000D01*
X210100000Y-139800000D02*
G75*
G02*
X204100000Y-139800000I-3000000J0D01*
G01*
X204100000Y-139800000D02*
G75*
G02*
X210100000Y-139800000I3000000J0D01*
G01*
%TO.C,C1*%
X199763748Y-102990000D02*
X200286252Y-102990000D01*
X199763748Y-104460000D02*
X200286252Y-104460000D01*
D13*
%TO.C,J3*%
X205445306Y-72759066D02*
X205445306Y-74178926D01*
X205445306Y-77333606D02*
X205445306Y-79665326D01*
X207594146Y-82309466D02*
X208490766Y-82309466D01*
X212915446Y-82309466D02*
X213812066Y-82309466D01*
X215960906Y-72759066D02*
X205445306Y-72759066D01*
X215960906Y-74178926D02*
X215960906Y-72759066D01*
X215960906Y-79665326D02*
X215960906Y-77333606D01*
D15*
X216661946Y-80867433D02*
G75*
G02*
X216661946Y-81617899I-66040J-375233D01*
G01*
D16*
%TO.C,J1*%
X189535606Y-81920166D02*
G75*
G02*
X189335606Y-81920166I-100000J0D01*
G01*
X189335606Y-81920166D02*
G75*
G02*
X189535606Y-81920166I100000J0D01*
G01*
X190655606Y-78570166D02*
X190655606Y-77320166D01*
X181715606Y-78570166D02*
X181715606Y-77320166D01*
D11*
%TO.C,C23*%
X157254400Y-123938749D02*
X157254400Y-124461253D01*
X155784400Y-123938749D02*
X155784400Y-124461253D01*
%TO.C,J4*%
X165810000Y-98470000D02*
X165810000Y-101130000D01*
X176030000Y-98470000D02*
X165810000Y-98470000D01*
X176030000Y-98470000D02*
X176030000Y-101130000D01*
X176030000Y-101130000D02*
X165810000Y-101130000D01*
X177300000Y-98470000D02*
X178630000Y-98470000D01*
X178630000Y-98470000D02*
X178630000Y-99800000D01*
%TO.C,R19*%
X138285000Y-131839564D02*
X138285000Y-131385436D01*
X136815000Y-131839564D02*
X136815000Y-131385436D01*
%TO.C,C2*%
X183942164Y-114515000D02*
X184157836Y-114515000D01*
X183942164Y-115235000D02*
X184157836Y-115235000D01*
%TO.C,C30*%
X196288748Y-131565000D02*
X196811252Y-131565000D01*
X196288748Y-133035000D02*
X196811252Y-133035000D01*
%TO.C,R6*%
X206665000Y-102760436D02*
X206665000Y-103214564D01*
X208135000Y-102760436D02*
X208135000Y-103214564D01*
%TD*%
M02*
