M48
; DRILL file {KiCad 8.0.6} date 2024-12-27T13:10:50+1100
; FORMAT={-:-/ absolute / inch / decimal}
; #@! TF.CreationDate,2024-12-27T13:10:50+11:00
; #@! TF.GenerationSoftware,Kicad,Pcbnew,8.0.6
; #@! TF.FileFunction,Plated,1,2,PTH
FMAT,2
INCH
; #@! TA.AperFunction,Plated,PTH,ViaDrill
T1C0.0118
; #@! TA.AperFunction,Plated,PTH,ComponentDrill
T2C0.0236
; #@! TA.AperFunction,Plated,PTH,ComponentDrill
T3C0.0350
; #@! TA.AperFunction,Plated,PTH,ComponentDrill
T4C0.0390
; #@! TA.AperFunction,Plated,PTH,ComponentDrill
T5C0.0394
; #@! TA.AperFunction,Plated,PTH,ComponentDrill
T6C0.0591
%
G90
G05
T1
X4.9114Y-3.0965
X4.9469Y-3.6417
X5.4843Y-3.5571
X5.6772Y-3.7224
X5.9035Y-3.7244
X5.9803Y-4.5827
X6.0906Y-4.4567
X6.1614Y-4.8012
X6.1772Y-4.2677
X6.2067Y-5.7776
X6.2736Y-4.8681
X6.2756Y-4.9803
X6.3996Y-4.6398
X6.4626Y-5.6929
X6.5256Y-5.7598
X6.5807Y-4.0197
X6.626Y-5.1437
X6.8248Y-3.5984
X6.8307Y-2.937
X6.9764Y-4.5157
X6.9803Y-4.9213
X6.9961Y-4.2402
X7.0433Y-4.9862
X7.061Y-4.4606
X7.0827Y-3.9646
X7.0906Y-3.3622
X7.1614Y-3.8839
X7.1811Y-3.2402
X7.25Y-4.3465
X7.2756Y-3.6437
X7.2815Y-3.8819
X7.2835Y-4.5728
X7.315Y-4.2913
X7.3228Y-4.248
X7.3445Y-4.8583
X7.3937Y-3.6457
X7.4252Y-3.2402
X7.437Y-4.248
X7.4665Y-5.0157
X7.4882Y-4.3917
X7.4902Y-3.2323
X7.5217Y-4.9646
X7.5295Y-4.2913
X7.5807Y-5.0157
X7.5846Y-4.7736
X7.6398Y-4.8386
X7.6457Y-3.9291
X7.6575Y-3.7795
X7.7146Y-3.0709
X7.7244Y-5.0138
X7.7382Y-4.8819
X7.7835Y-4.3937
X7.7997Y-4.8819
X7.8268Y-5.0138
X7.8937Y-4.9232
X7.8957Y-3.9173
X8.0689Y-3.7795
X8.1555Y-5.2874
X8.1988Y-4.6201
X8.2205Y-3.9094
X8.2323Y-3.2717
X8.3366Y-3.6378
X8.3839Y-3.374
X8.3996Y-3.5846
X8.5039Y-4.0394
X8.5039Y-4.1299
X8.6161Y-3.439
X8.8366Y-5.0197
X8.8504Y-3.1949
X8.9665Y-3.6831
X9.311Y-5.2815
X9.3504Y-4.7461
X9.4094Y-5.8445
X9.5512Y-5.0531
X9.689Y-5.0571
T3
X8.2084Y-3.1015
X8.3824Y-3.1015
T4
X5.4212Y-5.3366
X5.4212Y-5.5138
X5.6771Y-5.3366
X5.6771Y-5.5138
X5.8346Y-4.9035
X5.8346Y-5.1594
X5.8539Y-5.6417
X5.8539Y-5.8976
X6.0118Y-4.9035
X6.0118Y-5.1594
X6.0311Y-5.6417
X6.0311Y-5.8976
X6.189Y-5.2972
X6.189Y-5.4744
X6.4449Y-5.2972
X6.4449Y-5.4744
X6.5787Y-4.4882
X6.5787Y-4.7441
X6.7559Y-4.4882
X6.7559Y-4.7441
T5
X4.7469Y-3.4685
X4.748Y-3.1205
X4.748Y-3.2205
X4.748Y-3.7402
X4.8469Y-3.4685
X4.848Y-3.7402
X4.9469Y-3.4685
X4.948Y-3.7402
X5.0469Y-3.4685
X5.048Y-3.7402
X5.1469Y-3.4685
X5.2469Y-3.4685
X5.3469Y-3.4685
X5.4469Y-3.4685
X5.7874Y-4.4497
X5.7874Y-4.5497
X6.5803Y-3.9291
X6.6803Y-3.9291
X6.729Y-3.0342
X6.7803Y-3.9291
X6.829Y-3.0342
X6.8803Y-3.9291
X6.9803Y-3.9291
X8.0551Y-5.2087
X8.0551Y-5.7795
X8.1535Y-5.2087
X8.252Y-5.2087
X8.252Y-5.7795
X8.8819Y-3.5827
X8.8819Y-3.6827
X8.8819Y-3.7827
X8.8819Y-3.8827
X8.8819Y-3.9827
X8.8819Y-4.0827
X8.8819Y-4.1827
X8.8819Y-4.2827
X8.8819Y-4.3827
X9.2126Y-5.185
X9.2126Y-5.7559
X9.311Y-5.185
X9.4094Y-5.185
X9.4094Y-5.7559
X9.892Y-3.6004
X9.892Y-3.7004
X9.892Y-3.8004
X9.892Y-3.9004
X9.892Y-4.0004
X9.892Y-4.1004
X9.892Y-4.2004
X9.892Y-4.3004
X9.892Y-4.4004
T2
G00X7.1601Y-3.0047
M15
G01X7.1601Y-2.9732
M16
G05
G00X7.1601Y-3.1752
M15
G01X7.1601Y-3.1319
M16
G05
G00X7.5002Y-3.0047
M15
G01X7.5002Y-2.9732
M16
G05
G00X7.5002Y-3.1752
M15
G01X7.5002Y-3.1319
M16
G05
T6
G00X7.9331Y-5.4783
M15
G01X7.9331Y-5.5295
M16
G05
G00X8.374Y-5.4783
M15
G01X8.374Y-5.5295
M16
G05
G00X9.0906Y-5.4547
M15
G01X9.0906Y-5.5059
M16
G05
G00X9.5315Y-5.4547
M15
G01X9.5315Y-5.5059
M16
G05
M30
