%TF.GenerationSoftware,KiCad,Pcbnew,8.0.6*%
%TF.CreationDate,2025-01-09T21:18:53+11:00*%
%TF.ProjectId,drone_remote,64726f6e-655f-4726-956d-6f74652e6b69,rev?*%
%TF.SameCoordinates,Original*%
%TF.FileFunction,Soldermask,Bot*%
%TF.FilePolarity,Negative*%
%FSLAX46Y46*%
G04 Gerber Fmt 4.6, Leading zero omitted, Abs format (unit mm)*
G04 Created by KiCad (PCBNEW 8.0.6) date 2025-01-09 21:18:53*
%MOMM*%
%LPD*%
G01*
G04 APERTURE LIST*
G04 Aperture macros list*
%AMRoundRect*
0 Rectangle with rounded corners*
0 $1 Rounding radius*
0 $2 $3 $4 $5 $6 $7 $8 $9 X,Y pos of 4 corners*
0 Add a 4 corners polygon primitive as box body*
4,1,4,$2,$3,$4,$5,$6,$7,$8,$9,$2,$3,0*
0 Add four circle primitives for the rounded corners*
1,1,$1+$1,$2,$3*
1,1,$1+$1,$4,$5*
1,1,$1+$1,$6,$7*
1,1,$1+$1,$8,$9*
0 Add four rect primitives between the rounded corners*
20,1,$1+$1,$2,$3,$4,$5,0*
20,1,$1+$1,$4,$5,$6,$7,0*
20,1,$1+$1,$6,$7,$8,$9,0*
20,1,$1+$1,$8,$9,$2,$3,0*%
G04 Aperture macros list end*
%ADD10RoundRect,0.102000X0.749000X-0.749000X0.749000X0.749000X-0.749000X0.749000X-0.749000X-0.749000X0*%
%ADD11C,1.702000*%
%ADD12R,1.700000X1.700000*%
%ADD13O,1.700000X1.700000*%
%ADD14RoundRect,0.102000X-0.749000X-0.749000X0.749000X-0.749000X0.749000X0.749000X-0.749000X0.749000X0*%
%ADD15RoundRect,0.102000X-0.749000X0.749000X-0.749000X-0.749000X0.749000X-0.749000X0.749000X0.749000X0*%
%ADD16RoundRect,0.102000X0.749000X0.749000X-0.749000X0.749000X-0.749000X-0.749000X0.749000X-0.749000X0*%
%ADD17C,2.700000*%
%ADD18R,2.000000X2.000000*%
%ADD19C,2.000000*%
%ADD20R,2.000000X3.200000*%
%ADD21O,1.204000X2.104000*%
%ADD22O,1.204000X1.704000*%
G04 APERTURE END LIST*
D10*
%TO.C,SW3*%
X55800000Y-91300000D03*
D11*
X55800000Y-84800000D03*
X60300000Y-91300000D03*
X60300000Y-84800000D03*
%TD*%
D12*
%TO.C,J6*%
X44800000Y-48800000D03*
D13*
X47340000Y-48800000D03*
X49880000Y-48800000D03*
X52420000Y-48800000D03*
%TD*%
D12*
%TO.C,J8*%
X143300000Y-55720000D03*
D13*
X143300000Y-58260000D03*
X143300000Y-60800000D03*
X143300000Y-63340000D03*
X143300000Y-65880000D03*
X143300000Y-68420000D03*
X143300000Y-70960000D03*
X143300000Y-73500000D03*
X143300000Y-76040000D03*
%TD*%
D14*
%TO.C,SW2*%
X62435000Y-94050000D03*
D11*
X68935000Y-94050000D03*
X62435000Y-98550000D03*
X68935000Y-98550000D03*
%TD*%
D12*
%TO.C,J4*%
X81075000Y-35200000D03*
D13*
X78535000Y-35200000D03*
%TD*%
D15*
%TO.C,SW5*%
X60300000Y-101000000D03*
D11*
X60300000Y-107500000D03*
X55800000Y-101000000D03*
X55800000Y-107500000D03*
%TD*%
D16*
%TO.C,SW4*%
X53600000Y-98550000D03*
D11*
X47100000Y-98550000D03*
X53600000Y-94050000D03*
X47100000Y-94050000D03*
%TD*%
D17*
%TO.C,H1*%
X36500000Y-36500000D03*
%TD*%
D12*
%TO.C,J5*%
X62550000Y-42975000D03*
D13*
X60010000Y-42975000D03*
X57470000Y-42975000D03*
X54930000Y-42975000D03*
X52390000Y-42975000D03*
X49850000Y-42975000D03*
X47310000Y-42975000D03*
X44770000Y-42975000D03*
%TD*%
D12*
%TO.C,J7*%
X117900000Y-55720000D03*
D13*
X117900000Y-58260000D03*
X117900000Y-60800000D03*
X117900000Y-63340000D03*
X117900000Y-65880000D03*
X117900000Y-68420000D03*
X117900000Y-70960000D03*
X117900000Y-73500000D03*
X117900000Y-76040000D03*
%TD*%
D16*
%TO.C,SW1*%
X77665000Y-76750000D03*
D11*
X71165000Y-76750000D03*
X77665000Y-72250000D03*
X71165000Y-72250000D03*
%TD*%
D17*
%TO.C,H2*%
X36900000Y-114000000D03*
%TD*%
%TO.C,H4*%
X144000000Y-114000000D03*
%TD*%
%TO.C,H3*%
X144100000Y-37000000D03*
%TD*%
D12*
%TO.C,JP2*%
X47370000Y-38270000D03*
D13*
X44830000Y-38270000D03*
%TD*%
D18*
%TO.C,SW6*%
X130350000Y-94250000D03*
D19*
X125350000Y-94250000D03*
X127850000Y-94250000D03*
D20*
X133450000Y-101750000D03*
X122250000Y-101750000D03*
D19*
X125350000Y-108750000D03*
X130350000Y-108750000D03*
%TD*%
D18*
%TO.C,SW7*%
X113100000Y-94300000D03*
D19*
X108100000Y-94300000D03*
X110600000Y-94300000D03*
D20*
X116200000Y-101800000D03*
X105000000Y-101800000D03*
D19*
X108100000Y-108800000D03*
X113100000Y-108800000D03*
%TD*%
D21*
%TO.C,J3*%
X96370000Y-35125000D03*
X87730000Y-35125000D03*
D22*
X96370000Y-39125000D03*
X87730000Y-39125000D03*
%TD*%
D12*
%TO.C,J1*%
X69320000Y-54600000D03*
D13*
X71860000Y-54600000D03*
X74400000Y-54600000D03*
X76940000Y-54600000D03*
X79480000Y-54600000D03*
%TD*%
M02*
