%TF.GenerationSoftware,KiCad,Pcbnew,8.0.6*%
%TF.CreationDate,2025-01-09T21:18:53+11:00*%
%TF.ProjectId,drone_remote,64726f6e-655f-4726-956d-6f74652e6b69,rev?*%
%TF.SameCoordinates,Original*%
%TF.FileFunction,Legend,Top*%
%TF.FilePolarity,Positive*%
%FSLAX46Y46*%
G04 Gerber Fmt 4.6, Leading zero omitted, Abs format (unit mm)*
G04 Created by KiCad (PCBNEW 8.0.6) date 2025-01-09 21:18:53*
%MOMM*%
%LPD*%
G01*
G04 APERTURE LIST*
%ADD10C,0.150000*%
%ADD11C,0.120000*%
%ADD12C,0.152400*%
%ADD13C,0.000000*%
%ADD14C,0.127000*%
%ADD15C,0.200000*%
%ADD16C,0.254000*%
G04 APERTURE END LIST*
D10*
X112633333Y-45159580D02*
X112585714Y-45207200D01*
X112585714Y-45207200D02*
X112442857Y-45254819D01*
X112442857Y-45254819D02*
X112347619Y-45254819D01*
X112347619Y-45254819D02*
X112204762Y-45207200D01*
X112204762Y-45207200D02*
X112109524Y-45111961D01*
X112109524Y-45111961D02*
X112061905Y-45016723D01*
X112061905Y-45016723D02*
X112014286Y-44826247D01*
X112014286Y-44826247D02*
X112014286Y-44683390D01*
X112014286Y-44683390D02*
X112061905Y-44492914D01*
X112061905Y-44492914D02*
X112109524Y-44397676D01*
X112109524Y-44397676D02*
X112204762Y-44302438D01*
X112204762Y-44302438D02*
X112347619Y-44254819D01*
X112347619Y-44254819D02*
X112442857Y-44254819D01*
X112442857Y-44254819D02*
X112585714Y-44302438D01*
X112585714Y-44302438D02*
X112633333Y-44350057D01*
X113585714Y-45254819D02*
X113014286Y-45254819D01*
X113300000Y-45254819D02*
X113300000Y-44254819D01*
X113300000Y-44254819D02*
X113204762Y-44397676D01*
X113204762Y-44397676D02*
X113109524Y-44492914D01*
X113109524Y-44492914D02*
X113014286Y-44540533D01*
X121708333Y-43529819D02*
X121375000Y-43053628D01*
X121136905Y-43529819D02*
X121136905Y-42529819D01*
X121136905Y-42529819D02*
X121517857Y-42529819D01*
X121517857Y-42529819D02*
X121613095Y-42577438D01*
X121613095Y-42577438D02*
X121660714Y-42625057D01*
X121660714Y-42625057D02*
X121708333Y-42720295D01*
X121708333Y-42720295D02*
X121708333Y-42863152D01*
X121708333Y-42863152D02*
X121660714Y-42958390D01*
X121660714Y-42958390D02*
X121613095Y-43006009D01*
X121613095Y-43006009D02*
X121517857Y-43053628D01*
X121517857Y-43053628D02*
X121136905Y-43053628D01*
X122565476Y-42529819D02*
X122375000Y-42529819D01*
X122375000Y-42529819D02*
X122279762Y-42577438D01*
X122279762Y-42577438D02*
X122232143Y-42625057D01*
X122232143Y-42625057D02*
X122136905Y-42767914D01*
X122136905Y-42767914D02*
X122089286Y-42958390D01*
X122089286Y-42958390D02*
X122089286Y-43339342D01*
X122089286Y-43339342D02*
X122136905Y-43434580D01*
X122136905Y-43434580D02*
X122184524Y-43482200D01*
X122184524Y-43482200D02*
X122279762Y-43529819D01*
X122279762Y-43529819D02*
X122470238Y-43529819D01*
X122470238Y-43529819D02*
X122565476Y-43482200D01*
X122565476Y-43482200D02*
X122613095Y-43434580D01*
X122613095Y-43434580D02*
X122660714Y-43339342D01*
X122660714Y-43339342D02*
X122660714Y-43101247D01*
X122660714Y-43101247D02*
X122613095Y-43006009D01*
X122613095Y-43006009D02*
X122565476Y-42958390D01*
X122565476Y-42958390D02*
X122470238Y-42910771D01*
X122470238Y-42910771D02*
X122279762Y-42910771D01*
X122279762Y-42910771D02*
X122184524Y-42958390D01*
X122184524Y-42958390D02*
X122136905Y-43006009D01*
X122136905Y-43006009D02*
X122089286Y-43101247D01*
X70700057Y-37505238D02*
X70652438Y-37600476D01*
X70652438Y-37600476D02*
X70557200Y-37695714D01*
X70557200Y-37695714D02*
X70414342Y-37838571D01*
X70414342Y-37838571D02*
X70366723Y-37933809D01*
X70366723Y-37933809D02*
X70366723Y-38029047D01*
X70604819Y-37981428D02*
X70557200Y-38076666D01*
X70557200Y-38076666D02*
X70461961Y-38171904D01*
X70461961Y-38171904D02*
X70271485Y-38219523D01*
X70271485Y-38219523D02*
X69938152Y-38219523D01*
X69938152Y-38219523D02*
X69747676Y-38171904D01*
X69747676Y-38171904D02*
X69652438Y-38076666D01*
X69652438Y-38076666D02*
X69604819Y-37981428D01*
X69604819Y-37981428D02*
X69604819Y-37790952D01*
X69604819Y-37790952D02*
X69652438Y-37695714D01*
X69652438Y-37695714D02*
X69747676Y-37600476D01*
X69747676Y-37600476D02*
X69938152Y-37552857D01*
X69938152Y-37552857D02*
X70271485Y-37552857D01*
X70271485Y-37552857D02*
X70461961Y-37600476D01*
X70461961Y-37600476D02*
X70557200Y-37695714D01*
X70557200Y-37695714D02*
X70604819Y-37790952D01*
X70604819Y-37790952D02*
X70604819Y-37981428D01*
X70604819Y-36600476D02*
X70604819Y-37171904D01*
X70604819Y-36886190D02*
X69604819Y-36886190D01*
X69604819Y-36886190D02*
X69747676Y-36981428D01*
X69747676Y-36981428D02*
X69842914Y-37076666D01*
X69842914Y-37076666D02*
X69890533Y-37171904D01*
X130544642Y-112709580D02*
X130497023Y-112757200D01*
X130497023Y-112757200D02*
X130354166Y-112804819D01*
X130354166Y-112804819D02*
X130258928Y-112804819D01*
X130258928Y-112804819D02*
X130116071Y-112757200D01*
X130116071Y-112757200D02*
X130020833Y-112661961D01*
X130020833Y-112661961D02*
X129973214Y-112566723D01*
X129973214Y-112566723D02*
X129925595Y-112376247D01*
X129925595Y-112376247D02*
X129925595Y-112233390D01*
X129925595Y-112233390D02*
X129973214Y-112042914D01*
X129973214Y-112042914D02*
X130020833Y-111947676D01*
X130020833Y-111947676D02*
X130116071Y-111852438D01*
X130116071Y-111852438D02*
X130258928Y-111804819D01*
X130258928Y-111804819D02*
X130354166Y-111804819D01*
X130354166Y-111804819D02*
X130497023Y-111852438D01*
X130497023Y-111852438D02*
X130544642Y-111900057D01*
X130925595Y-111900057D02*
X130973214Y-111852438D01*
X130973214Y-111852438D02*
X131068452Y-111804819D01*
X131068452Y-111804819D02*
X131306547Y-111804819D01*
X131306547Y-111804819D02*
X131401785Y-111852438D01*
X131401785Y-111852438D02*
X131449404Y-111900057D01*
X131449404Y-111900057D02*
X131497023Y-111995295D01*
X131497023Y-111995295D02*
X131497023Y-112090533D01*
X131497023Y-112090533D02*
X131449404Y-112233390D01*
X131449404Y-112233390D02*
X130877976Y-112804819D01*
X130877976Y-112804819D02*
X131497023Y-112804819D01*
X131830357Y-111804819D02*
X132497023Y-111804819D01*
X132497023Y-111804819D02*
X132068452Y-112804819D01*
X98493333Y-40854819D02*
X98160000Y-40378628D01*
X97921905Y-40854819D02*
X97921905Y-39854819D01*
X97921905Y-39854819D02*
X98302857Y-39854819D01*
X98302857Y-39854819D02*
X98398095Y-39902438D01*
X98398095Y-39902438D02*
X98445714Y-39950057D01*
X98445714Y-39950057D02*
X98493333Y-40045295D01*
X98493333Y-40045295D02*
X98493333Y-40188152D01*
X98493333Y-40188152D02*
X98445714Y-40283390D01*
X98445714Y-40283390D02*
X98398095Y-40331009D01*
X98398095Y-40331009D02*
X98302857Y-40378628D01*
X98302857Y-40378628D02*
X97921905Y-40378628D01*
X99445714Y-40854819D02*
X98874286Y-40854819D01*
X99160000Y-40854819D02*
X99160000Y-39854819D01*
X99160000Y-39854819D02*
X99064762Y-39997676D01*
X99064762Y-39997676D02*
X98969524Y-40092914D01*
X98969524Y-40092914D02*
X98874286Y-40140533D01*
X48657142Y-35654819D02*
X48323809Y-35178628D01*
X48085714Y-35654819D02*
X48085714Y-34654819D01*
X48085714Y-34654819D02*
X48466666Y-34654819D01*
X48466666Y-34654819D02*
X48561904Y-34702438D01*
X48561904Y-34702438D02*
X48609523Y-34750057D01*
X48609523Y-34750057D02*
X48657142Y-34845295D01*
X48657142Y-34845295D02*
X48657142Y-34988152D01*
X48657142Y-34988152D02*
X48609523Y-35083390D01*
X48609523Y-35083390D02*
X48561904Y-35131009D01*
X48561904Y-35131009D02*
X48466666Y-35178628D01*
X48466666Y-35178628D02*
X48085714Y-35178628D01*
X49609523Y-35654819D02*
X49038095Y-35654819D01*
X49323809Y-35654819D02*
X49323809Y-34654819D01*
X49323809Y-34654819D02*
X49228571Y-34797676D01*
X49228571Y-34797676D02*
X49133333Y-34892914D01*
X49133333Y-34892914D02*
X49038095Y-34940533D01*
X50466666Y-34654819D02*
X50276190Y-34654819D01*
X50276190Y-34654819D02*
X50180952Y-34702438D01*
X50180952Y-34702438D02*
X50133333Y-34750057D01*
X50133333Y-34750057D02*
X50038095Y-34892914D01*
X50038095Y-34892914D02*
X49990476Y-35083390D01*
X49990476Y-35083390D02*
X49990476Y-35464342D01*
X49990476Y-35464342D02*
X50038095Y-35559580D01*
X50038095Y-35559580D02*
X50085714Y-35607200D01*
X50085714Y-35607200D02*
X50180952Y-35654819D01*
X50180952Y-35654819D02*
X50371428Y-35654819D01*
X50371428Y-35654819D02*
X50466666Y-35607200D01*
X50466666Y-35607200D02*
X50514285Y-35559580D01*
X50514285Y-35559580D02*
X50561904Y-35464342D01*
X50561904Y-35464342D02*
X50561904Y-35226247D01*
X50561904Y-35226247D02*
X50514285Y-35131009D01*
X50514285Y-35131009D02*
X50466666Y-35083390D01*
X50466666Y-35083390D02*
X50371428Y-35035771D01*
X50371428Y-35035771D02*
X50180952Y-35035771D01*
X50180952Y-35035771D02*
X50085714Y-35083390D01*
X50085714Y-35083390D02*
X50038095Y-35131009D01*
X50038095Y-35131009D02*
X49990476Y-35226247D01*
X138894642Y-113004819D02*
X138561309Y-112528628D01*
X138323214Y-113004819D02*
X138323214Y-112004819D01*
X138323214Y-112004819D02*
X138704166Y-112004819D01*
X138704166Y-112004819D02*
X138799404Y-112052438D01*
X138799404Y-112052438D02*
X138847023Y-112100057D01*
X138847023Y-112100057D02*
X138894642Y-112195295D01*
X138894642Y-112195295D02*
X138894642Y-112338152D01*
X138894642Y-112338152D02*
X138847023Y-112433390D01*
X138847023Y-112433390D02*
X138799404Y-112481009D01*
X138799404Y-112481009D02*
X138704166Y-112528628D01*
X138704166Y-112528628D02*
X138323214Y-112528628D01*
X139275595Y-112100057D02*
X139323214Y-112052438D01*
X139323214Y-112052438D02*
X139418452Y-112004819D01*
X139418452Y-112004819D02*
X139656547Y-112004819D01*
X139656547Y-112004819D02*
X139751785Y-112052438D01*
X139751785Y-112052438D02*
X139799404Y-112100057D01*
X139799404Y-112100057D02*
X139847023Y-112195295D01*
X139847023Y-112195295D02*
X139847023Y-112290533D01*
X139847023Y-112290533D02*
X139799404Y-112433390D01*
X139799404Y-112433390D02*
X139227976Y-113004819D01*
X139227976Y-113004819D02*
X139847023Y-113004819D01*
X140466071Y-112004819D02*
X140561309Y-112004819D01*
X140561309Y-112004819D02*
X140656547Y-112052438D01*
X140656547Y-112052438D02*
X140704166Y-112100057D01*
X140704166Y-112100057D02*
X140751785Y-112195295D01*
X140751785Y-112195295D02*
X140799404Y-112385771D01*
X140799404Y-112385771D02*
X140799404Y-112623866D01*
X140799404Y-112623866D02*
X140751785Y-112814342D01*
X140751785Y-112814342D02*
X140704166Y-112909580D01*
X140704166Y-112909580D02*
X140656547Y-112957200D01*
X140656547Y-112957200D02*
X140561309Y-113004819D01*
X140561309Y-113004819D02*
X140466071Y-113004819D01*
X140466071Y-113004819D02*
X140370833Y-112957200D01*
X140370833Y-112957200D02*
X140323214Y-112909580D01*
X140323214Y-112909580D02*
X140275595Y-112814342D01*
X140275595Y-112814342D02*
X140227976Y-112623866D01*
X140227976Y-112623866D02*
X140227976Y-112385771D01*
X140227976Y-112385771D02*
X140275595Y-112195295D01*
X140275595Y-112195295D02*
X140323214Y-112100057D01*
X140323214Y-112100057D02*
X140370833Y-112052438D01*
X140370833Y-112052438D02*
X140466071Y-112004819D01*
X122482142Y-86259580D02*
X122434523Y-86307200D01*
X122434523Y-86307200D02*
X122291666Y-86354819D01*
X122291666Y-86354819D02*
X122196428Y-86354819D01*
X122196428Y-86354819D02*
X122053571Y-86307200D01*
X122053571Y-86307200D02*
X121958333Y-86211961D01*
X121958333Y-86211961D02*
X121910714Y-86116723D01*
X121910714Y-86116723D02*
X121863095Y-85926247D01*
X121863095Y-85926247D02*
X121863095Y-85783390D01*
X121863095Y-85783390D02*
X121910714Y-85592914D01*
X121910714Y-85592914D02*
X121958333Y-85497676D01*
X121958333Y-85497676D02*
X122053571Y-85402438D01*
X122053571Y-85402438D02*
X122196428Y-85354819D01*
X122196428Y-85354819D02*
X122291666Y-85354819D01*
X122291666Y-85354819D02*
X122434523Y-85402438D01*
X122434523Y-85402438D02*
X122482142Y-85450057D01*
X122863095Y-85450057D02*
X122910714Y-85402438D01*
X122910714Y-85402438D02*
X123005952Y-85354819D01*
X123005952Y-85354819D02*
X123244047Y-85354819D01*
X123244047Y-85354819D02*
X123339285Y-85402438D01*
X123339285Y-85402438D02*
X123386904Y-85450057D01*
X123386904Y-85450057D02*
X123434523Y-85545295D01*
X123434523Y-85545295D02*
X123434523Y-85640533D01*
X123434523Y-85640533D02*
X123386904Y-85783390D01*
X123386904Y-85783390D02*
X122815476Y-86354819D01*
X122815476Y-86354819D02*
X123434523Y-86354819D01*
X124339285Y-85354819D02*
X123863095Y-85354819D01*
X123863095Y-85354819D02*
X123815476Y-85831009D01*
X123815476Y-85831009D02*
X123863095Y-85783390D01*
X123863095Y-85783390D02*
X123958333Y-85735771D01*
X123958333Y-85735771D02*
X124196428Y-85735771D01*
X124196428Y-85735771D02*
X124291666Y-85783390D01*
X124291666Y-85783390D02*
X124339285Y-85831009D01*
X124339285Y-85831009D02*
X124386904Y-85926247D01*
X124386904Y-85926247D02*
X124386904Y-86164342D01*
X124386904Y-86164342D02*
X124339285Y-86259580D01*
X124339285Y-86259580D02*
X124291666Y-86307200D01*
X124291666Y-86307200D02*
X124196428Y-86354819D01*
X124196428Y-86354819D02*
X123958333Y-86354819D01*
X123958333Y-86354819D02*
X123863095Y-86307200D01*
X123863095Y-86307200D02*
X123815476Y-86259580D01*
X57513095Y-78954819D02*
X57513095Y-79764342D01*
X57513095Y-79764342D02*
X57560714Y-79859580D01*
X57560714Y-79859580D02*
X57608333Y-79907200D01*
X57608333Y-79907200D02*
X57703571Y-79954819D01*
X57703571Y-79954819D02*
X57894047Y-79954819D01*
X57894047Y-79954819D02*
X57989285Y-79907200D01*
X57989285Y-79907200D02*
X58036904Y-79859580D01*
X58036904Y-79859580D02*
X58084523Y-79764342D01*
X58084523Y-79764342D02*
X58084523Y-78954819D01*
X58465476Y-78954819D02*
X59084523Y-78954819D01*
X59084523Y-78954819D02*
X58751190Y-79335771D01*
X58751190Y-79335771D02*
X58894047Y-79335771D01*
X58894047Y-79335771D02*
X58989285Y-79383390D01*
X58989285Y-79383390D02*
X59036904Y-79431009D01*
X59036904Y-79431009D02*
X59084523Y-79526247D01*
X59084523Y-79526247D02*
X59084523Y-79764342D01*
X59084523Y-79764342D02*
X59036904Y-79859580D01*
X59036904Y-79859580D02*
X58989285Y-79907200D01*
X58989285Y-79907200D02*
X58894047Y-79954819D01*
X58894047Y-79954819D02*
X58608333Y-79954819D01*
X58608333Y-79954819D02*
X58513095Y-79907200D01*
X58513095Y-79907200D02*
X58465476Y-79859580D01*
X54650000Y-72729819D02*
X54650000Y-72967914D01*
X54411905Y-72872676D02*
X54650000Y-72967914D01*
X54650000Y-72967914D02*
X54888095Y-72872676D01*
X54507143Y-73158390D02*
X54650000Y-72967914D01*
X54650000Y-72967914D02*
X54792857Y-73158390D01*
X84082142Y-39459580D02*
X84034523Y-39507200D01*
X84034523Y-39507200D02*
X83891666Y-39554819D01*
X83891666Y-39554819D02*
X83796428Y-39554819D01*
X83796428Y-39554819D02*
X83653571Y-39507200D01*
X83653571Y-39507200D02*
X83558333Y-39411961D01*
X83558333Y-39411961D02*
X83510714Y-39316723D01*
X83510714Y-39316723D02*
X83463095Y-39126247D01*
X83463095Y-39126247D02*
X83463095Y-38983390D01*
X83463095Y-38983390D02*
X83510714Y-38792914D01*
X83510714Y-38792914D02*
X83558333Y-38697676D01*
X83558333Y-38697676D02*
X83653571Y-38602438D01*
X83653571Y-38602438D02*
X83796428Y-38554819D01*
X83796428Y-38554819D02*
X83891666Y-38554819D01*
X83891666Y-38554819D02*
X84034523Y-38602438D01*
X84034523Y-38602438D02*
X84082142Y-38650057D01*
X85034523Y-39554819D02*
X84463095Y-39554819D01*
X84748809Y-39554819D02*
X84748809Y-38554819D01*
X84748809Y-38554819D02*
X84653571Y-38697676D01*
X84653571Y-38697676D02*
X84558333Y-38792914D01*
X84558333Y-38792914D02*
X84463095Y-38840533D01*
X85605952Y-38983390D02*
X85510714Y-38935771D01*
X85510714Y-38935771D02*
X85463095Y-38888152D01*
X85463095Y-38888152D02*
X85415476Y-38792914D01*
X85415476Y-38792914D02*
X85415476Y-38745295D01*
X85415476Y-38745295D02*
X85463095Y-38650057D01*
X85463095Y-38650057D02*
X85510714Y-38602438D01*
X85510714Y-38602438D02*
X85605952Y-38554819D01*
X85605952Y-38554819D02*
X85796428Y-38554819D01*
X85796428Y-38554819D02*
X85891666Y-38602438D01*
X85891666Y-38602438D02*
X85939285Y-38650057D01*
X85939285Y-38650057D02*
X85986904Y-38745295D01*
X85986904Y-38745295D02*
X85986904Y-38792914D01*
X85986904Y-38792914D02*
X85939285Y-38888152D01*
X85939285Y-38888152D02*
X85891666Y-38935771D01*
X85891666Y-38935771D02*
X85796428Y-38983390D01*
X85796428Y-38983390D02*
X85605952Y-38983390D01*
X85605952Y-38983390D02*
X85510714Y-39031009D01*
X85510714Y-39031009D02*
X85463095Y-39078628D01*
X85463095Y-39078628D02*
X85415476Y-39173866D01*
X85415476Y-39173866D02*
X85415476Y-39364342D01*
X85415476Y-39364342D02*
X85463095Y-39459580D01*
X85463095Y-39459580D02*
X85510714Y-39507200D01*
X85510714Y-39507200D02*
X85605952Y-39554819D01*
X85605952Y-39554819D02*
X85796428Y-39554819D01*
X85796428Y-39554819D02*
X85891666Y-39507200D01*
X85891666Y-39507200D02*
X85939285Y-39459580D01*
X85939285Y-39459580D02*
X85986904Y-39364342D01*
X85986904Y-39364342D02*
X85986904Y-39173866D01*
X85986904Y-39173866D02*
X85939285Y-39078628D01*
X85939285Y-39078628D02*
X85891666Y-39031009D01*
X85891666Y-39031009D02*
X85796428Y-38983390D01*
X94633333Y-49654819D02*
X94157143Y-49654819D01*
X94157143Y-49654819D02*
X94157143Y-48654819D01*
X95490476Y-49654819D02*
X94919048Y-49654819D01*
X95204762Y-49654819D02*
X95204762Y-48654819D01*
X95204762Y-48654819D02*
X95109524Y-48797676D01*
X95109524Y-48797676D02*
X95014286Y-48892914D01*
X95014286Y-48892914D02*
X94919048Y-48940533D01*
X50907142Y-91534580D02*
X50859523Y-91582200D01*
X50859523Y-91582200D02*
X50716666Y-91629819D01*
X50716666Y-91629819D02*
X50621428Y-91629819D01*
X50621428Y-91629819D02*
X50478571Y-91582200D01*
X50478571Y-91582200D02*
X50383333Y-91486961D01*
X50383333Y-91486961D02*
X50335714Y-91391723D01*
X50335714Y-91391723D02*
X50288095Y-91201247D01*
X50288095Y-91201247D02*
X50288095Y-91058390D01*
X50288095Y-91058390D02*
X50335714Y-90867914D01*
X50335714Y-90867914D02*
X50383333Y-90772676D01*
X50383333Y-90772676D02*
X50478571Y-90677438D01*
X50478571Y-90677438D02*
X50621428Y-90629819D01*
X50621428Y-90629819D02*
X50716666Y-90629819D01*
X50716666Y-90629819D02*
X50859523Y-90677438D01*
X50859523Y-90677438D02*
X50907142Y-90725057D01*
X51288095Y-90725057D02*
X51335714Y-90677438D01*
X51335714Y-90677438D02*
X51430952Y-90629819D01*
X51430952Y-90629819D02*
X51669047Y-90629819D01*
X51669047Y-90629819D02*
X51764285Y-90677438D01*
X51764285Y-90677438D02*
X51811904Y-90725057D01*
X51811904Y-90725057D02*
X51859523Y-90820295D01*
X51859523Y-90820295D02*
X51859523Y-90915533D01*
X51859523Y-90915533D02*
X51811904Y-91058390D01*
X51811904Y-91058390D02*
X51240476Y-91629819D01*
X51240476Y-91629819D02*
X51859523Y-91629819D01*
X52240476Y-90725057D02*
X52288095Y-90677438D01*
X52288095Y-90677438D02*
X52383333Y-90629819D01*
X52383333Y-90629819D02*
X52621428Y-90629819D01*
X52621428Y-90629819D02*
X52716666Y-90677438D01*
X52716666Y-90677438D02*
X52764285Y-90725057D01*
X52764285Y-90725057D02*
X52811904Y-90820295D01*
X52811904Y-90820295D02*
X52811904Y-90915533D01*
X52811904Y-90915533D02*
X52764285Y-91058390D01*
X52764285Y-91058390D02*
X52192857Y-91629819D01*
X52192857Y-91629819D02*
X52811904Y-91629819D01*
X56691667Y-83182200D02*
X56834524Y-83229819D01*
X56834524Y-83229819D02*
X57072619Y-83229819D01*
X57072619Y-83229819D02*
X57167857Y-83182200D01*
X57167857Y-83182200D02*
X57215476Y-83134580D01*
X57215476Y-83134580D02*
X57263095Y-83039342D01*
X57263095Y-83039342D02*
X57263095Y-82944104D01*
X57263095Y-82944104D02*
X57215476Y-82848866D01*
X57215476Y-82848866D02*
X57167857Y-82801247D01*
X57167857Y-82801247D02*
X57072619Y-82753628D01*
X57072619Y-82753628D02*
X56882143Y-82706009D01*
X56882143Y-82706009D02*
X56786905Y-82658390D01*
X56786905Y-82658390D02*
X56739286Y-82610771D01*
X56739286Y-82610771D02*
X56691667Y-82515533D01*
X56691667Y-82515533D02*
X56691667Y-82420295D01*
X56691667Y-82420295D02*
X56739286Y-82325057D01*
X56739286Y-82325057D02*
X56786905Y-82277438D01*
X56786905Y-82277438D02*
X56882143Y-82229819D01*
X56882143Y-82229819D02*
X57120238Y-82229819D01*
X57120238Y-82229819D02*
X57263095Y-82277438D01*
X57596429Y-82229819D02*
X57834524Y-83229819D01*
X57834524Y-83229819D02*
X58025000Y-82515533D01*
X58025000Y-82515533D02*
X58215476Y-83229819D01*
X58215476Y-83229819D02*
X58453572Y-82229819D01*
X58739286Y-82229819D02*
X59358333Y-82229819D01*
X59358333Y-82229819D02*
X59025000Y-82610771D01*
X59025000Y-82610771D02*
X59167857Y-82610771D01*
X59167857Y-82610771D02*
X59263095Y-82658390D01*
X59263095Y-82658390D02*
X59310714Y-82706009D01*
X59310714Y-82706009D02*
X59358333Y-82801247D01*
X59358333Y-82801247D02*
X59358333Y-83039342D01*
X59358333Y-83039342D02*
X59310714Y-83134580D01*
X59310714Y-83134580D02*
X59263095Y-83182200D01*
X59263095Y-83182200D02*
X59167857Y-83229819D01*
X59167857Y-83229819D02*
X58882143Y-83229819D01*
X58882143Y-83229819D02*
X58786905Y-83182200D01*
X58786905Y-83182200D02*
X58739286Y-83134580D01*
X87233333Y-52929819D02*
X86900000Y-52453628D01*
X86661905Y-52929819D02*
X86661905Y-51929819D01*
X86661905Y-51929819D02*
X87042857Y-51929819D01*
X87042857Y-51929819D02*
X87138095Y-51977438D01*
X87138095Y-51977438D02*
X87185714Y-52025057D01*
X87185714Y-52025057D02*
X87233333Y-52120295D01*
X87233333Y-52120295D02*
X87233333Y-52263152D01*
X87233333Y-52263152D02*
X87185714Y-52358390D01*
X87185714Y-52358390D02*
X87138095Y-52406009D01*
X87138095Y-52406009D02*
X87042857Y-52453628D01*
X87042857Y-52453628D02*
X86661905Y-52453628D01*
X87804762Y-52358390D02*
X87709524Y-52310771D01*
X87709524Y-52310771D02*
X87661905Y-52263152D01*
X87661905Y-52263152D02*
X87614286Y-52167914D01*
X87614286Y-52167914D02*
X87614286Y-52120295D01*
X87614286Y-52120295D02*
X87661905Y-52025057D01*
X87661905Y-52025057D02*
X87709524Y-51977438D01*
X87709524Y-51977438D02*
X87804762Y-51929819D01*
X87804762Y-51929819D02*
X87995238Y-51929819D01*
X87995238Y-51929819D02*
X88090476Y-51977438D01*
X88090476Y-51977438D02*
X88138095Y-52025057D01*
X88138095Y-52025057D02*
X88185714Y-52120295D01*
X88185714Y-52120295D02*
X88185714Y-52167914D01*
X88185714Y-52167914D02*
X88138095Y-52263152D01*
X88138095Y-52263152D02*
X88090476Y-52310771D01*
X88090476Y-52310771D02*
X87995238Y-52358390D01*
X87995238Y-52358390D02*
X87804762Y-52358390D01*
X87804762Y-52358390D02*
X87709524Y-52406009D01*
X87709524Y-52406009D02*
X87661905Y-52453628D01*
X87661905Y-52453628D02*
X87614286Y-52548866D01*
X87614286Y-52548866D02*
X87614286Y-52739342D01*
X87614286Y-52739342D02*
X87661905Y-52834580D01*
X87661905Y-52834580D02*
X87709524Y-52882200D01*
X87709524Y-52882200D02*
X87804762Y-52929819D01*
X87804762Y-52929819D02*
X87995238Y-52929819D01*
X87995238Y-52929819D02*
X88090476Y-52882200D01*
X88090476Y-52882200D02*
X88138095Y-52834580D01*
X88138095Y-52834580D02*
X88185714Y-52739342D01*
X88185714Y-52739342D02*
X88185714Y-52548866D01*
X88185714Y-52548866D02*
X88138095Y-52453628D01*
X88138095Y-52453628D02*
X88090476Y-52406009D01*
X88090476Y-52406009D02*
X87995238Y-52358390D01*
X83283333Y-55709580D02*
X83235714Y-55757200D01*
X83235714Y-55757200D02*
X83092857Y-55804819D01*
X83092857Y-55804819D02*
X82997619Y-55804819D01*
X82997619Y-55804819D02*
X82854762Y-55757200D01*
X82854762Y-55757200D02*
X82759524Y-55661961D01*
X82759524Y-55661961D02*
X82711905Y-55566723D01*
X82711905Y-55566723D02*
X82664286Y-55376247D01*
X82664286Y-55376247D02*
X82664286Y-55233390D01*
X82664286Y-55233390D02*
X82711905Y-55042914D01*
X82711905Y-55042914D02*
X82759524Y-54947676D01*
X82759524Y-54947676D02*
X82854762Y-54852438D01*
X82854762Y-54852438D02*
X82997619Y-54804819D01*
X82997619Y-54804819D02*
X83092857Y-54804819D01*
X83092857Y-54804819D02*
X83235714Y-54852438D01*
X83235714Y-54852438D02*
X83283333Y-54900057D01*
X83854762Y-55233390D02*
X83759524Y-55185771D01*
X83759524Y-55185771D02*
X83711905Y-55138152D01*
X83711905Y-55138152D02*
X83664286Y-55042914D01*
X83664286Y-55042914D02*
X83664286Y-54995295D01*
X83664286Y-54995295D02*
X83711905Y-54900057D01*
X83711905Y-54900057D02*
X83759524Y-54852438D01*
X83759524Y-54852438D02*
X83854762Y-54804819D01*
X83854762Y-54804819D02*
X84045238Y-54804819D01*
X84045238Y-54804819D02*
X84140476Y-54852438D01*
X84140476Y-54852438D02*
X84188095Y-54900057D01*
X84188095Y-54900057D02*
X84235714Y-54995295D01*
X84235714Y-54995295D02*
X84235714Y-55042914D01*
X84235714Y-55042914D02*
X84188095Y-55138152D01*
X84188095Y-55138152D02*
X84140476Y-55185771D01*
X84140476Y-55185771D02*
X84045238Y-55233390D01*
X84045238Y-55233390D02*
X83854762Y-55233390D01*
X83854762Y-55233390D02*
X83759524Y-55281009D01*
X83759524Y-55281009D02*
X83711905Y-55328628D01*
X83711905Y-55328628D02*
X83664286Y-55423866D01*
X83664286Y-55423866D02*
X83664286Y-55614342D01*
X83664286Y-55614342D02*
X83711905Y-55709580D01*
X83711905Y-55709580D02*
X83759524Y-55757200D01*
X83759524Y-55757200D02*
X83854762Y-55804819D01*
X83854762Y-55804819D02*
X84045238Y-55804819D01*
X84045238Y-55804819D02*
X84140476Y-55757200D01*
X84140476Y-55757200D02*
X84188095Y-55709580D01*
X84188095Y-55709580D02*
X84235714Y-55614342D01*
X84235714Y-55614342D02*
X84235714Y-55423866D01*
X84235714Y-55423866D02*
X84188095Y-55328628D01*
X84188095Y-55328628D02*
X84140476Y-55281009D01*
X84140476Y-55281009D02*
X84045238Y-55233390D01*
X94483333Y-73204819D02*
X94007143Y-73204819D01*
X94007143Y-73204819D02*
X94007143Y-72204819D01*
X94769048Y-72300057D02*
X94816667Y-72252438D01*
X94816667Y-72252438D02*
X94911905Y-72204819D01*
X94911905Y-72204819D02*
X95150000Y-72204819D01*
X95150000Y-72204819D02*
X95245238Y-72252438D01*
X95245238Y-72252438D02*
X95292857Y-72300057D01*
X95292857Y-72300057D02*
X95340476Y-72395295D01*
X95340476Y-72395295D02*
X95340476Y-72490533D01*
X95340476Y-72490533D02*
X95292857Y-72633390D01*
X95292857Y-72633390D02*
X94721429Y-73204819D01*
X94721429Y-73204819D02*
X95340476Y-73204819D01*
X41466666Y-48179819D02*
X41466666Y-48894104D01*
X41466666Y-48894104D02*
X41419047Y-49036961D01*
X41419047Y-49036961D02*
X41323809Y-49132200D01*
X41323809Y-49132200D02*
X41180952Y-49179819D01*
X41180952Y-49179819D02*
X41085714Y-49179819D01*
X42371428Y-48179819D02*
X42180952Y-48179819D01*
X42180952Y-48179819D02*
X42085714Y-48227438D01*
X42085714Y-48227438D02*
X42038095Y-48275057D01*
X42038095Y-48275057D02*
X41942857Y-48417914D01*
X41942857Y-48417914D02*
X41895238Y-48608390D01*
X41895238Y-48608390D02*
X41895238Y-48989342D01*
X41895238Y-48989342D02*
X41942857Y-49084580D01*
X41942857Y-49084580D02*
X41990476Y-49132200D01*
X41990476Y-49132200D02*
X42085714Y-49179819D01*
X42085714Y-49179819D02*
X42276190Y-49179819D01*
X42276190Y-49179819D02*
X42371428Y-49132200D01*
X42371428Y-49132200D02*
X42419047Y-49084580D01*
X42419047Y-49084580D02*
X42466666Y-48989342D01*
X42466666Y-48989342D02*
X42466666Y-48751247D01*
X42466666Y-48751247D02*
X42419047Y-48656009D01*
X42419047Y-48656009D02*
X42371428Y-48608390D01*
X42371428Y-48608390D02*
X42276190Y-48560771D01*
X42276190Y-48560771D02*
X42085714Y-48560771D01*
X42085714Y-48560771D02*
X41990476Y-48608390D01*
X41990476Y-48608390D02*
X41942857Y-48656009D01*
X41942857Y-48656009D02*
X41895238Y-48751247D01*
X142966666Y-52404819D02*
X142966666Y-53119104D01*
X142966666Y-53119104D02*
X142919047Y-53261961D01*
X142919047Y-53261961D02*
X142823809Y-53357200D01*
X142823809Y-53357200D02*
X142680952Y-53404819D01*
X142680952Y-53404819D02*
X142585714Y-53404819D01*
X143585714Y-52833390D02*
X143490476Y-52785771D01*
X143490476Y-52785771D02*
X143442857Y-52738152D01*
X143442857Y-52738152D02*
X143395238Y-52642914D01*
X143395238Y-52642914D02*
X143395238Y-52595295D01*
X143395238Y-52595295D02*
X143442857Y-52500057D01*
X143442857Y-52500057D02*
X143490476Y-52452438D01*
X143490476Y-52452438D02*
X143585714Y-52404819D01*
X143585714Y-52404819D02*
X143776190Y-52404819D01*
X143776190Y-52404819D02*
X143871428Y-52452438D01*
X143871428Y-52452438D02*
X143919047Y-52500057D01*
X143919047Y-52500057D02*
X143966666Y-52595295D01*
X143966666Y-52595295D02*
X143966666Y-52642914D01*
X143966666Y-52642914D02*
X143919047Y-52738152D01*
X143919047Y-52738152D02*
X143871428Y-52785771D01*
X143871428Y-52785771D02*
X143776190Y-52833390D01*
X143776190Y-52833390D02*
X143585714Y-52833390D01*
X143585714Y-52833390D02*
X143490476Y-52881009D01*
X143490476Y-52881009D02*
X143442857Y-52928628D01*
X143442857Y-52928628D02*
X143395238Y-53023866D01*
X143395238Y-53023866D02*
X143395238Y-53214342D01*
X143395238Y-53214342D02*
X143442857Y-53309580D01*
X143442857Y-53309580D02*
X143490476Y-53357200D01*
X143490476Y-53357200D02*
X143585714Y-53404819D01*
X143585714Y-53404819D02*
X143776190Y-53404819D01*
X143776190Y-53404819D02*
X143871428Y-53357200D01*
X143871428Y-53357200D02*
X143919047Y-53309580D01*
X143919047Y-53309580D02*
X143966666Y-53214342D01*
X143966666Y-53214342D02*
X143966666Y-53023866D01*
X143966666Y-53023866D02*
X143919047Y-52928628D01*
X143919047Y-52928628D02*
X143871428Y-52881009D01*
X143871428Y-52881009D02*
X143776190Y-52833390D01*
X115057142Y-91254819D02*
X114723809Y-90778628D01*
X114485714Y-91254819D02*
X114485714Y-90254819D01*
X114485714Y-90254819D02*
X114866666Y-90254819D01*
X114866666Y-90254819D02*
X114961904Y-90302438D01*
X114961904Y-90302438D02*
X115009523Y-90350057D01*
X115009523Y-90350057D02*
X115057142Y-90445295D01*
X115057142Y-90445295D02*
X115057142Y-90588152D01*
X115057142Y-90588152D02*
X115009523Y-90683390D01*
X115009523Y-90683390D02*
X114961904Y-90731009D01*
X114961904Y-90731009D02*
X114866666Y-90778628D01*
X114866666Y-90778628D02*
X114485714Y-90778628D01*
X115438095Y-90350057D02*
X115485714Y-90302438D01*
X115485714Y-90302438D02*
X115580952Y-90254819D01*
X115580952Y-90254819D02*
X115819047Y-90254819D01*
X115819047Y-90254819D02*
X115914285Y-90302438D01*
X115914285Y-90302438D02*
X115961904Y-90350057D01*
X115961904Y-90350057D02*
X116009523Y-90445295D01*
X116009523Y-90445295D02*
X116009523Y-90540533D01*
X116009523Y-90540533D02*
X115961904Y-90683390D01*
X115961904Y-90683390D02*
X115390476Y-91254819D01*
X115390476Y-91254819D02*
X116009523Y-91254819D01*
X116390476Y-90350057D02*
X116438095Y-90302438D01*
X116438095Y-90302438D02*
X116533333Y-90254819D01*
X116533333Y-90254819D02*
X116771428Y-90254819D01*
X116771428Y-90254819D02*
X116866666Y-90302438D01*
X116866666Y-90302438D02*
X116914285Y-90350057D01*
X116914285Y-90350057D02*
X116961904Y-90445295D01*
X116961904Y-90445295D02*
X116961904Y-90540533D01*
X116961904Y-90540533D02*
X116914285Y-90683390D01*
X116914285Y-90683390D02*
X116342857Y-91254819D01*
X116342857Y-91254819D02*
X116961904Y-91254819D01*
X79633333Y-80959580D02*
X79585714Y-81007200D01*
X79585714Y-81007200D02*
X79442857Y-81054819D01*
X79442857Y-81054819D02*
X79347619Y-81054819D01*
X79347619Y-81054819D02*
X79204762Y-81007200D01*
X79204762Y-81007200D02*
X79109524Y-80911961D01*
X79109524Y-80911961D02*
X79061905Y-80816723D01*
X79061905Y-80816723D02*
X79014286Y-80626247D01*
X79014286Y-80626247D02*
X79014286Y-80483390D01*
X79014286Y-80483390D02*
X79061905Y-80292914D01*
X79061905Y-80292914D02*
X79109524Y-80197676D01*
X79109524Y-80197676D02*
X79204762Y-80102438D01*
X79204762Y-80102438D02*
X79347619Y-80054819D01*
X79347619Y-80054819D02*
X79442857Y-80054819D01*
X79442857Y-80054819D02*
X79585714Y-80102438D01*
X79585714Y-80102438D02*
X79633333Y-80150057D01*
X80490476Y-80388152D02*
X80490476Y-81054819D01*
X80252381Y-80007200D02*
X80014286Y-80721485D01*
X80014286Y-80721485D02*
X80633333Y-80721485D01*
X104854819Y-44679166D02*
X104378628Y-45012499D01*
X104854819Y-45250594D02*
X103854819Y-45250594D01*
X103854819Y-45250594D02*
X103854819Y-44869642D01*
X103854819Y-44869642D02*
X103902438Y-44774404D01*
X103902438Y-44774404D02*
X103950057Y-44726785D01*
X103950057Y-44726785D02*
X104045295Y-44679166D01*
X104045295Y-44679166D02*
X104188152Y-44679166D01*
X104188152Y-44679166D02*
X104283390Y-44726785D01*
X104283390Y-44726785D02*
X104331009Y-44774404D01*
X104331009Y-44774404D02*
X104378628Y-44869642D01*
X104378628Y-44869642D02*
X104378628Y-45250594D01*
X103854819Y-44345832D02*
X103854819Y-43726785D01*
X103854819Y-43726785D02*
X104235771Y-44060118D01*
X104235771Y-44060118D02*
X104235771Y-43917261D01*
X104235771Y-43917261D02*
X104283390Y-43822023D01*
X104283390Y-43822023D02*
X104331009Y-43774404D01*
X104331009Y-43774404D02*
X104426247Y-43726785D01*
X104426247Y-43726785D02*
X104664342Y-43726785D01*
X104664342Y-43726785D02*
X104759580Y-43774404D01*
X104759580Y-43774404D02*
X104807200Y-43822023D01*
X104807200Y-43822023D02*
X104854819Y-43917261D01*
X104854819Y-43917261D02*
X104854819Y-44202975D01*
X104854819Y-44202975D02*
X104807200Y-44298213D01*
X104807200Y-44298213D02*
X104759580Y-44345832D01*
X69891667Y-96782200D02*
X70034524Y-96829819D01*
X70034524Y-96829819D02*
X70272619Y-96829819D01*
X70272619Y-96829819D02*
X70367857Y-96782200D01*
X70367857Y-96782200D02*
X70415476Y-96734580D01*
X70415476Y-96734580D02*
X70463095Y-96639342D01*
X70463095Y-96639342D02*
X70463095Y-96544104D01*
X70463095Y-96544104D02*
X70415476Y-96448866D01*
X70415476Y-96448866D02*
X70367857Y-96401247D01*
X70367857Y-96401247D02*
X70272619Y-96353628D01*
X70272619Y-96353628D02*
X70082143Y-96306009D01*
X70082143Y-96306009D02*
X69986905Y-96258390D01*
X69986905Y-96258390D02*
X69939286Y-96210771D01*
X69939286Y-96210771D02*
X69891667Y-96115533D01*
X69891667Y-96115533D02*
X69891667Y-96020295D01*
X69891667Y-96020295D02*
X69939286Y-95925057D01*
X69939286Y-95925057D02*
X69986905Y-95877438D01*
X69986905Y-95877438D02*
X70082143Y-95829819D01*
X70082143Y-95829819D02*
X70320238Y-95829819D01*
X70320238Y-95829819D02*
X70463095Y-95877438D01*
X70796429Y-95829819D02*
X71034524Y-96829819D01*
X71034524Y-96829819D02*
X71225000Y-96115533D01*
X71225000Y-96115533D02*
X71415476Y-96829819D01*
X71415476Y-96829819D02*
X71653572Y-95829819D01*
X71986905Y-95925057D02*
X72034524Y-95877438D01*
X72034524Y-95877438D02*
X72129762Y-95829819D01*
X72129762Y-95829819D02*
X72367857Y-95829819D01*
X72367857Y-95829819D02*
X72463095Y-95877438D01*
X72463095Y-95877438D02*
X72510714Y-95925057D01*
X72510714Y-95925057D02*
X72558333Y-96020295D01*
X72558333Y-96020295D02*
X72558333Y-96115533D01*
X72558333Y-96115533D02*
X72510714Y-96258390D01*
X72510714Y-96258390D02*
X71939286Y-96829819D01*
X71939286Y-96829819D02*
X72558333Y-96829819D01*
X102854819Y-44579166D02*
X102378628Y-44912499D01*
X102854819Y-45150594D02*
X101854819Y-45150594D01*
X101854819Y-45150594D02*
X101854819Y-44769642D01*
X101854819Y-44769642D02*
X101902438Y-44674404D01*
X101902438Y-44674404D02*
X101950057Y-44626785D01*
X101950057Y-44626785D02*
X102045295Y-44579166D01*
X102045295Y-44579166D02*
X102188152Y-44579166D01*
X102188152Y-44579166D02*
X102283390Y-44626785D01*
X102283390Y-44626785D02*
X102331009Y-44674404D01*
X102331009Y-44674404D02*
X102378628Y-44769642D01*
X102378628Y-44769642D02*
X102378628Y-45150594D01*
X101950057Y-44198213D02*
X101902438Y-44150594D01*
X101902438Y-44150594D02*
X101854819Y-44055356D01*
X101854819Y-44055356D02*
X101854819Y-43817261D01*
X101854819Y-43817261D02*
X101902438Y-43722023D01*
X101902438Y-43722023D02*
X101950057Y-43674404D01*
X101950057Y-43674404D02*
X102045295Y-43626785D01*
X102045295Y-43626785D02*
X102140533Y-43626785D01*
X102140533Y-43626785D02*
X102283390Y-43674404D01*
X102283390Y-43674404D02*
X102854819Y-44245832D01*
X102854819Y-44245832D02*
X102854819Y-43626785D01*
X75541666Y-34754819D02*
X75541666Y-35469104D01*
X75541666Y-35469104D02*
X75494047Y-35611961D01*
X75494047Y-35611961D02*
X75398809Y-35707200D01*
X75398809Y-35707200D02*
X75255952Y-35754819D01*
X75255952Y-35754819D02*
X75160714Y-35754819D01*
X76446428Y-35088152D02*
X76446428Y-35754819D01*
X76208333Y-34707200D02*
X75970238Y-35421485D01*
X75970238Y-35421485D02*
X76589285Y-35421485D01*
X111407142Y-86659580D02*
X111359523Y-86707200D01*
X111359523Y-86707200D02*
X111216666Y-86754819D01*
X111216666Y-86754819D02*
X111121428Y-86754819D01*
X111121428Y-86754819D02*
X110978571Y-86707200D01*
X110978571Y-86707200D02*
X110883333Y-86611961D01*
X110883333Y-86611961D02*
X110835714Y-86516723D01*
X110835714Y-86516723D02*
X110788095Y-86326247D01*
X110788095Y-86326247D02*
X110788095Y-86183390D01*
X110788095Y-86183390D02*
X110835714Y-85992914D01*
X110835714Y-85992914D02*
X110883333Y-85897676D01*
X110883333Y-85897676D02*
X110978571Y-85802438D01*
X110978571Y-85802438D02*
X111121428Y-85754819D01*
X111121428Y-85754819D02*
X111216666Y-85754819D01*
X111216666Y-85754819D02*
X111359523Y-85802438D01*
X111359523Y-85802438D02*
X111407142Y-85850057D01*
X111788095Y-85850057D02*
X111835714Y-85802438D01*
X111835714Y-85802438D02*
X111930952Y-85754819D01*
X111930952Y-85754819D02*
X112169047Y-85754819D01*
X112169047Y-85754819D02*
X112264285Y-85802438D01*
X112264285Y-85802438D02*
X112311904Y-85850057D01*
X112311904Y-85850057D02*
X112359523Y-85945295D01*
X112359523Y-85945295D02*
X112359523Y-86040533D01*
X112359523Y-86040533D02*
X112311904Y-86183390D01*
X112311904Y-86183390D02*
X111740476Y-86754819D01*
X111740476Y-86754819D02*
X112359523Y-86754819D01*
X112930952Y-86183390D02*
X112835714Y-86135771D01*
X112835714Y-86135771D02*
X112788095Y-86088152D01*
X112788095Y-86088152D02*
X112740476Y-85992914D01*
X112740476Y-85992914D02*
X112740476Y-85945295D01*
X112740476Y-85945295D02*
X112788095Y-85850057D01*
X112788095Y-85850057D02*
X112835714Y-85802438D01*
X112835714Y-85802438D02*
X112930952Y-85754819D01*
X112930952Y-85754819D02*
X113121428Y-85754819D01*
X113121428Y-85754819D02*
X113216666Y-85802438D01*
X113216666Y-85802438D02*
X113264285Y-85850057D01*
X113264285Y-85850057D02*
X113311904Y-85945295D01*
X113311904Y-85945295D02*
X113311904Y-85992914D01*
X113311904Y-85992914D02*
X113264285Y-86088152D01*
X113264285Y-86088152D02*
X113216666Y-86135771D01*
X113216666Y-86135771D02*
X113121428Y-86183390D01*
X113121428Y-86183390D02*
X112930952Y-86183390D01*
X112930952Y-86183390D02*
X112835714Y-86231009D01*
X112835714Y-86231009D02*
X112788095Y-86278628D01*
X112788095Y-86278628D02*
X112740476Y-86373866D01*
X112740476Y-86373866D02*
X112740476Y-86564342D01*
X112740476Y-86564342D02*
X112788095Y-86659580D01*
X112788095Y-86659580D02*
X112835714Y-86707200D01*
X112835714Y-86707200D02*
X112930952Y-86754819D01*
X112930952Y-86754819D02*
X113121428Y-86754819D01*
X113121428Y-86754819D02*
X113216666Y-86707200D01*
X113216666Y-86707200D02*
X113264285Y-86659580D01*
X113264285Y-86659580D02*
X113311904Y-86564342D01*
X113311904Y-86564342D02*
X113311904Y-86373866D01*
X113311904Y-86373866D02*
X113264285Y-86278628D01*
X113264285Y-86278628D02*
X113216666Y-86231009D01*
X113216666Y-86231009D02*
X113121428Y-86183390D01*
X88361905Y-43129819D02*
X88361905Y-42129819D01*
X88361905Y-42129819D02*
X88600000Y-42129819D01*
X88600000Y-42129819D02*
X88742857Y-42177438D01*
X88742857Y-42177438D02*
X88838095Y-42272676D01*
X88838095Y-42272676D02*
X88885714Y-42367914D01*
X88885714Y-42367914D02*
X88933333Y-42558390D01*
X88933333Y-42558390D02*
X88933333Y-42701247D01*
X88933333Y-42701247D02*
X88885714Y-42891723D01*
X88885714Y-42891723D02*
X88838095Y-42986961D01*
X88838095Y-42986961D02*
X88742857Y-43082200D01*
X88742857Y-43082200D02*
X88600000Y-43129819D01*
X88600000Y-43129819D02*
X88361905Y-43129819D01*
X89314286Y-42225057D02*
X89361905Y-42177438D01*
X89361905Y-42177438D02*
X89457143Y-42129819D01*
X89457143Y-42129819D02*
X89695238Y-42129819D01*
X89695238Y-42129819D02*
X89790476Y-42177438D01*
X89790476Y-42177438D02*
X89838095Y-42225057D01*
X89838095Y-42225057D02*
X89885714Y-42320295D01*
X89885714Y-42320295D02*
X89885714Y-42415533D01*
X89885714Y-42415533D02*
X89838095Y-42558390D01*
X89838095Y-42558390D02*
X89266667Y-43129819D01*
X89266667Y-43129819D02*
X89885714Y-43129819D01*
X61816667Y-104982200D02*
X61959524Y-105029819D01*
X61959524Y-105029819D02*
X62197619Y-105029819D01*
X62197619Y-105029819D02*
X62292857Y-104982200D01*
X62292857Y-104982200D02*
X62340476Y-104934580D01*
X62340476Y-104934580D02*
X62388095Y-104839342D01*
X62388095Y-104839342D02*
X62388095Y-104744104D01*
X62388095Y-104744104D02*
X62340476Y-104648866D01*
X62340476Y-104648866D02*
X62292857Y-104601247D01*
X62292857Y-104601247D02*
X62197619Y-104553628D01*
X62197619Y-104553628D02*
X62007143Y-104506009D01*
X62007143Y-104506009D02*
X61911905Y-104458390D01*
X61911905Y-104458390D02*
X61864286Y-104410771D01*
X61864286Y-104410771D02*
X61816667Y-104315533D01*
X61816667Y-104315533D02*
X61816667Y-104220295D01*
X61816667Y-104220295D02*
X61864286Y-104125057D01*
X61864286Y-104125057D02*
X61911905Y-104077438D01*
X61911905Y-104077438D02*
X62007143Y-104029819D01*
X62007143Y-104029819D02*
X62245238Y-104029819D01*
X62245238Y-104029819D02*
X62388095Y-104077438D01*
X62721429Y-104029819D02*
X62959524Y-105029819D01*
X62959524Y-105029819D02*
X63150000Y-104315533D01*
X63150000Y-104315533D02*
X63340476Y-105029819D01*
X63340476Y-105029819D02*
X63578572Y-104029819D01*
X64435714Y-104029819D02*
X63959524Y-104029819D01*
X63959524Y-104029819D02*
X63911905Y-104506009D01*
X63911905Y-104506009D02*
X63959524Y-104458390D01*
X63959524Y-104458390D02*
X64054762Y-104410771D01*
X64054762Y-104410771D02*
X64292857Y-104410771D01*
X64292857Y-104410771D02*
X64388095Y-104458390D01*
X64388095Y-104458390D02*
X64435714Y-104506009D01*
X64435714Y-104506009D02*
X64483333Y-104601247D01*
X64483333Y-104601247D02*
X64483333Y-104839342D01*
X64483333Y-104839342D02*
X64435714Y-104934580D01*
X64435714Y-104934580D02*
X64388095Y-104982200D01*
X64388095Y-104982200D02*
X64292857Y-105029819D01*
X64292857Y-105029819D02*
X64054762Y-105029819D01*
X64054762Y-105029819D02*
X63959524Y-104982200D01*
X63959524Y-104982200D02*
X63911905Y-104934580D01*
X107913095Y-52604819D02*
X107913095Y-53414342D01*
X107913095Y-53414342D02*
X107960714Y-53509580D01*
X107960714Y-53509580D02*
X108008333Y-53557200D01*
X108008333Y-53557200D02*
X108103571Y-53604819D01*
X108103571Y-53604819D02*
X108294047Y-53604819D01*
X108294047Y-53604819D02*
X108389285Y-53557200D01*
X108389285Y-53557200D02*
X108436904Y-53509580D01*
X108436904Y-53509580D02*
X108484523Y-53414342D01*
X108484523Y-53414342D02*
X108484523Y-52604819D01*
X109436904Y-52604819D02*
X108960714Y-52604819D01*
X108960714Y-52604819D02*
X108913095Y-53081009D01*
X108913095Y-53081009D02*
X108960714Y-53033390D01*
X108960714Y-53033390D02*
X109055952Y-52985771D01*
X109055952Y-52985771D02*
X109294047Y-52985771D01*
X109294047Y-52985771D02*
X109389285Y-53033390D01*
X109389285Y-53033390D02*
X109436904Y-53081009D01*
X109436904Y-53081009D02*
X109484523Y-53176247D01*
X109484523Y-53176247D02*
X109484523Y-53414342D01*
X109484523Y-53414342D02*
X109436904Y-53509580D01*
X109436904Y-53509580D02*
X109389285Y-53557200D01*
X109389285Y-53557200D02*
X109294047Y-53604819D01*
X109294047Y-53604819D02*
X109055952Y-53604819D01*
X109055952Y-53604819D02*
X108960714Y-53557200D01*
X108960714Y-53557200D02*
X108913095Y-53509580D01*
X49141667Y-100982200D02*
X49284524Y-101029819D01*
X49284524Y-101029819D02*
X49522619Y-101029819D01*
X49522619Y-101029819D02*
X49617857Y-100982200D01*
X49617857Y-100982200D02*
X49665476Y-100934580D01*
X49665476Y-100934580D02*
X49713095Y-100839342D01*
X49713095Y-100839342D02*
X49713095Y-100744104D01*
X49713095Y-100744104D02*
X49665476Y-100648866D01*
X49665476Y-100648866D02*
X49617857Y-100601247D01*
X49617857Y-100601247D02*
X49522619Y-100553628D01*
X49522619Y-100553628D02*
X49332143Y-100506009D01*
X49332143Y-100506009D02*
X49236905Y-100458390D01*
X49236905Y-100458390D02*
X49189286Y-100410771D01*
X49189286Y-100410771D02*
X49141667Y-100315533D01*
X49141667Y-100315533D02*
X49141667Y-100220295D01*
X49141667Y-100220295D02*
X49189286Y-100125057D01*
X49189286Y-100125057D02*
X49236905Y-100077438D01*
X49236905Y-100077438D02*
X49332143Y-100029819D01*
X49332143Y-100029819D02*
X49570238Y-100029819D01*
X49570238Y-100029819D02*
X49713095Y-100077438D01*
X50046429Y-100029819D02*
X50284524Y-101029819D01*
X50284524Y-101029819D02*
X50475000Y-100315533D01*
X50475000Y-100315533D02*
X50665476Y-101029819D01*
X50665476Y-101029819D02*
X50903572Y-100029819D01*
X51713095Y-100363152D02*
X51713095Y-101029819D01*
X51475000Y-99982200D02*
X51236905Y-100696485D01*
X51236905Y-100696485D02*
X51855952Y-100696485D01*
X60107142Y-114179819D02*
X59773809Y-113703628D01*
X59535714Y-114179819D02*
X59535714Y-113179819D01*
X59535714Y-113179819D02*
X59916666Y-113179819D01*
X59916666Y-113179819D02*
X60011904Y-113227438D01*
X60011904Y-113227438D02*
X60059523Y-113275057D01*
X60059523Y-113275057D02*
X60107142Y-113370295D01*
X60107142Y-113370295D02*
X60107142Y-113513152D01*
X60107142Y-113513152D02*
X60059523Y-113608390D01*
X60059523Y-113608390D02*
X60011904Y-113656009D01*
X60011904Y-113656009D02*
X59916666Y-113703628D01*
X59916666Y-113703628D02*
X59535714Y-113703628D01*
X61059523Y-114179819D02*
X60488095Y-114179819D01*
X60773809Y-114179819D02*
X60773809Y-113179819D01*
X60773809Y-113179819D02*
X60678571Y-113322676D01*
X60678571Y-113322676D02*
X60583333Y-113417914D01*
X60583333Y-113417914D02*
X60488095Y-113465533D01*
X61964285Y-113179819D02*
X61488095Y-113179819D01*
X61488095Y-113179819D02*
X61440476Y-113656009D01*
X61440476Y-113656009D02*
X61488095Y-113608390D01*
X61488095Y-113608390D02*
X61583333Y-113560771D01*
X61583333Y-113560771D02*
X61821428Y-113560771D01*
X61821428Y-113560771D02*
X61916666Y-113608390D01*
X61916666Y-113608390D02*
X61964285Y-113656009D01*
X61964285Y-113656009D02*
X62011904Y-113751247D01*
X62011904Y-113751247D02*
X62011904Y-113989342D01*
X62011904Y-113989342D02*
X61964285Y-114084580D01*
X61964285Y-114084580D02*
X61916666Y-114132200D01*
X61916666Y-114132200D02*
X61821428Y-114179819D01*
X61821428Y-114179819D02*
X61583333Y-114179819D01*
X61583333Y-114179819D02*
X61488095Y-114132200D01*
X61488095Y-114132200D02*
X61440476Y-114084580D01*
X69779580Y-49992857D02*
X69827200Y-50040476D01*
X69827200Y-50040476D02*
X69874819Y-50183333D01*
X69874819Y-50183333D02*
X69874819Y-50278571D01*
X69874819Y-50278571D02*
X69827200Y-50421428D01*
X69827200Y-50421428D02*
X69731961Y-50516666D01*
X69731961Y-50516666D02*
X69636723Y-50564285D01*
X69636723Y-50564285D02*
X69446247Y-50611904D01*
X69446247Y-50611904D02*
X69303390Y-50611904D01*
X69303390Y-50611904D02*
X69112914Y-50564285D01*
X69112914Y-50564285D02*
X69017676Y-50516666D01*
X69017676Y-50516666D02*
X68922438Y-50421428D01*
X68922438Y-50421428D02*
X68874819Y-50278571D01*
X68874819Y-50278571D02*
X68874819Y-50183333D01*
X68874819Y-50183333D02*
X68922438Y-50040476D01*
X68922438Y-50040476D02*
X68970057Y-49992857D01*
X68970057Y-49611904D02*
X68922438Y-49564285D01*
X68922438Y-49564285D02*
X68874819Y-49469047D01*
X68874819Y-49469047D02*
X68874819Y-49230952D01*
X68874819Y-49230952D02*
X68922438Y-49135714D01*
X68922438Y-49135714D02*
X68970057Y-49088095D01*
X68970057Y-49088095D02*
X69065295Y-49040476D01*
X69065295Y-49040476D02*
X69160533Y-49040476D01*
X69160533Y-49040476D02*
X69303390Y-49088095D01*
X69303390Y-49088095D02*
X69874819Y-49659523D01*
X69874819Y-49659523D02*
X69874819Y-49040476D01*
X68874819Y-48421428D02*
X68874819Y-48326190D01*
X68874819Y-48326190D02*
X68922438Y-48230952D01*
X68922438Y-48230952D02*
X68970057Y-48183333D01*
X68970057Y-48183333D02*
X69065295Y-48135714D01*
X69065295Y-48135714D02*
X69255771Y-48088095D01*
X69255771Y-48088095D02*
X69493866Y-48088095D01*
X69493866Y-48088095D02*
X69684342Y-48135714D01*
X69684342Y-48135714D02*
X69779580Y-48183333D01*
X69779580Y-48183333D02*
X69827200Y-48230952D01*
X69827200Y-48230952D02*
X69874819Y-48326190D01*
X69874819Y-48326190D02*
X69874819Y-48421428D01*
X69874819Y-48421428D02*
X69827200Y-48516666D01*
X69827200Y-48516666D02*
X69779580Y-48564285D01*
X69779580Y-48564285D02*
X69684342Y-48611904D01*
X69684342Y-48611904D02*
X69493866Y-48659523D01*
X69493866Y-48659523D02*
X69255771Y-48659523D01*
X69255771Y-48659523D02*
X69065295Y-48611904D01*
X69065295Y-48611904D02*
X68970057Y-48564285D01*
X68970057Y-48564285D02*
X68922438Y-48516666D01*
X68922438Y-48516666D02*
X68874819Y-48421428D01*
X65007142Y-87309580D02*
X64959523Y-87357200D01*
X64959523Y-87357200D02*
X64816666Y-87404819D01*
X64816666Y-87404819D02*
X64721428Y-87404819D01*
X64721428Y-87404819D02*
X64578571Y-87357200D01*
X64578571Y-87357200D02*
X64483333Y-87261961D01*
X64483333Y-87261961D02*
X64435714Y-87166723D01*
X64435714Y-87166723D02*
X64388095Y-86976247D01*
X64388095Y-86976247D02*
X64388095Y-86833390D01*
X64388095Y-86833390D02*
X64435714Y-86642914D01*
X64435714Y-86642914D02*
X64483333Y-86547676D01*
X64483333Y-86547676D02*
X64578571Y-86452438D01*
X64578571Y-86452438D02*
X64721428Y-86404819D01*
X64721428Y-86404819D02*
X64816666Y-86404819D01*
X64816666Y-86404819D02*
X64959523Y-86452438D01*
X64959523Y-86452438D02*
X65007142Y-86500057D01*
X65388095Y-86500057D02*
X65435714Y-86452438D01*
X65435714Y-86452438D02*
X65530952Y-86404819D01*
X65530952Y-86404819D02*
X65769047Y-86404819D01*
X65769047Y-86404819D02*
X65864285Y-86452438D01*
X65864285Y-86452438D02*
X65911904Y-86500057D01*
X65911904Y-86500057D02*
X65959523Y-86595295D01*
X65959523Y-86595295D02*
X65959523Y-86690533D01*
X65959523Y-86690533D02*
X65911904Y-86833390D01*
X65911904Y-86833390D02*
X65340476Y-87404819D01*
X65340476Y-87404819D02*
X65959523Y-87404819D01*
X66911904Y-87404819D02*
X66340476Y-87404819D01*
X66626190Y-87404819D02*
X66626190Y-86404819D01*
X66626190Y-86404819D02*
X66530952Y-86547676D01*
X66530952Y-86547676D02*
X66435714Y-86642914D01*
X66435714Y-86642914D02*
X66340476Y-86690533D01*
X48044642Y-87154819D02*
X47711309Y-86678628D01*
X47473214Y-87154819D02*
X47473214Y-86154819D01*
X47473214Y-86154819D02*
X47854166Y-86154819D01*
X47854166Y-86154819D02*
X47949404Y-86202438D01*
X47949404Y-86202438D02*
X47997023Y-86250057D01*
X47997023Y-86250057D02*
X48044642Y-86345295D01*
X48044642Y-86345295D02*
X48044642Y-86488152D01*
X48044642Y-86488152D02*
X47997023Y-86583390D01*
X47997023Y-86583390D02*
X47949404Y-86631009D01*
X47949404Y-86631009D02*
X47854166Y-86678628D01*
X47854166Y-86678628D02*
X47473214Y-86678628D01*
X48997023Y-87154819D02*
X48425595Y-87154819D01*
X48711309Y-87154819D02*
X48711309Y-86154819D01*
X48711309Y-86154819D02*
X48616071Y-86297676D01*
X48616071Y-86297676D02*
X48520833Y-86392914D01*
X48520833Y-86392914D02*
X48425595Y-86440533D01*
X49330357Y-86154819D02*
X49949404Y-86154819D01*
X49949404Y-86154819D02*
X49616071Y-86535771D01*
X49616071Y-86535771D02*
X49758928Y-86535771D01*
X49758928Y-86535771D02*
X49854166Y-86583390D01*
X49854166Y-86583390D02*
X49901785Y-86631009D01*
X49901785Y-86631009D02*
X49949404Y-86726247D01*
X49949404Y-86726247D02*
X49949404Y-86964342D01*
X49949404Y-86964342D02*
X49901785Y-87059580D01*
X49901785Y-87059580D02*
X49854166Y-87107200D01*
X49854166Y-87107200D02*
X49758928Y-87154819D01*
X49758928Y-87154819D02*
X49473214Y-87154819D01*
X49473214Y-87154819D02*
X49377976Y-87107200D01*
X49377976Y-87107200D02*
X49330357Y-87059580D01*
X58858333Y-63029819D02*
X58525000Y-62553628D01*
X58286905Y-63029819D02*
X58286905Y-62029819D01*
X58286905Y-62029819D02*
X58667857Y-62029819D01*
X58667857Y-62029819D02*
X58763095Y-62077438D01*
X58763095Y-62077438D02*
X58810714Y-62125057D01*
X58810714Y-62125057D02*
X58858333Y-62220295D01*
X58858333Y-62220295D02*
X58858333Y-62363152D01*
X58858333Y-62363152D02*
X58810714Y-62458390D01*
X58810714Y-62458390D02*
X58763095Y-62506009D01*
X58763095Y-62506009D02*
X58667857Y-62553628D01*
X58667857Y-62553628D02*
X58286905Y-62553628D01*
X59763095Y-62029819D02*
X59286905Y-62029819D01*
X59286905Y-62029819D02*
X59239286Y-62506009D01*
X59239286Y-62506009D02*
X59286905Y-62458390D01*
X59286905Y-62458390D02*
X59382143Y-62410771D01*
X59382143Y-62410771D02*
X59620238Y-62410771D01*
X59620238Y-62410771D02*
X59715476Y-62458390D01*
X59715476Y-62458390D02*
X59763095Y-62506009D01*
X59763095Y-62506009D02*
X59810714Y-62601247D01*
X59810714Y-62601247D02*
X59810714Y-62839342D01*
X59810714Y-62839342D02*
X59763095Y-62934580D01*
X59763095Y-62934580D02*
X59715476Y-62982200D01*
X59715476Y-62982200D02*
X59620238Y-63029819D01*
X59620238Y-63029819D02*
X59382143Y-63029819D01*
X59382143Y-63029819D02*
X59286905Y-62982200D01*
X59286905Y-62982200D02*
X59239286Y-62934580D01*
X101283333Y-35309580D02*
X101235714Y-35357200D01*
X101235714Y-35357200D02*
X101092857Y-35404819D01*
X101092857Y-35404819D02*
X100997619Y-35404819D01*
X100997619Y-35404819D02*
X100854762Y-35357200D01*
X100854762Y-35357200D02*
X100759524Y-35261961D01*
X100759524Y-35261961D02*
X100711905Y-35166723D01*
X100711905Y-35166723D02*
X100664286Y-34976247D01*
X100664286Y-34976247D02*
X100664286Y-34833390D01*
X100664286Y-34833390D02*
X100711905Y-34642914D01*
X100711905Y-34642914D02*
X100759524Y-34547676D01*
X100759524Y-34547676D02*
X100854762Y-34452438D01*
X100854762Y-34452438D02*
X100997619Y-34404819D01*
X100997619Y-34404819D02*
X101092857Y-34404819D01*
X101092857Y-34404819D02*
X101235714Y-34452438D01*
X101235714Y-34452438D02*
X101283333Y-34500057D01*
X101616667Y-34404819D02*
X102235714Y-34404819D01*
X102235714Y-34404819D02*
X101902381Y-34785771D01*
X101902381Y-34785771D02*
X102045238Y-34785771D01*
X102045238Y-34785771D02*
X102140476Y-34833390D01*
X102140476Y-34833390D02*
X102188095Y-34881009D01*
X102188095Y-34881009D02*
X102235714Y-34976247D01*
X102235714Y-34976247D02*
X102235714Y-35214342D01*
X102235714Y-35214342D02*
X102188095Y-35309580D01*
X102188095Y-35309580D02*
X102140476Y-35357200D01*
X102140476Y-35357200D02*
X102045238Y-35404819D01*
X102045238Y-35404819D02*
X101759524Y-35404819D01*
X101759524Y-35404819D02*
X101664286Y-35357200D01*
X101664286Y-35357200D02*
X101616667Y-35309580D01*
X108873333Y-45119580D02*
X108825714Y-45167200D01*
X108825714Y-45167200D02*
X108682857Y-45214819D01*
X108682857Y-45214819D02*
X108587619Y-45214819D01*
X108587619Y-45214819D02*
X108444762Y-45167200D01*
X108444762Y-45167200D02*
X108349524Y-45071961D01*
X108349524Y-45071961D02*
X108301905Y-44976723D01*
X108301905Y-44976723D02*
X108254286Y-44786247D01*
X108254286Y-44786247D02*
X108254286Y-44643390D01*
X108254286Y-44643390D02*
X108301905Y-44452914D01*
X108301905Y-44452914D02*
X108349524Y-44357676D01*
X108349524Y-44357676D02*
X108444762Y-44262438D01*
X108444762Y-44262438D02*
X108587619Y-44214819D01*
X108587619Y-44214819D02*
X108682857Y-44214819D01*
X108682857Y-44214819D02*
X108825714Y-44262438D01*
X108825714Y-44262438D02*
X108873333Y-44310057D01*
X109254286Y-44310057D02*
X109301905Y-44262438D01*
X109301905Y-44262438D02*
X109397143Y-44214819D01*
X109397143Y-44214819D02*
X109635238Y-44214819D01*
X109635238Y-44214819D02*
X109730476Y-44262438D01*
X109730476Y-44262438D02*
X109778095Y-44310057D01*
X109778095Y-44310057D02*
X109825714Y-44405295D01*
X109825714Y-44405295D02*
X109825714Y-44500533D01*
X109825714Y-44500533D02*
X109778095Y-44643390D01*
X109778095Y-44643390D02*
X109206667Y-45214819D01*
X109206667Y-45214819D02*
X109825714Y-45214819D01*
X41566666Y-42454819D02*
X41566666Y-43169104D01*
X41566666Y-43169104D02*
X41519047Y-43311961D01*
X41519047Y-43311961D02*
X41423809Y-43407200D01*
X41423809Y-43407200D02*
X41280952Y-43454819D01*
X41280952Y-43454819D02*
X41185714Y-43454819D01*
X42519047Y-42454819D02*
X42042857Y-42454819D01*
X42042857Y-42454819D02*
X41995238Y-42931009D01*
X41995238Y-42931009D02*
X42042857Y-42883390D01*
X42042857Y-42883390D02*
X42138095Y-42835771D01*
X42138095Y-42835771D02*
X42376190Y-42835771D01*
X42376190Y-42835771D02*
X42471428Y-42883390D01*
X42471428Y-42883390D02*
X42519047Y-42931009D01*
X42519047Y-42931009D02*
X42566666Y-43026247D01*
X42566666Y-43026247D02*
X42566666Y-43264342D01*
X42566666Y-43264342D02*
X42519047Y-43359580D01*
X42519047Y-43359580D02*
X42471428Y-43407200D01*
X42471428Y-43407200D02*
X42376190Y-43454819D01*
X42376190Y-43454819D02*
X42138095Y-43454819D01*
X42138095Y-43454819D02*
X42042857Y-43407200D01*
X42042857Y-43407200D02*
X41995238Y-43359580D01*
X128336905Y-39779819D02*
X128336905Y-38779819D01*
X128336905Y-38779819D02*
X128575000Y-38779819D01*
X128575000Y-38779819D02*
X128717857Y-38827438D01*
X128717857Y-38827438D02*
X128813095Y-38922676D01*
X128813095Y-38922676D02*
X128860714Y-39017914D01*
X128860714Y-39017914D02*
X128908333Y-39208390D01*
X128908333Y-39208390D02*
X128908333Y-39351247D01*
X128908333Y-39351247D02*
X128860714Y-39541723D01*
X128860714Y-39541723D02*
X128813095Y-39636961D01*
X128813095Y-39636961D02*
X128717857Y-39732200D01*
X128717857Y-39732200D02*
X128575000Y-39779819D01*
X128575000Y-39779819D02*
X128336905Y-39779819D01*
X129241667Y-38779819D02*
X129908333Y-38779819D01*
X129908333Y-38779819D02*
X129479762Y-39779819D01*
X98408333Y-46909580D02*
X98360714Y-46957200D01*
X98360714Y-46957200D02*
X98217857Y-47004819D01*
X98217857Y-47004819D02*
X98122619Y-47004819D01*
X98122619Y-47004819D02*
X97979762Y-46957200D01*
X97979762Y-46957200D02*
X97884524Y-46861961D01*
X97884524Y-46861961D02*
X97836905Y-46766723D01*
X97836905Y-46766723D02*
X97789286Y-46576247D01*
X97789286Y-46576247D02*
X97789286Y-46433390D01*
X97789286Y-46433390D02*
X97836905Y-46242914D01*
X97836905Y-46242914D02*
X97884524Y-46147676D01*
X97884524Y-46147676D02*
X97979762Y-46052438D01*
X97979762Y-46052438D02*
X98122619Y-46004819D01*
X98122619Y-46004819D02*
X98217857Y-46004819D01*
X98217857Y-46004819D02*
X98360714Y-46052438D01*
X98360714Y-46052438D02*
X98408333Y-46100057D01*
X99313095Y-46004819D02*
X98836905Y-46004819D01*
X98836905Y-46004819D02*
X98789286Y-46481009D01*
X98789286Y-46481009D02*
X98836905Y-46433390D01*
X98836905Y-46433390D02*
X98932143Y-46385771D01*
X98932143Y-46385771D02*
X99170238Y-46385771D01*
X99170238Y-46385771D02*
X99265476Y-46433390D01*
X99265476Y-46433390D02*
X99313095Y-46481009D01*
X99313095Y-46481009D02*
X99360714Y-46576247D01*
X99360714Y-46576247D02*
X99360714Y-46814342D01*
X99360714Y-46814342D02*
X99313095Y-46909580D01*
X99313095Y-46909580D02*
X99265476Y-46957200D01*
X99265476Y-46957200D02*
X99170238Y-47004819D01*
X99170238Y-47004819D02*
X98932143Y-47004819D01*
X98932143Y-47004819D02*
X98836905Y-46957200D01*
X98836905Y-46957200D02*
X98789286Y-46909580D01*
X88763095Y-54979819D02*
X88763095Y-55789342D01*
X88763095Y-55789342D02*
X88810714Y-55884580D01*
X88810714Y-55884580D02*
X88858333Y-55932200D01*
X88858333Y-55932200D02*
X88953571Y-55979819D01*
X88953571Y-55979819D02*
X89144047Y-55979819D01*
X89144047Y-55979819D02*
X89239285Y-55932200D01*
X89239285Y-55932200D02*
X89286904Y-55884580D01*
X89286904Y-55884580D02*
X89334523Y-55789342D01*
X89334523Y-55789342D02*
X89334523Y-54979819D01*
X90334523Y-55979819D02*
X89763095Y-55979819D01*
X90048809Y-55979819D02*
X90048809Y-54979819D01*
X90048809Y-54979819D02*
X89953571Y-55122676D01*
X89953571Y-55122676D02*
X89858333Y-55217914D01*
X89858333Y-55217914D02*
X89763095Y-55265533D01*
X76329166Y-37631009D02*
X75995833Y-37631009D01*
X75995833Y-38154819D02*
X75995833Y-37154819D01*
X75995833Y-37154819D02*
X76472023Y-37154819D01*
X77376785Y-38154819D02*
X76805357Y-38154819D01*
X77091071Y-38154819D02*
X77091071Y-37154819D01*
X77091071Y-37154819D02*
X76995833Y-37297676D01*
X76995833Y-37297676D02*
X76900595Y-37392914D01*
X76900595Y-37392914D02*
X76805357Y-37440533D01*
X74261905Y-42154819D02*
X74261905Y-41154819D01*
X74261905Y-41154819D02*
X74500000Y-41154819D01*
X74500000Y-41154819D02*
X74642857Y-41202438D01*
X74642857Y-41202438D02*
X74738095Y-41297676D01*
X74738095Y-41297676D02*
X74785714Y-41392914D01*
X74785714Y-41392914D02*
X74833333Y-41583390D01*
X74833333Y-41583390D02*
X74833333Y-41726247D01*
X74833333Y-41726247D02*
X74785714Y-41916723D01*
X74785714Y-41916723D02*
X74738095Y-42011961D01*
X74738095Y-42011961D02*
X74642857Y-42107200D01*
X74642857Y-42107200D02*
X74500000Y-42154819D01*
X74500000Y-42154819D02*
X74261905Y-42154819D01*
X75738095Y-41154819D02*
X75261905Y-41154819D01*
X75261905Y-41154819D02*
X75214286Y-41631009D01*
X75214286Y-41631009D02*
X75261905Y-41583390D01*
X75261905Y-41583390D02*
X75357143Y-41535771D01*
X75357143Y-41535771D02*
X75595238Y-41535771D01*
X75595238Y-41535771D02*
X75690476Y-41583390D01*
X75690476Y-41583390D02*
X75738095Y-41631009D01*
X75738095Y-41631009D02*
X75785714Y-41726247D01*
X75785714Y-41726247D02*
X75785714Y-41964342D01*
X75785714Y-41964342D02*
X75738095Y-42059580D01*
X75738095Y-42059580D02*
X75690476Y-42107200D01*
X75690476Y-42107200D02*
X75595238Y-42154819D01*
X75595238Y-42154819D02*
X75357143Y-42154819D01*
X75357143Y-42154819D02*
X75261905Y-42107200D01*
X75261905Y-42107200D02*
X75214286Y-42059580D01*
X120957142Y-49967319D02*
X120623809Y-49491128D01*
X120385714Y-49967319D02*
X120385714Y-48967319D01*
X120385714Y-48967319D02*
X120766666Y-48967319D01*
X120766666Y-48967319D02*
X120861904Y-49014938D01*
X120861904Y-49014938D02*
X120909523Y-49062557D01*
X120909523Y-49062557D02*
X120957142Y-49157795D01*
X120957142Y-49157795D02*
X120957142Y-49300652D01*
X120957142Y-49300652D02*
X120909523Y-49395890D01*
X120909523Y-49395890D02*
X120861904Y-49443509D01*
X120861904Y-49443509D02*
X120766666Y-49491128D01*
X120766666Y-49491128D02*
X120385714Y-49491128D01*
X121909523Y-49967319D02*
X121338095Y-49967319D01*
X121623809Y-49967319D02*
X121623809Y-48967319D01*
X121623809Y-48967319D02*
X121528571Y-49110176D01*
X121528571Y-49110176D02*
X121433333Y-49205414D01*
X121433333Y-49205414D02*
X121338095Y-49253033D01*
X122242857Y-48967319D02*
X122909523Y-48967319D01*
X122909523Y-48967319D02*
X122480952Y-49967319D01*
X117566666Y-52404819D02*
X117566666Y-53119104D01*
X117566666Y-53119104D02*
X117519047Y-53261961D01*
X117519047Y-53261961D02*
X117423809Y-53357200D01*
X117423809Y-53357200D02*
X117280952Y-53404819D01*
X117280952Y-53404819D02*
X117185714Y-53404819D01*
X117947619Y-52404819D02*
X118614285Y-52404819D01*
X118614285Y-52404819D02*
X118185714Y-53404819D01*
X86579819Y-35566666D02*
X86103628Y-35899999D01*
X86579819Y-36138094D02*
X85579819Y-36138094D01*
X85579819Y-36138094D02*
X85579819Y-35757142D01*
X85579819Y-35757142D02*
X85627438Y-35661904D01*
X85627438Y-35661904D02*
X85675057Y-35614285D01*
X85675057Y-35614285D02*
X85770295Y-35566666D01*
X85770295Y-35566666D02*
X85913152Y-35566666D01*
X85913152Y-35566666D02*
X86008390Y-35614285D01*
X86008390Y-35614285D02*
X86056009Y-35661904D01*
X86056009Y-35661904D02*
X86103628Y-35757142D01*
X86103628Y-35757142D02*
X86103628Y-36138094D01*
X85913152Y-34709523D02*
X86579819Y-34709523D01*
X85532200Y-34947618D02*
X86246485Y-35185713D01*
X86246485Y-35185713D02*
X86246485Y-34566666D01*
X69257142Y-87454819D02*
X68923809Y-86978628D01*
X68685714Y-87454819D02*
X68685714Y-86454819D01*
X68685714Y-86454819D02*
X69066666Y-86454819D01*
X69066666Y-86454819D02*
X69161904Y-86502438D01*
X69161904Y-86502438D02*
X69209523Y-86550057D01*
X69209523Y-86550057D02*
X69257142Y-86645295D01*
X69257142Y-86645295D02*
X69257142Y-86788152D01*
X69257142Y-86788152D02*
X69209523Y-86883390D01*
X69209523Y-86883390D02*
X69161904Y-86931009D01*
X69161904Y-86931009D02*
X69066666Y-86978628D01*
X69066666Y-86978628D02*
X68685714Y-86978628D01*
X70209523Y-87454819D02*
X69638095Y-87454819D01*
X69923809Y-87454819D02*
X69923809Y-86454819D01*
X69923809Y-86454819D02*
X69828571Y-86597676D01*
X69828571Y-86597676D02*
X69733333Y-86692914D01*
X69733333Y-86692914D02*
X69638095Y-86740533D01*
X70828571Y-86454819D02*
X70923809Y-86454819D01*
X70923809Y-86454819D02*
X71019047Y-86502438D01*
X71019047Y-86502438D02*
X71066666Y-86550057D01*
X71066666Y-86550057D02*
X71114285Y-86645295D01*
X71114285Y-86645295D02*
X71161904Y-86835771D01*
X71161904Y-86835771D02*
X71161904Y-87073866D01*
X71161904Y-87073866D02*
X71114285Y-87264342D01*
X71114285Y-87264342D02*
X71066666Y-87359580D01*
X71066666Y-87359580D02*
X71019047Y-87407200D01*
X71019047Y-87407200D02*
X70923809Y-87454819D01*
X70923809Y-87454819D02*
X70828571Y-87454819D01*
X70828571Y-87454819D02*
X70733333Y-87407200D01*
X70733333Y-87407200D02*
X70685714Y-87359580D01*
X70685714Y-87359580D02*
X70638095Y-87264342D01*
X70638095Y-87264342D02*
X70590476Y-87073866D01*
X70590476Y-87073866D02*
X70590476Y-86835771D01*
X70590476Y-86835771D02*
X70638095Y-86645295D01*
X70638095Y-86645295D02*
X70685714Y-86550057D01*
X70685714Y-86550057D02*
X70733333Y-86502438D01*
X70733333Y-86502438D02*
X70828571Y-86454819D01*
X86657142Y-75759580D02*
X86609523Y-75807200D01*
X86609523Y-75807200D02*
X86466666Y-75854819D01*
X86466666Y-75854819D02*
X86371428Y-75854819D01*
X86371428Y-75854819D02*
X86228571Y-75807200D01*
X86228571Y-75807200D02*
X86133333Y-75711961D01*
X86133333Y-75711961D02*
X86085714Y-75616723D01*
X86085714Y-75616723D02*
X86038095Y-75426247D01*
X86038095Y-75426247D02*
X86038095Y-75283390D01*
X86038095Y-75283390D02*
X86085714Y-75092914D01*
X86085714Y-75092914D02*
X86133333Y-74997676D01*
X86133333Y-74997676D02*
X86228571Y-74902438D01*
X86228571Y-74902438D02*
X86371428Y-74854819D01*
X86371428Y-74854819D02*
X86466666Y-74854819D01*
X86466666Y-74854819D02*
X86609523Y-74902438D01*
X86609523Y-74902438D02*
X86657142Y-74950057D01*
X87609523Y-75854819D02*
X87038095Y-75854819D01*
X87323809Y-75854819D02*
X87323809Y-74854819D01*
X87323809Y-74854819D02*
X87228571Y-74997676D01*
X87228571Y-74997676D02*
X87133333Y-75092914D01*
X87133333Y-75092914D02*
X87038095Y-75140533D01*
X88466666Y-74854819D02*
X88276190Y-74854819D01*
X88276190Y-74854819D02*
X88180952Y-74902438D01*
X88180952Y-74902438D02*
X88133333Y-74950057D01*
X88133333Y-74950057D02*
X88038095Y-75092914D01*
X88038095Y-75092914D02*
X87990476Y-75283390D01*
X87990476Y-75283390D02*
X87990476Y-75664342D01*
X87990476Y-75664342D02*
X88038095Y-75759580D01*
X88038095Y-75759580D02*
X88085714Y-75807200D01*
X88085714Y-75807200D02*
X88180952Y-75854819D01*
X88180952Y-75854819D02*
X88371428Y-75854819D01*
X88371428Y-75854819D02*
X88466666Y-75807200D01*
X88466666Y-75807200D02*
X88514285Y-75759580D01*
X88514285Y-75759580D02*
X88561904Y-75664342D01*
X88561904Y-75664342D02*
X88561904Y-75426247D01*
X88561904Y-75426247D02*
X88514285Y-75331009D01*
X88514285Y-75331009D02*
X88466666Y-75283390D01*
X88466666Y-75283390D02*
X88371428Y-75235771D01*
X88371428Y-75235771D02*
X88180952Y-75235771D01*
X88180952Y-75235771D02*
X88085714Y-75283390D01*
X88085714Y-75283390D02*
X88038095Y-75331009D01*
X88038095Y-75331009D02*
X87990476Y-75426247D01*
X66482142Y-109334580D02*
X66434523Y-109382200D01*
X66434523Y-109382200D02*
X66291666Y-109429819D01*
X66291666Y-109429819D02*
X66196428Y-109429819D01*
X66196428Y-109429819D02*
X66053571Y-109382200D01*
X66053571Y-109382200D02*
X65958333Y-109286961D01*
X65958333Y-109286961D02*
X65910714Y-109191723D01*
X65910714Y-109191723D02*
X65863095Y-109001247D01*
X65863095Y-109001247D02*
X65863095Y-108858390D01*
X65863095Y-108858390D02*
X65910714Y-108667914D01*
X65910714Y-108667914D02*
X65958333Y-108572676D01*
X65958333Y-108572676D02*
X66053571Y-108477438D01*
X66053571Y-108477438D02*
X66196428Y-108429819D01*
X66196428Y-108429819D02*
X66291666Y-108429819D01*
X66291666Y-108429819D02*
X66434523Y-108477438D01*
X66434523Y-108477438D02*
X66482142Y-108525057D01*
X66863095Y-108525057D02*
X66910714Y-108477438D01*
X66910714Y-108477438D02*
X67005952Y-108429819D01*
X67005952Y-108429819D02*
X67244047Y-108429819D01*
X67244047Y-108429819D02*
X67339285Y-108477438D01*
X67339285Y-108477438D02*
X67386904Y-108525057D01*
X67386904Y-108525057D02*
X67434523Y-108620295D01*
X67434523Y-108620295D02*
X67434523Y-108715533D01*
X67434523Y-108715533D02*
X67386904Y-108858390D01*
X67386904Y-108858390D02*
X66815476Y-109429819D01*
X66815476Y-109429819D02*
X67434523Y-109429819D01*
X68291666Y-108763152D02*
X68291666Y-109429819D01*
X68053571Y-108382200D02*
X67815476Y-109096485D01*
X67815476Y-109096485D02*
X68434523Y-109096485D01*
X72991667Y-70682200D02*
X73134524Y-70729819D01*
X73134524Y-70729819D02*
X73372619Y-70729819D01*
X73372619Y-70729819D02*
X73467857Y-70682200D01*
X73467857Y-70682200D02*
X73515476Y-70634580D01*
X73515476Y-70634580D02*
X73563095Y-70539342D01*
X73563095Y-70539342D02*
X73563095Y-70444104D01*
X73563095Y-70444104D02*
X73515476Y-70348866D01*
X73515476Y-70348866D02*
X73467857Y-70301247D01*
X73467857Y-70301247D02*
X73372619Y-70253628D01*
X73372619Y-70253628D02*
X73182143Y-70206009D01*
X73182143Y-70206009D02*
X73086905Y-70158390D01*
X73086905Y-70158390D02*
X73039286Y-70110771D01*
X73039286Y-70110771D02*
X72991667Y-70015533D01*
X72991667Y-70015533D02*
X72991667Y-69920295D01*
X72991667Y-69920295D02*
X73039286Y-69825057D01*
X73039286Y-69825057D02*
X73086905Y-69777438D01*
X73086905Y-69777438D02*
X73182143Y-69729819D01*
X73182143Y-69729819D02*
X73420238Y-69729819D01*
X73420238Y-69729819D02*
X73563095Y-69777438D01*
X73896429Y-69729819D02*
X74134524Y-70729819D01*
X74134524Y-70729819D02*
X74325000Y-70015533D01*
X74325000Y-70015533D02*
X74515476Y-70729819D01*
X74515476Y-70729819D02*
X74753572Y-69729819D01*
X75658333Y-70729819D02*
X75086905Y-70729819D01*
X75372619Y-70729819D02*
X75372619Y-69729819D01*
X75372619Y-69729819D02*
X75277381Y-69872676D01*
X75277381Y-69872676D02*
X75182143Y-69967914D01*
X75182143Y-69967914D02*
X75086905Y-70015533D01*
X93286905Y-43004819D02*
X93286905Y-42004819D01*
X93286905Y-42004819D02*
X93525000Y-42004819D01*
X93525000Y-42004819D02*
X93667857Y-42052438D01*
X93667857Y-42052438D02*
X93763095Y-42147676D01*
X93763095Y-42147676D02*
X93810714Y-42242914D01*
X93810714Y-42242914D02*
X93858333Y-42433390D01*
X93858333Y-42433390D02*
X93858333Y-42576247D01*
X93858333Y-42576247D02*
X93810714Y-42766723D01*
X93810714Y-42766723D02*
X93763095Y-42861961D01*
X93763095Y-42861961D02*
X93667857Y-42957200D01*
X93667857Y-42957200D02*
X93525000Y-43004819D01*
X93525000Y-43004819D02*
X93286905Y-43004819D01*
X94810714Y-43004819D02*
X94239286Y-43004819D01*
X94525000Y-43004819D02*
X94525000Y-42004819D01*
X94525000Y-42004819D02*
X94429762Y-42147676D01*
X94429762Y-42147676D02*
X94334524Y-42242914D01*
X94334524Y-42242914D02*
X94239286Y-42290533D01*
X80158333Y-67959580D02*
X80110714Y-68007200D01*
X80110714Y-68007200D02*
X79967857Y-68054819D01*
X79967857Y-68054819D02*
X79872619Y-68054819D01*
X79872619Y-68054819D02*
X79729762Y-68007200D01*
X79729762Y-68007200D02*
X79634524Y-67911961D01*
X79634524Y-67911961D02*
X79586905Y-67816723D01*
X79586905Y-67816723D02*
X79539286Y-67626247D01*
X79539286Y-67626247D02*
X79539286Y-67483390D01*
X79539286Y-67483390D02*
X79586905Y-67292914D01*
X79586905Y-67292914D02*
X79634524Y-67197676D01*
X79634524Y-67197676D02*
X79729762Y-67102438D01*
X79729762Y-67102438D02*
X79872619Y-67054819D01*
X79872619Y-67054819D02*
X79967857Y-67054819D01*
X79967857Y-67054819D02*
X80110714Y-67102438D01*
X80110714Y-67102438D02*
X80158333Y-67150057D01*
X80491667Y-67054819D02*
X81158333Y-67054819D01*
X81158333Y-67054819D02*
X80729762Y-68054819D01*
X98382142Y-67759580D02*
X98334523Y-67807200D01*
X98334523Y-67807200D02*
X98191666Y-67854819D01*
X98191666Y-67854819D02*
X98096428Y-67854819D01*
X98096428Y-67854819D02*
X97953571Y-67807200D01*
X97953571Y-67807200D02*
X97858333Y-67711961D01*
X97858333Y-67711961D02*
X97810714Y-67616723D01*
X97810714Y-67616723D02*
X97763095Y-67426247D01*
X97763095Y-67426247D02*
X97763095Y-67283390D01*
X97763095Y-67283390D02*
X97810714Y-67092914D01*
X97810714Y-67092914D02*
X97858333Y-66997676D01*
X97858333Y-66997676D02*
X97953571Y-66902438D01*
X97953571Y-66902438D02*
X98096428Y-66854819D01*
X98096428Y-66854819D02*
X98191666Y-66854819D01*
X98191666Y-66854819D02*
X98334523Y-66902438D01*
X98334523Y-66902438D02*
X98382142Y-66950057D01*
X99334523Y-67854819D02*
X98763095Y-67854819D01*
X99048809Y-67854819D02*
X99048809Y-66854819D01*
X99048809Y-66854819D02*
X98953571Y-66997676D01*
X98953571Y-66997676D02*
X98858333Y-67092914D01*
X98858333Y-67092914D02*
X98763095Y-67140533D01*
X99953571Y-66854819D02*
X100048809Y-66854819D01*
X100048809Y-66854819D02*
X100144047Y-66902438D01*
X100144047Y-66902438D02*
X100191666Y-66950057D01*
X100191666Y-66950057D02*
X100239285Y-67045295D01*
X100239285Y-67045295D02*
X100286904Y-67235771D01*
X100286904Y-67235771D02*
X100286904Y-67473866D01*
X100286904Y-67473866D02*
X100239285Y-67664342D01*
X100239285Y-67664342D02*
X100191666Y-67759580D01*
X100191666Y-67759580D02*
X100144047Y-67807200D01*
X100144047Y-67807200D02*
X100048809Y-67854819D01*
X100048809Y-67854819D02*
X99953571Y-67854819D01*
X99953571Y-67854819D02*
X99858333Y-67807200D01*
X99858333Y-67807200D02*
X99810714Y-67759580D01*
X99810714Y-67759580D02*
X99763095Y-67664342D01*
X99763095Y-67664342D02*
X99715476Y-67473866D01*
X99715476Y-67473866D02*
X99715476Y-67235771D01*
X99715476Y-67235771D02*
X99763095Y-67045295D01*
X99763095Y-67045295D02*
X99810714Y-66950057D01*
X99810714Y-66950057D02*
X99858333Y-66902438D01*
X99858333Y-66902438D02*
X99953571Y-66854819D01*
X82357142Y-43404819D02*
X82023809Y-42928628D01*
X81785714Y-43404819D02*
X81785714Y-42404819D01*
X81785714Y-42404819D02*
X82166666Y-42404819D01*
X82166666Y-42404819D02*
X82261904Y-42452438D01*
X82261904Y-42452438D02*
X82309523Y-42500057D01*
X82309523Y-42500057D02*
X82357142Y-42595295D01*
X82357142Y-42595295D02*
X82357142Y-42738152D01*
X82357142Y-42738152D02*
X82309523Y-42833390D01*
X82309523Y-42833390D02*
X82261904Y-42881009D01*
X82261904Y-42881009D02*
X82166666Y-42928628D01*
X82166666Y-42928628D02*
X81785714Y-42928628D01*
X83309523Y-43404819D02*
X82738095Y-43404819D01*
X83023809Y-43404819D02*
X83023809Y-42404819D01*
X83023809Y-42404819D02*
X82928571Y-42547676D01*
X82928571Y-42547676D02*
X82833333Y-42642914D01*
X82833333Y-42642914D02*
X82738095Y-42690533D01*
X83690476Y-42500057D02*
X83738095Y-42452438D01*
X83738095Y-42452438D02*
X83833333Y-42404819D01*
X83833333Y-42404819D02*
X84071428Y-42404819D01*
X84071428Y-42404819D02*
X84166666Y-42452438D01*
X84166666Y-42452438D02*
X84214285Y-42500057D01*
X84214285Y-42500057D02*
X84261904Y-42595295D01*
X84261904Y-42595295D02*
X84261904Y-42690533D01*
X84261904Y-42690533D02*
X84214285Y-42833390D01*
X84214285Y-42833390D02*
X83642857Y-43404819D01*
X83642857Y-43404819D02*
X84261904Y-43404819D01*
X126382142Y-91154819D02*
X126048809Y-90678628D01*
X125810714Y-91154819D02*
X125810714Y-90154819D01*
X125810714Y-90154819D02*
X126191666Y-90154819D01*
X126191666Y-90154819D02*
X126286904Y-90202438D01*
X126286904Y-90202438D02*
X126334523Y-90250057D01*
X126334523Y-90250057D02*
X126382142Y-90345295D01*
X126382142Y-90345295D02*
X126382142Y-90488152D01*
X126382142Y-90488152D02*
X126334523Y-90583390D01*
X126334523Y-90583390D02*
X126286904Y-90631009D01*
X126286904Y-90631009D02*
X126191666Y-90678628D01*
X126191666Y-90678628D02*
X125810714Y-90678628D01*
X127334523Y-91154819D02*
X126763095Y-91154819D01*
X127048809Y-91154819D02*
X127048809Y-90154819D01*
X127048809Y-90154819D02*
X126953571Y-90297676D01*
X126953571Y-90297676D02*
X126858333Y-90392914D01*
X126858333Y-90392914D02*
X126763095Y-90440533D01*
X127905952Y-90583390D02*
X127810714Y-90535771D01*
X127810714Y-90535771D02*
X127763095Y-90488152D01*
X127763095Y-90488152D02*
X127715476Y-90392914D01*
X127715476Y-90392914D02*
X127715476Y-90345295D01*
X127715476Y-90345295D02*
X127763095Y-90250057D01*
X127763095Y-90250057D02*
X127810714Y-90202438D01*
X127810714Y-90202438D02*
X127905952Y-90154819D01*
X127905952Y-90154819D02*
X128096428Y-90154819D01*
X128096428Y-90154819D02*
X128191666Y-90202438D01*
X128191666Y-90202438D02*
X128239285Y-90250057D01*
X128239285Y-90250057D02*
X128286904Y-90345295D01*
X128286904Y-90345295D02*
X128286904Y-90392914D01*
X128286904Y-90392914D02*
X128239285Y-90488152D01*
X128239285Y-90488152D02*
X128191666Y-90535771D01*
X128191666Y-90535771D02*
X128096428Y-90583390D01*
X128096428Y-90583390D02*
X127905952Y-90583390D01*
X127905952Y-90583390D02*
X127810714Y-90631009D01*
X127810714Y-90631009D02*
X127763095Y-90678628D01*
X127763095Y-90678628D02*
X127715476Y-90773866D01*
X127715476Y-90773866D02*
X127715476Y-90964342D01*
X127715476Y-90964342D02*
X127763095Y-91059580D01*
X127763095Y-91059580D02*
X127810714Y-91107200D01*
X127810714Y-91107200D02*
X127905952Y-91154819D01*
X127905952Y-91154819D02*
X128096428Y-91154819D01*
X128096428Y-91154819D02*
X128191666Y-91107200D01*
X128191666Y-91107200D02*
X128239285Y-91059580D01*
X128239285Y-91059580D02*
X128286904Y-90964342D01*
X128286904Y-90964342D02*
X128286904Y-90773866D01*
X128286904Y-90773866D02*
X128239285Y-90678628D01*
X128239285Y-90678628D02*
X128191666Y-90631009D01*
X128191666Y-90631009D02*
X128096428Y-90583390D01*
X49766666Y-37754819D02*
X49766666Y-38469104D01*
X49766666Y-38469104D02*
X49719047Y-38611961D01*
X49719047Y-38611961D02*
X49623809Y-38707200D01*
X49623809Y-38707200D02*
X49480952Y-38754819D01*
X49480952Y-38754819D02*
X49385714Y-38754819D01*
X50242857Y-38754819D02*
X50242857Y-37754819D01*
X50242857Y-37754819D02*
X50623809Y-37754819D01*
X50623809Y-37754819D02*
X50719047Y-37802438D01*
X50719047Y-37802438D02*
X50766666Y-37850057D01*
X50766666Y-37850057D02*
X50814285Y-37945295D01*
X50814285Y-37945295D02*
X50814285Y-38088152D01*
X50814285Y-38088152D02*
X50766666Y-38183390D01*
X50766666Y-38183390D02*
X50719047Y-38231009D01*
X50719047Y-38231009D02*
X50623809Y-38278628D01*
X50623809Y-38278628D02*
X50242857Y-38278628D01*
X51195238Y-37850057D02*
X51242857Y-37802438D01*
X51242857Y-37802438D02*
X51338095Y-37754819D01*
X51338095Y-37754819D02*
X51576190Y-37754819D01*
X51576190Y-37754819D02*
X51671428Y-37802438D01*
X51671428Y-37802438D02*
X51719047Y-37850057D01*
X51719047Y-37850057D02*
X51766666Y-37945295D01*
X51766666Y-37945295D02*
X51766666Y-38040533D01*
X51766666Y-38040533D02*
X51719047Y-38183390D01*
X51719047Y-38183390D02*
X51147619Y-38754819D01*
X51147619Y-38754819D02*
X51766666Y-38754819D01*
X97682142Y-76959580D02*
X97634523Y-77007200D01*
X97634523Y-77007200D02*
X97491666Y-77054819D01*
X97491666Y-77054819D02*
X97396428Y-77054819D01*
X97396428Y-77054819D02*
X97253571Y-77007200D01*
X97253571Y-77007200D02*
X97158333Y-76911961D01*
X97158333Y-76911961D02*
X97110714Y-76816723D01*
X97110714Y-76816723D02*
X97063095Y-76626247D01*
X97063095Y-76626247D02*
X97063095Y-76483390D01*
X97063095Y-76483390D02*
X97110714Y-76292914D01*
X97110714Y-76292914D02*
X97158333Y-76197676D01*
X97158333Y-76197676D02*
X97253571Y-76102438D01*
X97253571Y-76102438D02*
X97396428Y-76054819D01*
X97396428Y-76054819D02*
X97491666Y-76054819D01*
X97491666Y-76054819D02*
X97634523Y-76102438D01*
X97634523Y-76102438D02*
X97682142Y-76150057D01*
X98634523Y-77054819D02*
X98063095Y-77054819D01*
X98348809Y-77054819D02*
X98348809Y-76054819D01*
X98348809Y-76054819D02*
X98253571Y-76197676D01*
X98253571Y-76197676D02*
X98158333Y-76292914D01*
X98158333Y-76292914D02*
X98063095Y-76340533D01*
X98967857Y-76054819D02*
X99586904Y-76054819D01*
X99586904Y-76054819D02*
X99253571Y-76435771D01*
X99253571Y-76435771D02*
X99396428Y-76435771D01*
X99396428Y-76435771D02*
X99491666Y-76483390D01*
X99491666Y-76483390D02*
X99539285Y-76531009D01*
X99539285Y-76531009D02*
X99586904Y-76626247D01*
X99586904Y-76626247D02*
X99586904Y-76864342D01*
X99586904Y-76864342D02*
X99539285Y-76959580D01*
X99539285Y-76959580D02*
X99491666Y-77007200D01*
X99491666Y-77007200D02*
X99396428Y-77054819D01*
X99396428Y-77054819D02*
X99110714Y-77054819D01*
X99110714Y-77054819D02*
X99015476Y-77007200D01*
X99015476Y-77007200D02*
X98967857Y-76959580D01*
X89140476Y-82004819D02*
X89807142Y-83004819D01*
X89807142Y-82004819D02*
X89140476Y-83004819D01*
X90711904Y-83004819D02*
X90140476Y-83004819D01*
X90426190Y-83004819D02*
X90426190Y-82004819D01*
X90426190Y-82004819D02*
X90330952Y-82147676D01*
X90330952Y-82147676D02*
X90235714Y-82242914D01*
X90235714Y-82242914D02*
X90140476Y-82290533D01*
X120807142Y-112509580D02*
X120759523Y-112557200D01*
X120759523Y-112557200D02*
X120616666Y-112604819D01*
X120616666Y-112604819D02*
X120521428Y-112604819D01*
X120521428Y-112604819D02*
X120378571Y-112557200D01*
X120378571Y-112557200D02*
X120283333Y-112461961D01*
X120283333Y-112461961D02*
X120235714Y-112366723D01*
X120235714Y-112366723D02*
X120188095Y-112176247D01*
X120188095Y-112176247D02*
X120188095Y-112033390D01*
X120188095Y-112033390D02*
X120235714Y-111842914D01*
X120235714Y-111842914D02*
X120283333Y-111747676D01*
X120283333Y-111747676D02*
X120378571Y-111652438D01*
X120378571Y-111652438D02*
X120521428Y-111604819D01*
X120521428Y-111604819D02*
X120616666Y-111604819D01*
X120616666Y-111604819D02*
X120759523Y-111652438D01*
X120759523Y-111652438D02*
X120807142Y-111700057D01*
X121188095Y-111700057D02*
X121235714Y-111652438D01*
X121235714Y-111652438D02*
X121330952Y-111604819D01*
X121330952Y-111604819D02*
X121569047Y-111604819D01*
X121569047Y-111604819D02*
X121664285Y-111652438D01*
X121664285Y-111652438D02*
X121711904Y-111700057D01*
X121711904Y-111700057D02*
X121759523Y-111795295D01*
X121759523Y-111795295D02*
X121759523Y-111890533D01*
X121759523Y-111890533D02*
X121711904Y-112033390D01*
X121711904Y-112033390D02*
X121140476Y-112604819D01*
X121140476Y-112604819D02*
X121759523Y-112604819D01*
X122235714Y-112604819D02*
X122426190Y-112604819D01*
X122426190Y-112604819D02*
X122521428Y-112557200D01*
X122521428Y-112557200D02*
X122569047Y-112509580D01*
X122569047Y-112509580D02*
X122664285Y-112366723D01*
X122664285Y-112366723D02*
X122711904Y-112176247D01*
X122711904Y-112176247D02*
X122711904Y-111795295D01*
X122711904Y-111795295D02*
X122664285Y-111700057D01*
X122664285Y-111700057D02*
X122616666Y-111652438D01*
X122616666Y-111652438D02*
X122521428Y-111604819D01*
X122521428Y-111604819D02*
X122330952Y-111604819D01*
X122330952Y-111604819D02*
X122235714Y-111652438D01*
X122235714Y-111652438D02*
X122188095Y-111700057D01*
X122188095Y-111700057D02*
X122140476Y-111795295D01*
X122140476Y-111795295D02*
X122140476Y-112033390D01*
X122140476Y-112033390D02*
X122188095Y-112128628D01*
X122188095Y-112128628D02*
X122235714Y-112176247D01*
X122235714Y-112176247D02*
X122330952Y-112223866D01*
X122330952Y-112223866D02*
X122521428Y-112223866D01*
X122521428Y-112223866D02*
X122616666Y-112176247D01*
X122616666Y-112176247D02*
X122664285Y-112128628D01*
X122664285Y-112128628D02*
X122711904Y-112033390D01*
X76488095Y-51154819D02*
X76488095Y-51964342D01*
X76488095Y-51964342D02*
X76535714Y-52059580D01*
X76535714Y-52059580D02*
X76583333Y-52107200D01*
X76583333Y-52107200D02*
X76678571Y-52154819D01*
X76678571Y-52154819D02*
X76869047Y-52154819D01*
X76869047Y-52154819D02*
X76964285Y-52107200D01*
X76964285Y-52107200D02*
X77011904Y-52059580D01*
X77011904Y-52059580D02*
X77059523Y-51964342D01*
X77059523Y-51964342D02*
X77059523Y-51154819D01*
X77488095Y-51250057D02*
X77535714Y-51202438D01*
X77535714Y-51202438D02*
X77630952Y-51154819D01*
X77630952Y-51154819D02*
X77869047Y-51154819D01*
X77869047Y-51154819D02*
X77964285Y-51202438D01*
X77964285Y-51202438D02*
X78011904Y-51250057D01*
X78011904Y-51250057D02*
X78059523Y-51345295D01*
X78059523Y-51345295D02*
X78059523Y-51440533D01*
X78059523Y-51440533D02*
X78011904Y-51583390D01*
X78011904Y-51583390D02*
X77440476Y-52154819D01*
X77440476Y-52154819D02*
X78059523Y-52154819D01*
X130057142Y-86084580D02*
X130009523Y-86132200D01*
X130009523Y-86132200D02*
X129866666Y-86179819D01*
X129866666Y-86179819D02*
X129771428Y-86179819D01*
X129771428Y-86179819D02*
X129628571Y-86132200D01*
X129628571Y-86132200D02*
X129533333Y-86036961D01*
X129533333Y-86036961D02*
X129485714Y-85941723D01*
X129485714Y-85941723D02*
X129438095Y-85751247D01*
X129438095Y-85751247D02*
X129438095Y-85608390D01*
X129438095Y-85608390D02*
X129485714Y-85417914D01*
X129485714Y-85417914D02*
X129533333Y-85322676D01*
X129533333Y-85322676D02*
X129628571Y-85227438D01*
X129628571Y-85227438D02*
X129771428Y-85179819D01*
X129771428Y-85179819D02*
X129866666Y-85179819D01*
X129866666Y-85179819D02*
X130009523Y-85227438D01*
X130009523Y-85227438D02*
X130057142Y-85275057D01*
X130438095Y-85275057D02*
X130485714Y-85227438D01*
X130485714Y-85227438D02*
X130580952Y-85179819D01*
X130580952Y-85179819D02*
X130819047Y-85179819D01*
X130819047Y-85179819D02*
X130914285Y-85227438D01*
X130914285Y-85227438D02*
X130961904Y-85275057D01*
X130961904Y-85275057D02*
X131009523Y-85370295D01*
X131009523Y-85370295D02*
X131009523Y-85465533D01*
X131009523Y-85465533D02*
X130961904Y-85608390D01*
X130961904Y-85608390D02*
X130390476Y-86179819D01*
X130390476Y-86179819D02*
X131009523Y-86179819D01*
X131866666Y-85179819D02*
X131676190Y-85179819D01*
X131676190Y-85179819D02*
X131580952Y-85227438D01*
X131580952Y-85227438D02*
X131533333Y-85275057D01*
X131533333Y-85275057D02*
X131438095Y-85417914D01*
X131438095Y-85417914D02*
X131390476Y-85608390D01*
X131390476Y-85608390D02*
X131390476Y-85989342D01*
X131390476Y-85989342D02*
X131438095Y-86084580D01*
X131438095Y-86084580D02*
X131485714Y-86132200D01*
X131485714Y-86132200D02*
X131580952Y-86179819D01*
X131580952Y-86179819D02*
X131771428Y-86179819D01*
X131771428Y-86179819D02*
X131866666Y-86132200D01*
X131866666Y-86132200D02*
X131914285Y-86084580D01*
X131914285Y-86084580D02*
X131961904Y-85989342D01*
X131961904Y-85989342D02*
X131961904Y-85751247D01*
X131961904Y-85751247D02*
X131914285Y-85656009D01*
X131914285Y-85656009D02*
X131866666Y-85608390D01*
X131866666Y-85608390D02*
X131771428Y-85560771D01*
X131771428Y-85560771D02*
X131580952Y-85560771D01*
X131580952Y-85560771D02*
X131485714Y-85608390D01*
X131485714Y-85608390D02*
X131438095Y-85656009D01*
X131438095Y-85656009D02*
X131390476Y-85751247D01*
X104457142Y-86854819D02*
X104123809Y-86378628D01*
X103885714Y-86854819D02*
X103885714Y-85854819D01*
X103885714Y-85854819D02*
X104266666Y-85854819D01*
X104266666Y-85854819D02*
X104361904Y-85902438D01*
X104361904Y-85902438D02*
X104409523Y-85950057D01*
X104409523Y-85950057D02*
X104457142Y-86045295D01*
X104457142Y-86045295D02*
X104457142Y-86188152D01*
X104457142Y-86188152D02*
X104409523Y-86283390D01*
X104409523Y-86283390D02*
X104361904Y-86331009D01*
X104361904Y-86331009D02*
X104266666Y-86378628D01*
X104266666Y-86378628D02*
X103885714Y-86378628D01*
X104838095Y-85950057D02*
X104885714Y-85902438D01*
X104885714Y-85902438D02*
X104980952Y-85854819D01*
X104980952Y-85854819D02*
X105219047Y-85854819D01*
X105219047Y-85854819D02*
X105314285Y-85902438D01*
X105314285Y-85902438D02*
X105361904Y-85950057D01*
X105361904Y-85950057D02*
X105409523Y-86045295D01*
X105409523Y-86045295D02*
X105409523Y-86140533D01*
X105409523Y-86140533D02*
X105361904Y-86283390D01*
X105361904Y-86283390D02*
X104790476Y-86854819D01*
X104790476Y-86854819D02*
X105409523Y-86854819D01*
X106361904Y-86854819D02*
X105790476Y-86854819D01*
X106076190Y-86854819D02*
X106076190Y-85854819D01*
X106076190Y-85854819D02*
X105980952Y-85997676D01*
X105980952Y-85997676D02*
X105885714Y-86092914D01*
X105885714Y-86092914D02*
X105790476Y-86140533D01*
X94682142Y-75584580D02*
X94634523Y-75632200D01*
X94634523Y-75632200D02*
X94491666Y-75679819D01*
X94491666Y-75679819D02*
X94396428Y-75679819D01*
X94396428Y-75679819D02*
X94253571Y-75632200D01*
X94253571Y-75632200D02*
X94158333Y-75536961D01*
X94158333Y-75536961D02*
X94110714Y-75441723D01*
X94110714Y-75441723D02*
X94063095Y-75251247D01*
X94063095Y-75251247D02*
X94063095Y-75108390D01*
X94063095Y-75108390D02*
X94110714Y-74917914D01*
X94110714Y-74917914D02*
X94158333Y-74822676D01*
X94158333Y-74822676D02*
X94253571Y-74727438D01*
X94253571Y-74727438D02*
X94396428Y-74679819D01*
X94396428Y-74679819D02*
X94491666Y-74679819D01*
X94491666Y-74679819D02*
X94634523Y-74727438D01*
X94634523Y-74727438D02*
X94682142Y-74775057D01*
X95634523Y-75679819D02*
X95063095Y-75679819D01*
X95348809Y-75679819D02*
X95348809Y-74679819D01*
X95348809Y-74679819D02*
X95253571Y-74822676D01*
X95253571Y-74822676D02*
X95158333Y-74917914D01*
X95158333Y-74917914D02*
X95063095Y-74965533D01*
X96491666Y-75013152D02*
X96491666Y-75679819D01*
X96253571Y-74632200D02*
X96015476Y-75346485D01*
X96015476Y-75346485D02*
X96634523Y-75346485D01*
X83832142Y-48454819D02*
X83498809Y-47978628D01*
X83260714Y-48454819D02*
X83260714Y-47454819D01*
X83260714Y-47454819D02*
X83641666Y-47454819D01*
X83641666Y-47454819D02*
X83736904Y-47502438D01*
X83736904Y-47502438D02*
X83784523Y-47550057D01*
X83784523Y-47550057D02*
X83832142Y-47645295D01*
X83832142Y-47645295D02*
X83832142Y-47788152D01*
X83832142Y-47788152D02*
X83784523Y-47883390D01*
X83784523Y-47883390D02*
X83736904Y-47931009D01*
X83736904Y-47931009D02*
X83641666Y-47978628D01*
X83641666Y-47978628D02*
X83260714Y-47978628D01*
X84784523Y-48454819D02*
X84213095Y-48454819D01*
X84498809Y-48454819D02*
X84498809Y-47454819D01*
X84498809Y-47454819D02*
X84403571Y-47597676D01*
X84403571Y-47597676D02*
X84308333Y-47692914D01*
X84308333Y-47692914D02*
X84213095Y-47740533D01*
X85736904Y-48454819D02*
X85165476Y-48454819D01*
X85451190Y-48454819D02*
X85451190Y-47454819D01*
X85451190Y-47454819D02*
X85355952Y-47597676D01*
X85355952Y-47597676D02*
X85260714Y-47692914D01*
X85260714Y-47692914D02*
X85165476Y-47740533D01*
X113307142Y-112704819D02*
X112973809Y-112228628D01*
X112735714Y-112704819D02*
X112735714Y-111704819D01*
X112735714Y-111704819D02*
X113116666Y-111704819D01*
X113116666Y-111704819D02*
X113211904Y-111752438D01*
X113211904Y-111752438D02*
X113259523Y-111800057D01*
X113259523Y-111800057D02*
X113307142Y-111895295D01*
X113307142Y-111895295D02*
X113307142Y-112038152D01*
X113307142Y-112038152D02*
X113259523Y-112133390D01*
X113259523Y-112133390D02*
X113211904Y-112181009D01*
X113211904Y-112181009D02*
X113116666Y-112228628D01*
X113116666Y-112228628D02*
X112735714Y-112228628D01*
X113688095Y-111800057D02*
X113735714Y-111752438D01*
X113735714Y-111752438D02*
X113830952Y-111704819D01*
X113830952Y-111704819D02*
X114069047Y-111704819D01*
X114069047Y-111704819D02*
X114164285Y-111752438D01*
X114164285Y-111752438D02*
X114211904Y-111800057D01*
X114211904Y-111800057D02*
X114259523Y-111895295D01*
X114259523Y-111895295D02*
X114259523Y-111990533D01*
X114259523Y-111990533D02*
X114211904Y-112133390D01*
X114211904Y-112133390D02*
X113640476Y-112704819D01*
X113640476Y-112704819D02*
X114259523Y-112704819D01*
X114592857Y-111704819D02*
X115211904Y-111704819D01*
X115211904Y-111704819D02*
X114878571Y-112085771D01*
X114878571Y-112085771D02*
X115021428Y-112085771D01*
X115021428Y-112085771D02*
X115116666Y-112133390D01*
X115116666Y-112133390D02*
X115164285Y-112181009D01*
X115164285Y-112181009D02*
X115211904Y-112276247D01*
X115211904Y-112276247D02*
X115211904Y-112514342D01*
X115211904Y-112514342D02*
X115164285Y-112609580D01*
X115164285Y-112609580D02*
X115116666Y-112657200D01*
X115116666Y-112657200D02*
X115021428Y-112704819D01*
X115021428Y-112704819D02*
X114735714Y-112704819D01*
X114735714Y-112704819D02*
X114640476Y-112657200D01*
X114640476Y-112657200D02*
X114592857Y-112609580D01*
X69859580Y-46042857D02*
X69907200Y-46090476D01*
X69907200Y-46090476D02*
X69954819Y-46233333D01*
X69954819Y-46233333D02*
X69954819Y-46328571D01*
X69954819Y-46328571D02*
X69907200Y-46471428D01*
X69907200Y-46471428D02*
X69811961Y-46566666D01*
X69811961Y-46566666D02*
X69716723Y-46614285D01*
X69716723Y-46614285D02*
X69526247Y-46661904D01*
X69526247Y-46661904D02*
X69383390Y-46661904D01*
X69383390Y-46661904D02*
X69192914Y-46614285D01*
X69192914Y-46614285D02*
X69097676Y-46566666D01*
X69097676Y-46566666D02*
X69002438Y-46471428D01*
X69002438Y-46471428D02*
X68954819Y-46328571D01*
X68954819Y-46328571D02*
X68954819Y-46233333D01*
X68954819Y-46233333D02*
X69002438Y-46090476D01*
X69002438Y-46090476D02*
X69050057Y-46042857D01*
X69954819Y-45090476D02*
X69954819Y-45661904D01*
X69954819Y-45376190D02*
X68954819Y-45376190D01*
X68954819Y-45376190D02*
X69097676Y-45471428D01*
X69097676Y-45471428D02*
X69192914Y-45566666D01*
X69192914Y-45566666D02*
X69240533Y-45661904D01*
X69954819Y-44614285D02*
X69954819Y-44423809D01*
X69954819Y-44423809D02*
X69907200Y-44328571D01*
X69907200Y-44328571D02*
X69859580Y-44280952D01*
X69859580Y-44280952D02*
X69716723Y-44185714D01*
X69716723Y-44185714D02*
X69526247Y-44138095D01*
X69526247Y-44138095D02*
X69145295Y-44138095D01*
X69145295Y-44138095D02*
X69050057Y-44185714D01*
X69050057Y-44185714D02*
X69002438Y-44233333D01*
X69002438Y-44233333D02*
X68954819Y-44328571D01*
X68954819Y-44328571D02*
X68954819Y-44519047D01*
X68954819Y-44519047D02*
X69002438Y-44614285D01*
X69002438Y-44614285D02*
X69050057Y-44661904D01*
X69050057Y-44661904D02*
X69145295Y-44709523D01*
X69145295Y-44709523D02*
X69383390Y-44709523D01*
X69383390Y-44709523D02*
X69478628Y-44661904D01*
X69478628Y-44661904D02*
X69526247Y-44614285D01*
X69526247Y-44614285D02*
X69573866Y-44519047D01*
X69573866Y-44519047D02*
X69573866Y-44328571D01*
X69573866Y-44328571D02*
X69526247Y-44233333D01*
X69526247Y-44233333D02*
X69478628Y-44185714D01*
X69478628Y-44185714D02*
X69383390Y-44138095D01*
X90327142Y-75674580D02*
X90279523Y-75722200D01*
X90279523Y-75722200D02*
X90136666Y-75769819D01*
X90136666Y-75769819D02*
X90041428Y-75769819D01*
X90041428Y-75769819D02*
X89898571Y-75722200D01*
X89898571Y-75722200D02*
X89803333Y-75626961D01*
X89803333Y-75626961D02*
X89755714Y-75531723D01*
X89755714Y-75531723D02*
X89708095Y-75341247D01*
X89708095Y-75341247D02*
X89708095Y-75198390D01*
X89708095Y-75198390D02*
X89755714Y-75007914D01*
X89755714Y-75007914D02*
X89803333Y-74912676D01*
X89803333Y-74912676D02*
X89898571Y-74817438D01*
X89898571Y-74817438D02*
X90041428Y-74769819D01*
X90041428Y-74769819D02*
X90136666Y-74769819D01*
X90136666Y-74769819D02*
X90279523Y-74817438D01*
X90279523Y-74817438D02*
X90327142Y-74865057D01*
X91279523Y-75769819D02*
X90708095Y-75769819D01*
X90993809Y-75769819D02*
X90993809Y-74769819D01*
X90993809Y-74769819D02*
X90898571Y-74912676D01*
X90898571Y-74912676D02*
X90803333Y-75007914D01*
X90803333Y-75007914D02*
X90708095Y-75055533D01*
X91612857Y-74769819D02*
X92279523Y-74769819D01*
X92279523Y-74769819D02*
X91850952Y-75769819D01*
X80833333Y-72084580D02*
X80785714Y-72132200D01*
X80785714Y-72132200D02*
X80642857Y-72179819D01*
X80642857Y-72179819D02*
X80547619Y-72179819D01*
X80547619Y-72179819D02*
X80404762Y-72132200D01*
X80404762Y-72132200D02*
X80309524Y-72036961D01*
X80309524Y-72036961D02*
X80261905Y-71941723D01*
X80261905Y-71941723D02*
X80214286Y-71751247D01*
X80214286Y-71751247D02*
X80214286Y-71608390D01*
X80214286Y-71608390D02*
X80261905Y-71417914D01*
X80261905Y-71417914D02*
X80309524Y-71322676D01*
X80309524Y-71322676D02*
X80404762Y-71227438D01*
X80404762Y-71227438D02*
X80547619Y-71179819D01*
X80547619Y-71179819D02*
X80642857Y-71179819D01*
X80642857Y-71179819D02*
X80785714Y-71227438D01*
X80785714Y-71227438D02*
X80833333Y-71275057D01*
X81690476Y-71179819D02*
X81500000Y-71179819D01*
X81500000Y-71179819D02*
X81404762Y-71227438D01*
X81404762Y-71227438D02*
X81357143Y-71275057D01*
X81357143Y-71275057D02*
X81261905Y-71417914D01*
X81261905Y-71417914D02*
X81214286Y-71608390D01*
X81214286Y-71608390D02*
X81214286Y-71989342D01*
X81214286Y-71989342D02*
X81261905Y-72084580D01*
X81261905Y-72084580D02*
X81309524Y-72132200D01*
X81309524Y-72132200D02*
X81404762Y-72179819D01*
X81404762Y-72179819D02*
X81595238Y-72179819D01*
X81595238Y-72179819D02*
X81690476Y-72132200D01*
X81690476Y-72132200D02*
X81738095Y-72084580D01*
X81738095Y-72084580D02*
X81785714Y-71989342D01*
X81785714Y-71989342D02*
X81785714Y-71751247D01*
X81785714Y-71751247D02*
X81738095Y-71656009D01*
X81738095Y-71656009D02*
X81690476Y-71608390D01*
X81690476Y-71608390D02*
X81595238Y-71560771D01*
X81595238Y-71560771D02*
X81404762Y-71560771D01*
X81404762Y-71560771D02*
X81309524Y-71608390D01*
X81309524Y-71608390D02*
X81261905Y-71656009D01*
X81261905Y-71656009D02*
X81214286Y-71751247D01*
X106488095Y-75979819D02*
X106488095Y-76789342D01*
X106488095Y-76789342D02*
X106535714Y-76884580D01*
X106535714Y-76884580D02*
X106583333Y-76932200D01*
X106583333Y-76932200D02*
X106678571Y-76979819D01*
X106678571Y-76979819D02*
X106869047Y-76979819D01*
X106869047Y-76979819D02*
X106964285Y-76932200D01*
X106964285Y-76932200D02*
X107011904Y-76884580D01*
X107011904Y-76884580D02*
X107059523Y-76789342D01*
X107059523Y-76789342D02*
X107059523Y-75979819D01*
X107964285Y-76313152D02*
X107964285Y-76979819D01*
X107726190Y-75932200D02*
X107488095Y-76646485D01*
X107488095Y-76646485D02*
X108107142Y-76646485D01*
X110423400Y-83253419D02*
X110423400Y-83491514D01*
X110185305Y-83396276D02*
X110423400Y-83491514D01*
X110423400Y-83491514D02*
X110661495Y-83396276D01*
X110280543Y-83681990D02*
X110423400Y-83491514D01*
X110423400Y-83491514D02*
X110566257Y-83681990D01*
X121236905Y-39654819D02*
X121236905Y-38654819D01*
X121236905Y-38654819D02*
X121475000Y-38654819D01*
X121475000Y-38654819D02*
X121617857Y-38702438D01*
X121617857Y-38702438D02*
X121713095Y-38797676D01*
X121713095Y-38797676D02*
X121760714Y-38892914D01*
X121760714Y-38892914D02*
X121808333Y-39083390D01*
X121808333Y-39083390D02*
X121808333Y-39226247D01*
X121808333Y-39226247D02*
X121760714Y-39416723D01*
X121760714Y-39416723D02*
X121713095Y-39511961D01*
X121713095Y-39511961D02*
X121617857Y-39607200D01*
X121617857Y-39607200D02*
X121475000Y-39654819D01*
X121475000Y-39654819D02*
X121236905Y-39654819D01*
X122665476Y-38654819D02*
X122475000Y-38654819D01*
X122475000Y-38654819D02*
X122379762Y-38702438D01*
X122379762Y-38702438D02*
X122332143Y-38750057D01*
X122332143Y-38750057D02*
X122236905Y-38892914D01*
X122236905Y-38892914D02*
X122189286Y-39083390D01*
X122189286Y-39083390D02*
X122189286Y-39464342D01*
X122189286Y-39464342D02*
X122236905Y-39559580D01*
X122236905Y-39559580D02*
X122284524Y-39607200D01*
X122284524Y-39607200D02*
X122379762Y-39654819D01*
X122379762Y-39654819D02*
X122570238Y-39654819D01*
X122570238Y-39654819D02*
X122665476Y-39607200D01*
X122665476Y-39607200D02*
X122713095Y-39559580D01*
X122713095Y-39559580D02*
X122760714Y-39464342D01*
X122760714Y-39464342D02*
X122760714Y-39226247D01*
X122760714Y-39226247D02*
X122713095Y-39131009D01*
X122713095Y-39131009D02*
X122665476Y-39083390D01*
X122665476Y-39083390D02*
X122570238Y-39035771D01*
X122570238Y-39035771D02*
X122379762Y-39035771D01*
X122379762Y-39035771D02*
X122284524Y-39083390D01*
X122284524Y-39083390D02*
X122236905Y-39131009D01*
X122236905Y-39131009D02*
X122189286Y-39226247D01*
X79479819Y-42463094D02*
X78479819Y-42463094D01*
X78479819Y-42463094D02*
X78479819Y-42224999D01*
X78479819Y-42224999D02*
X78527438Y-42082142D01*
X78527438Y-42082142D02*
X78622676Y-41986904D01*
X78622676Y-41986904D02*
X78717914Y-41939285D01*
X78717914Y-41939285D02*
X78908390Y-41891666D01*
X78908390Y-41891666D02*
X79051247Y-41891666D01*
X79051247Y-41891666D02*
X79241723Y-41939285D01*
X79241723Y-41939285D02*
X79336961Y-41986904D01*
X79336961Y-41986904D02*
X79432200Y-42082142D01*
X79432200Y-42082142D02*
X79479819Y-42224999D01*
X79479819Y-42224999D02*
X79479819Y-42463094D01*
X78479819Y-41558332D02*
X78479819Y-40939285D01*
X78479819Y-40939285D02*
X78860771Y-41272618D01*
X78860771Y-41272618D02*
X78860771Y-41129761D01*
X78860771Y-41129761D02*
X78908390Y-41034523D01*
X78908390Y-41034523D02*
X78956009Y-40986904D01*
X78956009Y-40986904D02*
X79051247Y-40939285D01*
X79051247Y-40939285D02*
X79289342Y-40939285D01*
X79289342Y-40939285D02*
X79384580Y-40986904D01*
X79384580Y-40986904D02*
X79432200Y-41034523D01*
X79432200Y-41034523D02*
X79479819Y-41129761D01*
X79479819Y-41129761D02*
X79479819Y-41415475D01*
X79479819Y-41415475D02*
X79432200Y-41510713D01*
X79432200Y-41510713D02*
X79384580Y-41558332D01*
X125386905Y-53104819D02*
X125386905Y-52104819D01*
X125386905Y-52104819D02*
X125625000Y-52104819D01*
X125625000Y-52104819D02*
X125767857Y-52152438D01*
X125767857Y-52152438D02*
X125863095Y-52247676D01*
X125863095Y-52247676D02*
X125910714Y-52342914D01*
X125910714Y-52342914D02*
X125958333Y-52533390D01*
X125958333Y-52533390D02*
X125958333Y-52676247D01*
X125958333Y-52676247D02*
X125910714Y-52866723D01*
X125910714Y-52866723D02*
X125863095Y-52961961D01*
X125863095Y-52961961D02*
X125767857Y-53057200D01*
X125767857Y-53057200D02*
X125625000Y-53104819D01*
X125625000Y-53104819D02*
X125386905Y-53104819D01*
X126529762Y-52533390D02*
X126434524Y-52485771D01*
X126434524Y-52485771D02*
X126386905Y-52438152D01*
X126386905Y-52438152D02*
X126339286Y-52342914D01*
X126339286Y-52342914D02*
X126339286Y-52295295D01*
X126339286Y-52295295D02*
X126386905Y-52200057D01*
X126386905Y-52200057D02*
X126434524Y-52152438D01*
X126434524Y-52152438D02*
X126529762Y-52104819D01*
X126529762Y-52104819D02*
X126720238Y-52104819D01*
X126720238Y-52104819D02*
X126815476Y-52152438D01*
X126815476Y-52152438D02*
X126863095Y-52200057D01*
X126863095Y-52200057D02*
X126910714Y-52295295D01*
X126910714Y-52295295D02*
X126910714Y-52342914D01*
X126910714Y-52342914D02*
X126863095Y-52438152D01*
X126863095Y-52438152D02*
X126815476Y-52485771D01*
X126815476Y-52485771D02*
X126720238Y-52533390D01*
X126720238Y-52533390D02*
X126529762Y-52533390D01*
X126529762Y-52533390D02*
X126434524Y-52581009D01*
X126434524Y-52581009D02*
X126386905Y-52628628D01*
X126386905Y-52628628D02*
X126339286Y-52723866D01*
X126339286Y-52723866D02*
X126339286Y-52914342D01*
X126339286Y-52914342D02*
X126386905Y-53009580D01*
X126386905Y-53009580D02*
X126434524Y-53057200D01*
X126434524Y-53057200D02*
X126529762Y-53104819D01*
X126529762Y-53104819D02*
X126720238Y-53104819D01*
X126720238Y-53104819D02*
X126815476Y-53057200D01*
X126815476Y-53057200D02*
X126863095Y-53009580D01*
X126863095Y-53009580D02*
X126910714Y-52914342D01*
X126910714Y-52914342D02*
X126910714Y-52723866D01*
X126910714Y-52723866D02*
X126863095Y-52628628D01*
X126863095Y-52628628D02*
X126815476Y-52581009D01*
X126815476Y-52581009D02*
X126720238Y-52533390D01*
X135457200Y-98383332D02*
X135504819Y-98240475D01*
X135504819Y-98240475D02*
X135504819Y-98002380D01*
X135504819Y-98002380D02*
X135457200Y-97907142D01*
X135457200Y-97907142D02*
X135409580Y-97859523D01*
X135409580Y-97859523D02*
X135314342Y-97811904D01*
X135314342Y-97811904D02*
X135219104Y-97811904D01*
X135219104Y-97811904D02*
X135123866Y-97859523D01*
X135123866Y-97859523D02*
X135076247Y-97907142D01*
X135076247Y-97907142D02*
X135028628Y-98002380D01*
X135028628Y-98002380D02*
X134981009Y-98192856D01*
X134981009Y-98192856D02*
X134933390Y-98288094D01*
X134933390Y-98288094D02*
X134885771Y-98335713D01*
X134885771Y-98335713D02*
X134790533Y-98383332D01*
X134790533Y-98383332D02*
X134695295Y-98383332D01*
X134695295Y-98383332D02*
X134600057Y-98335713D01*
X134600057Y-98335713D02*
X134552438Y-98288094D01*
X134552438Y-98288094D02*
X134504819Y-98192856D01*
X134504819Y-98192856D02*
X134504819Y-97954761D01*
X134504819Y-97954761D02*
X134552438Y-97811904D01*
X134504819Y-97478570D02*
X135504819Y-97240475D01*
X135504819Y-97240475D02*
X134790533Y-97049999D01*
X134790533Y-97049999D02*
X135504819Y-96859523D01*
X135504819Y-96859523D02*
X134504819Y-96621428D01*
X134504819Y-95811904D02*
X134504819Y-96002380D01*
X134504819Y-96002380D02*
X134552438Y-96097618D01*
X134552438Y-96097618D02*
X134600057Y-96145237D01*
X134600057Y-96145237D02*
X134742914Y-96240475D01*
X134742914Y-96240475D02*
X134933390Y-96288094D01*
X134933390Y-96288094D02*
X135314342Y-96288094D01*
X135314342Y-96288094D02*
X135409580Y-96240475D01*
X135409580Y-96240475D02*
X135457200Y-96192856D01*
X135457200Y-96192856D02*
X135504819Y-96097618D01*
X135504819Y-96097618D02*
X135504819Y-95907142D01*
X135504819Y-95907142D02*
X135457200Y-95811904D01*
X135457200Y-95811904D02*
X135409580Y-95764285D01*
X135409580Y-95764285D02*
X135314342Y-95716666D01*
X135314342Y-95716666D02*
X135076247Y-95716666D01*
X135076247Y-95716666D02*
X134981009Y-95764285D01*
X134981009Y-95764285D02*
X134933390Y-95811904D01*
X134933390Y-95811904D02*
X134885771Y-95907142D01*
X134885771Y-95907142D02*
X134885771Y-96097618D01*
X134885771Y-96097618D02*
X134933390Y-96192856D01*
X134933390Y-96192856D02*
X134981009Y-96240475D01*
X134981009Y-96240475D02*
X135076247Y-96288094D01*
X90157142Y-72859580D02*
X90109523Y-72907200D01*
X90109523Y-72907200D02*
X89966666Y-72954819D01*
X89966666Y-72954819D02*
X89871428Y-72954819D01*
X89871428Y-72954819D02*
X89728571Y-72907200D01*
X89728571Y-72907200D02*
X89633333Y-72811961D01*
X89633333Y-72811961D02*
X89585714Y-72716723D01*
X89585714Y-72716723D02*
X89538095Y-72526247D01*
X89538095Y-72526247D02*
X89538095Y-72383390D01*
X89538095Y-72383390D02*
X89585714Y-72192914D01*
X89585714Y-72192914D02*
X89633333Y-72097676D01*
X89633333Y-72097676D02*
X89728571Y-72002438D01*
X89728571Y-72002438D02*
X89871428Y-71954819D01*
X89871428Y-71954819D02*
X89966666Y-71954819D01*
X89966666Y-71954819D02*
X90109523Y-72002438D01*
X90109523Y-72002438D02*
X90157142Y-72050057D01*
X91109523Y-72954819D02*
X90538095Y-72954819D01*
X90823809Y-72954819D02*
X90823809Y-71954819D01*
X90823809Y-71954819D02*
X90728571Y-72097676D01*
X90728571Y-72097676D02*
X90633333Y-72192914D01*
X90633333Y-72192914D02*
X90538095Y-72240533D01*
X91490476Y-72050057D02*
X91538095Y-72002438D01*
X91538095Y-72002438D02*
X91633333Y-71954819D01*
X91633333Y-71954819D02*
X91871428Y-71954819D01*
X91871428Y-71954819D02*
X91966666Y-72002438D01*
X91966666Y-72002438D02*
X92014285Y-72050057D01*
X92014285Y-72050057D02*
X92061904Y-72145295D01*
X92061904Y-72145295D02*
X92061904Y-72240533D01*
X92061904Y-72240533D02*
X92014285Y-72383390D01*
X92014285Y-72383390D02*
X91442857Y-72954819D01*
X91442857Y-72954819D02*
X92061904Y-72954819D01*
X65357142Y-63029819D02*
X65023809Y-62553628D01*
X64785714Y-63029819D02*
X64785714Y-62029819D01*
X64785714Y-62029819D02*
X65166666Y-62029819D01*
X65166666Y-62029819D02*
X65261904Y-62077438D01*
X65261904Y-62077438D02*
X65309523Y-62125057D01*
X65309523Y-62125057D02*
X65357142Y-62220295D01*
X65357142Y-62220295D02*
X65357142Y-62363152D01*
X65357142Y-62363152D02*
X65309523Y-62458390D01*
X65309523Y-62458390D02*
X65261904Y-62506009D01*
X65261904Y-62506009D02*
X65166666Y-62553628D01*
X65166666Y-62553628D02*
X64785714Y-62553628D01*
X65738095Y-62125057D02*
X65785714Y-62077438D01*
X65785714Y-62077438D02*
X65880952Y-62029819D01*
X65880952Y-62029819D02*
X66119047Y-62029819D01*
X66119047Y-62029819D02*
X66214285Y-62077438D01*
X66214285Y-62077438D02*
X66261904Y-62125057D01*
X66261904Y-62125057D02*
X66309523Y-62220295D01*
X66309523Y-62220295D02*
X66309523Y-62315533D01*
X66309523Y-62315533D02*
X66261904Y-62458390D01*
X66261904Y-62458390D02*
X65690476Y-63029819D01*
X65690476Y-63029819D02*
X66309523Y-63029819D01*
X67214285Y-62029819D02*
X66738095Y-62029819D01*
X66738095Y-62029819D02*
X66690476Y-62506009D01*
X66690476Y-62506009D02*
X66738095Y-62458390D01*
X66738095Y-62458390D02*
X66833333Y-62410771D01*
X66833333Y-62410771D02*
X67071428Y-62410771D01*
X67071428Y-62410771D02*
X67166666Y-62458390D01*
X67166666Y-62458390D02*
X67214285Y-62506009D01*
X67214285Y-62506009D02*
X67261904Y-62601247D01*
X67261904Y-62601247D02*
X67261904Y-62839342D01*
X67261904Y-62839342D02*
X67214285Y-62934580D01*
X67214285Y-62934580D02*
X67166666Y-62982200D01*
X67166666Y-62982200D02*
X67071428Y-63029819D01*
X67071428Y-63029819D02*
X66833333Y-63029819D01*
X66833333Y-63029819D02*
X66738095Y-62982200D01*
X66738095Y-62982200D02*
X66690476Y-62934580D01*
X134319642Y-91254819D02*
X133986309Y-90778628D01*
X133748214Y-91254819D02*
X133748214Y-90254819D01*
X133748214Y-90254819D02*
X134129166Y-90254819D01*
X134129166Y-90254819D02*
X134224404Y-90302438D01*
X134224404Y-90302438D02*
X134272023Y-90350057D01*
X134272023Y-90350057D02*
X134319642Y-90445295D01*
X134319642Y-90445295D02*
X134319642Y-90588152D01*
X134319642Y-90588152D02*
X134272023Y-90683390D01*
X134272023Y-90683390D02*
X134224404Y-90731009D01*
X134224404Y-90731009D02*
X134129166Y-90778628D01*
X134129166Y-90778628D02*
X133748214Y-90778628D01*
X135272023Y-91254819D02*
X134700595Y-91254819D01*
X134986309Y-91254819D02*
X134986309Y-90254819D01*
X134986309Y-90254819D02*
X134891071Y-90397676D01*
X134891071Y-90397676D02*
X134795833Y-90492914D01*
X134795833Y-90492914D02*
X134700595Y-90540533D01*
X135748214Y-91254819D02*
X135938690Y-91254819D01*
X135938690Y-91254819D02*
X136033928Y-91207200D01*
X136033928Y-91207200D02*
X136081547Y-91159580D01*
X136081547Y-91159580D02*
X136176785Y-91016723D01*
X136176785Y-91016723D02*
X136224404Y-90826247D01*
X136224404Y-90826247D02*
X136224404Y-90445295D01*
X136224404Y-90445295D02*
X136176785Y-90350057D01*
X136176785Y-90350057D02*
X136129166Y-90302438D01*
X136129166Y-90302438D02*
X136033928Y-90254819D01*
X136033928Y-90254819D02*
X135843452Y-90254819D01*
X135843452Y-90254819D02*
X135748214Y-90302438D01*
X135748214Y-90302438D02*
X135700595Y-90350057D01*
X135700595Y-90350057D02*
X135652976Y-90445295D01*
X135652976Y-90445295D02*
X135652976Y-90683390D01*
X135652976Y-90683390D02*
X135700595Y-90778628D01*
X135700595Y-90778628D02*
X135748214Y-90826247D01*
X135748214Y-90826247D02*
X135843452Y-90873866D01*
X135843452Y-90873866D02*
X136033928Y-90873866D01*
X136033928Y-90873866D02*
X136129166Y-90826247D01*
X136129166Y-90826247D02*
X136176785Y-90778628D01*
X136176785Y-90778628D02*
X136224404Y-90683390D01*
X78133333Y-60454819D02*
X77800000Y-59978628D01*
X77561905Y-60454819D02*
X77561905Y-59454819D01*
X77561905Y-59454819D02*
X77942857Y-59454819D01*
X77942857Y-59454819D02*
X78038095Y-59502438D01*
X78038095Y-59502438D02*
X78085714Y-59550057D01*
X78085714Y-59550057D02*
X78133333Y-59645295D01*
X78133333Y-59645295D02*
X78133333Y-59788152D01*
X78133333Y-59788152D02*
X78085714Y-59883390D01*
X78085714Y-59883390D02*
X78038095Y-59931009D01*
X78038095Y-59931009D02*
X77942857Y-59978628D01*
X77942857Y-59978628D02*
X77561905Y-59978628D01*
X78609524Y-60454819D02*
X78800000Y-60454819D01*
X78800000Y-60454819D02*
X78895238Y-60407200D01*
X78895238Y-60407200D02*
X78942857Y-60359580D01*
X78942857Y-60359580D02*
X79038095Y-60216723D01*
X79038095Y-60216723D02*
X79085714Y-60026247D01*
X79085714Y-60026247D02*
X79085714Y-59645295D01*
X79085714Y-59645295D02*
X79038095Y-59550057D01*
X79038095Y-59550057D02*
X78990476Y-59502438D01*
X78990476Y-59502438D02*
X78895238Y-59454819D01*
X78895238Y-59454819D02*
X78704762Y-59454819D01*
X78704762Y-59454819D02*
X78609524Y-59502438D01*
X78609524Y-59502438D02*
X78561905Y-59550057D01*
X78561905Y-59550057D02*
X78514286Y-59645295D01*
X78514286Y-59645295D02*
X78514286Y-59883390D01*
X78514286Y-59883390D02*
X78561905Y-59978628D01*
X78561905Y-59978628D02*
X78609524Y-60026247D01*
X78609524Y-60026247D02*
X78704762Y-60073866D01*
X78704762Y-60073866D02*
X78895238Y-60073866D01*
X78895238Y-60073866D02*
X78990476Y-60026247D01*
X78990476Y-60026247D02*
X79038095Y-59978628D01*
X79038095Y-59978628D02*
X79085714Y-59883390D01*
X65961905Y-40754819D02*
X65961905Y-39754819D01*
X65961905Y-39754819D02*
X66200000Y-39754819D01*
X66200000Y-39754819D02*
X66342857Y-39802438D01*
X66342857Y-39802438D02*
X66438095Y-39897676D01*
X66438095Y-39897676D02*
X66485714Y-39992914D01*
X66485714Y-39992914D02*
X66533333Y-40183390D01*
X66533333Y-40183390D02*
X66533333Y-40326247D01*
X66533333Y-40326247D02*
X66485714Y-40516723D01*
X66485714Y-40516723D02*
X66438095Y-40611961D01*
X66438095Y-40611961D02*
X66342857Y-40707200D01*
X66342857Y-40707200D02*
X66200000Y-40754819D01*
X66200000Y-40754819D02*
X65961905Y-40754819D01*
X67390476Y-40088152D02*
X67390476Y-40754819D01*
X67152381Y-39707200D02*
X66914286Y-40421485D01*
X66914286Y-40421485D02*
X67533333Y-40421485D01*
X96733333Y-57235218D02*
X96685714Y-57282838D01*
X96685714Y-57282838D02*
X96542857Y-57330457D01*
X96542857Y-57330457D02*
X96447619Y-57330457D01*
X96447619Y-57330457D02*
X96304762Y-57282838D01*
X96304762Y-57282838D02*
X96209524Y-57187599D01*
X96209524Y-57187599D02*
X96161905Y-57092361D01*
X96161905Y-57092361D02*
X96114286Y-56901885D01*
X96114286Y-56901885D02*
X96114286Y-56759028D01*
X96114286Y-56759028D02*
X96161905Y-56568552D01*
X96161905Y-56568552D02*
X96209524Y-56473314D01*
X96209524Y-56473314D02*
X96304762Y-56378076D01*
X96304762Y-56378076D02*
X96447619Y-56330457D01*
X96447619Y-56330457D02*
X96542857Y-56330457D01*
X96542857Y-56330457D02*
X96685714Y-56378076D01*
X96685714Y-56378076D02*
X96733333Y-56425695D01*
X97209524Y-57330457D02*
X97400000Y-57330457D01*
X97400000Y-57330457D02*
X97495238Y-57282838D01*
X97495238Y-57282838D02*
X97542857Y-57235218D01*
X97542857Y-57235218D02*
X97638095Y-57092361D01*
X97638095Y-57092361D02*
X97685714Y-56901885D01*
X97685714Y-56901885D02*
X97685714Y-56520933D01*
X97685714Y-56520933D02*
X97638095Y-56425695D01*
X97638095Y-56425695D02*
X97590476Y-56378076D01*
X97590476Y-56378076D02*
X97495238Y-56330457D01*
X97495238Y-56330457D02*
X97304762Y-56330457D01*
X97304762Y-56330457D02*
X97209524Y-56378076D01*
X97209524Y-56378076D02*
X97161905Y-56425695D01*
X97161905Y-56425695D02*
X97114286Y-56520933D01*
X97114286Y-56520933D02*
X97114286Y-56759028D01*
X97114286Y-56759028D02*
X97161905Y-56854266D01*
X97161905Y-56854266D02*
X97209524Y-56901885D01*
X97209524Y-56901885D02*
X97304762Y-56949504D01*
X97304762Y-56949504D02*
X97495238Y-56949504D01*
X97495238Y-56949504D02*
X97590476Y-56901885D01*
X97590476Y-56901885D02*
X97638095Y-56854266D01*
X97638095Y-56854266D02*
X97685714Y-56759028D01*
X118207200Y-98433332D02*
X118254819Y-98290475D01*
X118254819Y-98290475D02*
X118254819Y-98052380D01*
X118254819Y-98052380D02*
X118207200Y-97957142D01*
X118207200Y-97957142D02*
X118159580Y-97909523D01*
X118159580Y-97909523D02*
X118064342Y-97861904D01*
X118064342Y-97861904D02*
X117969104Y-97861904D01*
X117969104Y-97861904D02*
X117873866Y-97909523D01*
X117873866Y-97909523D02*
X117826247Y-97957142D01*
X117826247Y-97957142D02*
X117778628Y-98052380D01*
X117778628Y-98052380D02*
X117731009Y-98242856D01*
X117731009Y-98242856D02*
X117683390Y-98338094D01*
X117683390Y-98338094D02*
X117635771Y-98385713D01*
X117635771Y-98385713D02*
X117540533Y-98433332D01*
X117540533Y-98433332D02*
X117445295Y-98433332D01*
X117445295Y-98433332D02*
X117350057Y-98385713D01*
X117350057Y-98385713D02*
X117302438Y-98338094D01*
X117302438Y-98338094D02*
X117254819Y-98242856D01*
X117254819Y-98242856D02*
X117254819Y-98004761D01*
X117254819Y-98004761D02*
X117302438Y-97861904D01*
X117254819Y-97528570D02*
X118254819Y-97290475D01*
X118254819Y-97290475D02*
X117540533Y-97099999D01*
X117540533Y-97099999D02*
X118254819Y-96909523D01*
X118254819Y-96909523D02*
X117254819Y-96671428D01*
X117254819Y-96385713D02*
X117254819Y-95719047D01*
X117254819Y-95719047D02*
X118254819Y-96147618D01*
X100457142Y-57059580D02*
X100409523Y-57107200D01*
X100409523Y-57107200D02*
X100266666Y-57154819D01*
X100266666Y-57154819D02*
X100171428Y-57154819D01*
X100171428Y-57154819D02*
X100028571Y-57107200D01*
X100028571Y-57107200D02*
X99933333Y-57011961D01*
X99933333Y-57011961D02*
X99885714Y-56916723D01*
X99885714Y-56916723D02*
X99838095Y-56726247D01*
X99838095Y-56726247D02*
X99838095Y-56583390D01*
X99838095Y-56583390D02*
X99885714Y-56392914D01*
X99885714Y-56392914D02*
X99933333Y-56297676D01*
X99933333Y-56297676D02*
X100028571Y-56202438D01*
X100028571Y-56202438D02*
X100171428Y-56154819D01*
X100171428Y-56154819D02*
X100266666Y-56154819D01*
X100266666Y-56154819D02*
X100409523Y-56202438D01*
X100409523Y-56202438D02*
X100457142Y-56250057D01*
X101409523Y-57154819D02*
X100838095Y-57154819D01*
X101123809Y-57154819D02*
X101123809Y-56154819D01*
X101123809Y-56154819D02*
X101028571Y-56297676D01*
X101028571Y-56297676D02*
X100933333Y-56392914D01*
X100933333Y-56392914D02*
X100838095Y-56440533D01*
X102314285Y-56154819D02*
X101838095Y-56154819D01*
X101838095Y-56154819D02*
X101790476Y-56631009D01*
X101790476Y-56631009D02*
X101838095Y-56583390D01*
X101838095Y-56583390D02*
X101933333Y-56535771D01*
X101933333Y-56535771D02*
X102171428Y-56535771D01*
X102171428Y-56535771D02*
X102266666Y-56583390D01*
X102266666Y-56583390D02*
X102314285Y-56631009D01*
X102314285Y-56631009D02*
X102361904Y-56726247D01*
X102361904Y-56726247D02*
X102361904Y-56964342D01*
X102361904Y-56964342D02*
X102314285Y-57059580D01*
X102314285Y-57059580D02*
X102266666Y-57107200D01*
X102266666Y-57107200D02*
X102171428Y-57154819D01*
X102171428Y-57154819D02*
X101933333Y-57154819D01*
X101933333Y-57154819D02*
X101838095Y-57107200D01*
X101838095Y-57107200D02*
X101790476Y-57059580D01*
X117766666Y-35279819D02*
X117766666Y-35994104D01*
X117766666Y-35994104D02*
X117719047Y-36136961D01*
X117719047Y-36136961D02*
X117623809Y-36232200D01*
X117623809Y-36232200D02*
X117480952Y-36279819D01*
X117480952Y-36279819D02*
X117385714Y-36279819D01*
X118195238Y-35375057D02*
X118242857Y-35327438D01*
X118242857Y-35327438D02*
X118338095Y-35279819D01*
X118338095Y-35279819D02*
X118576190Y-35279819D01*
X118576190Y-35279819D02*
X118671428Y-35327438D01*
X118671428Y-35327438D02*
X118719047Y-35375057D01*
X118719047Y-35375057D02*
X118766666Y-35470295D01*
X118766666Y-35470295D02*
X118766666Y-35565533D01*
X118766666Y-35565533D02*
X118719047Y-35708390D01*
X118719047Y-35708390D02*
X118147619Y-36279819D01*
X118147619Y-36279819D02*
X118766666Y-36279819D01*
X97941666Y-34404819D02*
X97941666Y-35119104D01*
X97941666Y-35119104D02*
X97894047Y-35261961D01*
X97894047Y-35261961D02*
X97798809Y-35357200D01*
X97798809Y-35357200D02*
X97655952Y-35404819D01*
X97655952Y-35404819D02*
X97560714Y-35404819D01*
X98322619Y-34404819D02*
X98941666Y-34404819D01*
X98941666Y-34404819D02*
X98608333Y-34785771D01*
X98608333Y-34785771D02*
X98751190Y-34785771D01*
X98751190Y-34785771D02*
X98846428Y-34833390D01*
X98846428Y-34833390D02*
X98894047Y-34881009D01*
X98894047Y-34881009D02*
X98941666Y-34976247D01*
X98941666Y-34976247D02*
X98941666Y-35214342D01*
X98941666Y-35214342D02*
X98894047Y-35309580D01*
X98894047Y-35309580D02*
X98846428Y-35357200D01*
X98846428Y-35357200D02*
X98751190Y-35404819D01*
X98751190Y-35404819D02*
X98465476Y-35404819D01*
X98465476Y-35404819D02*
X98370238Y-35357200D01*
X98370238Y-35357200D02*
X98322619Y-35309580D01*
X52432142Y-83559580D02*
X52384523Y-83607200D01*
X52384523Y-83607200D02*
X52241666Y-83654819D01*
X52241666Y-83654819D02*
X52146428Y-83654819D01*
X52146428Y-83654819D02*
X52003571Y-83607200D01*
X52003571Y-83607200D02*
X51908333Y-83511961D01*
X51908333Y-83511961D02*
X51860714Y-83416723D01*
X51860714Y-83416723D02*
X51813095Y-83226247D01*
X51813095Y-83226247D02*
X51813095Y-83083390D01*
X51813095Y-83083390D02*
X51860714Y-82892914D01*
X51860714Y-82892914D02*
X51908333Y-82797676D01*
X51908333Y-82797676D02*
X52003571Y-82702438D01*
X52003571Y-82702438D02*
X52146428Y-82654819D01*
X52146428Y-82654819D02*
X52241666Y-82654819D01*
X52241666Y-82654819D02*
X52384523Y-82702438D01*
X52384523Y-82702438D02*
X52432142Y-82750057D01*
X52813095Y-82750057D02*
X52860714Y-82702438D01*
X52860714Y-82702438D02*
X52955952Y-82654819D01*
X52955952Y-82654819D02*
X53194047Y-82654819D01*
X53194047Y-82654819D02*
X53289285Y-82702438D01*
X53289285Y-82702438D02*
X53336904Y-82750057D01*
X53336904Y-82750057D02*
X53384523Y-82845295D01*
X53384523Y-82845295D02*
X53384523Y-82940533D01*
X53384523Y-82940533D02*
X53336904Y-83083390D01*
X53336904Y-83083390D02*
X52765476Y-83654819D01*
X52765476Y-83654819D02*
X53384523Y-83654819D01*
X53717857Y-82654819D02*
X54336904Y-82654819D01*
X54336904Y-82654819D02*
X54003571Y-83035771D01*
X54003571Y-83035771D02*
X54146428Y-83035771D01*
X54146428Y-83035771D02*
X54241666Y-83083390D01*
X54241666Y-83083390D02*
X54289285Y-83131009D01*
X54289285Y-83131009D02*
X54336904Y-83226247D01*
X54336904Y-83226247D02*
X54336904Y-83464342D01*
X54336904Y-83464342D02*
X54289285Y-83559580D01*
X54289285Y-83559580D02*
X54241666Y-83607200D01*
X54241666Y-83607200D02*
X54146428Y-83654819D01*
X54146428Y-83654819D02*
X53860714Y-83654819D01*
X53860714Y-83654819D02*
X53765476Y-83607200D01*
X53765476Y-83607200D02*
X53717857Y-83559580D01*
X65916666Y-54004819D02*
X65916666Y-54719104D01*
X65916666Y-54719104D02*
X65869047Y-54861961D01*
X65869047Y-54861961D02*
X65773809Y-54957200D01*
X65773809Y-54957200D02*
X65630952Y-55004819D01*
X65630952Y-55004819D02*
X65535714Y-55004819D01*
X66916666Y-55004819D02*
X66345238Y-55004819D01*
X66630952Y-55004819D02*
X66630952Y-54004819D01*
X66630952Y-54004819D02*
X66535714Y-54147676D01*
X66535714Y-54147676D02*
X66440476Y-54242914D01*
X66440476Y-54242914D02*
X66345238Y-54290533D01*
X42732142Y-89854819D02*
X42398809Y-89378628D01*
X42160714Y-89854819D02*
X42160714Y-88854819D01*
X42160714Y-88854819D02*
X42541666Y-88854819D01*
X42541666Y-88854819D02*
X42636904Y-88902438D01*
X42636904Y-88902438D02*
X42684523Y-88950057D01*
X42684523Y-88950057D02*
X42732142Y-89045295D01*
X42732142Y-89045295D02*
X42732142Y-89188152D01*
X42732142Y-89188152D02*
X42684523Y-89283390D01*
X42684523Y-89283390D02*
X42636904Y-89331009D01*
X42636904Y-89331009D02*
X42541666Y-89378628D01*
X42541666Y-89378628D02*
X42160714Y-89378628D01*
X43684523Y-89854819D02*
X43113095Y-89854819D01*
X43398809Y-89854819D02*
X43398809Y-88854819D01*
X43398809Y-88854819D02*
X43303571Y-88997676D01*
X43303571Y-88997676D02*
X43208333Y-89092914D01*
X43208333Y-89092914D02*
X43113095Y-89140533D01*
X44541666Y-89188152D02*
X44541666Y-89854819D01*
X44303571Y-88807200D02*
X44065476Y-89521485D01*
X44065476Y-89521485D02*
X44684523Y-89521485D01*
X80732142Y-70609580D02*
X80684523Y-70657200D01*
X80684523Y-70657200D02*
X80541666Y-70704819D01*
X80541666Y-70704819D02*
X80446428Y-70704819D01*
X80446428Y-70704819D02*
X80303571Y-70657200D01*
X80303571Y-70657200D02*
X80208333Y-70561961D01*
X80208333Y-70561961D02*
X80160714Y-70466723D01*
X80160714Y-70466723D02*
X80113095Y-70276247D01*
X80113095Y-70276247D02*
X80113095Y-70133390D01*
X80113095Y-70133390D02*
X80160714Y-69942914D01*
X80160714Y-69942914D02*
X80208333Y-69847676D01*
X80208333Y-69847676D02*
X80303571Y-69752438D01*
X80303571Y-69752438D02*
X80446428Y-69704819D01*
X80446428Y-69704819D02*
X80541666Y-69704819D01*
X80541666Y-69704819D02*
X80684523Y-69752438D01*
X80684523Y-69752438D02*
X80732142Y-69800057D01*
X81684523Y-70704819D02*
X81113095Y-70704819D01*
X81398809Y-70704819D02*
X81398809Y-69704819D01*
X81398809Y-69704819D02*
X81303571Y-69847676D01*
X81303571Y-69847676D02*
X81208333Y-69942914D01*
X81208333Y-69942914D02*
X81113095Y-69990533D01*
X82636904Y-70704819D02*
X82065476Y-70704819D01*
X82351190Y-70704819D02*
X82351190Y-69704819D01*
X82351190Y-69704819D02*
X82255952Y-69847676D01*
X82255952Y-69847676D02*
X82160714Y-69942914D01*
X82160714Y-69942914D02*
X82065476Y-69990533D01*
X101107142Y-90959580D02*
X101059523Y-91007200D01*
X101059523Y-91007200D02*
X100916666Y-91054819D01*
X100916666Y-91054819D02*
X100821428Y-91054819D01*
X100821428Y-91054819D02*
X100678571Y-91007200D01*
X100678571Y-91007200D02*
X100583333Y-90911961D01*
X100583333Y-90911961D02*
X100535714Y-90816723D01*
X100535714Y-90816723D02*
X100488095Y-90626247D01*
X100488095Y-90626247D02*
X100488095Y-90483390D01*
X100488095Y-90483390D02*
X100535714Y-90292914D01*
X100535714Y-90292914D02*
X100583333Y-90197676D01*
X100583333Y-90197676D02*
X100678571Y-90102438D01*
X100678571Y-90102438D02*
X100821428Y-90054819D01*
X100821428Y-90054819D02*
X100916666Y-90054819D01*
X100916666Y-90054819D02*
X101059523Y-90102438D01*
X101059523Y-90102438D02*
X101107142Y-90150057D01*
X101440476Y-90054819D02*
X102059523Y-90054819D01*
X102059523Y-90054819D02*
X101726190Y-90435771D01*
X101726190Y-90435771D02*
X101869047Y-90435771D01*
X101869047Y-90435771D02*
X101964285Y-90483390D01*
X101964285Y-90483390D02*
X102011904Y-90531009D01*
X102011904Y-90531009D02*
X102059523Y-90626247D01*
X102059523Y-90626247D02*
X102059523Y-90864342D01*
X102059523Y-90864342D02*
X102011904Y-90959580D01*
X102011904Y-90959580D02*
X101964285Y-91007200D01*
X101964285Y-91007200D02*
X101869047Y-91054819D01*
X101869047Y-91054819D02*
X101583333Y-91054819D01*
X101583333Y-91054819D02*
X101488095Y-91007200D01*
X101488095Y-91007200D02*
X101440476Y-90959580D01*
X102678571Y-90054819D02*
X102773809Y-90054819D01*
X102773809Y-90054819D02*
X102869047Y-90102438D01*
X102869047Y-90102438D02*
X102916666Y-90150057D01*
X102916666Y-90150057D02*
X102964285Y-90245295D01*
X102964285Y-90245295D02*
X103011904Y-90435771D01*
X103011904Y-90435771D02*
X103011904Y-90673866D01*
X103011904Y-90673866D02*
X102964285Y-90864342D01*
X102964285Y-90864342D02*
X102916666Y-90959580D01*
X102916666Y-90959580D02*
X102869047Y-91007200D01*
X102869047Y-91007200D02*
X102773809Y-91054819D01*
X102773809Y-91054819D02*
X102678571Y-91054819D01*
X102678571Y-91054819D02*
X102583333Y-91007200D01*
X102583333Y-91007200D02*
X102535714Y-90959580D01*
X102535714Y-90959580D02*
X102488095Y-90864342D01*
X102488095Y-90864342D02*
X102440476Y-90673866D01*
X102440476Y-90673866D02*
X102440476Y-90435771D01*
X102440476Y-90435771D02*
X102488095Y-90245295D01*
X102488095Y-90245295D02*
X102535714Y-90150057D01*
X102535714Y-90150057D02*
X102583333Y-90102438D01*
X102583333Y-90102438D02*
X102678571Y-90054819D01*
X120707142Y-59904819D02*
X120373809Y-59428628D01*
X120135714Y-59904819D02*
X120135714Y-58904819D01*
X120135714Y-58904819D02*
X120516666Y-58904819D01*
X120516666Y-58904819D02*
X120611904Y-58952438D01*
X120611904Y-58952438D02*
X120659523Y-59000057D01*
X120659523Y-59000057D02*
X120707142Y-59095295D01*
X120707142Y-59095295D02*
X120707142Y-59238152D01*
X120707142Y-59238152D02*
X120659523Y-59333390D01*
X120659523Y-59333390D02*
X120611904Y-59381009D01*
X120611904Y-59381009D02*
X120516666Y-59428628D01*
X120516666Y-59428628D02*
X120135714Y-59428628D01*
X121088095Y-59000057D02*
X121135714Y-58952438D01*
X121135714Y-58952438D02*
X121230952Y-58904819D01*
X121230952Y-58904819D02*
X121469047Y-58904819D01*
X121469047Y-58904819D02*
X121564285Y-58952438D01*
X121564285Y-58952438D02*
X121611904Y-59000057D01*
X121611904Y-59000057D02*
X121659523Y-59095295D01*
X121659523Y-59095295D02*
X121659523Y-59190533D01*
X121659523Y-59190533D02*
X121611904Y-59333390D01*
X121611904Y-59333390D02*
X121040476Y-59904819D01*
X121040476Y-59904819D02*
X121659523Y-59904819D01*
X122516666Y-59238152D02*
X122516666Y-59904819D01*
X122278571Y-58857200D02*
X122040476Y-59571485D01*
X122040476Y-59571485D02*
X122659523Y-59571485D01*
X128933333Y-43729819D02*
X128600000Y-43253628D01*
X128361905Y-43729819D02*
X128361905Y-42729819D01*
X128361905Y-42729819D02*
X128742857Y-42729819D01*
X128742857Y-42729819D02*
X128838095Y-42777438D01*
X128838095Y-42777438D02*
X128885714Y-42825057D01*
X128885714Y-42825057D02*
X128933333Y-42920295D01*
X128933333Y-42920295D02*
X128933333Y-43063152D01*
X128933333Y-43063152D02*
X128885714Y-43158390D01*
X128885714Y-43158390D02*
X128838095Y-43206009D01*
X128838095Y-43206009D02*
X128742857Y-43253628D01*
X128742857Y-43253628D02*
X128361905Y-43253628D01*
X129266667Y-42729819D02*
X129933333Y-42729819D01*
X129933333Y-42729819D02*
X129504762Y-43729819D01*
D11*
%TO.C,C1*%
X112072164Y-43240000D02*
X112287836Y-43240000D01*
X112072164Y-43960000D02*
X112287836Y-43960000D01*
%TO.C,R6*%
X123215000Y-42960436D02*
X123215000Y-43414564D01*
X124685000Y-42960436D02*
X124685000Y-43414564D01*
%TO.C,Q1*%
X71240000Y-36450000D02*
X71240000Y-38300000D01*
X71240000Y-36450000D02*
X72130000Y-36450000D01*
X73470000Y-36465000D02*
X74360000Y-36465000D01*
X74360000Y-36465000D02*
X74360000Y-38315000D01*
X71250000Y-38690000D02*
X70920000Y-38930000D01*
X70920000Y-38450000D01*
X71250000Y-38690000D01*
G36*
X71250000Y-38690000D02*
G01*
X70920000Y-38930000D01*
X70920000Y-38450000D01*
X71250000Y-38690000D01*
G37*
%TO.C,C27*%
X133290000Y-112561252D02*
X133290000Y-112038748D01*
X134760000Y-112561252D02*
X134760000Y-112038748D01*
%TO.C,R1*%
X97865000Y-37660436D02*
X97865000Y-38114564D01*
X99335000Y-37660436D02*
X99335000Y-38114564D01*
%TO.C,R16*%
X46314564Y-34365000D02*
X45860436Y-34365000D01*
X46314564Y-35835000D02*
X45860436Y-35835000D01*
%TO.C,R20*%
X136090000Y-112564564D02*
X136090000Y-112110436D01*
X137560000Y-112564564D02*
X137560000Y-112110436D01*
%TO.C,C25*%
X123786252Y-87465000D02*
X123263748Y-87465000D01*
X123786252Y-88935000D02*
X123263748Y-88935000D01*
D12*
%TO.C,U3*%
X56202100Y-78202700D02*
X60697900Y-78202700D01*
X60697900Y-73097300D02*
X56202100Y-73097300D01*
X58754800Y-73097300D02*
G75*
G02*
X58145200Y-73097300I-304800J0D01*
G01*
D13*
G36*
X62615600Y-76490499D02*
G01*
X62361600Y-76490499D01*
X62361600Y-76109499D01*
X62615600Y-76109499D01*
X62615600Y-76490499D01*
G37*
D11*
%TO.C,C18*%
X81540000Y-39261252D02*
X81540000Y-38738748D01*
X83010000Y-39261252D02*
X83010000Y-38738748D01*
%TO.C,L1*%
X95790000Y-49137221D02*
X95790000Y-49462779D01*
X96810000Y-49137221D02*
X96810000Y-49462779D01*
%TO.C,C22*%
X47965000Y-91211252D02*
X47965000Y-90688748D01*
X49435000Y-91211252D02*
X49435000Y-90688748D01*
D14*
%TO.C,SW3*%
X55055000Y-90250000D02*
X55055000Y-85750000D01*
X56900000Y-85050000D02*
X59200000Y-85050000D01*
X56900000Y-91045000D02*
X59200000Y-91045000D01*
X61045000Y-85750000D02*
X61045000Y-90350000D01*
D15*
X55900000Y-92495000D02*
G75*
G02*
X55700000Y-92495000I-100000J0D01*
G01*
X55700000Y-92495000D02*
G75*
G02*
X55900000Y-92495000I100000J0D01*
G01*
D14*
X59805000Y-88050000D02*
G75*
G02*
X56295000Y-88050000I-1755000J0D01*
G01*
X56295000Y-88050000D02*
G75*
G02*
X59805000Y-88050000I1755000J0D01*
G01*
D11*
%TO.C,R8*%
X84465000Y-53014564D02*
X84465000Y-52560436D01*
X85935000Y-53014564D02*
X85935000Y-52560436D01*
%TO.C,C8*%
X85455730Y-55045734D02*
X85240058Y-55045734D01*
X85455730Y-55765734D02*
X85240058Y-55765734D01*
%TO.C,L2*%
X92590000Y-74149721D02*
X92590000Y-74475279D01*
X93610000Y-74149721D02*
X93610000Y-74475279D01*
%TO.C,J6*%
X43470000Y-47470000D02*
X44800000Y-47470000D01*
X43470000Y-48800000D02*
X43470000Y-47470000D01*
X46070000Y-47470000D02*
X53750000Y-47470000D01*
X46070000Y-50130000D02*
X46070000Y-47470000D01*
X46070000Y-50130000D02*
X53750000Y-50130000D01*
X53750000Y-50130000D02*
X53750000Y-47470000D01*
%TO.C,J8*%
X141970000Y-56990000D02*
X141970000Y-77370000D01*
X141970000Y-56990000D02*
X144630000Y-56990000D01*
X141970000Y-77370000D02*
X144630000Y-77370000D01*
X143300000Y-54390000D02*
X144630000Y-54390000D01*
X144630000Y-54390000D02*
X144630000Y-55720000D01*
X144630000Y-56990000D02*
X144630000Y-77370000D01*
%TO.C,R22*%
X111885436Y-89865000D02*
X112339564Y-89865000D01*
X111885436Y-91335000D02*
X112339564Y-91335000D01*
%TO.C,C4*%
X76965000Y-81011252D02*
X76965000Y-80488748D01*
X78435000Y-81011252D02*
X78435000Y-80488748D01*
%TO.C,R3*%
X103865000Y-48039564D02*
X103865000Y-47585436D01*
X105335000Y-48039564D02*
X105335000Y-47585436D01*
D14*
%TO.C,SW2*%
X62690000Y-95150000D02*
X62690000Y-97450000D01*
X63485000Y-93305000D02*
X67985000Y-93305000D01*
X67985000Y-99295000D02*
X63385000Y-99295000D01*
X68685000Y-95150000D02*
X68685000Y-97450000D01*
D15*
X61340000Y-94050000D02*
G75*
G02*
X61140000Y-94050000I-100000J0D01*
G01*
X61140000Y-94050000D02*
G75*
G02*
X61340000Y-94050000I100000J0D01*
G01*
D14*
X67440000Y-96300000D02*
G75*
G02*
X63930000Y-96300000I-1755000J0D01*
G01*
X63930000Y-96300000D02*
G75*
G02*
X67440000Y-96300000I1755000J0D01*
G01*
D11*
%TO.C,R2*%
X101765000Y-47585436D02*
X101765000Y-48039564D01*
X103235000Y-47585436D02*
X103235000Y-48039564D01*
%TO.C,J4*%
X77205000Y-33870000D02*
X77205000Y-36530000D01*
X79805000Y-33870000D02*
X77205000Y-33870000D01*
X79805000Y-33870000D02*
X79805000Y-36530000D01*
X79805000Y-36530000D02*
X77205000Y-36530000D01*
X81075000Y-33870000D02*
X82405000Y-33870000D01*
X82405000Y-33870000D02*
X82405000Y-35200000D01*
%TO.C,C28*%
X111813748Y-87365000D02*
X112336252Y-87365000D01*
X111813748Y-88835000D02*
X112336252Y-88835000D01*
%TO.C,D2*%
X90710000Y-43525000D02*
X88050000Y-43525000D01*
X90710000Y-45225000D02*
X88050000Y-45225000D01*
X90710000Y-45225000D02*
X90710000Y-43525000D01*
D14*
%TO.C,SW5*%
X55055000Y-106550000D02*
X55055000Y-101950000D01*
X59200000Y-101255000D02*
X56900000Y-101255000D01*
X59200000Y-107250000D02*
X56900000Y-107250000D01*
X61045000Y-102050000D02*
X61045000Y-106550000D01*
X59805000Y-104250000D02*
G75*
G02*
X56295000Y-104250000I-1755000J0D01*
G01*
X56295000Y-104250000D02*
G75*
G02*
X59805000Y-104250000I1755000J0D01*
G01*
D15*
X60400000Y-99805000D02*
G75*
G02*
X60200000Y-99805000I-100000J0D01*
G01*
X60200000Y-99805000D02*
G75*
G02*
X60400000Y-99805000I100000J0D01*
G01*
D10*
%TO.C,U5*%
X105700000Y-49700000D02*
X101700000Y-49700000D01*
X105700000Y-55100000D02*
X101700000Y-55100000D01*
D11*
X106290000Y-55430000D02*
X105810000Y-55430000D01*
X106050000Y-55100000D01*
X106290000Y-55430000D01*
G36*
X106290000Y-55430000D02*
G01*
X105810000Y-55430000D01*
X106050000Y-55100000D01*
X106290000Y-55430000D01*
G37*
D14*
%TO.C,SW4*%
X47350000Y-97450000D02*
X47350000Y-95150000D01*
X48050000Y-93305000D02*
X52650000Y-93305000D01*
X52550000Y-99295000D02*
X48050000Y-99295000D01*
X53345000Y-97450000D02*
X53345000Y-95150000D01*
X52105000Y-96300000D02*
G75*
G02*
X48595000Y-96300000I-1755000J0D01*
G01*
X48595000Y-96300000D02*
G75*
G02*
X52105000Y-96300000I1755000J0D01*
G01*
D15*
X54895000Y-98550000D02*
G75*
G02*
X54695000Y-98550000I-100000J0D01*
G01*
X54695000Y-98550000D02*
G75*
G02*
X54895000Y-98550000I100000J0D01*
G01*
D11*
%TO.C,R15*%
X59965000Y-111114564D02*
X59965000Y-110660436D01*
X61435000Y-111114564D02*
X61435000Y-110660436D01*
%TO.C,C20*%
X70365000Y-49611252D02*
X70365000Y-49088748D01*
X71835000Y-49611252D02*
X71835000Y-49088748D01*
%TO.C,C21*%
X64965000Y-90111252D02*
X64965000Y-89588748D01*
X66435000Y-90111252D02*
X66435000Y-89588748D01*
%TO.C,R13*%
X48914564Y-84165000D02*
X48460436Y-84165000D01*
X48914564Y-85635000D02*
X48460436Y-85635000D01*
%TO.C,R5*%
X60465000Y-61972936D02*
X60465000Y-62427064D01*
X61935000Y-61972936D02*
X61935000Y-62427064D01*
%TO.C,C3*%
X100765000Y-37838748D02*
X100765000Y-38361252D01*
X102235000Y-37838748D02*
X102235000Y-38361252D01*
%TO.C,C2*%
X109727836Y-43240000D02*
X109512164Y-43240000D01*
X109727836Y-43960000D02*
X109512164Y-43960000D01*
%TO.C,J5*%
X43440000Y-41645000D02*
X43440000Y-44305000D01*
X61280000Y-41645000D02*
X43440000Y-41645000D01*
X61280000Y-41645000D02*
X61280000Y-44305000D01*
X61280000Y-44305000D02*
X43440000Y-44305000D01*
X63880000Y-42975000D02*
X63880000Y-44305000D01*
X63880000Y-44305000D02*
X62550000Y-44305000D01*
%TO.C,D7*%
X126227500Y-38090000D02*
X126227500Y-40375000D01*
X127697500Y-38090000D02*
X126227500Y-38090000D01*
X127697500Y-40375000D02*
X127697500Y-38090000D01*
%TO.C,C5*%
X97865000Y-49811252D02*
X97865000Y-49288748D01*
X99335000Y-49811252D02*
X99335000Y-49288748D01*
%TO.C,U1*%
X84240000Y-58165000D02*
X85190000Y-58165000D01*
X84240000Y-59115000D02*
X84240000Y-58165000D01*
X84240000Y-67435000D02*
X84240000Y-68385000D01*
X84240000Y-68385000D02*
X85190000Y-68385000D01*
X94460000Y-58165000D02*
X93510000Y-58165000D01*
X94460000Y-59115000D02*
X94460000Y-58165000D01*
X94460000Y-67435000D02*
X94460000Y-68385000D01*
X94460000Y-68385000D02*
X93510000Y-68385000D01*
X85190000Y-69000000D02*
X84720000Y-69340000D01*
X84720000Y-68660000D01*
X85190000Y-69000000D01*
G36*
X85190000Y-69000000D02*
G01*
X84720000Y-69340000D01*
X84720000Y-68660000D01*
X85190000Y-69000000D01*
G37*
%TO.C,F1*%
X76921078Y-38690000D02*
X76403922Y-38690000D01*
X76921078Y-40110000D02*
X76403922Y-40110000D01*
%TO.C,D5*%
X70777500Y-40840000D02*
X70777500Y-42760000D01*
X70777500Y-42760000D02*
X73462500Y-42760000D01*
X73462500Y-40840000D02*
X70777500Y-40840000D01*
%TO.C,R17*%
X120765000Y-51585436D02*
X120765000Y-52039564D01*
X122235000Y-51585436D02*
X122235000Y-52039564D01*
%TO.C,J7*%
X116570000Y-56990000D02*
X116570000Y-77370000D01*
X116570000Y-56990000D02*
X119230000Y-56990000D01*
X116570000Y-77370000D02*
X119230000Y-77370000D01*
X117900000Y-54390000D02*
X119230000Y-54390000D01*
X119230000Y-54390000D02*
X119230000Y-55720000D01*
X119230000Y-56990000D02*
X119230000Y-77370000D01*
%TO.C,R4*%
X83765000Y-35827064D02*
X83765000Y-35372936D01*
X85235000Y-35827064D02*
X85235000Y-35372936D01*
%TO.C,R10*%
X69785436Y-88165000D02*
X70239564Y-88165000D01*
X69785436Y-89635000D02*
X70239564Y-89635000D01*
%TO.C,C16*%
X87537836Y-76115000D02*
X87322164Y-76115000D01*
X87537836Y-76835000D02*
X87322164Y-76835000D01*
%TO.C,C24*%
X63965000Y-109311252D02*
X63965000Y-108788748D01*
X65435000Y-109311252D02*
X65435000Y-108788748D01*
D14*
%TO.C,SW1*%
X71415000Y-75650000D02*
X71415000Y-73350000D01*
X72115000Y-71505000D02*
X76715000Y-71505000D01*
X76615000Y-77495000D02*
X72115000Y-77495000D01*
X77410000Y-75650000D02*
X77410000Y-73350000D01*
X76170000Y-74500000D02*
G75*
G02*
X72660000Y-74500000I-1755000J0D01*
G01*
X72660000Y-74500000D02*
G75*
G02*
X76170000Y-74500000I1755000J0D01*
G01*
D15*
X78960000Y-76750000D02*
G75*
G02*
X78760000Y-76750000I-100000J0D01*
G01*
X78760000Y-76750000D02*
G75*
G02*
X78960000Y-76750000I100000J0D01*
G01*
D11*
%TO.C,D1*%
X92415000Y-43550000D02*
X92415000Y-45250000D01*
X92415000Y-43550000D02*
X95075000Y-43550000D01*
X92415000Y-45250000D02*
X95075000Y-45250000D01*
%TO.C,C7*%
X81490000Y-67542164D02*
X81490000Y-67757836D01*
X82210000Y-67542164D02*
X82210000Y-67757836D01*
%TO.C,C10*%
X96640000Y-67377836D02*
X96640000Y-67162164D01*
X97360000Y-67377836D02*
X97360000Y-67162164D01*
%TO.C,R12*%
X84615000Y-43139564D02*
X84615000Y-42685436D01*
X86085000Y-43139564D02*
X86085000Y-42685436D01*
%TO.C,R18*%
X123814564Y-89865000D02*
X123360436Y-89865000D01*
X123814564Y-91335000D02*
X123360436Y-91335000D01*
%TO.C,JP2*%
X43500000Y-36940000D02*
X43500000Y-39600000D01*
X46100000Y-36940000D02*
X43500000Y-36940000D01*
X46100000Y-36940000D02*
X46100000Y-39600000D01*
X46100000Y-39600000D02*
X43500000Y-39600000D01*
X47370000Y-36940000D02*
X48700000Y-36940000D01*
X48700000Y-36940000D02*
X48700000Y-38270000D01*
%TO.C,C13*%
X96040000Y-76872164D02*
X96040000Y-77087836D01*
X96760000Y-76872164D02*
X96760000Y-77087836D01*
D12*
%TO.C,X1*%
X86984300Y-79252240D02*
X86984300Y-80197760D01*
X88507933Y-81553800D02*
X90921667Y-81553800D01*
X90921667Y-77896200D02*
X88507933Y-77896200D01*
X92445300Y-80197760D02*
X92445300Y-79252240D01*
D11*
%TO.C,C29*%
X118215000Y-112461252D02*
X118215000Y-111938748D01*
X119685000Y-112461252D02*
X119685000Y-111938748D01*
%TO.C,U2*%
X75300000Y-43790000D02*
X79060000Y-43790000D01*
X75300000Y-50610000D02*
X79060000Y-50610000D01*
X79060000Y-43790000D02*
X79060000Y-45050000D01*
X79060000Y-50610000D02*
X79060000Y-49350000D01*
X74020000Y-43890000D02*
X73780000Y-43560000D01*
X74260000Y-43560000D01*
X74020000Y-43890000D01*
G36*
X74020000Y-43890000D02*
G01*
X73780000Y-43560000D01*
X74260000Y-43560000D01*
X74020000Y-43890000D01*
G37*
%TO.C,C26*%
X131161252Y-87265000D02*
X130638748Y-87265000D01*
X131161252Y-88735000D02*
X130638748Y-88735000D01*
%TO.C,R21*%
X105327064Y-87265000D02*
X104872936Y-87265000D01*
X105327064Y-88735000D02*
X104872936Y-88735000D01*
%TO.C,C14*%
X94540000Y-76912164D02*
X94540000Y-77127836D01*
X95260000Y-76912164D02*
X95260000Y-77127836D01*
%TO.C,R11*%
X84347936Y-45365000D02*
X84802064Y-45365000D01*
X84347936Y-46835000D02*
X84802064Y-46835000D01*
%TO.C,R23*%
X115915000Y-111935436D02*
X115915000Y-112389564D01*
X117385000Y-111935436D02*
X117385000Y-112389564D01*
%TO.C,C19*%
X70365000Y-45088748D02*
X70365000Y-45611252D01*
X71835000Y-45088748D02*
X71835000Y-45611252D01*
%TO.C,C17*%
X90862164Y-76115000D02*
X91077836Y-76115000D01*
X90862164Y-76835000D02*
X91077836Y-76835000D01*
%TO.C,C6*%
X83662164Y-71202500D02*
X83877836Y-71202500D01*
X83662164Y-71922500D02*
X83877836Y-71922500D01*
D12*
%TO.C,U4*%
X105102100Y-82902700D02*
X109597900Y-82902700D01*
X109597900Y-77797300D02*
X105102100Y-77797300D01*
X107045200Y-82902700D02*
G75*
G02*
X107654800Y-82902700I304800J0D01*
G01*
D13*
G36*
X103438400Y-79890501D02*
G01*
X103184400Y-79890501D01*
X103184400Y-79509501D01*
X103438400Y-79509501D01*
X103438400Y-79890501D01*
G37*
D11*
%TO.C,D6*%
X123227500Y-37997500D02*
X123227500Y-40282500D01*
X124697500Y-37997500D02*
X123227500Y-37997500D01*
X124697500Y-40282500D02*
X124697500Y-37997500D01*
%TO.C,D3*%
X78750000Y-40795000D02*
X78750000Y-38135000D01*
X78750000Y-40795000D02*
X80450000Y-40795000D01*
X80450000Y-40795000D02*
X80450000Y-38135000D01*
%TO.C,D8*%
X124587500Y-51585000D02*
X126872500Y-51585000D01*
X126872500Y-50115000D02*
X124587500Y-50115000D01*
X126872500Y-51585000D02*
X126872500Y-50115000D01*
%TO.C,SW6*%
X121950000Y-99750000D02*
X121950000Y-95650000D01*
X121950000Y-107850000D02*
X121950000Y-103750000D01*
X124350000Y-107850000D02*
X121950000Y-107850000D01*
X127850000Y-101250000D02*
X127850000Y-102250000D01*
X128350000Y-101750000D02*
X127350000Y-101750000D01*
X129150000Y-107850000D02*
X126550000Y-107850000D01*
X131650000Y-94250000D02*
X131950000Y-93950000D01*
X131950000Y-93950000D02*
X131950000Y-94550000D01*
X131950000Y-94550000D02*
X131650000Y-94250000D01*
X133750000Y-95650000D02*
X121950000Y-95650000D01*
X133750000Y-99750000D02*
X133750000Y-95650000D01*
X133750000Y-103750000D02*
X133750000Y-107850000D01*
X133750000Y-107850000D02*
X131350000Y-107850000D01*
X130850000Y-101750000D02*
G75*
G02*
X124850000Y-101750000I-3000000J0D01*
G01*
X124850000Y-101750000D02*
G75*
G02*
X130850000Y-101750000I3000000J0D01*
G01*
%TO.C,C12*%
X91012164Y-70940000D02*
X91227836Y-70940000D01*
X91012164Y-71660000D02*
X91227836Y-71660000D01*
%TO.C,R25*%
X62765000Y-62022936D02*
X62765000Y-62477064D01*
X64235000Y-62022936D02*
X64235000Y-62477064D01*
%TO.C,R19*%
X131939564Y-90065000D02*
X131485436Y-90065000D01*
X131939564Y-91535000D02*
X131485436Y-91535000D01*
%TO.C,R9*%
X77972936Y-57465000D02*
X78427064Y-57465000D01*
X77972936Y-58935000D02*
X78427064Y-58935000D01*
%TO.C,D4*%
X67840000Y-39200000D02*
X67840000Y-41885000D01*
X67840000Y-41885000D02*
X69760000Y-41885000D01*
X69760000Y-41885000D02*
X69760000Y-39200000D01*
%TO.C,C9*%
X96560594Y-58637836D02*
X96560594Y-58422164D01*
X97280594Y-58637836D02*
X97280594Y-58422164D01*
%TO.C,SW7*%
X104700000Y-99800000D02*
X104700000Y-95700000D01*
X104700000Y-107900000D02*
X104700000Y-103800000D01*
X107100000Y-107900000D02*
X104700000Y-107900000D01*
X110600000Y-101300000D02*
X110600000Y-102300000D01*
X111100000Y-101800000D02*
X110100000Y-101800000D01*
X111900000Y-107900000D02*
X109300000Y-107900000D01*
X114400000Y-94300000D02*
X114700000Y-94000000D01*
X114700000Y-94000000D02*
X114700000Y-94600000D01*
X114700000Y-94600000D02*
X114400000Y-94300000D01*
X116500000Y-95700000D02*
X104700000Y-95700000D01*
X116500000Y-99800000D02*
X116500000Y-95700000D01*
X116500000Y-103800000D02*
X116500000Y-107900000D01*
X116500000Y-107900000D02*
X114100000Y-107900000D01*
X113600000Y-101800000D02*
G75*
G02*
X107600000Y-101800000I-3000000J0D01*
G01*
X107600000Y-101800000D02*
G75*
G02*
X113600000Y-101800000I3000000J0D01*
G01*
%TO.C,C15*%
X100361252Y-57665000D02*
X99838748Y-57665000D01*
X100361252Y-59135000D02*
X99838748Y-59135000D01*
D16*
%TO.C,J2*%
X112214500Y-42550000D02*
G75*
G02*
X112011300Y-42550000I-101600J0D01*
G01*
X112011300Y-42550000D02*
G75*
G02*
X112214500Y-42550000I101600J0D01*
G01*
D14*
%TO.C,J3*%
X87580000Y-38055000D02*
X87580000Y-36395000D01*
X96520000Y-38055000D02*
X96520000Y-36395000D01*
D11*
%TO.C,C23*%
X52365000Y-86011252D02*
X52365000Y-85488748D01*
X53835000Y-86011252D02*
X53835000Y-85488748D01*
%TO.C,J1*%
X67990000Y-55930000D02*
X67990000Y-54600000D01*
X69320000Y-55930000D02*
X67990000Y-55930000D01*
X70590000Y-53270000D02*
X80810000Y-53270000D01*
X70590000Y-55930000D02*
X70590000Y-53270000D01*
X70590000Y-55930000D02*
X80810000Y-55930000D01*
X80810000Y-55930000D02*
X80810000Y-53270000D01*
%TO.C,R14*%
X43814564Y-90565000D02*
X43360436Y-90565000D01*
X43814564Y-92035000D02*
X43360436Y-92035000D01*
%TO.C,C11*%
X83662164Y-69677500D02*
X83877836Y-69677500D01*
X83662164Y-70397500D02*
X83877836Y-70397500D01*
%TO.C,C30*%
X105411252Y-89865000D02*
X104888748Y-89865000D01*
X105411252Y-91335000D02*
X104888748Y-91335000D01*
%TO.C,R24*%
X121236359Y-60370000D02*
X121543641Y-60370000D01*
X121236359Y-61130000D02*
X121543641Y-61130000D01*
%TO.C,R7*%
X126215000Y-42960436D02*
X126215000Y-43414564D01*
X127685000Y-42960436D02*
X127685000Y-43414564D01*
%TD*%
M02*
