%TF.GenerationSoftware,KiCad,Pcbnew,8.0.6*%
%TF.CreationDate,2025-01-09T21:18:53+11:00*%
%TF.ProjectId,drone_remote,64726f6e-655f-4726-956d-6f74652e6b69,rev?*%
%TF.SameCoordinates,Original*%
%TF.FileFunction,Copper,L1,Top*%
%TF.FilePolarity,Positive*%
%FSLAX46Y46*%
G04 Gerber Fmt 4.6, Leading zero omitted, Abs format (unit mm)*
G04 Created by KiCad (PCBNEW 8.0.6) date 2025-01-09 21:18:53*
%MOMM*%
%LPD*%
G01*
G04 APERTURE LIST*
G04 Aperture macros list*
%AMRoundRect*
0 Rectangle with rounded corners*
0 $1 Rounding radius*
0 $2 $3 $4 $5 $6 $7 $8 $9 X,Y pos of 4 corners*
0 Add a 4 corners polygon primitive as box body*
4,1,4,$2,$3,$4,$5,$6,$7,$8,$9,$2,$3,0*
0 Add four circle primitives for the rounded corners*
1,1,$1+$1,$2,$3*
1,1,$1+$1,$4,$5*
1,1,$1+$1,$6,$7*
1,1,$1+$1,$8,$9*
0 Add four rect primitives between the rounded corners*
20,1,$1+$1,$2,$3,$4,$5,0*
20,1,$1+$1,$4,$5,$6,$7,0*
20,1,$1+$1,$6,$7,$8,$9,0*
20,1,$1+$1,$8,$9,$2,$3,0*%
G04 Aperture macros list end*
%TA.AperFunction,SMDPad,CuDef*%
%ADD10RoundRect,0.140000X-0.140000X-0.170000X0.140000X-0.170000X0.140000X0.170000X-0.140000X0.170000X0*%
%TD*%
%TA.AperFunction,SMDPad,CuDef*%
%ADD11RoundRect,0.250000X-0.450000X0.262500X-0.450000X-0.262500X0.450000X-0.262500X0.450000X0.262500X0*%
%TD*%
%TA.AperFunction,SMDPad,CuDef*%
%ADD12RoundRect,0.162500X0.162500X-0.837500X0.162500X0.837500X-0.162500X0.837500X-0.162500X-0.837500X0*%
%TD*%
%TA.AperFunction,SMDPad,CuDef*%
%ADD13RoundRect,0.250000X0.475000X-0.250000X0.475000X0.250000X-0.475000X0.250000X-0.475000X-0.250000X0*%
%TD*%
%TA.AperFunction,SMDPad,CuDef*%
%ADD14RoundRect,0.250000X0.262500X0.450000X-0.262500X0.450000X-0.262500X-0.450000X0.262500X-0.450000X0*%
%TD*%
%TA.AperFunction,SMDPad,CuDef*%
%ADD15RoundRect,0.250000X0.450000X-0.262500X0.450000X0.262500X-0.450000X0.262500X-0.450000X-0.262500X0*%
%TD*%
%TA.AperFunction,SMDPad,CuDef*%
%ADD16RoundRect,0.250000X0.250000X0.475000X-0.250000X0.475000X-0.250000X-0.475000X0.250000X-0.475000X0*%
%TD*%
%TA.AperFunction,SMDPad,CuDef*%
%ADD17R,1.676400X0.355600*%
%TD*%
%TA.AperFunction,SMDPad,CuDef*%
%ADD18RoundRect,0.218750X-0.256250X0.218750X-0.256250X-0.218750X0.256250X-0.218750X0.256250X0.218750X0*%
%TD*%
%TA.AperFunction,ComponentPad*%
%ADD19R,1.498000X1.498000*%
%TD*%
%TA.AperFunction,ComponentPad*%
%ADD20C,1.498000*%
%TD*%
%TA.AperFunction,SMDPad,CuDef*%
%ADD21RoundRect,0.140000X0.140000X0.170000X-0.140000X0.170000X-0.140000X-0.170000X0.140000X-0.170000X0*%
%TD*%
%TA.AperFunction,ComponentPad*%
%ADD22R,1.700000X1.700000*%
%TD*%
%TA.AperFunction,ComponentPad*%
%ADD23O,1.700000X1.700000*%
%TD*%
%TA.AperFunction,SMDPad,CuDef*%
%ADD24RoundRect,0.250000X-0.262500X-0.450000X0.262500X-0.450000X0.262500X0.450000X-0.262500X0.450000X0*%
%TD*%
%TA.AperFunction,SMDPad,CuDef*%
%ADD25RoundRect,0.250000X-0.250000X-0.475000X0.250000X-0.475000X0.250000X0.475000X-0.250000X0.475000X0*%
%TD*%
%TA.AperFunction,SMDPad,CuDef*%
%ADD26RoundRect,0.112500X0.187500X0.112500X-0.187500X0.112500X-0.187500X-0.112500X0.187500X-0.112500X0*%
%TD*%
%TA.AperFunction,SMDPad,CuDef*%
%ADD27R,1.200000X0.400000*%
%TD*%
%TA.AperFunction,SMDPad,CuDef*%
%ADD28RoundRect,0.250000X-0.475000X0.250000X-0.475000X-0.250000X0.475000X-0.250000X0.475000X0.250000X0*%
%TD*%
%TA.AperFunction,SMDPad,CuDef*%
%ADD29RoundRect,0.075000X0.075000X-0.700000X0.075000X0.700000X-0.075000X0.700000X-0.075000X-0.700000X0*%
%TD*%
%TA.AperFunction,SMDPad,CuDef*%
%ADD30RoundRect,0.075000X0.700000X-0.075000X0.700000X0.075000X-0.700000X0.075000X-0.700000X-0.075000X0*%
%TD*%
%TA.AperFunction,SMDPad,CuDef*%
%ADD31RoundRect,0.243750X0.243750X0.456250X-0.243750X0.456250X-0.243750X-0.456250X0.243750X-0.456250X0*%
%TD*%
%TA.AperFunction,SMDPad,CuDef*%
%ADD32RoundRect,0.243750X-0.243750X-0.456250X0.243750X-0.456250X0.243750X0.456250X-0.243750X0.456250X0*%
%TD*%
%TA.AperFunction,SMDPad,CuDef*%
%ADD33RoundRect,0.112500X-0.187500X-0.112500X0.187500X-0.112500X0.187500X0.112500X-0.187500X0.112500X0*%
%TD*%
%TA.AperFunction,SMDPad,CuDef*%
%ADD34RoundRect,0.140000X-0.170000X0.140000X-0.170000X-0.140000X0.170000X-0.140000X0.170000X0.140000X0*%
%TD*%
%TA.AperFunction,SMDPad,CuDef*%
%ADD35RoundRect,0.140000X0.170000X-0.140000X0.170000X0.140000X-0.170000X0.140000X-0.170000X-0.140000X0*%
%TD*%
%TA.AperFunction,SMDPad,CuDef*%
%ADD36R,1.447800X0.889000*%
%TD*%
%TA.AperFunction,SMDPad,CuDef*%
%ADD37RoundRect,0.375000X-0.625000X-0.375000X0.625000X-0.375000X0.625000X0.375000X-0.625000X0.375000X0*%
%TD*%
%TA.AperFunction,SMDPad,CuDef*%
%ADD38RoundRect,0.500000X-0.500000X-1.400000X0.500000X-1.400000X0.500000X1.400000X-0.500000X1.400000X0*%
%TD*%
%TA.AperFunction,SMDPad,CuDef*%
%ADD39RoundRect,0.112500X0.112500X-0.187500X0.112500X0.187500X-0.112500X0.187500X-0.112500X-0.187500X0*%
%TD*%
%TA.AperFunction,SMDPad,CuDef*%
%ADD40RoundRect,0.218750X0.218750X0.256250X-0.218750X0.256250X-0.218750X-0.256250X0.218750X-0.256250X0*%
%TD*%
%TA.AperFunction,ComponentPad*%
%ADD41R,2.000000X2.000000*%
%TD*%
%TA.AperFunction,ComponentPad*%
%ADD42C,2.000000*%
%TD*%
%TA.AperFunction,ComponentPad*%
%ADD43R,2.000000X3.200000*%
%TD*%
%TA.AperFunction,SMDPad,CuDef*%
%ADD44RoundRect,0.243750X0.456250X-0.243750X0.456250X0.243750X-0.456250X0.243750X-0.456250X-0.243750X0*%
%TD*%
%TA.AperFunction,SMDPad,CuDef*%
%ADD45R,0.508000X2.311400*%
%TD*%
%TA.AperFunction,SMDPad,CuDef*%
%ADD46R,2.006600X2.489200*%
%TD*%
%TA.AperFunction,SMDPad,CuDef*%
%ADD47R,0.600000X1.150000*%
%TD*%
%TA.AperFunction,SMDPad,CuDef*%
%ADD48R,0.300000X1.150000*%
%TD*%
%TA.AperFunction,ComponentPad*%
%ADD49O,1.000000X1.900000*%
%TD*%
%TA.AperFunction,ComponentPad*%
%ADD50O,1.000000X1.500000*%
%TD*%
%TA.AperFunction,SMDPad,CuDef*%
%ADD51RoundRect,0.135000X-0.135000X-0.185000X0.135000X-0.185000X0.135000X0.185000X-0.135000X0.185000X0*%
%TD*%
%TA.AperFunction,ViaPad*%
%ADD52C,0.700000*%
%TD*%
%TA.AperFunction,Conductor*%
%ADD53C,0.500000*%
%TD*%
%TA.AperFunction,Conductor*%
%ADD54C,0.300000*%
%TD*%
%TA.AperFunction,Conductor*%
%ADD55C,0.200000*%
%TD*%
G04 APERTURE END LIST*
D10*
%TO.P,C1,1*%
%TO.N,/D-*%
X111700000Y-43600000D03*
%TO.P,C1,2*%
%TO.N,GND*%
X112660000Y-43600000D03*
%TD*%
D11*
%TO.P,R6,1*%
%TO.N,Net-(D6-A)*%
X123950000Y-42275000D03*
%TO.P,R6,2*%
%TO.N,/HB_LED*%
X123950000Y-44100000D03*
%TD*%
D12*
%TO.P,Q1,1,D*%
%TO.N,/V_BAT*%
X71850000Y-39120000D03*
%TO.P,Q1,2,G*%
%TO.N,/V_USB*%
X73750000Y-39120000D03*
%TO.P,Q1,3,S*%
%TO.N,+5V*%
X72800000Y-35700000D03*
%TD*%
D13*
%TO.P,C27,1*%
%TO.N,/ENC1_SW*%
X134025000Y-113250000D03*
%TO.P,C27,2*%
%TO.N,GND*%
X134025000Y-111350000D03*
%TD*%
D11*
%TO.P,R1,1*%
%TO.N,GND*%
X98600000Y-36975000D03*
%TO.P,R1,2*%
%TO.N,Net-(J3-CC1)*%
X98600000Y-38800000D03*
%TD*%
D14*
%TO.P,R16,1*%
%TO.N,Net-(J5-Pin_8)*%
X47000000Y-35100000D03*
%TO.P,R16,2*%
%TO.N,GND*%
X45175000Y-35100000D03*
%TD*%
D15*
%TO.P,R20,1*%
%TO.N,+3.3V*%
X136825000Y-113250000D03*
%TO.P,R20,2*%
%TO.N,/ENC1_SW*%
X136825000Y-111425000D03*
%TD*%
D16*
%TO.P,C25,1*%
%TO.N,GND*%
X124475000Y-88200000D03*
%TO.P,C25,2*%
%TO.N,/ENC1_A*%
X122575000Y-88200000D03*
%TD*%
D17*
%TO.P,U3,1,1A*%
%TO.N,/SW4*%
X55630600Y-73699999D03*
%TO.P,U3,2,1Y*%
%TO.N,/PUSH_BTN1*%
X55630600Y-74350000D03*
%TO.P,U3,3,2A*%
%TO.N,/SW2*%
X55630600Y-75000001D03*
%TO.P,U3,4,2Y*%
%TO.N,/PUSH_BTN2*%
X55630600Y-75650000D03*
%TO.P,U3,5,3A*%
%TO.N,/SW3*%
X55630600Y-76299999D03*
%TO.P,U3,6,3Y*%
%TO.N,/PUSH_BTN3*%
X55630600Y-76950000D03*
%TO.P,U3,7,GND*%
%TO.N,GND*%
X55630600Y-77599999D03*
%TO.P,U3,8,4Y*%
%TO.N,unconnected-(U3-4Y-Pad8)*%
X61269400Y-77600001D03*
%TO.P,U3,9,4A*%
%TO.N,unconnected-(U3-4A-Pad9)*%
X61269400Y-76950000D03*
%TO.P,U3,10,5Y*%
%TO.N,unconnected-(U3-5Y-Pad10)*%
X61269400Y-76300001D03*
%TO.P,U3,11,5A*%
%TO.N,unconnected-(U3-5A-Pad11)*%
X61269400Y-75650000D03*
%TO.P,U3,12,6Y*%
%TO.N,/PUSH_BTN4*%
X61269400Y-75000001D03*
%TO.P,U3,13,6A*%
%TO.N,/SW5*%
X61269400Y-74350000D03*
%TO.P,U3,14,VCC*%
%TO.N,+3.3V*%
X61269400Y-73700001D03*
%TD*%
D13*
%TO.P,C18,1*%
%TO.N,GND*%
X82275000Y-39950000D03*
%TO.P,C18,2*%
%TO.N,VBUS*%
X82275000Y-38050000D03*
%TD*%
D18*
%TO.P,L1,1*%
%TO.N,Net-(J2-VBUS)*%
X96300000Y-48512500D03*
%TO.P,L1,2*%
%TO.N,Net-(U5-VCC)*%
X96300000Y-50087500D03*
%TD*%
D13*
%TO.P,C22,1*%
%TO.N,GND*%
X48700000Y-91900000D03*
%TO.P,C22,2*%
%TO.N,/SW4*%
X48700000Y-90000000D03*
%TD*%
D19*
%TO.P,SW3,1,1*%
%TO.N,GND*%
X55800000Y-91300000D03*
D20*
%TO.P,SW3,2,2*%
%TO.N,/SW2*%
X55800000Y-84800000D03*
%TO.P,SW3,3,3*%
%TO.N,GND*%
X60300000Y-91300000D03*
%TO.P,SW3,4,4*%
%TO.N,/SW2*%
X60300000Y-84800000D03*
%TD*%
D15*
%TO.P,R8,1*%
%TO.N,+3.3V*%
X85200000Y-53700000D03*
%TO.P,R8,2*%
%TO.N,/SWDIO*%
X85200000Y-51875000D03*
%TD*%
D21*
%TO.P,C8,1*%
%TO.N,GND*%
X85827894Y-55405734D03*
%TO.P,C8,2*%
%TO.N,+3.3V*%
X84867894Y-55405734D03*
%TD*%
D18*
%TO.P,L2,1*%
%TO.N,+3.3VA*%
X93100000Y-73525000D03*
%TO.P,L2,2*%
%TO.N,+3.3V*%
X93100000Y-75100000D03*
%TD*%
D22*
%TO.P,J6,1,Pin_1*%
%TO.N,/I2C1_SDA*%
X44800000Y-48800000D03*
D23*
%TO.P,J6,2,Pin_2*%
%TO.N,/I2C1_SCL*%
X47340000Y-48800000D03*
%TO.P,J6,3,Pin_3*%
%TO.N,GND*%
X49880000Y-48800000D03*
%TO.P,J6,4,Pin_4*%
%TO.N,+3.3V*%
X52420000Y-48800000D03*
%TD*%
D22*
%TO.P,J8,1,Pin_1*%
%TO.N,unconnected-(J8-Pin_1-Pad1)*%
X143300000Y-55720000D03*
D23*
%TO.P,J8,2,Pin_2*%
%TO.N,unconnected-(J8-Pin_2-Pad2)*%
X143300000Y-58260000D03*
%TO.P,J8,3,Pin_3*%
%TO.N,unconnected-(J8-Pin_3-Pad3)*%
X143300000Y-60800000D03*
%TO.P,J8,4,Pin_4*%
%TO.N,unconnected-(J8-Pin_4-Pad4)*%
X143300000Y-63340000D03*
%TO.P,J8,5,Pin_5*%
%TO.N,unconnected-(J8-Pin_5-Pad5)*%
X143300000Y-65880000D03*
%TO.P,J8,6,Pin_6*%
%TO.N,unconnected-(J8-Pin_6-Pad6)*%
X143300000Y-68420000D03*
%TO.P,J8,7,Pin_7*%
%TO.N,unconnected-(J8-Pin_7-Pad7)*%
X143300000Y-70960000D03*
%TO.P,J8,8,Pin_8*%
%TO.N,unconnected-(J8-Pin_8-Pad8)*%
X143300000Y-73500000D03*
%TO.P,J8,9,Pin_9*%
%TO.N,unconnected-(J8-Pin_9-Pad9)*%
X143300000Y-76040000D03*
%TD*%
D24*
%TO.P,R22,1*%
%TO.N,/ENC2_C*%
X111200000Y-90600000D03*
%TO.P,R22,2*%
%TO.N,+3.3V*%
X113025000Y-90600000D03*
%TD*%
D13*
%TO.P,C4,1*%
%TO.N,GND*%
X77700000Y-81700000D03*
%TO.P,C4,2*%
%TO.N,/nRST*%
X77700000Y-79800000D03*
%TD*%
D15*
%TO.P,R3,1*%
%TO.N,/USBD+*%
X104600000Y-48725000D03*
%TO.P,R3,2*%
%TO.N,/D-*%
X104600000Y-46900000D03*
%TD*%
D19*
%TO.P,SW2,1,1*%
%TO.N,GND*%
X62435000Y-94050000D03*
D20*
%TO.P,SW2,2,2*%
%TO.N,/SW3*%
X68935000Y-94050000D03*
%TO.P,SW2,3,3*%
%TO.N,GND*%
X62435000Y-98550000D03*
%TO.P,SW2,4,4*%
%TO.N,/SW3*%
X68935000Y-98550000D03*
%TD*%
D11*
%TO.P,R2,1*%
%TO.N,/D+*%
X102500000Y-46900000D03*
%TO.P,R2,2*%
%TO.N,/USBD-*%
X102500000Y-48725000D03*
%TD*%
D22*
%TO.P,J4,1,Pin_1*%
%TO.N,GND*%
X81075000Y-35200000D03*
D23*
%TO.P,J4,2,Pin_2*%
%TO.N,+5V*%
X78535000Y-35200000D03*
%TD*%
D25*
%TO.P,C28,1*%
%TO.N,GND*%
X111125000Y-88100000D03*
%TO.P,C28,2*%
%TO.N,/ENC2_C*%
X113025000Y-88100000D03*
%TD*%
D26*
%TO.P,D2,1,A1*%
%TO.N,/USB_OTG_FS+*%
X90150000Y-44375000D03*
%TO.P,D2,2,A2*%
%TO.N,GND*%
X88050000Y-44375000D03*
%TD*%
D19*
%TO.P,SW5,1,1*%
%TO.N,GND*%
X60300000Y-101000000D03*
D20*
%TO.P,SW5,2,2*%
%TO.N,/SW5*%
X60300000Y-107500000D03*
%TO.P,SW5,3,3*%
%TO.N,GND*%
X55800000Y-101000000D03*
%TO.P,SW5,4,4*%
%TO.N,/SW5*%
X55800000Y-107500000D03*
%TD*%
D27*
%TO.P,U5,1,TXD*%
%TO.N,/USART_TX*%
X106300000Y-54622500D03*
%TO.P,U5,2,~{RTS}*%
%TO.N,unconnected-(U5-~{RTS}-Pad2)*%
X106300000Y-53987500D03*
%TO.P,U5,3,VCCIO*%
%TO.N,Net-(U5-3V3OUT)*%
X106300000Y-53352500D03*
%TO.P,U5,4,RXD*%
%TO.N,/USART_RX*%
X106300000Y-52717500D03*
%TO.P,U5,5,GND*%
%TO.N,GND*%
X106300000Y-52082500D03*
%TO.P,U5,6,~{CTS}*%
%TO.N,unconnected-(U5-~{CTS}-Pad6)*%
X106300000Y-51447500D03*
%TO.P,U5,7,CBUS2*%
%TO.N,unconnected-(U5-CBUS2-Pad7)*%
X106300000Y-50812500D03*
%TO.P,U5,8,USBDP*%
%TO.N,/USBD+*%
X106300000Y-50177500D03*
%TO.P,U5,9,USBDM*%
%TO.N,/USBD-*%
X101100000Y-50177500D03*
%TO.P,U5,10,3V3OUT*%
%TO.N,Net-(U5-3V3OUT)*%
X101100000Y-50812500D03*
%TO.P,U5,11,~{RESET}*%
X101100000Y-51447500D03*
%TO.P,U5,12,VCC*%
%TO.N,Net-(U5-VCC)*%
X101100000Y-52082500D03*
%TO.P,U5,13,GND*%
%TO.N,GND*%
X101100000Y-52717500D03*
%TO.P,U5,14,CBUS1*%
%TO.N,unconnected-(U5-CBUS1-Pad14)*%
X101100000Y-53352500D03*
%TO.P,U5,15,CBUS0*%
%TO.N,unconnected-(U5-CBUS0-Pad15)*%
X101100000Y-53987500D03*
%TO.P,U5,16,CBUS3*%
%TO.N,unconnected-(U5-CBUS3-Pad16)*%
X101100000Y-54622500D03*
%TD*%
D19*
%TO.P,SW4,1,1*%
%TO.N,GND*%
X53600000Y-98550000D03*
D20*
%TO.P,SW4,2,2*%
%TO.N,/SW4*%
X47100000Y-98550000D03*
%TO.P,SW4,3,3*%
%TO.N,GND*%
X53600000Y-94050000D03*
%TO.P,SW4,4,4*%
%TO.N,/SW4*%
X47100000Y-94050000D03*
%TD*%
D15*
%TO.P,R15,1*%
%TO.N,+3.3V*%
X60700000Y-111800000D03*
%TO.P,R15,2*%
%TO.N,/SW5*%
X60700000Y-109975000D03*
%TD*%
D13*
%TO.P,C20,1*%
%TO.N,+3.3V*%
X71100000Y-50300000D03*
%TO.P,C20,2*%
%TO.N,GND*%
X71100000Y-48400000D03*
%TD*%
%TO.P,C21,1*%
%TO.N,GND*%
X65700000Y-90800000D03*
%TO.P,C21,2*%
%TO.N,/SW3*%
X65700000Y-88900000D03*
%TD*%
D14*
%TO.P,R13,1*%
%TO.N,/SW2*%
X49600000Y-84900000D03*
%TO.P,R13,2*%
%TO.N,+3.3V*%
X47775000Y-84900000D03*
%TD*%
D11*
%TO.P,R5,1*%
%TO.N,GND*%
X61200000Y-61287500D03*
%TO.P,R5,2*%
%TO.N,/BOOT0*%
X61200000Y-63112500D03*
%TD*%
D28*
%TO.P,C3,1*%
%TO.N,GND*%
X101500000Y-37150000D03*
%TO.P,C3,2*%
%TO.N,Net-(J2-VBUS)*%
X101500000Y-39050000D03*
%TD*%
D21*
%TO.P,C2,1*%
%TO.N,/D+*%
X110100000Y-43600000D03*
%TO.P,C2,2*%
%TO.N,GND*%
X109140000Y-43600000D03*
%TD*%
D22*
%TO.P,J5,1,Pin_1*%
%TO.N,GND*%
X62550000Y-42975000D03*
D23*
%TO.P,J5,2,Pin_2*%
%TO.N,+3.3V*%
X60010000Y-42975000D03*
%TO.P,J5,3,Pin_3*%
%TO.N,/SPI3_SCK*%
X57470000Y-42975000D03*
%TO.P,J5,4,Pin_4*%
%TO.N,/SPI3_MOSI*%
X54930000Y-42975000D03*
%TO.P,J5,5,Pin_5*%
%TO.N,/ST7735_nRST*%
X52390000Y-42975000D03*
%TO.P,J5,6,Pin_6*%
%TO.N,/ST7735_DC*%
X49850000Y-42975000D03*
%TO.P,J5,7,Pin_7*%
%TO.N,/SPI3_nCS*%
X47310000Y-42975000D03*
%TO.P,J5,8,Pin_8*%
%TO.N,Net-(J5-Pin_8)*%
X44770000Y-42975000D03*
%TD*%
D18*
%TO.P,D7,1,K*%
%TO.N,GND*%
X126962500Y-38787500D03*
%TO.P,D7,2,A*%
%TO.N,Net-(D7-A)*%
X126962500Y-40362500D03*
%TD*%
D13*
%TO.P,C5,1*%
%TO.N,Net-(U5-3V3OUT)*%
X98600000Y-50500000D03*
%TO.P,C5,2*%
%TO.N,GND*%
X98600000Y-48600000D03*
%TD*%
D29*
%TO.P,U1,1,VBAT*%
%TO.N,+3.3V*%
X85600000Y-68950000D03*
%TO.P,U1,2,PC13*%
%TO.N,/PUSH_BTN2*%
X86100000Y-68950000D03*
%TO.P,U1,3,PC14*%
%TO.N,/PUSH_BTN3*%
X86600000Y-68950000D03*
%TO.P,U1,4,PC15*%
%TO.N,/PUSH_BTN4*%
X87100000Y-68950000D03*
%TO.P,U1,5,RCC_OSC_IN*%
%TO.N,/OSC_IN*%
X87600000Y-68950000D03*
%TO.P,U1,6,RCC_OSC_OUT*%
%TO.N,/OSC_OUT*%
X88100000Y-68950000D03*
%TO.P,U1,7,NRST*%
%TO.N,/nRST*%
X88600000Y-68950000D03*
%TO.P,U1,8,PC0*%
%TO.N,unconnected-(U1-PC0-Pad8)*%
X89100000Y-68950000D03*
%TO.P,U1,9,PC1*%
%TO.N,unconnected-(U1-PC1-Pad9)*%
X89600000Y-68950000D03*
%TO.P,U1,10,PC2*%
%TO.N,unconnected-(U1-PC2-Pad10)*%
X90100000Y-68950000D03*
%TO.P,U1,11,PC3*%
%TO.N,unconnected-(U1-PC3-Pad11)*%
X90600000Y-68950000D03*
%TO.P,U1,12,VSSA*%
%TO.N,GND*%
X91100000Y-68950000D03*
%TO.P,U1,13,VDDA*%
%TO.N,+3.3VA*%
X91600000Y-68950000D03*
%TO.P,U1,14,PA0*%
%TO.N,/TIM2_CH1*%
X92100000Y-68950000D03*
%TO.P,U1,15,PA1*%
%TO.N,/TIM2_CH2*%
X92600000Y-68950000D03*
%TO.P,U1,16,PA2*%
%TO.N,/ENC2_BTN*%
X93100000Y-68950000D03*
D30*
%TO.P,U1,17,PA3*%
%TO.N,/ENC1_BTN*%
X95025000Y-67025000D03*
%TO.P,U1,18,VSS*%
%TO.N,GND*%
X95025000Y-66525000D03*
%TO.P,U1,19,VDD*%
%TO.N,+3.3V*%
X95025000Y-66025000D03*
%TO.P,U1,20,PA4*%
%TO.N,/SPI1_nCS*%
X95025000Y-65525000D03*
%TO.P,U1,21,PA5*%
%TO.N,/SPI1_SCK*%
X95025000Y-65025000D03*
%TO.P,U1,22,PA6*%
%TO.N,/SPI1_MISO*%
X95025000Y-64525000D03*
%TO.P,U1,23,PA7*%
%TO.N,/SPI1_MOSI*%
X95025000Y-64025000D03*
%TO.P,U1,24,PC4*%
%TO.N,unconnected-(U1-PC4-Pad24)*%
X95025000Y-63525000D03*
%TO.P,U1,25,PC5*%
%TO.N,/RFM_nRST*%
X95025000Y-63025000D03*
%TO.P,U1,26,PB0*%
%TO.N,/RFM_G0*%
X95025000Y-62525000D03*
%TO.P,U1,27,PB1*%
%TO.N,/ADC_VOLTAGE*%
X95025000Y-62025000D03*
%TO.P,U1,28,PB2*%
%TO.N,/MCU_LED*%
X95025000Y-61525000D03*
%TO.P,U1,29,PB10*%
%TO.N,/HB_LED*%
X95025000Y-61025000D03*
%TO.P,U1,30,VCAP1*%
%TO.N,Net-(U1-VCAP1)*%
X95025000Y-60525000D03*
%TO.P,U1,31,VSS*%
%TO.N,GND*%
X95025000Y-60025000D03*
%TO.P,U1,32,VDD*%
%TO.N,+3.3V*%
X95025000Y-59525000D03*
D29*
%TO.P,U1,33,PB12*%
%TO.N,unconnected-(U1-PB12-Pad33)*%
X93100000Y-57600000D03*
%TO.P,U1,34,PB13*%
%TO.N,unconnected-(U1-PB13-Pad34)*%
X92600000Y-57600000D03*
%TO.P,U1,35,PB14*%
%TO.N,unconnected-(U1-PB14-Pad35)*%
X92100000Y-57600000D03*
%TO.P,U1,36,PB15*%
%TO.N,unconnected-(U1-PB15-Pad36)*%
X91600000Y-57600000D03*
%TO.P,U1,37,PC6*%
%TO.N,unconnected-(U1-PC6-Pad37)*%
X91100000Y-57600000D03*
%TO.P,U1,38,PC7*%
%TO.N,unconnected-(U1-PC7-Pad38)*%
X90600000Y-57600000D03*
%TO.P,U1,39,PC8*%
%TO.N,unconnected-(U1-PC8-Pad39)*%
X90100000Y-57600000D03*
%TO.P,U1,40,PC9*%
%TO.N,unconnected-(U1-PC9-Pad40)*%
X89600000Y-57600000D03*
%TO.P,U1,41,PA8*%
%TO.N,unconnected-(U1-PA8-Pad41)*%
X89100000Y-57600000D03*
%TO.P,U1,42,PA9*%
%TO.N,/USART_TX*%
X88600000Y-57600000D03*
%TO.P,U1,43,PA10*%
%TO.N,/USART_RX*%
X88100000Y-57600000D03*
%TO.P,U1,44,PA11*%
%TO.N,/USB_OTG_FS-*%
X87600000Y-57600000D03*
%TO.P,U1,45,PA12*%
%TO.N,/USB_OTG_FS+*%
X87100000Y-57600000D03*
%TO.P,U1,46,PA13*%
%TO.N,/SWDIO*%
X86600000Y-57600000D03*
%TO.P,U1,47,VSS*%
%TO.N,GND*%
X86100000Y-57600000D03*
%TO.P,U1,48,VDD*%
%TO.N,+3.3V*%
X85600000Y-57600000D03*
D30*
%TO.P,U1,49,PA14*%
%TO.N,/SWCLK*%
X83675000Y-59525000D03*
%TO.P,U1,50,PA15*%
%TO.N,/SPI3_nCS*%
X83675000Y-60025000D03*
%TO.P,U1,51,PC10*%
%TO.N,/SPI3_SCK*%
X83675000Y-60525000D03*
%TO.P,U1,52,PC11*%
%TO.N,unconnected-(U1-PC11-Pad52)*%
X83675000Y-61025000D03*
%TO.P,U1,53,PC12*%
%TO.N,/SPI3_MOSI*%
X83675000Y-61525000D03*
%TO.P,U1,54,PD2*%
%TO.N,/ST7735_nRST*%
X83675000Y-62025000D03*
%TO.P,U1,55,PB3*%
%TO.N,unconnected-(U1-PB3-Pad55)*%
X83675000Y-62525000D03*
%TO.P,U1,56,PB4*%
%TO.N,/ST7735_DC*%
X83675000Y-63025000D03*
%TO.P,U1,57,PB5*%
%TO.N,/PUSH_BTN1*%
X83675000Y-63525000D03*
%TO.P,U1,58,PB6*%
%TO.N,/TIM4_CH1*%
X83675000Y-64025000D03*
%TO.P,U1,59,PB7*%
%TO.N,/TIM4_CH2*%
X83675000Y-64525000D03*
%TO.P,U1,60,BOOT0*%
%TO.N,/BOOT0*%
X83675000Y-65025000D03*
%TO.P,U1,61,PB8*%
%TO.N,/I2C1_SCL*%
X83675000Y-65525000D03*
%TO.P,U1,62,PB9*%
%TO.N,/I2C1_SDA*%
X83675000Y-66025000D03*
%TO.P,U1,63,VSS*%
%TO.N,GND*%
X83675000Y-66525000D03*
%TO.P,U1,64,VDD*%
%TO.N,+3.3V*%
X83675000Y-67025000D03*
%TD*%
D31*
%TO.P,F1,1*%
%TO.N,VBUS*%
X77600000Y-39400000D03*
%TO.P,F1,2*%
%TO.N,/V_USB*%
X75725000Y-39400000D03*
%TD*%
D32*
%TO.P,D5,1,K*%
%TO.N,/REG_IN*%
X71525000Y-41800000D03*
%TO.P,D5,2,A*%
%TO.N,/V_USB*%
X73400000Y-41800000D03*
%TD*%
D11*
%TO.P,R17,1*%
%TO.N,Net-(D8-A)*%
X121500000Y-50900000D03*
%TO.P,R17,2*%
%TO.N,+3.3V*%
X121500000Y-52725000D03*
%TD*%
D22*
%TO.P,J7,1,Pin_1*%
%TO.N,+3.3V*%
X117900000Y-55720000D03*
D23*
%TO.P,J7,2,Pin_2*%
%TO.N,GND*%
X117900000Y-58260000D03*
%TO.P,J7,3,Pin_3*%
%TO.N,Net-(J7-Pin_3)*%
X117900000Y-60800000D03*
%TO.P,J7,4,Pin_4*%
%TO.N,/SPI1_SCK*%
X117900000Y-63340000D03*
%TO.P,J7,5,Pin_5*%
%TO.N,/SPI1_MISO*%
X117900000Y-65880000D03*
%TO.P,J7,6,Pin_6*%
%TO.N,/SPI1_MOSI*%
X117900000Y-68420000D03*
%TO.P,J7,7,Pin_7*%
%TO.N,/SPI1_nCS*%
X117900000Y-70960000D03*
%TO.P,J7,8,Pin_8*%
%TO.N,/RFM_nRST*%
X117900000Y-73500000D03*
%TO.P,J7,9,Pin_9*%
%TO.N,/RFM_G0*%
X117900000Y-76040000D03*
%TD*%
D15*
%TO.P,R4,1*%
%TO.N,Net-(J3-CC2)*%
X84500000Y-36512500D03*
%TO.P,R4,2*%
%TO.N,GND*%
X84500000Y-34687500D03*
%TD*%
D24*
%TO.P,R10,1*%
%TO.N,/SW3*%
X69100000Y-88900000D03*
%TO.P,R10,2*%
%TO.N,+3.3V*%
X70925000Y-88900000D03*
%TD*%
D21*
%TO.P,C16,1*%
%TO.N,GND*%
X87910000Y-76475000D03*
%TO.P,C16,2*%
%TO.N,/OSC_IN*%
X86950000Y-76475000D03*
%TD*%
D13*
%TO.P,C24,1*%
%TO.N,/SW5*%
X64700000Y-110000000D03*
%TO.P,C24,2*%
%TO.N,GND*%
X64700000Y-108100000D03*
%TD*%
D19*
%TO.P,SW1,1,1*%
%TO.N,/nRST*%
X77665000Y-76750000D03*
D20*
%TO.P,SW1,2,2*%
%TO.N,GND*%
X71165000Y-76750000D03*
%TO.P,SW1,3,3*%
%TO.N,/nRST*%
X77665000Y-72250000D03*
%TO.P,SW1,4,4*%
%TO.N,GND*%
X71165000Y-72250000D03*
%TD*%
D33*
%TO.P,D1,1,A1*%
%TO.N,/USB_OTG_FS-*%
X92975000Y-44400000D03*
%TO.P,D1,2,A2*%
%TO.N,GND*%
X95075000Y-44400000D03*
%TD*%
D34*
%TO.P,C7,1*%
%TO.N,GND*%
X81850000Y-67170000D03*
%TO.P,C7,2*%
%TO.N,+3.3V*%
X81850000Y-68130000D03*
%TD*%
D35*
%TO.P,C10,1*%
%TO.N,GND*%
X97000000Y-67750000D03*
%TO.P,C10,2*%
%TO.N,+3.3V*%
X97000000Y-66790000D03*
%TD*%
D15*
%TO.P,R12,1*%
%TO.N,/ADC_VOLTAGE*%
X85350000Y-43825000D03*
%TO.P,R12,2*%
%TO.N,GND*%
X85350000Y-42000000D03*
%TD*%
D14*
%TO.P,R18,1*%
%TO.N,/ENC1_A*%
X124500000Y-90600000D03*
%TO.P,R18,2*%
%TO.N,+3.3V*%
X122675000Y-90600000D03*
%TD*%
D22*
%TO.P,JP2,1,A*%
%TO.N,Net-(J5-Pin_8)*%
X47370000Y-38270000D03*
D23*
%TO.P,JP2,2,B*%
%TO.N,+3.3V*%
X44830000Y-38270000D03*
%TD*%
D34*
%TO.P,C13,1*%
%TO.N,+3.3VA*%
X96400000Y-76500000D03*
%TO.P,C13,2*%
%TO.N,GND*%
X96400000Y-77460000D03*
%TD*%
D36*
%TO.P,X1,1,1*%
%TO.N,/OSC_IN*%
X87479600Y-80975000D03*
%TO.P,X1,2,2*%
%TO.N,GND*%
X91950000Y-80975000D03*
%TO.P,X1,3,3*%
%TO.N,/OSC_OUT*%
X91950000Y-78475000D03*
%TO.P,X1,4,4*%
%TO.N,GND*%
X87479600Y-78475000D03*
%TD*%
D13*
%TO.P,C29,1*%
%TO.N,GND*%
X118950000Y-113150000D03*
%TO.P,C29,2*%
%TO.N,/ENC2_SW*%
X118950000Y-111250000D03*
%TD*%
D37*
%TO.P,U2,1,VI*%
%TO.N,/REG_IN*%
X74000000Y-44900000D03*
%TO.P,U2,2,GND*%
%TO.N,GND*%
X74000000Y-47200000D03*
D38*
X80300000Y-47200000D03*
D37*
%TO.P,U2,3,VO*%
%TO.N,+3.3V*%
X74000000Y-49500000D03*
%TD*%
D16*
%TO.P,C26,1*%
%TO.N,/ENC1_C*%
X131850000Y-88000000D03*
%TO.P,C26,2*%
%TO.N,GND*%
X129950000Y-88000000D03*
%TD*%
D14*
%TO.P,R21,1*%
%TO.N,/ENC2_A*%
X106012500Y-88000000D03*
%TO.P,R21,2*%
%TO.N,+3.3V*%
X104187500Y-88000000D03*
%TD*%
D34*
%TO.P,C14,1*%
%TO.N,+3.3V*%
X94900000Y-76540000D03*
%TO.P,C14,2*%
%TO.N,GND*%
X94900000Y-77500000D03*
%TD*%
D24*
%TO.P,R11,1*%
%TO.N,/REG_IN*%
X83662500Y-46100000D03*
%TO.P,R11,2*%
%TO.N,/ADC_VOLTAGE*%
X85487500Y-46100000D03*
%TD*%
D11*
%TO.P,R23,1*%
%TO.N,/ENC2_SW*%
X116650000Y-111250000D03*
%TO.P,R23,2*%
%TO.N,+3.3V*%
X116650000Y-113075000D03*
%TD*%
D28*
%TO.P,C19,1*%
%TO.N,/REG_IN*%
X71100000Y-44400000D03*
%TO.P,C19,2*%
%TO.N,GND*%
X71100000Y-46300000D03*
%TD*%
D10*
%TO.P,C17,1*%
%TO.N,GND*%
X90490000Y-76475000D03*
%TO.P,C17,2*%
%TO.N,/OSC_OUT*%
X91450000Y-76475000D03*
%TD*%
%TO.P,C6,1*%
%TO.N,GND*%
X83290000Y-71562500D03*
%TO.P,C6,2*%
%TO.N,+3.3V*%
X84250000Y-71562500D03*
%TD*%
D17*
%TO.P,U4,1,1A*%
%TO.N,/ENC1_A*%
X110169400Y-82300001D03*
%TO.P,U4,2,1Y*%
%TO.N,/TIM4_CH1*%
X110169400Y-81650000D03*
%TO.P,U4,3,2A*%
%TO.N,/ENC1_C*%
X110169400Y-80999999D03*
%TO.P,U4,4,2Y*%
%TO.N,/TIM4_CH2*%
X110169400Y-80350000D03*
%TO.P,U4,5,3A*%
%TO.N,/ENC1_SW*%
X110169400Y-79700001D03*
%TO.P,U4,6,3Y*%
%TO.N,/ENC1_BTN*%
X110169400Y-79050000D03*
%TO.P,U4,7,GND*%
%TO.N,GND*%
X110169400Y-78400001D03*
%TO.P,U4,8,4Y*%
%TO.N,/ENC2_BTN*%
X104530600Y-78399999D03*
%TO.P,U4,9,4A*%
%TO.N,/ENC2_SW*%
X104530600Y-79050000D03*
%TO.P,U4,10,5Y*%
%TO.N,/TIM2_CH2*%
X104530600Y-79699999D03*
%TO.P,U4,11,5A*%
%TO.N,/ENC2_C*%
X104530600Y-80350000D03*
%TO.P,U4,12,6Y*%
%TO.N,/TIM2_CH1*%
X104530600Y-80999999D03*
%TO.P,U4,13,6A*%
%TO.N,/ENC2_A*%
X104530600Y-81650000D03*
%TO.P,U4,14,VCC*%
%TO.N,+3.3V*%
X104530600Y-82299999D03*
%TD*%
D18*
%TO.P,D6,1,K*%
%TO.N,GND*%
X123962500Y-38695000D03*
%TO.P,D6,2,A*%
%TO.N,Net-(D6-A)*%
X123962500Y-40270000D03*
%TD*%
D39*
%TO.P,D3,1,A1*%
%TO.N,VBUS*%
X79600000Y-40235000D03*
%TO.P,D3,2,A2*%
%TO.N,GND*%
X79600000Y-38135000D03*
%TD*%
D40*
%TO.P,D8,1,K*%
%TO.N,GND*%
X126175000Y-50850000D03*
%TO.P,D8,2,A*%
%TO.N,Net-(D8-A)*%
X124600000Y-50850000D03*
%TD*%
D41*
%TO.P,SW6,A,A*%
%TO.N,/ENC1_C*%
X130350000Y-94250000D03*
D42*
%TO.P,SW6,B,B*%
%TO.N,/ENC1_A*%
X125350000Y-94250000D03*
%TO.P,SW6,C,C*%
%TO.N,GND*%
X127850000Y-94250000D03*
D43*
%TO.P,SW6,MP*%
%TO.N,N/C*%
X133450000Y-101750000D03*
X122250000Y-101750000D03*
D42*
%TO.P,SW6,S1,S1*%
%TO.N,/ENC1_SW*%
X125350000Y-108750000D03*
%TO.P,SW6,S2,S2*%
%TO.N,GND*%
X130350000Y-108750000D03*
%TD*%
D10*
%TO.P,C12,1*%
%TO.N,GND*%
X90640000Y-71300000D03*
%TO.P,C12,2*%
%TO.N,+3.3VA*%
X91600000Y-71300000D03*
%TD*%
D11*
%TO.P,R25,1*%
%TO.N,+3.3V*%
X63500000Y-61337500D03*
%TO.P,R25,2*%
%TO.N,/BOOT0*%
X63500000Y-63162500D03*
%TD*%
D14*
%TO.P,R19,1*%
%TO.N,+3.3V*%
X132625000Y-90800000D03*
%TO.P,R19,2*%
%TO.N,/ENC1_C*%
X130800000Y-90800000D03*
%TD*%
D24*
%TO.P,R9,1*%
%TO.N,+3.3V*%
X77287500Y-58200000D03*
%TO.P,R9,2*%
%TO.N,/SWCLK*%
X79112500Y-58200000D03*
%TD*%
D44*
%TO.P,D4,1,K*%
%TO.N,/REG_IN*%
X68800000Y-41137500D03*
%TO.P,D4,2,A*%
%TO.N,/V_BAT*%
X68800000Y-39262500D03*
%TD*%
D35*
%TO.P,C9,1*%
%TO.N,GND*%
X96920594Y-59010000D03*
%TO.P,C9,2*%
%TO.N,+3.3V*%
X96920594Y-58050000D03*
%TD*%
D41*
%TO.P,SW7,A,A*%
%TO.N,/ENC2_C*%
X113100000Y-94300000D03*
D42*
%TO.P,SW7,B,B*%
%TO.N,/ENC2_A*%
X108100000Y-94300000D03*
%TO.P,SW7,C,C*%
%TO.N,GND*%
X110600000Y-94300000D03*
D43*
%TO.P,SW7,MP*%
%TO.N,N/C*%
X116200000Y-101800000D03*
X105000000Y-101800000D03*
D42*
%TO.P,SW7,S1,S1*%
%TO.N,/ENC2_SW*%
X108100000Y-108800000D03*
%TO.P,SW7,S2,S2*%
%TO.N,GND*%
X113100000Y-108800000D03*
%TD*%
D16*
%TO.P,C15,1*%
%TO.N,Net-(U1-VCAP1)*%
X101050000Y-58400000D03*
%TO.P,C15,2*%
%TO.N,GND*%
X99150000Y-58400000D03*
%TD*%
D45*
%TO.P,J2,1,VBUS*%
%TO.N,Net-(J2-VBUS)*%
X112099999Y-40661000D03*
%TO.P,J2,2,D-*%
%TO.N,/D-*%
X111300001Y-40661000D03*
%TO.P,J2,3,D+*%
%TO.N,/D+*%
X110500000Y-40661000D03*
%TO.P,J2,4,ID*%
%TO.N,unconnected-(J2-ID-Pad4)*%
X109699999Y-40661000D03*
%TO.P,J2,5,GND*%
%TO.N,GND*%
X108900001Y-40661000D03*
D46*
%TO.P,J2,6,Shield*%
%TO.N,unconnected-(J2-Shield-Pad6)*%
X114950000Y-40565802D03*
%TO.P,J2,7*%
%TO.N,N/C*%
X106050000Y-40565802D03*
%TO.P,J2,8*%
X114950000Y-35055000D03*
%TO.P,J2,9*%
X106050000Y-35055000D03*
%TD*%
D47*
%TO.P,J3,A1B12,GND_A*%
%TO.N,GND*%
X95250000Y-39700000D03*
%TO.P,J3,A4B9,VBUS_A*%
%TO.N,VBUS*%
X94450000Y-39700000D03*
D48*
%TO.P,J3,A5,CC1*%
%TO.N,Net-(J3-CC1)*%
X93300000Y-39700000D03*
%TO.P,J3,A6,D1+*%
%TO.N,/USB_OTG_FS+*%
X92300000Y-39700000D03*
%TO.P,J3,A7,D1-*%
%TO.N,/USB_OTG_FS-*%
X91800000Y-39700000D03*
%TO.P,J3,A8,SBU1*%
%TO.N,unconnected-(J3-SBU1-PadA8)*%
X90800000Y-39700000D03*
D47*
%TO.P,J3,B1A12,GND_B*%
%TO.N,GND*%
X88850000Y-39700000D03*
%TO.P,J3,B4A9,VBUS_B*%
%TO.N,VBUS*%
X89650000Y-39700000D03*
D48*
%TO.P,J3,B5,CC2*%
%TO.N,Net-(J3-CC2)*%
X90300000Y-39700000D03*
%TO.P,J3,B6,D2+*%
%TO.N,/USB_OTG_FS+*%
X91300000Y-39700000D03*
%TO.P,J3,B7,D2-*%
%TO.N,/USB_OTG_FS-*%
X92800000Y-39700000D03*
%TO.P,J3,B8,SBU2*%
%TO.N,unconnected-(J3-SBU2-PadB8)*%
X93800000Y-39700000D03*
D49*
%TO.P,J3,SH1,SHIELD*%
%TO.N,unconnected-(J3-SHIELD-PadSH1)*%
X96370000Y-35125000D03*
%TO.P,J3,SH2,SHIELD__1*%
%TO.N,unconnected-(J3-SHIELD__1-PadSH2)*%
X87730000Y-35125000D03*
D50*
%TO.P,J3,SH3,SHIELD__2*%
%TO.N,unconnected-(J3-SHIELD__2-PadSH3)*%
X96370000Y-39125000D03*
%TO.P,J3,SH4,SHIELD__3*%
%TO.N,unconnected-(J3-SHIELD__3-PadSH4)*%
X87730000Y-39125000D03*
%TD*%
D13*
%TO.P,C23,1*%
%TO.N,GND*%
X53100000Y-86700000D03*
%TO.P,C23,2*%
%TO.N,/SW2*%
X53100000Y-84800000D03*
%TD*%
D22*
%TO.P,J1,1,Pin_1*%
%TO.N,+3.3V*%
X69320000Y-54600000D03*
D23*
%TO.P,J1,2,Pin_2*%
%TO.N,/SWDIO*%
X71860000Y-54600000D03*
%TO.P,J1,3,Pin_3*%
%TO.N,/SWCLK*%
X74400000Y-54600000D03*
%TO.P,J1,4,Pin_4*%
%TO.N,/nRST*%
X76940000Y-54600000D03*
%TO.P,J1,5,Pin_5*%
%TO.N,GND*%
X79480000Y-54600000D03*
%TD*%
D14*
%TO.P,R14,1*%
%TO.N,/SW4*%
X44500000Y-91300000D03*
%TO.P,R14,2*%
%TO.N,+3.3V*%
X42675000Y-91300000D03*
%TD*%
D10*
%TO.P,C11,1*%
%TO.N,GND*%
X83290000Y-70037500D03*
%TO.P,C11,2*%
%TO.N,+3.3V*%
X84250000Y-70037500D03*
%TD*%
D16*
%TO.P,C30,1*%
%TO.N,GND*%
X106100000Y-90600000D03*
%TO.P,C30,2*%
%TO.N,/ENC2_A*%
X104200000Y-90600000D03*
%TD*%
D51*
%TO.P,R24,1*%
%TO.N,Net-(J7-Pin_3)*%
X120880000Y-60750000D03*
%TO.P,R24,2*%
%TO.N,+3.3V*%
X121900000Y-60750000D03*
%TD*%
D11*
%TO.P,R7,1*%
%TO.N,Net-(D7-A)*%
X126950000Y-42275000D03*
%TO.P,R7,2*%
%TO.N,/MCU_LED*%
X126950000Y-44100000D03*
%TD*%
D52*
%TO.N,GND*%
X112000000Y-78300000D03*
X85000000Y-66400000D03*
X99700000Y-52782500D03*
X81750000Y-41075000D03*
X98200000Y-57550000D03*
X107600000Y-52000000D03*
X59750000Y-61250000D03*
X95300000Y-38600000D03*
X91950000Y-82100000D03*
X87400000Y-79550000D03*
X82100000Y-47200000D03*
X131350000Y-107000000D03*
X91100000Y-67400000D03*
X108900000Y-38900000D03*
X43900000Y-35100000D03*
X127400000Y-50850000D03*
X82400000Y-71600000D03*
X71200000Y-78800000D03*
X81500000Y-54600000D03*
X97650000Y-68200000D03*
X113350000Y-43550000D03*
X50800000Y-50900000D03*
X63800000Y-45000000D03*
X125350000Y-38600000D03*
X55650000Y-78750000D03*
X101500000Y-36000000D03*
X87000000Y-59100000D03*
X83100000Y-34700000D03*
X98600000Y-47600000D03*
X115900000Y-58250000D03*
%TO.N,+3.3V*%
X58250000Y-67600000D03*
X124750000Y-60750000D03*
X68200000Y-48000000D03*
X111750000Y-97050000D03*
X93700000Y-59500000D03*
X109250000Y-97050000D03*
X82300000Y-50900000D03*
X82300000Y-52600000D03*
X64400000Y-74400000D03*
X43700000Y-84900000D03*
X118150000Y-90600000D03*
X92300000Y-59500000D03*
X119750000Y-90600000D03*
X137450000Y-90800000D03*
X45500000Y-84900000D03*
X94600000Y-79000000D03*
X64400000Y-76100000D03*
X93400000Y-77800000D03*
X59700000Y-68700000D03*
X135850000Y-90800000D03*
X122900000Y-60750000D03*
X66500000Y-48000000D03*
%TO.N,/SPI1_SCK*%
X106450000Y-65250000D03*
X106450000Y-63200000D03*
%TO.N,VBUS*%
X89600000Y-37600000D03*
X91000000Y-37600000D03*
%TO.N,/ADC_VOLTAGE*%
X91375000Y-50900000D03*
X93900000Y-56400000D03*
X93700000Y-53175000D03*
X89775000Y-49325000D03*
%TO.N,/PUSH_BTN1*%
X68850000Y-64050000D03*
X68850000Y-67350000D03*
%TO.N,/nRST*%
X82650000Y-69150000D03*
X83989975Y-68260025D03*
%TO.N,/TIM4_CH2*%
X90750000Y-64600000D03*
X87700000Y-64600000D03*
%TO.N,/TIM4_CH1*%
X87600000Y-62200000D03*
X89800000Y-62200000D03*
%TO.N,Net-(U5-3V3OUT)*%
X104700000Y-53417500D03*
X104700000Y-52017500D03*
%TD*%
D53*
%TO.N,Net-(J2-VBUS)*%
X101500000Y-41378122D02*
X101339061Y-41539061D01*
X112099999Y-39005300D02*
X111194699Y-38100000D01*
X96300000Y-46578122D02*
X101339061Y-41539061D01*
X96300000Y-46578122D02*
X96300000Y-48512500D01*
X101500000Y-39050000D02*
X101500000Y-41378122D01*
X105100000Y-37400000D02*
X103450000Y-39050000D01*
X103450000Y-39050000D02*
X101500000Y-39050000D01*
X110450000Y-37400000D02*
X105100000Y-37400000D01*
X111194699Y-38100000D02*
X111150000Y-38100000D01*
X111150000Y-38100000D02*
X110450000Y-37400000D01*
X112099999Y-40661000D02*
X112099999Y-39005300D01*
%TO.N,GND*%
X62435000Y-98550000D02*
X62435000Y-94050000D01*
X108900001Y-40661000D02*
X108900001Y-38900001D01*
X110550000Y-106250000D02*
X113100000Y-108800000D01*
D54*
X96075000Y-66525000D02*
X96340000Y-66790000D01*
D53*
X48800000Y-91900000D02*
X50950000Y-94050000D01*
X99150000Y-58400000D02*
X99050000Y-58400000D01*
X79600000Y-36675000D02*
X79600000Y-38135000D01*
D54*
X62450000Y-94050000D02*
X62435000Y-94050000D01*
X90640000Y-71300000D02*
X90640000Y-70990001D01*
D53*
X118950000Y-113150000D02*
X120700000Y-113150000D01*
X55630600Y-77599999D02*
X55630600Y-78730600D01*
X110600000Y-94300000D02*
X106900000Y-90600000D01*
D54*
X82080000Y-67170000D02*
X81850000Y-67170000D01*
D53*
X88050000Y-43500000D02*
X86550000Y-42000000D01*
X53600000Y-98550000D02*
X53600000Y-98800000D01*
X91564800Y-80825000D02*
X91575000Y-80825000D01*
X110800000Y-78400000D02*
X111900000Y-78400000D01*
X98540000Y-59010000D02*
X96920594Y-59010000D01*
X113300000Y-43600000D02*
X113350000Y-43550000D01*
X87479600Y-78475000D02*
X87479600Y-79470400D01*
X82275000Y-40550000D02*
X81750000Y-41075000D01*
D54*
X83675000Y-66525000D02*
X82725000Y-66525000D01*
D53*
X55800000Y-91300000D02*
X55800000Y-89400000D01*
X83112500Y-34687500D02*
X83100000Y-34700000D01*
X71165000Y-78765000D02*
X71200000Y-78800000D01*
X53600000Y-98800000D02*
X55800000Y-101000000D01*
X127750000Y-105850000D02*
X130350000Y-108450000D01*
X87910000Y-78579800D02*
X87864800Y-78625000D01*
X55800000Y-101000000D02*
X60300000Y-101000000D01*
D54*
X86100000Y-55677840D02*
X86100000Y-57600000D01*
D53*
X131350000Y-107000000D02*
X131350000Y-107450000D01*
X127850000Y-93950000D02*
X127850000Y-90100000D01*
D54*
X96340000Y-67390000D02*
X96700000Y-67750000D01*
D53*
X122600000Y-107600000D02*
X124350000Y-105850000D01*
X82275000Y-39950000D02*
X82275000Y-40550000D01*
X108900001Y-40661000D02*
X108900001Y-43360001D01*
X95075000Y-44400000D02*
X100150000Y-39325000D01*
D54*
X83290000Y-70037500D02*
X83290000Y-71562500D01*
D53*
X95250000Y-39700000D02*
X95250000Y-38650000D01*
X84500000Y-34687500D02*
X83112500Y-34687500D01*
D54*
X86100000Y-57600000D02*
X86100000Y-58478120D01*
D53*
X98600000Y-48600000D02*
X98600000Y-47600000D01*
X95250000Y-38650000D02*
X95300000Y-38600000D01*
X122600000Y-111250000D02*
X122600000Y-107600000D01*
X88050000Y-44375000D02*
X88050000Y-43500000D01*
X71165000Y-76750000D02*
X72750000Y-76750000D01*
X62435000Y-93435000D02*
X60300000Y-91300000D01*
X125537500Y-38787500D02*
X125350000Y-38600000D01*
X98775000Y-37150000D02*
X98600000Y-36975000D01*
X126962500Y-38787500D02*
X125537500Y-38787500D01*
X55630600Y-78730600D02*
X55650000Y-78750000D01*
X45175000Y-35100000D02*
X43900000Y-35100000D01*
X123962500Y-38695000D02*
X125255000Y-38695000D01*
X74000000Y-47200000D02*
X72000000Y-47200000D01*
X72750000Y-76750000D02*
X77700000Y-81700000D01*
X49880000Y-49980000D02*
X50800000Y-50900000D01*
X55800000Y-91300000D02*
X55800000Y-91850000D01*
X117900000Y-58260000D02*
X115910000Y-58260000D01*
X91575000Y-80825000D02*
X94900000Y-77500000D01*
X110550000Y-94350000D02*
X110550000Y-106250000D01*
X111900000Y-78400000D02*
X112000000Y-78300000D01*
X127850000Y-93950000D02*
X127850000Y-105750000D01*
X131425000Y-108750000D02*
X134025000Y-111350000D01*
D54*
X96700000Y-67750000D02*
X97000000Y-67750000D01*
X82725000Y-66525000D02*
X82080000Y-67170000D01*
X95025000Y-66525000D02*
X96075000Y-66525000D01*
D53*
X94940000Y-77460000D02*
X94900000Y-77500000D01*
X127850000Y-90100000D02*
X126375000Y-90100000D01*
X100150000Y-37150000D02*
X98775000Y-37150000D01*
X53600000Y-94050000D02*
X53600000Y-98550000D01*
D54*
X107517500Y-52082500D02*
X107600000Y-52000000D01*
D53*
X86550000Y-42000000D02*
X88850000Y-39700000D01*
D54*
X86100000Y-58478120D02*
X86721880Y-59100000D01*
X97000000Y-67610000D02*
X97010000Y-67610000D01*
D53*
X82600000Y-35200000D02*
X83100000Y-34700000D01*
X72300000Y-47200000D02*
X71100000Y-48400000D01*
X79600000Y-36675000D02*
X81075000Y-35200000D01*
X50950000Y-94050000D02*
X53600000Y-94050000D01*
X110600000Y-94300000D02*
X110550000Y-94350000D01*
X130350000Y-108750000D02*
X131425000Y-108750000D01*
X61200000Y-61287500D02*
X59787500Y-61287500D01*
D54*
X86721880Y-59100000D02*
X87000000Y-59100000D01*
D53*
X84325000Y-42000000D02*
X82275000Y-39950000D01*
X60300000Y-103700000D02*
X60300000Y-101000000D01*
D54*
X83290000Y-71562500D02*
X82437500Y-71562500D01*
D53*
X99050000Y-58400000D02*
X98200000Y-57550000D01*
D54*
X97200000Y-67750000D02*
X97650000Y-68200000D01*
D53*
X108900001Y-38900001D02*
X108900000Y-38900000D01*
X100150000Y-39325000D02*
X100150000Y-37150000D01*
D54*
X126962500Y-39255000D02*
X126870000Y-39162500D01*
X91100000Y-70530001D02*
X91100000Y-68950000D01*
D53*
X131350000Y-107450000D02*
X130350000Y-108450000D01*
X48700000Y-91900000D02*
X48800000Y-91900000D01*
X74000000Y-47200000D02*
X72300000Y-47200000D01*
X108600000Y-88100000D02*
X111125000Y-88100000D01*
D54*
X99765000Y-52717500D02*
X99700000Y-52782500D01*
D53*
X49880000Y-48800000D02*
X49880000Y-49980000D01*
X60300000Y-91300000D02*
X55800000Y-91300000D01*
X127850000Y-105750000D02*
X127750000Y-105850000D01*
X60300000Y-100685000D02*
X62435000Y-98550000D01*
X90490000Y-76475000D02*
X87910000Y-76475000D01*
D54*
X95905594Y-60025000D02*
X96920594Y-59010000D01*
X84875000Y-66525000D02*
X85000000Y-66400000D01*
D53*
X64700000Y-108100000D02*
X60300000Y-103700000D01*
X62550000Y-43750000D02*
X63800000Y-45000000D01*
X99150000Y-58400000D02*
X98540000Y-59010000D01*
X71165000Y-76750000D02*
X71165000Y-78765000D01*
D54*
X96340000Y-66790000D02*
X96340000Y-67390000D01*
D53*
X106900000Y-90600000D02*
X106100000Y-90600000D01*
X126375000Y-90100000D02*
X124475000Y-88200000D01*
X120700000Y-113150000D02*
X122600000Y-111250000D01*
X87910000Y-76475000D02*
X87910000Y-78579800D01*
X85350000Y-42000000D02*
X86550000Y-42000000D01*
X115910000Y-58260000D02*
X115900000Y-58250000D01*
X125255000Y-38695000D02*
X125350000Y-38600000D01*
D54*
X90640000Y-70990001D02*
X91100000Y-70530001D01*
D53*
X106100000Y-90600000D02*
X108600000Y-88100000D01*
X62550000Y-42975000D02*
X62550000Y-43750000D01*
D54*
X82437500Y-71562500D02*
X82400000Y-71600000D01*
X83675000Y-66525000D02*
X84875000Y-66525000D01*
D53*
X80300000Y-47200000D02*
X82100000Y-47200000D01*
X80300000Y-47200000D02*
X74000000Y-47200000D01*
X91950000Y-80975000D02*
X91950000Y-82100000D01*
X55800000Y-91850000D02*
X53600000Y-94050000D01*
D54*
X129750000Y-88200000D02*
X129950000Y-88000000D01*
D53*
X101500000Y-37150000D02*
X101500000Y-36000000D01*
X110550000Y-94350000D02*
X110550000Y-95100000D01*
X101500000Y-37150000D02*
X100150000Y-37150000D01*
X112660000Y-43600000D02*
X113300000Y-43600000D01*
X72000000Y-47200000D02*
X71100000Y-46300000D01*
X79480000Y-54600000D02*
X81500000Y-54600000D01*
X127850000Y-90100000D02*
X129950000Y-88000000D01*
X85350000Y-42000000D02*
X84325000Y-42000000D01*
X126175000Y-50850000D02*
X127400000Y-50850000D01*
X59787500Y-61287500D02*
X59750000Y-61250000D01*
D54*
X91100000Y-68950000D02*
X91100000Y-67400000D01*
X97000000Y-67750000D02*
X97200000Y-67750000D01*
X101100000Y-52717500D02*
X99765000Y-52717500D01*
D53*
X87479600Y-79470400D02*
X87400000Y-79550000D01*
X81075000Y-35200000D02*
X82600000Y-35200000D01*
X65700000Y-90800000D02*
X65685000Y-90800000D01*
X96400000Y-77460000D02*
X94940000Y-77460000D01*
D54*
X106300000Y-52082500D02*
X107517500Y-52082500D01*
D53*
X60300000Y-101000000D02*
X60300000Y-100685000D01*
X55800000Y-89400000D02*
X53100000Y-86700000D01*
X62435000Y-94050000D02*
X62435000Y-93435000D01*
X124350000Y-105850000D02*
X127750000Y-105850000D01*
D54*
X95025000Y-60025000D02*
X95905594Y-60025000D01*
D53*
X108900001Y-43360001D02*
X109140000Y-43600000D01*
X65685000Y-90800000D02*
X62435000Y-94050000D01*
%TO.N,+3.3V*%
X61269400Y-73700001D02*
X63700001Y-73700001D01*
X47775000Y-84900000D02*
X45500000Y-84900000D01*
X119750000Y-90600000D02*
X122675000Y-90600000D01*
D54*
X85337500Y-68950000D02*
X84250000Y-70037500D01*
X84867894Y-56867894D02*
X84867894Y-55405734D01*
D53*
X43918629Y-33950000D02*
X43100000Y-34768629D01*
X41000000Y-91300000D02*
X42675000Y-91300000D01*
X124750000Y-59950000D02*
X120600000Y-55800000D01*
X72570000Y-68130000D02*
X71900000Y-68800000D01*
X135025000Y-115050000D02*
X136825000Y-113250000D01*
D54*
X94146880Y-66025000D02*
X95025000Y-66025000D01*
D53*
X122575000Y-90500000D02*
X122675000Y-90600000D01*
X93400000Y-77800000D02*
X93400000Y-75400000D01*
X104187500Y-88512500D02*
X104187500Y-88000000D01*
X52420000Y-48800000D02*
X52420000Y-50257500D01*
D54*
X82890000Y-68150000D02*
X84250000Y-69510000D01*
D53*
X74000000Y-49500000D02*
X75400000Y-50900000D01*
D54*
X84250000Y-70037500D02*
X84250000Y-71562500D01*
D53*
X93100000Y-75100000D02*
X93460000Y-75100000D01*
X144000000Y-81600000D02*
X144000000Y-90800000D01*
X78100000Y-106950000D02*
X78100000Y-88900000D01*
X118625000Y-115050000D02*
X135025000Y-115050000D01*
X98240000Y-66790000D02*
X97000000Y-66790000D01*
X83400000Y-53700000D02*
X82300000Y-52600000D01*
X65300000Y-76100000D02*
X64400000Y-76100000D01*
X124750000Y-62350000D02*
X124750000Y-60750000D01*
D54*
X84250000Y-69510000D02*
X84250000Y-70037500D01*
D53*
X69320000Y-48000000D02*
X69320000Y-44620000D01*
X109250000Y-97050000D02*
X100600000Y-97050000D01*
X38300000Y-84900000D02*
X38300000Y-88600000D01*
X58650000Y-33950000D02*
X43918629Y-33950000D01*
X136825000Y-113250000D02*
X144000000Y-106075000D01*
D54*
X63500000Y-61337500D02*
X63137500Y-61337500D01*
D53*
X69320000Y-52080000D02*
X69320000Y-48000000D01*
X78100000Y-88900000D02*
X65300000Y-76100000D01*
X94600000Y-80408266D02*
X94600000Y-79000000D01*
X126300000Y-72450000D02*
X120350000Y-78400000D01*
X96491735Y-82299999D02*
X104530600Y-82299999D01*
X73200000Y-50300000D02*
X74000000Y-49500000D01*
X75400000Y-50900000D02*
X82300000Y-50900000D01*
X93400000Y-75400000D02*
X93100000Y-75100000D01*
X41600000Y-41500000D02*
X44830000Y-38270000D01*
X116650000Y-113075000D02*
X103525000Y-113075000D01*
X38200000Y-41850000D02*
X38200000Y-67700000D01*
X144000000Y-106075000D02*
X144000000Y-90800000D01*
X100600000Y-110150000D02*
X100600000Y-97050000D01*
X81850000Y-68130000D02*
X82870000Y-68130000D01*
X49870000Y-46250000D02*
X43300000Y-46250000D01*
X82870000Y-68130000D02*
X82890000Y-68150000D01*
X132625000Y-90800000D02*
X135850000Y-90800000D01*
X43300000Y-46250000D02*
X41600000Y-44550000D01*
D54*
X92300000Y-64178120D02*
X94146880Y-66025000D01*
D53*
X84867894Y-54032106D02*
X84867894Y-55405734D01*
X114700000Y-97050000D02*
X111750000Y-97050000D01*
D54*
X113200000Y-90675000D02*
X113025000Y-90500000D01*
D53*
X121500000Y-54700000D02*
X121500000Y-52725000D01*
X63700001Y-73700001D02*
X64400000Y-74400000D01*
D54*
X85600000Y-68950000D02*
X85337500Y-68950000D01*
D53*
X77287500Y-58200000D02*
X72920000Y-58200000D01*
D54*
X93725000Y-59525000D02*
X93700000Y-59500000D01*
D53*
X96491734Y-82300000D02*
X95445867Y-81254133D01*
D54*
X82890000Y-68150000D02*
X82890000Y-67810000D01*
D53*
X115850000Y-90600000D02*
X116200000Y-90600000D01*
X117892500Y-55712500D02*
X117900000Y-55720000D01*
X117980000Y-55800000D02*
X117900000Y-55720000D01*
X81850000Y-68130000D02*
X72570000Y-68130000D01*
D54*
X97000000Y-66742893D02*
X97000000Y-66790000D01*
D53*
X52420000Y-50257500D02*
X63500000Y-61337500D01*
X115850000Y-95900000D02*
X114700000Y-97050000D01*
X42675000Y-91300000D02*
X42675000Y-103325000D01*
X43100000Y-36540000D02*
X44830000Y-38270000D01*
X103525000Y-113075000D02*
X100600000Y-110150000D01*
X38300000Y-84900000D02*
X43700000Y-84900000D01*
X134850000Y-72450000D02*
X126300000Y-72450000D01*
X100600000Y-91587500D02*
X104187500Y-88000000D01*
X95445867Y-81254133D02*
X94600000Y-80408266D01*
X105650000Y-74200000D02*
X98240000Y-66790000D01*
X120600000Y-55800000D02*
X117980000Y-55800000D01*
X115850000Y-90600000D02*
X115850000Y-95900000D01*
X38300000Y-88600000D02*
X41000000Y-91300000D01*
X115450000Y-78400000D02*
X111250000Y-74200000D01*
X42675000Y-103325000D02*
X51150000Y-111800000D01*
X87800000Y-88900000D02*
X95445867Y-81254133D01*
X120600000Y-55600000D02*
X121500000Y-54700000D01*
X78100000Y-88900000D02*
X87800000Y-88900000D01*
X69320000Y-44620000D02*
X58650000Y-33950000D01*
X69300000Y-54580000D02*
X69320000Y-54600000D01*
X65035000Y-48000000D02*
X60010000Y-42975000D01*
X134850000Y-72450000D02*
X124750000Y-62350000D01*
D54*
X95025000Y-66025000D02*
X96282107Y-66025000D01*
D53*
X113025000Y-90600000D02*
X115850000Y-90600000D01*
D54*
X92300000Y-59500000D02*
X92300000Y-64178120D01*
D53*
X38300000Y-67600000D02*
X38200000Y-67700000D01*
X124750000Y-60750000D02*
X124750000Y-59950000D01*
X93460000Y-75100000D02*
X94900000Y-76540000D01*
X51150000Y-111800000D02*
X60700000Y-111800000D01*
X73250000Y-111800000D02*
X78100000Y-106950000D01*
X120350000Y-78400000D02*
X115450000Y-78400000D01*
X38550000Y-41500000D02*
X38200000Y-41850000D01*
X104530600Y-82299999D02*
X104530600Y-87656900D01*
D54*
X95025000Y-59525000D02*
X93725000Y-59525000D01*
D53*
X70925000Y-88900000D02*
X78100000Y-88900000D01*
X66500000Y-48000000D02*
X65035000Y-48000000D01*
D54*
X97000000Y-66790000D02*
X97046846Y-66790000D01*
D53*
X116650000Y-113075000D02*
X118625000Y-115050000D01*
X41600000Y-44550000D02*
X41600000Y-41500000D01*
X38200000Y-67700000D02*
X38200000Y-84800000D01*
X104530600Y-87656900D02*
X104187500Y-88000000D01*
X59800000Y-68800000D02*
X59700000Y-68700000D01*
X71100000Y-50300000D02*
X69320000Y-52080000D01*
X71100000Y-50300000D02*
X73200000Y-50300000D01*
X69320000Y-52080000D02*
X69320000Y-54600000D01*
X52420000Y-48800000D02*
X49870000Y-46250000D01*
X116200000Y-90600000D02*
X118150000Y-90600000D01*
X72920000Y-58200000D02*
X69320000Y-54600000D01*
X71900000Y-68800000D02*
X59800000Y-68800000D01*
X100600000Y-97050000D02*
X100600000Y-91587500D01*
X134850000Y-72450000D02*
X144000000Y-81600000D01*
X85200000Y-53700000D02*
X83400000Y-53700000D01*
X120600000Y-55800000D02*
X120600000Y-55600000D01*
D54*
X96282107Y-66025000D02*
X97000000Y-66742893D01*
X85600000Y-57600000D02*
X84867894Y-56867894D01*
X83675000Y-67025000D02*
X82890000Y-67810000D01*
D53*
X121900000Y-60750000D02*
X122900000Y-60750000D01*
X96400000Y-58050000D02*
X95025000Y-59425000D01*
X69320000Y-48000000D02*
X68200000Y-48000000D01*
X85200000Y-53700000D02*
X84867894Y-54032106D01*
X43100000Y-34768629D02*
X43100000Y-36540000D01*
X60700000Y-111800000D02*
X73250000Y-111800000D01*
X137450000Y-90800000D02*
X144000000Y-90800000D01*
X96491734Y-82300000D02*
X96491735Y-82299999D01*
X41600000Y-41500000D02*
X38550000Y-41500000D01*
X111250000Y-74200000D02*
X105650000Y-74200000D01*
X38200000Y-84800000D02*
X38300000Y-84900000D01*
X96920594Y-58050000D02*
X96400000Y-58050000D01*
X58250000Y-67600000D02*
X38300000Y-67600000D01*
D54*
%TO.N,+3.3VA*%
X91600000Y-71300000D02*
X91600000Y-68950000D01*
D53*
X96400000Y-76500000D02*
X96075000Y-76500000D01*
X96075000Y-76500000D02*
X93100000Y-73525000D01*
X93100000Y-72800000D02*
X91600000Y-71300000D01*
X93100000Y-73525000D02*
X93100000Y-72800000D01*
D54*
%TO.N,/SPI3_nCS*%
X49497500Y-40787500D02*
X47310000Y-42975000D01*
X67300000Y-45325000D02*
X62762500Y-40787500D01*
X71770000Y-59450000D02*
X67300000Y-54980000D01*
X83675000Y-60025000D02*
X82575000Y-60025000D01*
X67300000Y-54980000D02*
X67300000Y-45325000D01*
X62762500Y-40787500D02*
X49497500Y-40787500D01*
X82575000Y-60025000D02*
X82000000Y-59450000D01*
X82000000Y-59450000D02*
X71770000Y-59450000D01*
%TO.N,Net-(D7-A)*%
X126962500Y-42262500D02*
X126950000Y-42275000D01*
X126962500Y-40362500D02*
X126962500Y-42262500D01*
D53*
%TO.N,Net-(D8-A)*%
X124550000Y-50900000D02*
X124600000Y-50850000D01*
X121500000Y-50900000D02*
X124550000Y-50900000D01*
%TO.N,+5V*%
X78535000Y-35200000D02*
X73300000Y-35200000D01*
X73300000Y-35200000D02*
X72800000Y-35700000D01*
D54*
%TO.N,/SWDIO*%
X86600000Y-53275000D02*
X85200000Y-51875000D01*
X86600000Y-57600000D02*
X86600000Y-53275000D01*
X74585000Y-51875000D02*
X71860000Y-54600000D01*
X85200000Y-51875000D02*
X74585000Y-51875000D01*
%TO.N,/I2C1_SCL*%
X64070000Y-65530000D02*
X60180000Y-65530000D01*
X83675000Y-65525000D02*
X64075000Y-65525000D01*
X64075000Y-65525000D02*
X64070000Y-65530000D01*
X47340000Y-52690000D02*
X60180000Y-65530000D01*
X47340000Y-48800000D02*
X47340000Y-52690000D01*
%TO.N,/I2C1_SDA*%
X44800000Y-53450000D02*
X57750000Y-66400000D01*
X57750000Y-66400000D02*
X79600000Y-66400000D01*
X79975000Y-66025000D02*
X83675000Y-66025000D01*
X79600000Y-66400000D02*
X79975000Y-66025000D01*
X44800000Y-48800000D02*
X44800000Y-53450000D01*
%TO.N,/SPI3_MOSI*%
X82450000Y-61500000D02*
X70950000Y-61500000D01*
X54930000Y-45480000D02*
X54930000Y-42975000D01*
X82475000Y-61525000D02*
X82450000Y-61500000D01*
X83675000Y-61525000D02*
X82475000Y-61525000D01*
X70950000Y-61500000D02*
X54930000Y-45480000D01*
%TO.N,/SPI3_SCK*%
X63900000Y-49405000D02*
X57470000Y-42975000D01*
X82275000Y-60525000D02*
X82050000Y-60750000D01*
X82050000Y-60750000D02*
X71700000Y-60750000D01*
X71700000Y-60750000D02*
X63900000Y-52950000D01*
X63900000Y-52950000D02*
X63900000Y-49405000D01*
X83675000Y-60525000D02*
X82275000Y-60525000D01*
%TO.N,Net-(J3-CC2)*%
X90287500Y-36512500D02*
X90300000Y-36500000D01*
X90300000Y-36500000D02*
X90300000Y-39700000D01*
X84500000Y-36512500D02*
X90287500Y-36512500D01*
%TO.N,/SPI1_MOSI*%
X96567893Y-64025000D02*
X96692893Y-63900000D01*
X113380000Y-63900000D02*
X117900000Y-68420000D01*
X95025000Y-64025000D02*
X96567893Y-64025000D01*
X96692893Y-63900000D02*
X113380000Y-63900000D01*
%TO.N,/SPI1_SCK*%
X106450000Y-63200000D02*
X107000000Y-62650000D01*
X115590000Y-63340000D02*
X117900000Y-63340000D01*
X106150000Y-65550000D02*
X97800000Y-65550000D01*
X106450000Y-65250000D02*
X106150000Y-65550000D01*
X97275000Y-65025000D02*
X95025000Y-65025000D01*
X107000000Y-62650000D02*
X114900000Y-62650000D01*
X114900000Y-62650000D02*
X115590000Y-63340000D01*
X97800000Y-65550000D02*
X97275000Y-65025000D01*
%TO.N,/SPI1_nCS*%
X96741846Y-65525000D02*
X97376846Y-66160000D01*
X106210000Y-70960000D02*
X117900000Y-70960000D01*
X95025000Y-65525000D02*
X96741846Y-65525000D01*
X97376846Y-66160000D02*
X101410000Y-66160000D01*
X101410000Y-66160000D02*
X106210000Y-70960000D01*
%TO.N,Net-(J3-CC1)*%
X96775000Y-40625000D02*
X98600000Y-38800000D01*
X93300000Y-40575000D02*
X93350000Y-40625000D01*
X93300000Y-39700000D02*
X93300000Y-40575000D01*
X93350000Y-40625000D02*
X96775000Y-40625000D01*
%TO.N,/SPI1_MISO*%
X113570000Y-69620000D02*
X118397057Y-69620000D01*
X96850000Y-64450000D02*
X108400000Y-64450000D01*
X108400000Y-64450000D02*
X113570000Y-69620000D01*
X119100000Y-68917057D02*
X119100000Y-67080000D01*
X118397057Y-69620000D02*
X119100000Y-68917057D01*
X96775000Y-64525000D02*
X96850000Y-64450000D01*
X119100000Y-67080000D02*
X117900000Y-65880000D01*
X95025000Y-64525000D02*
X96775000Y-64525000D01*
D53*
%TO.N,VBUS*%
X81785000Y-38050000D02*
X79600000Y-40235000D01*
X83800000Y-37600000D02*
X83350000Y-38050000D01*
X79600000Y-40235000D02*
X78435000Y-40235000D01*
X89650000Y-37650000D02*
X89600000Y-37600000D01*
X89600000Y-37600000D02*
X83800000Y-37600000D01*
X94450000Y-38725000D02*
X94450000Y-39700000D01*
X89650000Y-39700000D02*
X89650000Y-37650000D01*
X93325000Y-37600000D02*
X94450000Y-38725000D01*
X83350000Y-38050000D02*
X82275000Y-38050000D01*
X91000000Y-37600000D02*
X93325000Y-37600000D01*
X78435000Y-40235000D02*
X77600000Y-39400000D01*
X82275000Y-38050000D02*
X81785000Y-38050000D01*
%TO.N,/ADC_VOLTAGE*%
X85487500Y-43962500D02*
X85350000Y-43825000D01*
X91425000Y-50900000D02*
X93700000Y-53175000D01*
X86550000Y-46100000D02*
X89775000Y-49325000D01*
D54*
X93900000Y-56400000D02*
X93900000Y-58310050D01*
X93900000Y-58310050D02*
X93000000Y-59210050D01*
X93000000Y-60878120D02*
X94146880Y-62025000D01*
X94146880Y-62025000D02*
X95025000Y-62025000D01*
D53*
X85487500Y-46100000D02*
X85487500Y-43962500D01*
X85487500Y-46100000D02*
X86550000Y-46100000D01*
D54*
X93000000Y-59210050D02*
X93000000Y-60878120D01*
D53*
X91375000Y-50900000D02*
X91425000Y-50900000D01*
D54*
%TO.N,/PUSH_BTN3*%
X86100000Y-71650000D02*
X86100000Y-72850000D01*
X86600000Y-68950000D02*
X86600000Y-71150000D01*
X55630600Y-76950000D02*
X56500000Y-76950000D01*
X56500000Y-76950000D02*
X59750000Y-73700000D01*
X86600000Y-71150000D02*
X86100000Y-71650000D01*
X84550000Y-74400000D02*
X70300000Y-74400000D01*
X86100000Y-72850000D02*
X84550000Y-74400000D01*
X59750000Y-73150000D02*
X59800000Y-73100000D01*
X59800000Y-73100000D02*
X69000000Y-73100000D01*
X70300000Y-74400000D02*
X69000000Y-73100000D01*
X59750000Y-73700000D02*
X59750000Y-73150000D01*
%TO.N,/USART_TX*%
X88600000Y-57600000D02*
X88600000Y-56721880D01*
X104272500Y-56650000D02*
X106300000Y-54622500D01*
X89621880Y-55700000D02*
X94200000Y-55700000D01*
X94200000Y-55700000D02*
X95150000Y-56650000D01*
X88600000Y-56721880D02*
X89621880Y-55700000D01*
X95150000Y-56650000D02*
X104272500Y-56650000D01*
%TO.N,/PUSH_BTN4*%
X85956060Y-75350000D02*
X63800000Y-75350000D01*
X63800000Y-75350000D02*
X63450001Y-75000001D01*
X87100000Y-68950000D02*
X87100000Y-74206060D01*
X87100000Y-74206060D02*
X85956060Y-75350000D01*
X63450001Y-75000001D02*
X61269400Y-75000001D01*
%TO.N,/USART_RX*%
X100400000Y-55200000D02*
X95750000Y-55200000D01*
X101577550Y-55550000D02*
X100750000Y-55550000D01*
X100750000Y-55550000D02*
X100400000Y-55200000D01*
X106300000Y-52717500D02*
X104410050Y-52717500D01*
X88100000Y-56100000D02*
X88100000Y-57600000D01*
X95750000Y-55200000D02*
X94500000Y-53950000D01*
X104410050Y-52717500D02*
X101577550Y-55550000D01*
X90250000Y-53950000D02*
X88100000Y-56100000D01*
X94500000Y-53950000D02*
X90250000Y-53950000D01*
%TO.N,/PUSH_BTN2*%
X86100000Y-70719346D02*
X86100000Y-68950000D01*
X59050000Y-73100000D02*
X59050000Y-72800000D01*
X56500000Y-75650000D02*
X59050000Y-73100000D01*
X55630600Y-75650000D02*
X56500000Y-75650000D01*
X55000000Y-75650000D02*
X55750000Y-75650000D01*
X59050000Y-72800000D02*
X61600000Y-70250000D01*
X77099000Y-73349000D02*
X83470346Y-73349000D01*
X74000000Y-70250000D02*
X77099000Y-73349000D01*
X61600000Y-70250000D02*
X74000000Y-70250000D01*
X83470346Y-73349000D02*
X86100000Y-70719346D01*
%TO.N,/PUSH_BTN1*%
X58300000Y-72818800D02*
X58300000Y-68750000D01*
X56768800Y-74350000D02*
X58300000Y-72818800D01*
X58300000Y-68750000D02*
X59700000Y-67350000D01*
X55630600Y-74350000D02*
X56768800Y-74350000D01*
X59700000Y-67350000D02*
X68850000Y-67350000D01*
X83675000Y-63525000D02*
X82382107Y-63525000D01*
X81857107Y-64050000D02*
X68850000Y-64050000D01*
X82382107Y-63525000D02*
X81857107Y-64050000D01*
%TO.N,/SWCLK*%
X79112500Y-58200000D02*
X78062500Y-57150000D01*
X82350000Y-58200000D02*
X79112500Y-58200000D01*
X76950000Y-57150000D02*
X74400000Y-54600000D01*
X83675000Y-59525000D02*
X82350000Y-58200000D01*
X78062500Y-57150000D02*
X76950000Y-57150000D01*
%TO.N,/TIM2_CH2*%
X102471879Y-79699999D02*
X104530600Y-79699999D01*
X92600000Y-69828120D02*
X102471879Y-79699999D01*
X92600000Y-68950000D02*
X92600000Y-69828120D01*
%TO.N,/TIM2_CH1*%
X102599999Y-80999999D02*
X92100000Y-70500000D01*
X104530600Y-80999999D02*
X102599999Y-80999999D01*
X92100000Y-68950000D02*
X92100000Y-70500000D01*
%TO.N,/ENC2_BTN*%
X93100000Y-68950000D02*
X102549999Y-78399999D01*
X102549999Y-78399999D02*
X104530600Y-78399999D01*
%TO.N,/ENC1_BTN*%
X108800000Y-77200000D02*
X106900000Y-75300000D01*
X109031200Y-79050000D02*
X108800000Y-78818800D01*
X110169400Y-79050000D02*
X109031200Y-79050000D01*
X97100000Y-68900000D02*
X96450000Y-68900000D01*
X95025000Y-67475000D02*
X95025000Y-67025000D01*
X96450000Y-68900000D02*
X95025000Y-67475000D01*
X106900000Y-75300000D02*
X103500000Y-75300000D01*
X109950000Y-79050000D02*
X110800000Y-79050000D01*
X103500000Y-75300000D02*
X97100000Y-68900000D01*
X108800000Y-78818800D02*
X108800000Y-77200000D01*
%TO.N,/BOOT0*%
X81850000Y-64750000D02*
X82125000Y-65025000D01*
X63450000Y-63112500D02*
X63500000Y-63162500D01*
X82125000Y-65025000D02*
X83675000Y-65025000D01*
X61200000Y-63112500D02*
X63450000Y-63112500D01*
X63500000Y-63162500D02*
X65087500Y-64750000D01*
X65087500Y-64750000D02*
X81850000Y-64750000D01*
D53*
%TO.N,Net-(J5-Pin_8)*%
X47000000Y-37900000D02*
X47370000Y-38270000D01*
D54*
X47400000Y-38300000D02*
X47370000Y-38270000D01*
X47295000Y-38195000D02*
X47370000Y-38270000D01*
X47370000Y-40375000D02*
X44770000Y-42975000D01*
X47370000Y-38270000D02*
X47370000Y-40375000D01*
D53*
X47000000Y-35100000D02*
X47000000Y-37900000D01*
D54*
%TO.N,/HB_LED*%
X119150000Y-44100000D02*
X123950000Y-44100000D01*
X95025000Y-61025000D02*
X97075000Y-61025000D01*
X97500000Y-60600000D02*
X102650000Y-60600000D01*
X102650000Y-60600000D02*
X119150000Y-44100000D01*
X97075000Y-61025000D02*
X97500000Y-60600000D01*
%TO.N,/MCU_LED*%
X103525000Y-61525000D02*
X95025000Y-61525000D01*
X126950000Y-44100000D02*
X122850000Y-48200000D01*
X122850000Y-48200000D02*
X116850000Y-48200000D01*
X116850000Y-48200000D02*
X103525000Y-61525000D01*
%TO.N,/nRST*%
X77700000Y-79800000D02*
X77700000Y-76785000D01*
X77700000Y-76785000D02*
X77665000Y-76750000D01*
X88600000Y-61700000D02*
X85700000Y-58800000D01*
X82650000Y-69150000D02*
X79550000Y-72250000D01*
X85346880Y-67825000D02*
X84425000Y-67825000D01*
X88600000Y-67900000D02*
X88600000Y-61700000D01*
X88600000Y-68950000D02*
X88600000Y-67900000D01*
X88525000Y-67825000D02*
X88600000Y-67900000D01*
X85346880Y-67825000D02*
X88525000Y-67825000D01*
X85700000Y-58800000D02*
X84328120Y-58800000D01*
X81328120Y-55800000D02*
X78140000Y-55800000D01*
X84425000Y-67825000D02*
X83989975Y-68260025D01*
X79550000Y-72250000D02*
X77665000Y-72250000D01*
X84328120Y-58800000D02*
X81328120Y-55800000D01*
X78140000Y-55800000D02*
X76940000Y-54600000D01*
%TO.N,/OSC_IN*%
X86250000Y-80650000D02*
X86575000Y-80975000D01*
X87600000Y-70500000D02*
X87800000Y-70700000D01*
X86250000Y-76700000D02*
X86250000Y-80650000D01*
X86475000Y-76475000D02*
X86250000Y-76700000D01*
X86950000Y-76250000D02*
X86950000Y-76475000D01*
X87600000Y-68950000D02*
X87600000Y-70500000D01*
X86950000Y-76475000D02*
X86475000Y-76475000D01*
X87800000Y-70700000D02*
X87800000Y-75400000D01*
X86575000Y-80975000D02*
X87479600Y-80975000D01*
X87800000Y-75400000D02*
X86950000Y-76250000D01*
%TO.N,/OSC_OUT*%
X88550000Y-70278120D02*
X88550000Y-71200000D01*
X88100000Y-68950000D02*
X88100000Y-69828120D01*
X88100000Y-69828120D02*
X88550000Y-70278120D01*
X91450000Y-74100000D02*
X91450000Y-76475000D01*
X88550000Y-71200000D02*
X91450000Y-74100000D01*
X91564800Y-78625000D02*
X91564800Y-76589800D01*
X91564800Y-76589800D02*
X91450000Y-76475000D01*
D53*
%TO.N,/REG_IN*%
X82412500Y-44850000D02*
X83662500Y-46100000D01*
X71100000Y-44400000D02*
X73500000Y-44400000D01*
X70862500Y-41137500D02*
X71525000Y-41800000D01*
X68800000Y-41137500D02*
X70862500Y-41137500D01*
X71525000Y-41800000D02*
X71525000Y-43975000D01*
X73500000Y-44400000D02*
X74000000Y-44900000D01*
X74300000Y-44600000D02*
X74000000Y-44900000D01*
X71525000Y-43975000D02*
X71100000Y-44400000D01*
X74000000Y-44900000D02*
X74050000Y-44850000D01*
X74050000Y-44850000D02*
X82412500Y-44850000D01*
%TO.N,/V_USB*%
X75725000Y-39400000D02*
X74030000Y-39400000D01*
X74030000Y-39400000D02*
X73750000Y-39120000D01*
X73400000Y-41800000D02*
X73400000Y-39470000D01*
X73400000Y-39470000D02*
X73750000Y-39120000D01*
%TO.N,/V_BAT*%
X71850000Y-39120000D02*
X68942500Y-39120000D01*
X68942500Y-39120000D02*
X68800000Y-39262500D01*
D55*
%TO.N,/USB_OTG_FS-*%
X87575000Y-53593200D02*
X87575000Y-56412499D01*
X91750001Y-39749999D02*
X91837500Y-39837498D01*
X91800000Y-39700000D02*
X91750001Y-39749999D01*
X87600000Y-56437499D02*
X87600000Y-57600000D01*
X91837500Y-44400000D02*
X92975000Y-44400000D01*
X87575000Y-56412499D02*
X87600000Y-56437499D01*
D54*
X92800000Y-40625000D02*
X91800000Y-40625000D01*
D55*
X91837500Y-39837498D02*
X91837500Y-44400000D01*
D54*
X91800000Y-40625000D02*
X91800000Y-39700000D01*
D55*
X91837500Y-44400000D02*
X91837500Y-49330700D01*
X91837500Y-49330700D02*
X87575000Y-53593200D01*
D54*
X92800000Y-39700000D02*
X92800000Y-40625000D01*
%TO.N,/USB_OTG_FS+*%
X91300000Y-39700000D02*
X91300000Y-38825000D01*
D55*
X91300000Y-44375000D02*
X91300000Y-49231800D01*
X91300000Y-40550000D02*
X91300000Y-44375000D01*
X87125000Y-53406800D02*
X87125000Y-56412499D01*
D54*
X91350000Y-38775000D02*
X92125000Y-38775000D01*
D55*
X87100000Y-56437499D02*
X87100000Y-57600000D01*
D54*
X92125000Y-38775000D02*
X92300000Y-38950000D01*
X91300000Y-39700000D02*
X91300000Y-40550000D01*
D55*
X87125000Y-56412499D02*
X87100000Y-56437499D01*
D54*
X92300000Y-38950000D02*
X92300000Y-39700000D01*
D55*
X91300000Y-49231800D02*
X87125000Y-53406800D01*
X91300000Y-44375000D02*
X90150000Y-44375000D01*
D54*
X91300000Y-38825000D02*
X91350000Y-38775000D01*
D55*
%TO.N,/D-*%
X111125000Y-40836001D02*
X111125000Y-42559999D01*
X104911397Y-45125000D02*
X104600000Y-45436397D01*
X111700000Y-43134999D02*
X111700000Y-43600000D01*
X104600000Y-45436397D02*
X104600000Y-46900000D01*
X110175000Y-45125000D02*
X104911397Y-45125000D01*
X111125000Y-42559999D02*
X111700000Y-43134999D01*
X111700000Y-43600000D02*
X110175000Y-45125000D01*
X111300001Y-40661000D02*
X111125000Y-40836001D01*
%TO.N,/D+*%
X104725000Y-44675000D02*
X102500000Y-46900000D01*
X110500000Y-40661000D02*
X110675000Y-40836000D01*
X110550000Y-41000000D02*
X110550000Y-41163603D01*
X110550000Y-41163603D02*
X110450000Y-41263603D01*
X110675000Y-42559999D02*
X110100000Y-43134999D01*
X109988603Y-44675000D02*
X104725000Y-44675000D01*
X110100000Y-43134999D02*
X110100000Y-43600000D01*
X110675000Y-40836000D02*
X110675000Y-42559999D01*
X110100000Y-44563603D02*
X109988603Y-44675000D01*
X110100000Y-43600000D02*
X110100000Y-44563603D01*
%TO.N,/USBD-*%
X103247500Y-50177500D02*
X101100000Y-50177500D01*
X103325000Y-50100000D02*
X103247500Y-50177500D01*
X102500000Y-48725000D02*
X102500000Y-48912500D01*
X102500000Y-48912500D02*
X103325000Y-49737500D01*
X103325000Y-49737500D02*
X103325000Y-50100000D01*
%TO.N,/USBD+*%
X104600000Y-48725000D02*
X104600000Y-48912500D01*
X103775000Y-50100000D02*
X103852500Y-50177500D01*
X104600000Y-48912500D02*
X103775000Y-49737500D01*
X103852500Y-50177500D02*
X106300000Y-50177500D01*
X103775000Y-49737500D02*
X103775000Y-50100000D01*
D54*
%TO.N,Net-(D6-A)*%
X123962500Y-40270000D02*
X123962500Y-42262500D01*
X123962500Y-42262500D02*
X123950000Y-42275000D01*
%TO.N,/SW2*%
X55800000Y-84800000D02*
X53100000Y-84800000D01*
X54492400Y-75000001D02*
X49600000Y-79892401D01*
X53100000Y-84800000D02*
X49700000Y-84800000D01*
X60300000Y-84800000D02*
X55800000Y-84800000D01*
X49600000Y-79892401D02*
X49600000Y-84900000D01*
X55630600Y-75000001D02*
X54492400Y-75000001D01*
X49700000Y-84800000D02*
X49600000Y-84900000D01*
%TO.N,/TIM4_CH2*%
X107800000Y-79118800D02*
X107800000Y-77950000D01*
X96271880Y-69650000D02*
X96600000Y-69650000D01*
X110169400Y-80350000D02*
X109031200Y-80350000D01*
X87700000Y-64600000D02*
X87625000Y-64525000D01*
X96600000Y-69650000D02*
X103550000Y-76600000D01*
X109031200Y-80350000D02*
X107800000Y-79118800D01*
X90750000Y-64600000D02*
X91221880Y-64600000D01*
X87625000Y-64525000D02*
X83675000Y-64525000D01*
X106450000Y-76600000D02*
X103550000Y-76600000D01*
X91221880Y-64600000D02*
X96271880Y-69650000D01*
X107800000Y-77950000D02*
X106450000Y-76600000D01*
%TO.N,/SW3*%
X63050000Y-86250000D02*
X65700000Y-88900000D01*
X55630600Y-76299999D02*
X54492400Y-76299999D01*
X68935000Y-89065000D02*
X69100000Y-88900000D01*
X53350000Y-80350000D02*
X53950000Y-80950000D01*
X63050000Y-83300000D02*
X63050000Y-86250000D01*
X53350000Y-77442399D02*
X53350000Y-80350000D01*
X68935000Y-98550000D02*
X68935000Y-94050000D01*
X53950000Y-80950000D02*
X60700000Y-80950000D01*
X54492400Y-76299999D02*
X53350000Y-77442399D01*
X60700000Y-80950000D02*
X63050000Y-83300000D01*
X68935000Y-94050000D02*
X68935000Y-89065000D01*
X65700000Y-88645779D02*
X65700000Y-88900000D01*
X69100000Y-88900000D02*
X65700000Y-88900000D01*
%TO.N,/SW4*%
X55630600Y-73699999D02*
X48350001Y-73699999D01*
X44500000Y-77550000D02*
X44500000Y-91300000D01*
X44500000Y-91300000D02*
X44500000Y-91450000D01*
X45800000Y-90000000D02*
X48700000Y-90000000D01*
X47100000Y-94050000D02*
X47100000Y-98550000D01*
X48350001Y-73699999D02*
X44500000Y-77550000D01*
X44500000Y-91450000D02*
X47100000Y-94050000D01*
X44500000Y-91300000D02*
X45800000Y-90000000D01*
%TO.N,/SW5*%
X59550000Y-74931200D02*
X59550000Y-78950000D01*
X60700000Y-109975000D02*
X60975000Y-109975000D01*
X60500000Y-109900000D02*
X60400000Y-109800000D01*
X61000000Y-110000000D02*
X64700000Y-110000000D01*
X61269400Y-74350000D02*
X60131200Y-74350000D01*
X70062500Y-104637500D02*
X64700000Y-110000000D01*
X59550000Y-78950000D02*
X60300000Y-79700000D01*
X60300000Y-109575000D02*
X60700000Y-109975000D01*
X60300000Y-107500000D02*
X60300000Y-109575000D01*
X62500000Y-79700000D02*
X70062500Y-87262500D01*
X60950000Y-74400000D02*
X61000000Y-74350000D01*
X60975000Y-109975000D02*
X61000000Y-110000000D01*
X61000000Y-74350000D02*
X61900000Y-74350000D01*
X70062500Y-87262500D02*
X70062500Y-104637500D01*
X60300000Y-107500000D02*
X55800000Y-107500000D01*
X60131200Y-74350000D02*
X59550000Y-74931200D01*
X60300000Y-79700000D02*
X62500000Y-79700000D01*
%TO.N,/TIM4_CH1*%
X89800000Y-65300000D02*
X90828120Y-65300000D01*
X94050000Y-68521880D02*
X94050000Y-68700000D01*
X102850000Y-77500000D02*
X105150000Y-77500000D01*
X86450000Y-62200000D02*
X87600000Y-62200000D01*
X105150000Y-77500000D02*
X109300000Y-81650000D01*
X90828120Y-65300000D02*
X94050000Y-68521880D01*
X89810050Y-62210050D02*
X89800000Y-62200000D01*
X109300000Y-81650000D02*
X110169400Y-81650000D01*
X89800000Y-62200000D02*
X89800000Y-65300000D01*
X83675000Y-64025000D02*
X84625000Y-64025000D01*
X94050000Y-68700000D02*
X102850000Y-77500000D01*
X84625000Y-64025000D02*
X86450000Y-62200000D01*
%TO.N,/ENC1_A*%
X118575000Y-82300000D02*
X110800000Y-82300000D01*
X122575000Y-86300000D02*
X118575000Y-82300000D01*
X124500000Y-90125000D02*
X122575000Y-88200000D01*
X125350000Y-93950000D02*
X125350000Y-91450000D01*
X124500000Y-90600000D02*
X124500000Y-90125000D01*
X125350000Y-91450000D02*
X124500000Y-90600000D01*
X122575000Y-88200000D02*
X122575000Y-86300000D01*
%TO.N,/ENC1_C*%
X130800000Y-90800000D02*
X130800000Y-90600000D01*
X130350000Y-91250000D02*
X130800000Y-90800000D01*
X130800000Y-90600000D02*
X131850000Y-89550000D01*
X124850000Y-81000000D02*
X110800000Y-81000000D01*
X130350000Y-93950000D02*
X130350000Y-91250000D01*
X131850000Y-88000000D02*
X124850000Y-81000000D01*
X131850000Y-89550000D02*
X131850000Y-88000000D01*
%TO.N,/RFM_G0*%
X109390000Y-57060000D02*
X120199950Y-57060000D01*
X95025000Y-62525000D02*
X103925000Y-62525000D01*
X123850000Y-60710050D02*
X123850000Y-70090000D01*
X103925000Y-62525000D02*
X109390000Y-57060000D01*
X123850000Y-70090000D02*
X117900000Y-76040000D01*
X120199950Y-57060000D02*
X123850000Y-60710050D01*
%TO.N,/RFM_nRST*%
X96375000Y-63025000D02*
X96550000Y-63200000D01*
X106550000Y-61450000D02*
X115750000Y-61450000D01*
X120300000Y-62850000D02*
X120350000Y-62850000D01*
X119500000Y-62050000D02*
X120300000Y-62850000D01*
X95025000Y-63025000D02*
X96375000Y-63025000D01*
X104800000Y-63200000D02*
X106550000Y-61450000D01*
X115750000Y-61450000D02*
X116350000Y-62050000D01*
X120350000Y-71050000D02*
X117900000Y-73500000D01*
X96550000Y-63200000D02*
X104800000Y-63200000D01*
X120350000Y-62850000D02*
X120350000Y-71050000D01*
X116350000Y-62050000D02*
X119500000Y-62050000D01*
%TO.N,/ST7735_DC*%
X55450000Y-48950000D02*
X55450000Y-50450000D01*
X51200000Y-46600000D02*
X53100000Y-46600000D01*
X49850000Y-45250000D02*
X51200000Y-46600000D01*
X82175000Y-63025000D02*
X83675000Y-63025000D01*
X81950000Y-63250000D02*
X82175000Y-63025000D01*
X68250000Y-63250000D02*
X81950000Y-63250000D01*
X49850000Y-42975000D02*
X49850000Y-45250000D01*
X55450000Y-50450000D02*
X68250000Y-63250000D01*
X53100000Y-46600000D02*
X55450000Y-48950000D01*
%TO.N,/ST7735_nRST*%
X52390000Y-44640000D02*
X52390000Y-42975000D01*
X82550000Y-62300000D02*
X70050000Y-62300000D01*
X83675000Y-62025000D02*
X82796880Y-62025000D01*
X70050000Y-62300000D02*
X52390000Y-44640000D01*
X82550000Y-62271880D02*
X82550000Y-62300000D01*
X82796880Y-62025000D02*
X82550000Y-62271880D01*
%TO.N,/ENC2_A*%
X106012500Y-88000000D02*
X106012500Y-81993700D01*
X106012500Y-88787500D02*
X104200000Y-90600000D01*
X106100000Y-88087500D02*
X106012500Y-88000000D01*
X105668800Y-81650000D02*
X104530600Y-81650000D01*
X104750000Y-81650000D02*
X103900000Y-81650000D01*
X106012500Y-88000000D02*
X106012500Y-88787500D01*
X106012500Y-81993700D02*
X105668800Y-81650000D01*
X104200000Y-92600000D02*
X104200000Y-90600000D01*
X105900000Y-94300000D02*
X104200000Y-92600000D01*
X108100000Y-94300000D02*
X105900000Y-94300000D01*
%TO.N,/ENC2_C*%
X105275000Y-80350000D02*
X103900000Y-80350000D01*
X105668800Y-80350000D02*
X108150000Y-82831200D01*
X113100000Y-94300000D02*
X113100000Y-92500000D01*
X113100000Y-92500000D02*
X111200000Y-90600000D01*
X113025000Y-88100000D02*
X111200000Y-89925000D01*
X111200000Y-89925000D02*
X111200000Y-90600000D01*
X104530600Y-80350000D02*
X105668800Y-80350000D01*
X113025000Y-87325000D02*
X113025000Y-88100000D01*
X110550000Y-85900000D02*
X111600000Y-85900000D01*
X108150000Y-82831200D02*
X108150000Y-83500000D01*
X111600000Y-85900000D02*
X113025000Y-87325000D01*
X108150000Y-83500000D02*
X110550000Y-85900000D01*
%TO.N,/ENC1_SW*%
X134025000Y-113250000D02*
X135000000Y-113250000D01*
X136750000Y-90257044D02*
X126192956Y-79700000D01*
X126192956Y-79700000D02*
X110800000Y-79700000D01*
X130150000Y-113250000D02*
X134025000Y-113250000D01*
X125350000Y-108450000D02*
X130150000Y-113250000D01*
X135000000Y-113250000D02*
X136825000Y-111425000D01*
X136825000Y-111425000D02*
X136750000Y-111350000D01*
X136750000Y-111350000D02*
X136750000Y-90257044D01*
%TO.N,/ENC2_SW*%
X104750000Y-79050000D02*
X103900000Y-79050000D01*
X118950000Y-85350000D02*
X116650000Y-83050000D01*
X116650000Y-111250000D02*
X118950000Y-111250000D01*
X108900000Y-82281200D02*
X105668800Y-79050000D01*
X118950000Y-111250000D02*
X118950000Y-85350000D01*
X110550000Y-111250000D02*
X116650000Y-111250000D01*
X105668800Y-79050000D02*
X104530600Y-79050000D01*
X108900000Y-83050000D02*
X108900000Y-82281200D01*
X108100000Y-108800000D02*
X110550000Y-111250000D01*
X116650000Y-83050000D02*
X108900000Y-83050000D01*
%TO.N,Net-(U5-3V3OUT)*%
X104130000Y-51447500D02*
X101100000Y-51447500D01*
X106300000Y-53352500D02*
X104765000Y-53352500D01*
X101100000Y-50812500D02*
X100835000Y-50812500D01*
X98600000Y-50500000D02*
X99547500Y-51447500D01*
X104700000Y-52017500D02*
X104130000Y-51447500D01*
X104765000Y-53352500D02*
X104700000Y-53417500D01*
X100200000Y-51447500D02*
X101100000Y-51447500D01*
X100835000Y-50812500D02*
X100200000Y-51447500D01*
X99547500Y-51447500D02*
X100200000Y-51447500D01*
%TO.N,Net-(U1-VCAP1)*%
X96900000Y-59900000D02*
X99550000Y-59900000D01*
X95025000Y-60525000D02*
X96275000Y-60525000D01*
X99550000Y-59900000D02*
X101050000Y-58400000D01*
X96275000Y-60525000D02*
X96900000Y-59900000D01*
%TO.N,Net-(J7-Pin_3)*%
X117864079Y-60835921D02*
X117900000Y-60800000D01*
D53*
X120880000Y-60750000D02*
X117950000Y-60750000D01*
X117950000Y-60750000D02*
X117900000Y-60800000D01*
D54*
%TO.N,Net-(U5-VCC)*%
X101100000Y-52082500D02*
X98295000Y-52082500D01*
X98295000Y-52082500D02*
X96300000Y-50087500D01*
%TD*%
M02*
