M48
; DRILL file {KiCad 8.0.6} date 2025-01-09T21:18:42+1100
; FORMAT={-:-/ absolute / metric / decimal}
; #@! TF.CreationDate,2025-01-09T21:18:42+11:00
; #@! TF.GenerationSoftware,Kicad,Pcbnew,8.0.6
; #@! TF.FileFunction,MixedPlating,1,2
FMAT,2
METRIC
; #@! TA.AperFunction,Plated,PTH,ViaDrill
T1C0.300
; #@! TA.AperFunction,Plated,PTH,ComponentDrill
T2C0.600
; #@! TA.AperFunction,Plated,PTH,ComponentDrill
T3C0.990
; #@! TA.AperFunction,Plated,PTH,ComponentDrill
T4C1.000
; #@! TA.AperFunction,Plated,PTH,ComponentDrill
T5C1.500
; #@! TA.AperFunction,NonPlated,NPTH,ComponentDrill
T6C2.700
%
G90
G05
T1
X43.7Y-84.9
X43.9Y-35.1
X45.5Y-84.9
X50.8Y-50.9
X55.65Y-78.75
X58.25Y-67.6
X59.7Y-68.7
X59.75Y-61.25
X63.8Y-45.0
X64.4Y-74.4
X64.4Y-76.1
X66.5Y-48.0
X68.2Y-48.0
X68.85Y-64.05
X68.85Y-67.35
X71.2Y-78.8
X81.5Y-54.6
X81.75Y-41.075
X82.1Y-47.2
X82.3Y-50.9
X82.3Y-52.6
X82.4Y-71.6
X82.65Y-69.15
X83.1Y-34.7
X83.99Y-68.26
X85.0Y-66.4
X87.0Y-59.1
X87.4Y-79.55
X87.6Y-62.2
X87.7Y-64.6
X89.6Y-37.6
X89.775Y-49.325
X89.8Y-62.2
X90.75Y-64.6
X91.0Y-37.6
X91.1Y-67.4
X91.375Y-50.9
X91.95Y-82.1
X92.3Y-59.5
X93.4Y-77.8
X93.7Y-53.175
X93.7Y-59.5
X93.9Y-56.4
X94.6Y-79.0
X95.3Y-38.6
X97.65Y-68.2
X98.2Y-57.55
X98.6Y-47.6
X99.7Y-52.782
X101.5Y-36.0
X104.7Y-52.017
X104.7Y-53.417
X106.45Y-63.2
X106.45Y-65.25
X107.6Y-52.0
X108.9Y-38.9
X109.25Y-97.05
X111.75Y-97.05
X112.0Y-78.3
X113.35Y-43.55
X115.9Y-58.25
X118.15Y-90.6
X119.75Y-90.6
X122.9Y-60.75
X124.75Y-60.75
X125.35Y-38.6
X127.4Y-50.85
X131.35Y-107.0
X135.85Y-90.8
X137.45Y-90.8
T3
X47.1Y-94.05
X47.1Y-98.55
X53.6Y-94.05
X53.6Y-98.55
X55.8Y-84.8
X55.8Y-91.3
X55.8Y-101.0
X55.8Y-107.5
X60.3Y-84.8
X60.3Y-91.3
X60.3Y-101.0
X60.3Y-107.5
X62.435Y-94.05
X62.435Y-98.55
X68.935Y-94.05
X68.935Y-98.55
X71.165Y-72.25
X71.165Y-76.75
X77.665Y-72.25
X77.665Y-76.75
T4
X44.77Y-42.975
X44.8Y-48.8
X44.83Y-38.27
X47.31Y-42.975
X47.34Y-48.8
X47.37Y-38.27
X49.85Y-42.975
X49.88Y-48.8
X52.39Y-42.975
X52.42Y-48.8
X54.93Y-42.975
X57.47Y-42.975
X60.01Y-42.975
X62.55Y-42.975
X69.32Y-54.6
X71.86Y-54.6
X74.4Y-54.6
X76.94Y-54.6
X78.535Y-35.2
X79.48Y-54.6
X81.075Y-35.2
X108.1Y-94.3
X108.1Y-108.8
X110.6Y-94.3
X113.1Y-94.3
X113.1Y-108.8
X117.9Y-55.72
X117.9Y-58.26
X117.9Y-60.8
X117.9Y-63.34
X117.9Y-65.88
X117.9Y-68.42
X117.9Y-70.96
X117.9Y-73.5
X117.9Y-76.04
X125.35Y-94.25
X125.35Y-108.75
X127.85Y-94.25
X130.35Y-94.25
X130.35Y-108.75
X143.3Y-55.72
X143.3Y-58.26
X143.3Y-60.8
X143.3Y-63.34
X143.3Y-65.88
X143.3Y-68.42
X143.3Y-70.96
X143.3Y-73.5
X143.3Y-76.04
T6
X36.5Y-36.5
X36.9Y-114.0
X144.0Y-114.0
X144.1Y-37.0
T2
G00X87.73Y-35.575
M15
G01X87.73Y-34.675
M16
G05
G00X87.73Y-39.375
M15
G01X87.73Y-38.875
M16
G05
G00X96.37Y-35.575
M15
G01X96.37Y-34.675
M16
G05
G00X96.37Y-39.375
M15
G01X96.37Y-38.875
M16
G05
T5
G00X105.0Y-101.15
M15
G01X105.0Y-102.45
M16
G05
G00X116.2Y-101.15
M15
G01X116.2Y-102.45
M16
G05
G00X122.25Y-101.1
M15
G01X122.25Y-102.4
M16
G05
G00X133.45Y-101.1
M15
G01X133.45Y-102.4
M16
G05
M30
